<?xml version="1.0" encoding="utf-8"?>
<!-- Generator: Adobe Illustrator 27.1.1, SVG Export Plug-In . SVG Version: 6.00 Build 0)  -->
<svg version="1.1" id="Layer_1" xmlns="http://www.w3.org/2000/svg" xmlns:xlink="http://www.w3.org/1999/xlink" x="0px" y="0px"
	 viewBox="0 0 750 500" style="enable-background:new 0 0 750 500;" xml:space="preserve">
<style type="text/css">
	.st0{fill:#F5F5F5;}
	.st1{fill:#EBEBEB;}
	.st2{fill:#E0E0E0;}
	.st3{fill:none;stroke:#FBFBFB;stroke-miterlimit:10;}
	.st4{fill:#263238;}
	.st5{fill:#FFBE9D;}
	.st6{fill:#EB996E;}
	.st7{fill:#E8505B;}
	.st8{opacity:0.6;}
	.st9{fill:#FFFFFF;}
	.st10{opacity:0.3;}
	.st11{fill:#455A64;}
	.st12{fill:none;}
	.st13{opacity:0.8;}
	.st14{opacity:0.7;}
	.st15{fill:#FAFAFA;}
</style>
<g id="Background_Complete">
	<g>
		<g>
			<path class="st0" d="M235.8,484.3c-0.7-13.6-1.5-25.7-9.6-36.6s-26-15.7-35.3-5.7c1.5-16.8-8.5-34.1-23.9-41.1
				c-15.4-7-35-3.2-46.7,9c-4-15.3-20.7-13.6-36.5-14.5c-15.8-1-33.4,20.8-39.1,47.9c0,0-9.6,40.3-8.5,40.7
				C37.5,484.3,235.8,484.3,235.8,484.3z"/>
		</g>
	</g>
	<g>
		<g>
			<path class="st1" d="M557.1,454c-7.9-9.8-23.2-14.7-33.5-7.4c-1.2-11.3-8.1-21.9-17.9-27.6c-9.9-5.7-22.5-6.3-32.8-1.7
				c1.5-18.9-12.9-37.7-31.6-41.1c-18.6-3.4-38.8,9.1-44,27.3c-26.6-3.4-54,16.6-58.9,42.9c-11.7-4.6-25.6-3.1-36,3.9
				c-10.4,7-18.2,21.5-18.4,34.1l284.1-0.3C566.6,471.8,565,463.8,557.1,454z"/>
		</g>
	</g>
	<g>
		<g>
			<g>
				<g>
					<g>
						<path class="st2" d="M436.8,14.5l-8.1,85.2c0,0-0.4,5.9-5.9,7.4s-11.3-22.3-11.3-22.3l-5.7,2.5l13.3,29.9l7.1,23.7l3.8,58.1
							l-9.3,285.3l30.9,0.1c0,0-3.3-271.6-2.5-283.3c0.7-11.8,24.8-46.3,24.8-46.3L473,147l-25.1,33.7l13.2-166.2L436.8,14.5z"/>
					</g>
				</g>
			</g>
			<g>
				<g>
					<g>
						<path class="st2" d="M44.5,14c0,0,17.4,101.2,22.7,114.8c5.2,13.6,10.5,29.3,10.5,29.3l37.5-67.4l6.2,3.3l-38.4,75.6
							c0,0,20.9,25.1,22,47.1c1,22,0,58.7,0,58.7l18.6,209.1H93.4V276.4c0,0,6.3-53.4,3.1-62.8s-20.9-39.8-20.9-39.8
							S56.5,149.7,54,125.6C51.5,101.5,36.4,14,36.4,14H44.5z"/>
					</g>
				</g>
			</g>
			<g>
				<g>
					<g>
						<path class="st1" d="M282,14.6c0,0-23.8,52.8-27.3,81.4l-15.1-39.8c-5.3,4,10.6,56.8,10.6,56.8s-12,59-11.8,89.4
							c0.2,30.4-0.1,151.1-0.1,151.1l-28.8,131.2l32.6,0.1c0,0,14.1-112.5,13.3-124.1c-0.9-11.6-0.8-160.9-0.8-160.9
							s6.3-70.6,11.6-91.2c5.3-20.6,37.8-93.9,37.8-93.9L282,14.6z"/>
					</g>
				</g>
			</g>
			<g>
				<g>
					<g>
						<path class="st1" d="M682.8,14.3c0,0-20.4,51.8-22.5,80.4L643.2,56c-5.1,4.3,13.6,55.8,13.6,55.8s-8.9,59.2-7.1,89.4
							c1.8,30.2,7.9,150,7.9,150L635.8,483l32.6-1.6c0,0,8.2-112.5,6.7-124c-1.5-11.5-9.3-159.8-9.3-159.8s2.5-70.5,6.8-91.2
							c4.3-20.7,31.2-92.2,31.2-92.2L682.8,14.3L682.8,14.3z"/>
					</g>
				</g>
			</g>
			<g>
				<g>
					<g>
						<path class="st0" d="M136.3,135.9c-11.7,2.6-20.9,13.7-21.4,25.7c11.9-1.4,21.9-12.8,21.7-24.8"/>
					</g>
				</g>
			</g>
			<g>
				<g>
					<g>
						<path class="st2" d="M561.6,40.9c2.1,7.5,9.6,13.2,17.4,13c-1.3-7.7-9-13.8-16.8-13.3"/>
					</g>
				</g>
			</g>
			<g>
				<g>
					<g>
						<path class="st0" d="M587.2,104.6c6.6,5.3,16.8,5.5,23.6,0.4c-6.1-5.9-16.7-6.4-23.2-0.9"/>
					</g>
				</g>
			</g>
			<g>
				<g>
					<g>
						<path class="st2" d="M221.2,185.5c-0.8,6.6,3.4,13.5,9.6,16c1.4-6.6-2.7-13.9-9.1-16"/>
					</g>
				</g>
			</g>
			<g>
				<g>
					<g>
						<path class="st2" d="M151.8,176.2c-0.8,6.6,3.4,13.5,9.6,16c1.4-6.6-2.7-13.9-9.1-16"/>
					</g>
				</g>
			</g>
			<g>
				<g>
					<g>
						<path class="st2" d="M396.1,47.3c-3.2,5.8-2,13.8,2.9,18.4c3.8-5.5,2.7-13.9-2.4-18.2"/>
					</g>
				</g>
			</g>
		</g>
	</g>
	<g>
		<g>
			<g>
				<path class="st2" d="M368.9,105.9c-23.3,0-42.2-18.9-42.2-42.2c0-9.9,3.4-18.9,9-26.1c-8.2,7.7-13.4,18.6-13.4,30.8
					c0,23.3,18.9,42.2,42.2,42.2c13.4,0,25.4-6.3,33.1-16.1C390.2,101.6,380.1,105.9,368.9,105.9z"/>
			</g>
		</g>
		<g>
			<g>
				<path class="st2" d="M223.2,69.4l3.5,1.3l-3.4,1.3c-1,0.4-1.8,1.2-2.1,2.2l-1.1,3.2l-1.1-3.2c-0.3-1-1.1-1.9-2.2-2.2l-3.4-1.2
					l3.4-1.2c1-0.4,1.8-1.2,2.2-2.2L220,64l1,3.1C221.3,68.2,222.1,69,223.2,69.4z"/>
			</g>
		</g>
		<g>
			<g>
				<path class="st2" d="M496.7,107.8l3.5,1.3l-3.4,1.3c-1,0.4-1.8,1.2-2.1,2.2l-1.1,3.2l-1.1-3.2c-0.3-1-1.1-1.9-2.2-2.2l-3.4-1.2
					l3.4-1.2c1-0.4,1.8-1.2,2.2-2.2l1.1-3.2l1,3.1C494.9,106.6,495.6,107.4,496.7,107.8z"/>
			</g>
		</g>
		<g>
			<g>
				<path class="st2" d="M509.5,72.9l1.7,0.7l-1.7,0.6c-0.5,0.2-0.9,0.6-1.1,1.1l-0.6,1.6l-0.5-1.6c-0.2-0.5-0.6-0.9-1.1-1.1
					l-1.7-0.6l1.7-0.6c0.5-0.2,0.9-0.6,1.1-1.1l0.6-1.6l0.5,1.5C508.5,72.3,508.9,72.7,509.5,72.9z"/>
			</g>
		</g>
		<g>
			<g>
				<path class="st2" d="M201.1,108.3l1.7,0.7l-1.7,0.6c-0.5,0.2-0.9,0.6-1.1,1.1l-0.6,1.6l-0.5-1.6c-0.2-0.5-0.6-0.9-1.1-1.1
					l-1.7-0.6l1.7-0.6c0.5-0.2,0.9-0.6,1.1-1.1l0.6-1.6l0.5,1.5C200.2,107.7,200.6,108.1,201.1,108.3z"/>
			</g>
		</g>
		<g>
			<g>
				<path class="st2" d="M363.1,53.3l1.7,0.7l-1.7,0.6c-0.5,0.2-0.9,0.6-1.1,1.1l-0.6,1.6l-0.5-1.6c-0.2-0.5-0.6-0.9-1.1-1.1
					l-1.7-0.6l1.7-0.6c0.5-0.2,0.9-0.6,1.1-1.1l0.6-1.6l0.5,1.5C362.2,52.7,362.6,53.1,363.1,53.3z"/>
			</g>
		</g>
	</g>
	<g>
		<g>
			<g>
				<path class="st3" d="M512.9,442"/>
			</g>
		</g>
	</g>
</g>
<g id="Background_Simple">
	<path class="st0" d="M306.8,67.5l-0.9,1.3c-7.8,11.4-8.9,26.1-2.5,38.1c0.8,1.5,1.8,3,2.8,4.5c7.5,10.2,20.5,16.1,33.3,15.2
		c7.5-0.5,15.2-3.2,22.4-1c9.3,2.9,14.1,12.8,17.8,21.8s8.5,18.9,17.9,21.7c5.8,1.8,12.3,0.3,17.8-2.6c14.4-7.5,23-23.8,23.6-39.9
		s-5.8-31.8-15.2-44.8c-13.2-18.3-33-32.3-55.4-36C345.9,42.2,321.2,49.9,306.8,67.5z"/>
	<ellipse class="st0" cx="395.7" cy="210.6" rx="14.4" ry="14.4"/>
	<path class="st0" d="M210.8,116.6c-41.2-4.1-56.9,15.4-76.9,42.4S105,220,105,253.6c0,21.9,4,44.5,16.6,62.4
		c13.9,19.7,37.4,31.5,61.3,33.8c21.4,2.1,45.9-4.8,55.5-24c8.9-17.7,2.1-39.3-7.7-56.5c-7.5-13.1-17-26.6-15.3-41.6
		c2.3-19.3,22.1-31.4,30.4-49c6.2-13.2,5.2-29.5-2.6-41.9c-7.8-12.3-22.1-20.3-36.7-20.4"/>
	<circle class="st0" cx="253.9" cy="92.9" r="19.6"/>
</g>
<g id="Character">
	<g>
		<g>
			<g>
				<g>
					<g>
						<g>
							<g>
								<path class="st4" d="M307.9,169.1c2.7-2.4,2.7-6.2,1.8-9.3c2.8-2,4.5-6.4,1.2-8.8c5.2-3.3,0-10.5-5.3-8.6
									c1.9-5.6-8.4-7.4-10.6-3.1c-2.3-4.6-9.7-0.8-10,3.5c-2-1.3-5.8-1.5-6.3,1.5c-1.6-2.3-7.6-1.5-6.8,1.9c-4.1-1-6,5.1-2.2,6.7
									c-2.7,1.9-2.2,6.3,0.7,7.6c-1.8,0.8-0.1,3,1.5,2.7c0.7,5.3-1.9,13.8,4.2,16.5"/>
							</g>
						</g>
					</g>
				</g>
				<g>
					<g>
						<g>
							<path class="st5" d="M275.8,198.8l7.1,9.8l10,10.4l6.1-8.1c0.1-3.8,0.3-11.5,0.4-15.2c13.2-1.2,9.5-18.5,9.3-32.1
								c-0.4-9.2-8.1-16.5-17.3-16.4c-9.6,0.2-14.8,8.4-14.3,18l-1.3,30.6"/>
						</g>
					</g>
				</g>
				<g>
					<g>
						<g>
							<path class="st6" d="M299.3,195.7c0,0-5.8,0.2-11.8-3.9c0,0,2.6,6.7,11.8,6.2L299.3,195.7z"/>
						</g>
					</g>
				</g>
				<g>
					<g>
						<g>
							<g>
								<g>
									<g>
										<path class="st4" d="M305.9,171c0,1.6-2.6,1.7-2.6,0C303.3,169.4,305.9,169.3,305.9,171z"/>
									</g>
								</g>
							</g>
						</g>
					</g>
				</g>
				<g>
					<g>
						<g>
							<g>
								<g>
									<g>
										<g>
											<path class="st4" d="M306.6,167.5c-1.5-0.7-3.6-0.8-5.2-0.2C302,165.6,306.3,165.7,306.6,167.5z"/>
										</g>
									</g>
								</g>
							</g>
						</g>
					</g>
				</g>
				<g>
					<g>
						<g>
							<g>
								<g>
									<g>
										<path class="st4" d="M292.7,170.1c0,1.6-2.6,1.7-2.6,0C290,168.5,292.7,168.5,292.7,170.1z"/>
									</g>
								</g>
							</g>
						</g>
					</g>
				</g>
				<g>
					<g>
						<g>
							<g>
								<g>
									<g>
										<g>
											<path class="st4" d="M292.6,166.6c-1.6-0.5-3.7-0.4-5.2,0.3C287.8,165.2,292.1,164.8,292.6,166.6z"/>
										</g>
									</g>
								</g>
							</g>
						</g>
					</g>
				</g>
				<g>
					<g>
						<g>
							<g>
								<g>
									<g>
										<path class="st4" d="M297.3,178.4c-0.4-0.2,2.6-0.1,3.1-0.6c-0.4-2.5-3.7-11.1-3.3-11.1c0.2-0.1,1.4,3.1,2.7,7.1
											c0.3,1.5,1.3,2.7,1,4.2C300.5,178.9,297.2,178.4,297.3,178.4z"/>
									</g>
								</g>
							</g>
						</g>
					</g>
				</g>
				<g>
					<g>
						<path class="st4" d="M293.2,161.6c-0.1,0.2-6.3,0.7-6.4,0.5C287.3,160.2,292.4,159.8,293.2,161.6z"/>
					</g>
				</g>
				<g>
					<g>
						<path class="st4" d="M306.6,161.3c-0.4,0.2-4.4-0.1-4.8-0.3C302,159.1,306.7,159.5,306.6,161.3z"/>
					</g>
				</g>
				<g>
					<g>
						<g>
							<g>
								<path class="st4" d="M307.1,147.7l-0.6-0.3c2.2-6-6.9-8.3-9.3-3c-1-2-3.6-3.1-5.7-2.5c-2.3,0.4-3.4,3.2-5.5,4
									c-6.9-7.5-18.8,5.7-11.6,10.5c-2.2,2.7-1,7,2.2,8.2c2.5,7.8,13.5,1.2,7.9-4.7c3.1,1.5,7-0.7,7.4-4.1
									c1.9,2.9,10.5,3.1,8.2-1.7C304,156.2,308.8,151.9,307.1,147.7z"/>
							</g>
						</g>
						<g>
							<g>
								<g>
									<g>
										<path class="st4" d="M280.8,166.7c0.2,2.5,0.2,11.5-4,7.8c-1.5-3.5-0.8-7.6-0.9-11.2"/>
									</g>
								</g>
							</g>
						</g>
					</g>
				</g>
				<g>
					<g>
						<g>
							<g>
								<g>
									<g>
										<g>
											<g>
												<g>
													<g>
														<g>
															<g>
																<g>
																	<g>
																		<g>
																			<g>
																				<g>
																					<path class="st5" d="M277.5,172c-8.9-3.1-7.8,11.7,0,9C277.5,180.8,277.5,172,277.5,172z"/>
																				</g>
																			</g>
																		</g>
																	</g>
																</g>
															</g>
														</g>
													</g>
												</g>
											</g>
										</g>
									</g>
								</g>
							</g>
						</g>
					</g>
					<g>
						<g>
							<g>
								<g>
									<g>
										<g>
											<g>
												<g>
													<g>
														<g>
															<g>
																<g>
																	<g>
																		<g>
																			<g>
																				<g>
																					<g>
																						<path class="st6" d="M275.6,178.6c-2.7,1.8-3.2-5.9-0.6-4.4c0.3,0.9,0.3-0.8-0.7-0.6
																							C271.5,174.2,273.2,181,275.6,178.6z"/>
																					</g>
																				</g>
																			</g>
																		</g>
																	</g>
																</g>
															</g>
														</g>
													</g>
												</g>
											</g>
										</g>
									</g>
								</g>
							</g>
						</g>
					</g>
				</g>
			</g>
			<g>
				<g>
					<g>
						<g>
							<g>
								<g>
									<g>
										<g>
											<g>
												<g>
													<g>
														<g>
															<path class="st7" d="M271.9,454.6l0.4,18.9c0,0-19.1,6.8-19.3,10.3l36.7,0.5l0.5-29.5L271.9,454.6z"/>
														</g>
													</g>
												</g>
											</g>
										</g>
									</g>
								</g>
								<g class="st8">
									<g>
										<g>
											<g>
												<g>
													<g>
														<g>
															<g>
																<path class="st9" d="M283.7,472.1c0.7,0.2,1.2,1,1,1.7s-1,1.2-1.7,1c-0.7-0.2-1.3-1.1-1.1-1.8
																	c0.3-0.7,1.2-1.2,1.9-0.9"/>
															</g>
														</g>
													</g>
												</g>
											</g>
										</g>
									</g>
								</g>
								<g class="st8">
									<g>
										<g>
											<g>
												<g>
													<g>
														<g>
															<path class="st9" d="M289.7,484.3l-0.1-3l-35.1,0.7c0,0-1.6,0.7-1.5,1.8L289.7,484.3z"/>
														</g>
													</g>
												</g>
											</g>
										</g>
									</g>
								</g>
								<g>
									<g>
										<g>
											<g>
												<g>
													<g>
														<g>
															<g>
																<path class="st4" d="M271.7,473.3c0,0.2,0.9,0.3,1.8,0.9c0.9,0.6,1.3,1.3,1.5,1.3c0.2,0-0.1-1.1-1.2-1.8
																	C272.8,473,271.7,473.2,271.7,473.3z"/>
															</g>
														</g>
													</g>
												</g>
											</g>
										</g>
									</g>
								</g>
								<g>
									<g>
										<g>
											<g>
												<g>
													<g>
														<g>
															<g>
																<path class="st4" d="M267.9,474.9c0,0.2,0.7,0.5,1.3,1.3c0.6,0.7,0.8,1.6,0.9,1.6c0.2,0,0.3-1-0.5-2
																	C268.9,474.8,267.9,474.7,267.9,474.9z"/>
															</g>
														</g>
													</g>
												</g>
											</g>
										</g>
									</g>
								</g>
								<g>
									<g>
										<g>
											<g>
												<g>
													<g>
														<g>
															<g>
																<path class="st4" d="M265.6,479.4c0.2,0,0.4-0.9,0-1.8c-0.4-1-1.3-1.4-1.4-1.2c-0.1,0.1,0.4,0.7,0.8,1.5
																	C265.4,478.7,265.4,479.4,265.6,479.4z"/>
															</g>
														</g>
													</g>
												</g>
											</g>
										</g>
									</g>
								</g>
								<g>
									<g>
										<g>
											<g>
												<g>
													<g>
														<g>
															<g>
																<path class="st4" d="M272.1,469c0.1,0.2,0.9-0.1,1.9,0c1,0.1,1.8,0.4,1.9,0.3c0.1-0.1-0.7-0.8-1.8-0.9
																	C272.9,468.3,272,468.9,272.1,469z"/>
															</g>
														</g>
													</g>
												</g>
											</g>
										</g>
									</g>
								</g>
							</g>
							<g class="st10">
								<g>
									<g>
										<g>
											<g>
												<g>
													<g>
														<polygon points="272,458.4 272,461.7 290.1,461.8 290.1,457.9 														"/>
													</g>
												</g>
											</g>
										</g>
									</g>
								</g>
							</g>
							<g>
								<g>
									<g>
										<g>
											<g>
												<g>
													<g>
														<g>
															<path class="st4" d="M272.1,465.2c0,0.1,0.7,0.2,1.8,0c0.6-0.1,1.2-0.3,1.9-0.6c0.3-0.1,0.7-0.3,1.1-0.5
																c0.2-0.1,0.4-0.2,0.6-0.4c0.2-0.2,0.3-0.7,0.1-1c-0.2-0.3-0.5-0.4-0.8-0.4c-0.3,0-0.5,0-0.7,0.1
																c-0.4,0.1-0.8,0.2-1.1,0.4c-0.7,0.3-1.3,0.7-1.7,1.1c-0.9,0.8-1.2,1.4-1.1,1.5c0.1,0.1,0.5-0.5,1.4-1.1
																c0.4-0.3,1-0.6,1.6-0.9c0.3-0.1,0.7-0.2,1.1-0.3c0.4-0.1,0.7-0.1,0.8,0.1c0,0.1,0,0.1,0,0.2
																c-0.1,0.1-0.2,0.2-0.4,0.3c-0.3,0.2-0.7,0.4-1,0.5c-0.6,0.3-1.3,0.5-1.8,0.7C272.8,465.1,272.1,465.1,272.1,465.2z"
																/>
														</g>
													</g>
												</g>
											</g>
										</g>
									</g>
								</g>
							</g>
							<g>
								<g>
									<g>
										<g>
											<g>
												<g>
													<g>
														<g>
															<path class="st4" d="M272.3,465.5c0.1,0,0.4-0.6,0.5-1.8c0-0.6,0-1.3-0.2-2c-0.1-0.4-0.3-0.7-0.5-1.1
																c-0.2-0.4-0.5-0.9-1.2-0.9c-0.4,0-0.7,0.3-0.8,0.5c-0.1,0.2-0.2,0.5-0.2,0.7c-0.1,0.4-0.1,0.8,0,1.2
																c0.1,0.8,0.4,1.4,0.8,1.9c0.7,1,1.4,1.2,1.5,1.1c0.1-0.1-0.6-0.4-1.1-1.4c-0.3-0.5-0.5-1-0.6-1.7c0-0.3,0-0.7,0-1.1
																c0.1-0.4,0.2-0.7,0.4-0.7c0.2,0,0.5,0.3,0.6,0.6c0.2,0.3,0.3,0.7,0.4,1c0.2,0.7,0.3,1.3,0.3,1.8
																C272.4,464.8,272.2,465.4,272.3,465.5z"/>
														</g>
													</g>
												</g>
											</g>
										</g>
									</g>
								</g>
							</g>
						</g>
						<g>
							<g>
								<g>
									<g>
										<g>
											<g>
												<g>
													<g>
														<g>
															<path class="st7" d="M336.2,454.8l-0.7,18.9c0,0,19,7.1,19.2,10.6l-36.7-0.1l-0.1-29.5L336.2,454.8z"/>
														</g>
													</g>
												</g>
											</g>
										</g>
									</g>
								</g>
								<g class="st8">
									<g>
										<g>
											<g>
												<g>
													<g>
														<g>
															<g>
																<path class="st9" d="M324.1,472c-0.7,0.2-1.2,1-1,1.7c0.2,0.7,1,1.2,1.7,1s1.3-1.1,1.1-1.8
																	c-0.2-0.7-1.2-1.2-1.9-0.9"/>
															</g>
														</g>
													</g>
												</g>
											</g>
										</g>
									</g>
								</g>
								<g class="st8">
									<g>
										<g>
											<g>
												<g>
													<g>
														<g>
															<path class="st9" d="M318,484.2l0.1-3l35.1,1.2c0,0,1.6,0.7,1.4,1.9L318,484.2z"/>
														</g>
													</g>
												</g>
											</g>
										</g>
									</g>
								</g>
								<g>
									<g>
										<g>
											<g>
												<g>
													<g>
														<g>
															<g>
																<path class="st4" d="M336.1,473.5c0,0.2-0.9,0.3-1.8,0.8c-0.9,0.6-1.4,1.3-1.5,1.3c-0.2,0,0.1-1.1,1.2-1.8
																	C335,473.1,336.1,473.3,336.1,473.5z"/>
															</g>
														</g>
													</g>
												</g>
											</g>
										</g>
									</g>
								</g>
								<g>
									<g>
										<g>
											<g>
												<g>
													<g>
														<g>
															<g>
																<path class="st4" d="M339.9,475.1c0,0.2-0.7,0.5-1.3,1.2c-0.6,0.7-0.8,1.6-1,1.5c-0.2,0-0.3-1,0.5-1.9
																	C338.8,475,339.9,474.9,339.9,475.1z"/>
															</g>
														</g>
													</g>
												</g>
											</g>
										</g>
									</g>
								</g>
								<g>
									<g>
										<g>
											<g>
												<g>
													<g>
														<g>
															<g>
																<path class="st4" d="M342.1,479.7c-0.2,0-0.4-0.9,0.1-1.8c0.5-1,1.3-1.4,1.4-1.2c0.1,0.1-0.4,0.7-0.8,1.5
																	C342.3,478.9,342.3,479.7,342.1,479.7z"/>
															</g>
														</g>
													</g>
												</g>
											</g>
										</g>
									</g>
								</g>
								<g>
									<g>
										<g>
											<g>
												<g>
													<g>
														<g>
															<g>
																<path class="st4" d="M335.7,469.1c-0.1,0.2-0.9-0.1-1.9,0c-1,0-1.8,0.4-1.9,0.2c-0.1-0.1,0.7-0.8,1.9-0.9
																	C335,468.4,335.8,469,335.7,469.1z"/>
															</g>
														</g>
													</g>
												</g>
											</g>
										</g>
									</g>
								</g>
							</g>
							<g class="st10">
								<g>
									<g>
										<g>
											<g>
												<g>
													<g>
														<polygon points="336,458.5 335.9,461.9 317.9,461.7 317.9,457.8 														"/>
													</g>
												</g>
											</g>
										</g>
									</g>
								</g>
							</g>
							<g>
								<g>
									<g>
										<g>
											<g>
												<g>
													<g>
														<g>
															<path class="st4" d="M335.8,465.3c0,0.1-0.7,0.2-1.8,0c-0.6-0.1-1.2-0.3-1.9-0.6c-0.3-0.2-0.7-0.3-1.1-0.6
																c-0.2-0.1-0.4-0.2-0.6-0.4c-0.2-0.2-0.3-0.7-0.1-1c0.2-0.3,0.5-0.4,0.8-0.4c0.3,0,0.5,0,0.7,0.1
																c0.4,0.1,0.8,0.2,1.1,0.4c0.7,0.3,1.3,0.7,1.7,1.1c0.8,0.8,1.1,1.5,1.1,1.5c-0.1,0.1-0.5-0.5-1.4-1.2
																c-0.4-0.3-1-0.7-1.6-0.9c-0.3-0.1-0.7-0.2-1.1-0.3c-0.4-0.1-0.7-0.1-0.8,0.1c0,0.1,0,0.1,0,0.2
																c0.1,0.1,0.2,0.2,0.4,0.3c0.3,0.2,0.6,0.4,1,0.6c0.6,0.3,1.2,0.5,1.8,0.7C335.1,465.2,335.8,465.2,335.8,465.3z"/>
														</g>
													</g>
												</g>
											</g>
										</g>
									</g>
								</g>
							</g>
							<g>
								<g>
									<g>
										<g>
											<g>
												<g>
													<g>
														<g>
															<path class="st4" d="M335.6,465.6c-0.1,0-0.4-0.6-0.5-1.8c0-0.6,0-1.3,0.3-2c0.1-0.4,0.3-0.7,0.5-1.1
																c0.2-0.4,0.5-0.8,1.2-0.9c0.4,0,0.7,0.3,0.8,0.5c0.1,0.2,0.1,0.5,0.2,0.7c0.1,0.4,0.1,0.8,0,1.2
																c-0.1,0.8-0.4,1.4-0.8,1.9c-0.7,0.9-1.5,1.2-1.5,1.1c-0.1-0.1,0.6-0.4,1.1-1.3c0.3-0.5,0.5-1,0.6-1.7
																c0-0.3,0-0.7,0-1.1c-0.1-0.4-0.2-0.7-0.3-0.7c-0.2,0-0.5,0.3-0.6,0.6c-0.2,0.3-0.3,0.7-0.5,1
																c-0.2,0.7-0.3,1.3-0.4,1.8C335.5,464.9,335.7,465.6,335.6,465.6z"/>
														</g>
													</g>
												</g>
											</g>
										</g>
									</g>
								</g>
							</g>
						</g>
						<g>
							<g>
								<g>
									<g>
										<g>
											<g>
												<g>
													<polygon class="st4" points="323.1,297.7 340.4,472.1 318,473.2 291.3,330 291.7,472.3 267.9,472 258.7,295.8 
																											"/>
												</g>
											</g>
										</g>
									</g>
								</g>
							</g>
						</g>
					</g>
				</g>
				<g>
					<g>
						<g>
							<path class="st11" d="M273.4,310.1c0,0-0.2,0.8-1,1.8c-0.7,1-2,2.3-3.7,3.3c-1.7,1-3.5,1.4-4.7,1.5c-1.3,0.1-2.1-0.1-2.1-0.1
								c0-0.1,0.8-0.1,2-0.3c1.2-0.2,2.9-0.6,4.5-1.6c1.6-0.9,2.9-2.1,3.7-3.1C272.9,310.8,273.3,310.1,273.4,310.1z"/>
						</g>
					</g>
				</g>
				<g>
					<g>
						<g>
							<path class="st11" d="M324.9,312.1c0,0-0.8,0.5-2.2,0.9c-1.4,0.4-3.5,0.7-5.7,0.4c-2.2-0.3-4.2-1-5.4-1.8
								c-1.3-0.7-1.9-1.4-1.9-1.4c0.1-0.1,0.8,0.4,2.1,1.1c1.3,0.6,3.2,1.3,5.3,1.6c2.2,0.3,4.2,0.1,5.6-0.2
								C324.1,312.3,324.9,312,324.9,312.1z"/>
						</g>
					</g>
				</g>
				<g>
					<g>
						<g>
							<path class="st11" d="M295.3,325.3c0,0-0.1,0.3-0.6,0.5c-0.5,0.2-1.3,0.2-2-0.3c-0.8-0.5-1.2-1.5-1.5-2.6
								c-0.3-1.1-0.6-2.2-0.9-3.5c-0.6-2.5-1.1-4.7-1.5-6.3c-0.4-1.6-0.5-2.6-0.5-2.7s0.4,1,0.8,2.6c0.4,1.6,1,3.8,1.6,6.3
								c0.3,1.2,0.6,2.4,0.8,3.5c0.2,1,0.6,2,1.2,2.4c0.6,0.5,1.3,0.5,1.7,0.4C295.1,325.5,295.3,325.3,295.3,325.3z"/>
						</g>
					</g>
				</g>
				<g>
					<g>
						<g>
							<path class="st11" d="M292.9,310.4c0,0,0.1-0.1,0.3-0.1c0.2,0,0.6,0.1,0.9,0.4c0.3,0.3,0.6,0.8,0.6,1.4
								c0,0.6-0.6,1.2-1.3,1.3c-0.7,0.2-1.4-0.1-1.7-0.7c-0.3-0.5-0.2-1.1-0.1-1.5c0.2-0.4,0.5-0.6,0.7-0.7c0.2-0.1,0.4-0.1,0.4-0.1
								c0,0.1-0.5,0.2-0.7,0.9c-0.1,0.3-0.1,0.8,0.1,1.1c0.2,0.3,0.7,0.5,1.2,0.4c0.5-0.1,0.9-0.5,0.9-0.9c0.1-0.4-0.1-0.8-0.4-1.1
								C293.4,310.4,292.9,310.5,292.9,310.4z"/>
						</g>
					</g>
				</g>
				<g>
					<g>
						<g>
							<path class="st11" d="M291,466.6c0,0.1-1.3,0.1-3.4,0c-2.1,0-5,0-8.2,0.1c-3.2,0.1-6.1,0.2-8.2,0.4c-2.1,0.1-3.4,0.2-3.4,0.1
								c0,0,0.3-0.1,0.9-0.2c0.6-0.1,1.4-0.2,2.5-0.3c2.1-0.2,5-0.4,8.2-0.5c3.2-0.1,6.1,0,8.2,0.1c1.1,0.1,1.9,0.1,2.5,0.2
								C290.7,466.6,291,466.6,291,466.6z"/>
						</g>
					</g>
				</g>
				<g>
					<g>
						<g>
							<path class="st11" d="M339.2,464.5c0,0.1-4.9,0.9-11,1.6c-6.1,0.7-11,1.2-11.1,1.1c0-0.1,4.9-0.9,11-1.6
								C334.3,464.8,339.2,464.4,339.2,464.5z"/>
						</g>
					</g>
				</g>
				<g>
					<g>
						<g>
							<path class="st11" d="M325.1,395.3c0.1,0.1-2,3.8-4.7,8.2c-2.7,4.5-5,8.1-5.1,8c-0.1-0.1,2-3.8,4.7-8.2
								C322.7,398.8,325,395.2,325.1,395.3z"/>
						</g>
					</g>
				</g>
				<g>
					<g>
						<g>
							<path class="st11" d="M283,398.2c0.1,0.1-1.3,3.5-3.2,7.7c-1.9,4.2-3.6,7.6-3.7,7.5c-0.1-0.1,1.3-3.5,3.2-7.7
								C281.2,401.5,282.9,398.2,283,398.2z"/>
						</g>
					</g>
				</g>
				<g>
					<g>
						<g>
							<path class="st11" d="M285.1,413.3c-0.1,0-0.7-0.8-1.7-2.2c-1-1.4-2.5-3.3-4.1-5.4c-1.6-2.1-3.2-3.9-4.3-5.2
								c-1.1-1.3-1.8-2.1-1.8-2.2c0,0,0.8,0.7,2.1,1.9c1.2,1.2,2.8,3,4.5,5.1c1.7,2.1,3,4,4,5.5
								C284.6,412.3,285.1,413.3,285.1,413.3z"/>
						</g>
					</g>
				</g>
			</g>
			<g>
				<g>
					<g>
						<path class="st7" d="M262.4,206.5c0,0-11.9,6.4-14.3,7.8c-2.6,1.5-10.3,16.8-9.5,24.5c0.9,7.8,1.5,6.4,0.9,7.8
							s-2.7,10.7-0.9,14.5s8.6,11.5,12.5,12.2c3.9,0.7,24.2-27.3,26.5-33s1.1-11.8,1.1-11.8l-10.3-4.6l0,0L262.4,206.5z"/>
					</g>
				</g>
				<g>
					<g>
						<path class="st7" d="M253.2,262.4c0,0.9,0,29,0,33.5c0,4.4,5.3,12.4,5.3,12.4h32.4h32.5c0,0,2.8-14,2.3-20.4
							s-5.4-65.5-5.4-65.5l-1.6-16.4l-17.3-4.2l-0.9-3.7l-26.3-3.1l-1.4,6.1l-11.2,5.9C261.6,207.9,253.2,262.4,253.2,262.4z"/>
					</g>
				</g>
				<g>
					<g>
						<path class="st12" d="M259.2,234.9"/>
					</g>
				</g>
				<g>
					<g>
						<path class="st7" d="M318.7,206c0,0,5.9,3.1,9.3,9.1s14.1,40.1,14.5,44.3c0.4,4.3,0.7,10.1,0,10.5c-0.7,0.4,2,16.1,2.9,20.4
							s2.9,15.3,2.2,20.7s-0.6,8.4-0.6,8.4l-14.8-4.5l0.5-5.2c0,0-2.9-9-5-15.4c-2-6.4-10.3-66.7-10.3-66.7L318.7,206z"/>
					</g>
				</g>
				<g>
					<g>
						<g>
							<path class="st4" d="M324.5,302.2c0,0-0.2,0-0.7,0.1c-0.5,0-1.2,0.1-2,0.1c-1.8,0.1-4.3,0.2-7.5,0.3
								c-6.3,0.2-15,0.4-24.7,0.3c-9.6-0.1-18.4-0.4-24.7-0.7c-3.2-0.1-5.7-0.3-7.5-0.4c-0.8-0.1-1.5-0.1-2-0.1
								c-0.5,0-0.7-0.1-0.7-0.1s0.2,0,0.7,0c0.5,0,1.2,0,2,0c1.8,0.1,4.4,0.1,7.5,0.2c6.3,0.2,15,0.4,24.7,0.5
								c9.6,0.1,18.4,0,24.7-0.2c3.1-0.1,5.7-0.1,7.5-0.2c0.8,0,1.5,0,2,0C324.3,302.1,324.5,302.1,324.5,302.2z"/>
						</g>
					</g>
				</g>
				<g>
					<g>
						<g>
							<path class="st4" d="M279.1,228.8c0,0,0.1,0.2,0.2,0.5c0.1,0.3,0.3,0.8,0.5,1.5c0.4,1.3,0.6,3.4,0.5,5.8
								c-0.1,2.5-0.8,5.4-2,8.5c-1.3,3-3.1,6.2-5.3,9.2c-4.5,6.1-9.8,10.6-13.6,13.7c-1.9,1.5-3.6,2.7-4.7,3.5
								c-0.5,0.4-1,0.7-1.3,0.9c-0.3,0.2-0.5,0.3-0.5,0.3s0.1-0.1,0.4-0.4c0.3-0.3,0.7-0.6,1.2-1c1.1-0.8,2.7-2.1,4.6-3.6
								c3.8-3.1,9-7.6,13.4-13.7c2.2-3,4-6.1,5.3-9.1c1.2-3,1.9-5.9,2.1-8.3c0.2-2.4-0.1-4.4-0.4-5.8
								C279.2,229.6,279,228.8,279.1,228.8z"/>
						</g>
					</g>
				</g>
				<g>
					<g>
						<g>
							<path class="st4" d="M268.2,223.1c0,0-0.3,0.3-0.9,0.8c-0.6,0.5-1.4,1.3-2.4,2.3c-2,2-4.5,5.1-7.5,8.2c-3,3.2-6.4,5.4-9,6.7
								c-1.3,0.7-2.4,1.1-3.1,1.4c-0.8,0.3-1.2,0.4-1.2,0.4c0-0.1,1.6-0.7,4.1-2.1c2.5-1.4,5.8-3.6,8.8-6.7c3-3.1,5.5-6.2,7.6-8.1
								c1-1,1.9-1.7,2.6-2.2C267.8,223.3,268.2,223.1,268.2,223.1z"/>
						</g>
					</g>
				</g>
				<g>
					<g>
						<g>
							<path class="st4" d="M290.3,196.9c0,0,0,0.1,0,0.3c0,0.2,0,0.5,0.1,0.8c0.1,0.7,0.1,1.8,0.2,3.1c0.2,2.7,0.4,6.6,0.7,11.3
								c0.5,9.6,1.1,22.8,1.6,37.5c0.5,14.6,0.7,27.9,0.6,37.5c0,2.4,0,4.6-0.1,6.5c0,1.9-0.1,3.5-0.2,4.9c-0.1,1.3-0.1,2.3-0.2,3.1
								c0,0.3,0,0.6-0.1,0.8c0,0.2,0,0.3,0,0.3c0,0,0-0.1,0-0.3c0-0.2,0-0.5,0-0.8c0-0.7,0-1.8,0.1-3.1c0-1.3,0.1-3,0.1-4.9
								c0-1.9,0-4.1,0-6.5c0-9.6-0.3-22.8-0.8-37.5c-0.5-14.6-1-27.9-1.4-37.5c-0.2-4.8-0.4-8.6-0.5-11.4c-0.1-1.3-0.1-2.3-0.1-3.1
								c0-0.3,0-0.6,0-0.8C290.3,197,290.3,196.9,290.3,196.9z"/>
						</g>
					</g>
				</g>
				<g>
					<g>
						<g>
							<path class="st4" d="M276.7,272.2c0,0-0.8,0.9-2.2,2.2c-1.5,1.3-3.6,2.9-6.1,4.4c-2.5,1.5-5,2.6-6.8,3.3c-1.8,0.7-3,1-3,0.9
								c0-0.1,1.1-0.5,2.8-1.3c1.8-0.8,4.1-1.9,6.6-3.4c2.5-1.5,4.6-3,6.1-4.2C275.7,272.9,276.6,272.1,276.7,272.2z"/>
						</g>
					</g>
				</g>
				<g>
					<g>
						<g>
							<path class="st4" d="M322.2,281.5c0,0.1-0.8-0.4-2-1.2c-1.2-0.8-2.8-2-4.5-3.4c-1.7-1.4-3.1-2.8-4.1-3.8
								c-1-1-1.6-1.7-1.5-1.8c0.1-0.1,0.7,0.5,1.8,1.5c1.1,1,2.5,2.3,4.2,3.7c1.7,1.4,3.2,2.6,4.4,3.5
								C321.6,280.9,322.3,281.4,322.2,281.5z"/>
						</g>
					</g>
				</g>
				<g>
					<g>
						<g>
							<path class="st4" d="M322.8,252.6c0,0,0.1,0.2,0.1,0.5c0.1,0.4,0.2,0.8,0.3,1.4c0.2,1.2,0.5,3,0.9,5.2
								c0.6,4.4,1.3,10.6,1.4,17.4c0.2,6.8-0.1,13-0.4,17.5c-0.1,2.2-0.3,4-0.4,5.3c-0.1,0.6-0.1,1-0.1,1.4c0,0.3-0.1,0.5-0.1,0.5
								c0,0,0-0.2,0-0.5c0-0.4,0-0.9,0-1.4c0.1-1.3,0.1-3.1,0.2-5.3c0.2-4.5,0.4-10.6,0.2-17.4c-0.2-6.8-0.7-13-1.3-17.4
								c-0.3-2.2-0.5-4-0.7-5.2c-0.1-0.6-0.1-1-0.2-1.4C322.8,252.8,322.8,252.6,322.8,252.6z"/>
						</g>
					</g>
				</g>
				<g>
					<g>
						<g>
							<path class="st4" d="M275.1,232.3c-0.1-0.1,0.3-1,0.8-2.3c0.5-1.2,0.8-2.2,0.9-2.2c0.1,0,0,1.1-0.5,2.4
								C275.9,231.4,275.2,232.3,275.1,232.3z"/>
						</g>
					</g>
				</g>
				<g>
					<g>
						<g>
							<path class="st4" d="M269.7,229.6c-0.1-0.1,0.3-1,1-2c0.7-1,1.4-1.8,1.5-1.7c0.1,0.1-0.3,1-1,2
								C270.4,228.9,269.8,229.7,269.7,229.6z"/>
						</g>
					</g>
				</g>
				<g>
					<g>
						<g>
							<path class="st4" d="M265.9,226.9c-0.1-0.1,0.6-0.9,1.6-1.6c1-0.8,2-1.2,2-1.1c0.1,0.1-0.7,0.7-1.7,1.5
								C266.9,226.4,266,227,265.9,226.9z"/>
						</g>
					</g>
				</g>
				<g>
					<g>
						<g>
							<path class="st4" d="M254.5,236.8c-0.1,0.2-2.8-1.1-6.4-1.1c-3.6,0-6.4,1.2-6.4,1c0-0.1,0.6-0.4,1.8-0.8
								c1.1-0.4,2.8-0.7,4.6-0.7c1.9,0,3.5,0.4,4.6,0.8C253.9,236.4,254.5,236.8,254.5,236.8z"/>
						</g>
					</g>
				</g>
				<g>
					<g>
						<g>
							<path class="st4" d="M263.1,224.5c-0.1,0-0.5-0.9-1.4-2.2c-0.9-1.3-2.4-3-4.4-4.4c-2-1.4-4.1-2.1-5.7-2.5
								c-1.6-0.4-2.6-0.4-2.6-0.5c0,0,0.3-0.1,0.7-0.1c0.5,0,1.1,0,1.9,0.2c1.6,0.3,3.8,1,5.9,2.4c2.1,1.4,3.6,3.2,4.4,4.6
								c0.4,0.7,0.7,1.3,0.9,1.7C263.1,224.2,263.2,224.4,263.1,224.5z"/>
						</g>
					</g>
				</g>
				<g class="st10">
					<g>
						<g>
							<path d="M252.6,272.4c6.3,1.4,13.1-1.4,17.6-6c4.6-4.6,7.2-10.8,8.9-17c0.8-2.9,1.8-5.6,0.2-8.1c-1.2,3.7-2.7,6.5-4.5,9.9
								c-1.4,2.6-3.8,5.4-5.7,7.6C264.3,264.4,258.9,268.3,252.6,272.4"/>
						</g>
					</g>
				</g>
				<g class="st10">
					<g>
						<g>
							<path d="M264.9,295c2.7,0.4,5.6,0.6,8.2-0.3s4.9-3,5.4-5.8c0.6,2.5-0.5,5.3-2.5,6.8c-2,1.6-4.8,2-7.3,1.6
								c-1.6-0.3-3.2-1-4-2.4"/>
						</g>
					</g>
				</g>
				<g class="st10">
					<g>
						<g>
							<path d="M259.6,301.9c5.9,2.5,13,3.4,19.4,4c6.6,0.6,13.3,1.2,19.9,0.8c6.6-0.3,13.3-1.6,19.3-4.5c0,0-23.8,0.7-31.1,0.4
								C279.9,302.3,259.6,301.9,259.6,301.9z"/>
						</g>
					</g>
				</g>
				<g>
					<g>
						<g>
							<path class="st4" d="M336.4,311.8c0.1,0,0.2,1,0.2,2.2c-0.1,1.2-0.2,2.1-0.4,2.1s-0.2-1-0.2-2.2
								C336.1,312.7,336.3,311.7,336.4,311.8z"/>
						</g>
					</g>
				</g>
				<g>
					<g>
						<g>
							<path class="st4" d="M342.3,313c0.1,0,0.4,1.1,0.3,2.4c0,1.4-0.3,2.4-0.4,2.4c-0.1,0-0.1-1.1-0.1-2.4
								C342.2,314.1,342.2,313,342.3,313z"/>
						</g>
					</g>
				</g>
				<g>
					<g>
						<g>
							<path class="st4" d="M290.2,196.7c0.1,0,0.5,1,1.9,1.8c0.7,0.4,1.6,0.8,2.7,1.3c0.3,0.1,0.5,0.3,0.8,0.5
								c0.3,0.2,0.5,0.4,0.7,0.7c0.2,0.4,0.1,0.8-0.1,1.1c-0.2,0.3-0.4,0.5-0.7,0.8c-0.2,0.2-0.5,0.5-0.9,0.6
								c-0.3,0.2-0.8,0.2-1.1,0c-0.7-0.4-0.9-1-1.2-1.4c-0.6-1-1-1.9-1.4-2.7c-0.6-1.6-0.8-2.6-0.8-2.7c0.1,0,0.4,1,1.1,2.5
								c0.4,0.8,0.8,1.6,1.4,2.6c0.3,0.4,0.6,1,1,1.2c0.4,0.2,1-0.1,1.4-0.5c0.5-0.4,0.9-0.9,0.6-1.3c-0.2-0.4-0.8-0.7-1.2-1
								c-1-0.5-1.9-0.9-2.6-1.4C290.5,197.9,290.1,196.7,290.2,196.7z"/>
						</g>
					</g>
				</g>
				<g class="st10">
					<g>
						<g>
							<path d="M254.5,236.5c-1.2,1.3-2.9,1.9-4.6,2.4s-3.4,0.9-4.9,1.8c-0.2,0.1-0.5,0.3-0.6,0.5c-0.1,0.2-0.2,0.6,0,0.8
								c0.2,0.3,0.7,0.2,1,0.1C249,241.1,252.2,239.3,254.5,236.5"/>
						</g>
					</g>
				</g>
			</g>
			<g>
				<g>
					<g>
						<g>
							<path class="st4" d="M289.5,217l-18.6-8.8c-1.3-0.9-1.4-3.2-0.7-4.9c0.4-1,1.6-1.4,2.6-1.1l20.3,7.2L289.5,217z"/>
						</g>
					</g>
				</g>
				<g>
					<g>
						<g>
							<path class="st11" d="M296.3,215.5c-1.4,4-1,7.7,0.8,8.4c1.9,0.7,4.5-2,5.9-6c1.4-4,1-7.7-0.8-8.4
								C300.4,208.8,297.8,211.5,296.3,215.5z"/>
						</g>
					</g>
				</g>
				<g>
					<g>
						<g>
							<path class="st4" d="M289.5,217l6.9,6.4c-2.2-6.4,1.6-12.2,5-14l-8.5,0L289.5,217z"/>
						</g>
					</g>
				</g>
				<g>
					<g>
						<g>
							<g>
								<polygon class="st7" points="300.4,210.1 296,221.8 453.6,402 540.5,274.1 								"/>
							</g>
						</g>
					</g>
					<g class="st13">
						<g>
							<g>
								<polygon class="st9" points="300.4,210.1 296,221.8 453.6,402 540.5,274.1 								"/>
							</g>
						</g>
					</g>
				</g>
				<g>
					<g>
						<g>
							<g>
								<path class="st7" d="M456.2,298.3c0,1.6-1.3,3-3,3s-3-1.3-3-3s1.3-3,3-3C454.9,295.3,456.2,296.6,456.2,298.3z"/>
							</g>
						</g>
					</g>
					<g class="st8">
						<g>
							<g>
								<path class="st9" d="M456.2,298.3c0,1.6-1.3,3-3,3s-3-1.3-3-3s1.3-3,3-3C454.9,295.3,456.2,296.6,456.2,298.3z"/>
							</g>
						</g>
					</g>
				</g>
				<g>
					<g>
						<g>
							<g>
								<path class="st7" d="M394.2,260.5c0,0.8-0.7,1.5-1.5,1.5s-1.5-0.7-1.5-1.5s0.7-1.5,1.5-1.5
									C393.5,259,394.2,259.7,394.2,260.5z"/>
							</g>
						</g>
					</g>
					<g class="st8">
						<g>
							<g>
								<path class="st9" d="M394.2,260.5c0,0.8-0.7,1.5-1.5,1.5s-1.5-0.7-1.5-1.5s0.7-1.5,1.5-1.5
									C393.5,259,394.2,259.7,394.2,260.5z"/>
							</g>
						</g>
					</g>
				</g>
				<g>
					<g>
						<g>
							<g>
								<path class="st7" d="M411.1,296.8c0,0.8-0.7,1.5-1.5,1.5s-1.5-0.7-1.5-1.5c0-0.8,0.7-1.5,1.5-1.5S411.1,296,411.1,296.8z"/>
							</g>
						</g>
					</g>
					<g class="st8">
						<g>
							<g>
								<path class="st9" d="M411.1,296.8c0,0.8-0.7,1.5-1.5,1.5s-1.5-0.7-1.5-1.5c0-0.8,0.7-1.5,1.5-1.5S411.1,296,411.1,296.8z"/>
							</g>
						</g>
					</g>
				</g>
				<g>
					<g>
						<g>
							<g>
								<circle class="st7" cx="459.9" cy="277.2" r="1.5"/>
							</g>
						</g>
					</g>
					<g class="st8">
						<g>
							<g>
								<circle class="st9" cx="459.9" cy="277.2" r="1.5"/>
							</g>
						</g>
					</g>
				</g>
				<g>
					<g>
						<g>
							<g>
								<path class="st7" d="M334.9,227.9c0,0.8-0.7,1.5-1.5,1.5s-1.5-0.7-1.5-1.5s0.7-1.5,1.5-1.5S334.9,227.1,334.9,227.9z"/>
							</g>
						</g>
					</g>
					<g class="st8">
						<g>
							<g>
								<path class="st9" d="M334.9,227.9c0,0.8-0.7,1.5-1.5,1.5s-1.5-0.7-1.5-1.5s0.7-1.5,1.5-1.5S334.9,227.1,334.9,227.9z"/>
							</g>
						</g>
					</g>
				</g>
				<g>
					<g>
						<g>
							<g>
								
									<ellipse transform="matrix(0.5665 -0.824 0.824 0.5665 -63.2721 557.6008)" class="st7" cx="498.4" cy="338.9" rx="77.4" ry="23.7"/>
							</g>
						</g>
					</g>
					<g class="st14">
						<g>
							<g>
								
									<ellipse transform="matrix(0.5665 -0.824 0.824 0.5665 -63.2721 557.6008)" class="st9" cx="498.4" cy="338.9" rx="77.4" ry="23.7"/>
							</g>
						</g>
					</g>
				</g>
				<g>
					<g>
						<g>
							<path class="st15" d="M296,221.8c0,0,5.4-2.5,4.4-11.7C300.4,210.1,294.9,213.4,296,221.8z"/>
						</g>
					</g>
				</g>
				<g>
					<g>
						<g>
							<g>
								<polygon class="st9" points="307.2,213.8 306.5,226.8 305.8,213.8 294.5,213.2 305.8,212.6 306.5,199.8 307.1,212.6 
									321.6,213.3 								"/>
							</g>
						</g>
					</g>
					<g>
						<g>
							<g>
								<polygon class="st9" points="305.5,213 302.5,208.3 306.2,212.5 								"/>
							</g>
						</g>
					</g>
					<g>
						<g>
							<g>
								<polygon class="st9" points="306.5,212.7 310.4,208.8 307.1,213.3 								"/>
							</g>
						</g>
					</g>
					<g>
						<g>
							<g>
								<polygon class="st9" points="307.2,213.6 310.1,218.4 306.5,214.1 								"/>
							</g>
						</g>
					</g>
					<g>
						<g>
							<g>
								<polygon class="st9" points="306.2,214 302.2,217.8 305.5,213.3 								"/>
							</g>
						</g>
					</g>
				</g>
			</g>
			<g>
				<g>
					<g>
						<g>
							<g>
								<path class="st5" d="M290.2,205.8c-1-0.8-3.5-0.8-3.5-0.8s0.8-0.6-1-2c-0.6-0.5-4.4,0.1-4.4,0.1s0-1.4-1.4-1.8
									c-0.5-0.1-1.4-0.2-2.3,0c-1.3,0.4-2.6,0.8-2.6,2.1l-0.5,2.6c0,0,0,0,0,0c-0.2,0-2.2-0.2-2.3-0.1c-0.1,0.1-0.5,2.1-0.6,3.1
									c-0.1,0.7,0.7,3.4,1.5,4.8l-0.2,3.5l-4.7,6l10.8,5.3c0,0,2-3.4,3.2-5.1c1.2-1.7,4-2.9,4.5-4.2c0.6-1.7,1.9-5.3,2.3-8.1
									c0.3-2,2-2.5,2-2.5S291.2,206.5,290.2,205.8z"/>
							</g>
						</g>
					</g>
					<g>
						<g>
							<g>
								<g>
									<path class="st6" d="M274.7,204.7c0.2,0,0.2,1.8-0.2,3.9c-0.4,2.1-0.5,3.8-0.6,3.8c-0.2,0-0.2-1.8,0.2-3.9
										C274.4,206.4,274.6,204.7,274.7,204.7z"/>
								</g>
							</g>
						</g>
					</g>
					<g>
						<g>
							<g>
								<g>
									<path class="st6" d="M278,207.8c-0.1,0,0.1-0.4,0.1-1c0.1-0.6-0.1-1.5,0.3-2.5c0.2-0.5,0.5-0.9,0.9-1.1
										c0.4-0.2,0.8-0.3,1.1-0.3c0.6-0.1,1-0.1,1,0c0,0.1-0.4,0.2-1,0.4c-0.3,0.1-0.6,0.2-1,0.4c-0.3,0.2-0.5,0.5-0.7,0.9
										c-0.3,0.8-0.2,1.7-0.4,2.3C278.3,207.5,278,207.9,278,207.8z"/>
								</g>
							</g>
						</g>
					</g>
					<g>
						<g>
							<g>
								<g>
									<path class="st6" d="M287.1,204.6c0,0.1-0.4,0.1-1.1,0.2c-0.3,0-0.7,0-1.1,0c-0.4,0-0.9,0-1.3,0.2c-0.4,0.2-0.8,0.4-1,0.7
										c-0.2,0.3-0.3,0.7-0.4,1c-0.1,0.6-0.2,1-0.3,1c-0.1,0,0-0.4,0-1.1c0-0.3,0.1-0.7,0.3-1.2c0.2-0.4,0.7-0.7,1.2-0.9
										c0.5-0.2,1-0.2,1.4-0.2c0.4,0,0.8,0,1.1,0.1C286.7,204.5,287.1,204.6,287.1,204.6z"/>
								</g>
							</g>
						</g>
					</g>
					<g>
						<g>
							<g>
								<g>
									<path class="st6" d="M290.3,206.1c0,0.1-0.5,0.1-1.1,0.1c-0.7,0.1-1.7,0.2-2.4,0.9c-0.7,0.7-0.8,1.7-0.9,2.4
										c-0.1,0.7-0.1,1.1-0.2,1.1c-0.1,0-0.1-0.4-0.1-1.2c0-0.7,0.1-1.8,0.9-2.7c0.4-0.4,0.9-0.7,1.4-0.8c0.5-0.1,0.9-0.1,1.3-0.1
										C289.9,205.9,290.3,206,290.3,206.1z"/>
								</g>
							</g>
						</g>
					</g>
				</g>
			</g>
			<g>
				<g>
					<g>
						<path class="st5" d="M333,315.2l-2.8,6.6v8.7c0,0,1.6,4.9,2.6,4.8s2.9-0.8,2.7-2l2.2,1.2l2.4-0.2c0,0,6.3-6.1,6.6-7.4
							c0.3-1.3,0.4-3.4,0.4-3.4l-1.9-4.6L333,315.2z"/>
					</g>
				</g>
				<g>
					<g>
						<g>
							<path class="st6" d="M334.9,325.6c0.1,0,0,0.5-0.2,1.2c-0.2,0.7-0.4,1.7-0.3,2.8c0.1,2.2,1.4,3.7,1.3,3.8
								c0,0-0.4-0.2-0.9-0.9c-0.4-0.6-0.9-1.6-0.9-2.8c-0.1-1.2,0.2-2.2,0.5-2.9C334.7,326,334.8,325.6,334.9,325.6z"/>
						</g>
					</g>
				</g>
				<g>
					<g>
						<g>
							<path class="st6" d="M337.7,330.9c-0.1,0-0.2-0.4-0.5-1c-0.1-0.3-0.2-0.7-0.4-1.2c-0.1-0.4-0.2-1-0.5-1.4
								c-0.2-0.4-0.6-0.6-0.9-0.4c-0.4,0.1-0.6,0.5-0.7,0.7c-0.2,0.6-0.3,1.1-0.3,1.1c-0.1,0-0.2-0.4,0-1.2c0.1-0.4,0.3-0.8,0.9-1.1
								c0.2-0.1,0.6-0.2,0.9,0c0.3,0.1,0.5,0.4,0.7,0.6c0.3,0.5,0.4,1,0.5,1.5c0.1,0.5,0.2,0.9,0.3,1.2
								C337.7,330.5,337.7,330.9,337.7,330.9z"/>
						</g>
					</g>
				</g>
				<g>
					<g>
						<g>
							<path class="st6" d="M343,326.4c0.1,0,0.5,1.1,0.4,2.5c-0.1,1.4-0.6,2.5-0.7,2.5c-0.1,0,0.1-1.1,0.2-2.5
								C343,327.6,342.9,326.5,343,326.4z"/>
						</g>
					</g>
				</g>
				<g>
					<g>
						<g>
							<path class="st6" d="M337.2,324.8c0.1,0,0.4,1.1,0.4,2.6c0,1.4-0.1,2.6-0.3,2.6c-0.1,0-0.2-1.2-0.2-2.6
								C337.1,326,337.1,324.8,337.2,324.8z"/>
						</g>
					</g>
				</g>
				<g>
					<g>
						<g>
							<path class="st6" d="M345.6,328.4c-0.1-0.1,0-0.8,0-1.7c0-0.9,0-1.6,0.2-1.7c0.1,0,0.4,0.7,0.4,1.7
								C346.1,327.7,345.7,328.5,345.6,328.4z"/>
						</g>
					</g>
				</g>
			</g>
		</g>
		<g>
			<g>
				<g>
					<path class="st6" d="M297.4,182.4c-0.5-0.2-1.1,0.1-1.4,0.6c-0.3,0.5-0.2,1.1,0,1.6c0.1,0.2,0.2,0.5,0.4,0.5
						c0.2,0,0.4,0.1,0.5,0c0.1-0.1,0.3-0.2,0.4-0.3c0.3-0.3,0.4-0.8,0.5-1.2C297.9,183.1,297.8,182.4,297.4,182.4"/>
				</g>
			</g>
			<g>
				<g>
					<g>
						<path class="st4" d="M296.8,185.3c0,0.1,0,0.2-0.2,0.2c-0.2,0.1-0.4,0.1-0.7-0.1c-0.3-0.2-0.5-0.5-0.6-0.9
							c-0.1-0.3-0.1-0.7-0.1-1.1c0.1-0.8,0.8-1.5,1.5-1.5c0.6,0,0.8,0.4,0.7,0.5c-0.1,0.1-0.3,0.1-0.6,0.2c-0.2,0.1-0.5,0.4-0.6,0.9
							c0,0.2,0,0.5,0,0.8c0,0.2,0,0.4,0.1,0.5C296.5,185.1,296.7,185.2,296.8,185.3z"/>
					</g>
				</g>
			</g>
		</g>
	</g>
</g>
<g id="Speech_Bubble">
	<g>
		<g>
			<g>
				<g>
					<g>
						<path class="st9" d="M324.3,193.6l5.4-9.5c-2.4-3.9-3.8-8.4-3.8-13.3c0-14.1,11.4-25.5,25.5-25.5s25.5,11.4,25.5,25.5
							s-11.4,25.5-25.5,25.5c-5.9,0-11.3-2-15.6-5.3l0,0L324.3,193.6z"/>
					</g>
				</g>
				<g>
					<g>
						<g>
							<path class="st4" d="M324.3,193.6c0.9-0.2,4.3-1.1,11.5-2.8l-0.1,0.2l0,0c0-0.1,0-0.1,0-0.2c0,0,0.1,0,0.2,0
								c2.9,2.2,7,4.4,12.1,5c1.3,0.2,2.6,0.3,4,0.2c0.7,0,1.4-0.1,2.1-0.1c0.7-0.1,1.4-0.2,2.1-0.3c2.8-0.6,5.8-1.7,8.5-3.4
								c5.4-3.3,10-9.2,11.4-16.5c0.7-3.6,0.6-7.4-0.3-11.2c-1-3.7-2.7-7.3-5.4-10.3c-2.7-3-6-5.5-9.7-6.9c-3.6-1.4-7.5-2-11.2-1.7
								c-3.7,0.3-7.3,1.3-10.3,3c-3.1,1.7-5.7,4-7.7,6.5c-2,2.5-3.4,5.3-4.3,8.1c-0.9,2.8-1.1,5.6-1.1,8.2c0.1,5.2,1.8,9.5,3.7,12.5
								c0,0,0,0.1,0,0.1C326.4,190.1,324.8,192.9,324.3,193.6c0.4-0.8,2-3.6,5.3-9.6l0,0.1c-1.9-3-3.7-7.4-3.8-12.7
								c0-2.6,0.2-5.5,1.1-8.3c0.9-2.8,2.3-5.7,4.4-8.3c2-2.6,4.7-4.9,7.8-6.6c3.1-1.8,6.7-2.8,10.5-3.1c3.8-0.3,7.7,0.3,11.5,1.8
								c3.7,1.4,7.1,3.9,9.9,7c2.7,3,4.5,6.7,5.5,10.5c1,3.8,1,7.7,0.3,11.4c-1.5,7.4-6.2,13.4-11.7,16.7c-2.8,1.7-5.7,2.8-8.6,3.4
								c-0.7,0.1-1.4,0.2-2.2,0.3c-0.7,0.1-1.4,0.1-2.1,0.1c-1.4,0.1-2.7,0-4-0.2c-5.2-0.7-9.4-2.9-12.2-5.2l0.2-0.2l0,0
								c0,0.1,0,0.1,0,0.2c0,0,0,0-0.1,0C328.7,192.7,325.2,193.4,324.3,193.6z"/>
						</g>
					</g>
				</g>
			</g>
		</g>
		<g>
			<g>
				<g>
					<path class="st7" d="M348.3,160l1.3,12.7c0.1,1,1,1.8,2,1.9l0,0c1.1,0,2-0.8,2.1-1.9l0.9-12.8c0.1-1-0.7-1.8-1.7-1.7l-3.1,0.2
						C348.9,158.2,348.2,159,348.3,160z"/>
				</g>
			</g>
			<g>
				<g>
					<path class="st7" d="M354.8,181.6c-0.5,1.6-2.3,2.5-3.9,2c-1.6-0.5-2.5-2.3-2-3.9s2.3-2.5,3.9-2
						C354.4,178.2,355.3,180,354.8,181.6z"/>
				</g>
			</g>
		</g>
	</g>
</g>
<g id="Trees">
	<g>
		<g>
			<g>
				<g>
					<path class="st4" d="M153.6,9.1l-9.2,85.7c0,0-1.1,11.1-6.6,7.9c-6.3-3.7-11.7-20.4-11.7-20.4l-1.3-3l-6.1,2.5l14.8,31.6
						l7.8,25l3.9,61.5l-12,283.9l34.6-0.1c0,0-2-269.3-1.2-281.8c0.9-12.5,51.6-49.2,51.6-49.2l-0.1-7.5l-52.6,35.1L180.9,9.1
						L153.6,9.1z"/>
				</g>
			</g>
		</g>
		<g>
			<g>
				<polyline class="st4" points="126.1,82.1 113,51.8 132.7,6.6 129.3,6.6 108.3,48.8 101.1,13.4 97.5,13.3 103,51.8 113,71.5 
					87.8,67.5 86.1,71.5 115.3,76.5 119.8,83.6 				"/>
			</g>
		</g>
	</g>
	<g>
		<g>
			<g>
				<path class="st4" d="M621.8,6.8c0,0-17.1,98.8-22.4,112.6c-5.3,13.9-10.7,29.9-10.7,29.9l-38.2-68.7l-6.3,3.4l39.1,77
					c0,0-21.3,25.6-22.4,48s0,59.7,0,59.7l-19,213.1h30.7v-212c0,0-6.4-54.4-3.2-64s21.3-40.5,21.3-40.5s19.4-24.5,22-49.1
					c2.5-24.5,18-108.7,18-108.7L621.8,6.8z"/>
			</g>
		</g>
	</g>
</g>
<g id="Plants">
	<g>
		<g>
			<g>
				<path class="st11" d="M667.3,441.3c-11.7-10.6-29-14.7-44.2-10.4c-4.9-20.3-27.5-34.4-47.8-29.8s-34.8,27-30.5,47.4
					c-13.2-6-29.4-4.6-41.4,3.5s-19.3,17.5-18.6,31.9l196.9,0.3C684.6,468.8,679,451.9,667.3,441.3z"/>
			</g>
		</g>
		<g>
			<g>
				<g>
					<path class="st4" d="M549.5,473.5c0,0,0.2-1.3,1.1-3.6c0.9-2.2,2.6-5.4,5.8-8.5c3.1-3,7.8-5.9,13.5-6.7
						c5.7-0.7,12.3,0.6,17.8,4.6c2,1.5,3.8,3.2,5.2,5.1l-0.5,0.1c0.9-5.7,3.2-10.8,6.1-14.8c1.4-2,3.1-3.7,4.6-5.2
						c1.6-1.4,3.2-2.7,4.7-3.6c3.1-2,5.8-3.1,7.7-3.6c1-0.3,1.7-0.4,2.2-0.6c0.5-0.1,0.8-0.2,0.8-0.2c0,0-0.3,0.1-0.8,0.2
						c-0.5,0.2-1.3,0.3-2.2,0.7c-1.9,0.6-4.6,1.8-7.6,3.8c-1.5,1-3.1,2.2-4.7,3.7c-1.5,1.5-3.1,3.2-4.5,5.1c-2.9,3.9-5.1,8.9-6,14.6
						l-0.1,0.6l-0.4-0.5c-1.4-1.8-3.1-3.6-5.1-5c-5.3-3.8-11.8-5.2-17.4-4.5c-5.6,0.8-10.2,3.5-13.3,6.5c-3.1,3-4.9,6.1-5.8,8.3
						c-0.5,1.1-0.8,2-1,2.6c-0.1,0.3-0.2,0.5-0.2,0.7C549.6,473.4,549.6,473.5,549.5,473.5z"/>
				</g>
			</g>
		</g>
		<g class="st10">
			<g>
				<g>
					<path d="M588.7,449.5c-5.2-4.6-13.2-5.3-19.6-2.5s-11.1,8.6-13.6,15.2c4.6-5.5,12.2-7.7,19.3-7.2c7.2,0.5,13.8,3.8,17.6,9.9
						c2.3-12,10.5-22,21.7-26.9l2.4-0.8C606,434.9,593.8,439.8,588.7,449.5z"/>
				</g>
			</g>
		</g>
		<g>
			<g>
				<path class="st11" d="M662.8,417.4c-2.7,0.7-5.2,2.4-6.7,4.8c1.8,2.4,5.2,2.8,8,1.8s5.1-3.2,6.8-5.6
					C668.5,417.1,665.5,416.7,662.8,417.4z"/>
			</g>
		</g>
		<g>
			<g>
				<path class="st11" d="M660.6,400.5c-4,1.4-7.4,4.3-9.4,8s-2.4,8.2-1.3,12.3c4.5,0.3,8.3-3,10.1-7.1
					C661.8,409.5,661.6,404.8,660.6,400.5z"/>
			</g>
		</g>
	</g>
	<g>
		<g>
			<g>
				<g>
					<path class="st7" d="M79.6,429.2c2.8,0.4,5.3,2.2,7,4.5c1.7,2.3,2.6,5.1,3,7.9c0.9,5.4-0.6,11.6-2.6,16.8
						c-5.6-2.6-8.5-9.1-9.8-12.4C75.2,440.6,74.8,429.7,79.6,429.2"/>
				</g>
			</g>
		</g>
		<g>
			<g>
				<g>
					<path class="st7" d="M95.3,466.1c-1.8-2.7-1.7-6.3-0.2-9.1c1.5-2.8,4.3-4.8,7.4-5.7c1.4-0.4,3.1-0.5,4.3,0.3
						c1.1,0.8,1.6,2.3,1.4,3.7c-0.2,1.4-0.9,2.6-1.7,3.7C103.5,462.7,100,465.8,95.3,466.1"/>
				</g>
			</g>
		</g>
		<g>
			<g>
				<g>
					<g>
						<path class="st4" d="M93.9,483.3c0,0-0.1-0.4-0.2-1.1c-0.1-0.7-0.2-1.8-0.2-3.1c-0.1-2.6-0.2-6.4,0.6-10.4
							c0.9-4,2.8-7.4,4.7-9.3c0.9-1,1.8-1.6,2.5-2c0.6-0.4,1-0.6,1-0.5c0.1,0.1-1.4,0.9-3.2,2.8c-1.8,1.9-3.6,5.2-4.4,9.1
							c-0.9,3.9-0.8,7.6-0.8,10.3C93.9,481.7,93.9,483.3,93.9,483.3z"/>
					</g>
				</g>
			</g>
		</g>
		<g>
			<g>
				<g>
					<g>
						<path class="st4" d="M80.9,437.5c0,0,0.3,0.6,0.7,1.8c0.4,1.2,1,2.8,1.7,4.9c1.4,4.2,3.2,10,5,16.4c1.8,6.5,3.3,12.4,4.3,16.6
							c0.5,2.1,0.9,3.9,1.2,5.1c0.3,1.2,0.4,1.9,0.3,1.9c0,0-0.2-0.6-0.6-1.8c-0.3-1.3-0.8-3-1.3-5c-1.1-4.2-2.7-10.1-4.5-16.6
							c-1.8-6.5-3.5-12.3-4.8-16.5c-0.6-2-1.1-3.7-1.5-5C81,438.2,80.9,437.5,80.9,437.5z"/>
					</g>
				</g>
			</g>
		</g>
		<g>
			<g>
				<g>
					<path class="st7" d="M87.9,471.2c-2.7-6.1-8.6-10.8-15.2-12.1c-1.7-0.3-3.8-0.3-4.7,1.2c-0.9,1.4-0.1,3.4,0.9,4.7
						c4.2,5.8,12.1,8.5,19,6.6"/>
				</g>
			</g>
		</g>
		<g>
			<g>
				<g>
					<g>
						<path class="st4" d="M74.6,464c0,0,0.4,0,1.1,0.1c0.4,0,0.8,0.1,1.3,0.3c0.5,0.1,1.1,0.3,1.7,0.5c1.2,0.4,2.6,1,4.1,1.9
							c1.4,0.9,3,2,4.4,3.4c1.4,1.4,2.6,2.9,3.5,4.3c0.9,1.4,1.6,2.8,2,4c0.3,0.6,0.4,1.2,0.6,1.6c0.2,0.5,0.3,0.9,0.3,1.3
							c0.1,0.7,0.2,1.1,0.1,1.1c-0.1,0-0.4-1.5-1.4-3.8c-0.5-1.2-1.2-2.5-2.1-3.9c-0.9-1.4-2.1-2.8-3.4-4.1
							c-1.4-1.3-2.8-2.4-4.2-3.3c-1.4-0.9-2.8-1.5-3.9-2C76.1,464.4,74.5,464.1,74.6,464z"/>
					</g>
				</g>
			</g>
		</g>
	</g>
</g>
<g id="Floor">
	<g>
		<g>
			<g>
				<path class="st4" d="M719.5,484.3c0,0.1-153.9,0.3-343.7,0.3c-189.9,0-343.8-0.1-343.8-0.3c0-0.1,153.9-0.3,343.8-0.3
					C565.6,484,719.5,484.1,719.5,484.3z"/>
			</g>
		</g>
	</g>
</g>
</svg>
