<?xml version="1.0" encoding="utf-8"?>
<!-- Generator: Adobe Illustrator 27.1.1, SVG Export Plug-In . SVG Version: 6.00 Build 0)  -->
<svg version="1.1" id="Layer_1" xmlns="http://www.w3.org/2000/svg" xmlns:xlink="http://www.w3.org/1999/xlink" x="0px" y="0px"
	 viewBox="0 0 500 500" style="enable-background:new 0 0 500 500;" xml:space="preserve">
<style type="text/css">
	.st0{fill:#F0F0F0;}
	.st1{fill:#E0E0E0;}
	.st2{fill:#27DEBF;}
	.st3{opacity:0.15;enable-background:new    ;}
	.st4{fill:#FFFFFF;}
	.st5{opacity:0.15;}
	.st6{fill:#455A64;}
	.st7{fill:#263238;}
	.st8{fill:#37474F;}
	.st9{fill:#FAFAFA;}
	.st10{opacity:0.2;}
	.st11{opacity:0.6;}
	.st12{fill:#FFA8A7;}
	.st13{opacity:0.6;fill:#FFFFFF;enable-background:new    ;}
	.st14{opacity:0.1;enable-background:new    ;}
	.st15{fill:#B16668;}
	.st16{fill:#F28F8F;}
</style>
<g id="Floor">
	<ellipse id="Floor_1_" class="st0" cx="250" cy="341.9" rx="235.6" ry="136"/>
</g>
<g id="Shadow">
	<ellipse id="Shadow_2_" class="st1" cx="201.2" cy="398.1" rx="81.2" ry="46.9"/>
</g>
<g id="Plants_1_">
	<g id="Plants_11_">
		<g id="XMLID_597_">
			<path id="XMLID_603_" class="st2" d="M432.3,339.4l-9.5-5.5c0,0-2.3-20.4-0.8-36.2c2.2-22.2,16.5-48.9,33.6-42.6
				c17.1,6.3-7.8,28.9-13.4,47.7C436.6,321.6,432.3,339.4,432.3,339.4z"/>
			<path id="XMLID_600_" class="st3" d="M432.3,339.4l-9.5-5.5c0,0-2.3-20.4-0.8-36.2c2.2-22.2,16.5-48.9,33.6-42.6
				c17.1,6.3-7.8,28.9-13.4,47.7C436.6,321.6,432.3,339.4,432.3,339.4z"/>
			<path id="XMLID_598_" class="st4" d="M427.3,337.1C427.3,337.1,427.3,337.1,427.3,337.1c0.3,0,0.6-0.3,0.6-0.6
				c-1.7-49.3,22.9-74.1,23.1-74.4c0.2-0.2,0.2-0.6,0-0.8c-0.2-0.2-0.6-0.2-0.8,0c-0.3,0.2-25.2,25.4-23.5,75.3
				C426.7,336.8,427,337.1,427.3,337.1z"/>
		</g>
		<g id="XMLID_594_">
			<path id="XMLID_596_" class="st2" d="M438.3,342.8l-6.8-3.9c0,0-1.2-14,5.7-31c6-14.8,20.8-27.1,28.3-24.5s7.3,7.9,3.6,13.4
				C465.5,302.4,443.3,315.6,438.3,342.8z"/>
			<path id="XMLID_595_" class="st4" d="M434.7,341.3L434.7,341.3c0.3,0,0.6-0.3,0.6-0.6c-0.1-31.2,29.2-52.3,29.5-52.5
				c0.3-0.2,0.3-0.5,0.1-0.8c-0.2-0.3-0.5-0.3-0.8-0.1c-0.3,0.2-30.1,21.6-29.9,53.4C434.1,341.1,434.4,341.3,434.7,341.3z"/>
		</g>
	</g>
	<g id="Plants_8_">
		<g id="XMLID_493_">
			<g id="XMLID_553_">
				<path id="XMLID_592_" class="st2" d="M79.7,327.1l8.8-5.9c0,0,3.9-23,0.3-43.3C83.7,249.5,64,240,57,243s-8.5,11.5,4.6,27.7
					C69.3,280.3,79.4,300.6,79.7,327.1z"/>
			</g>
			<g id="XMLID_496_" class="st5">
				<path id="XMLID_497_" d="M79.7,327.1l8.8-5.9c0,0,3.9-23,0.3-43.3C83.7,249.5,64,240,57,243s-8.5,11.5,4.6,27.7
					C69.3,280.3,79.4,300.6,79.7,327.1z"/>
			</g>
			<g id="XMLID_494_">
				<path id="XMLID_495_" class="st4" d="M82.7,315.7C82.7,315.7,82.6,315.7,82.7,315.7c-0.4,0-0.7-0.4-0.6-0.7
					c3.2-26.8-8.1-55.9-20.4-67.4c-0.3-0.2-0.3-0.6,0-0.9c0.2-0.3,0.6-0.3,0.9,0C75,258.4,86.5,288,83.3,315.2
					C83.3,315.5,83,315.7,82.7,315.7z"/>
			</g>
		</g>
		<g id="XMLID_259_">
			<g id="XMLID_488_">
				<path id="XMLID_490_" class="st2" d="M56.6,342.7c-1.4,0.8-5.5-2.2-6.6-2.9c-1.9-1.2-3.5-3-4.6-5.1c-1.2-2.4-1.6-4.9-1.3-7.6
					c0.2-1.4,0.5-2.7,0.9-4.1c0.3-1.3,0.7-2.6,1-3.9c0.3-1.3,0.7-2.6,0.5-4c-0.4-2.7-2.8-4.5-5-6.1c-2.4-1.7-5-4.1-5-7.3
					c0-2.5,1.2-4.8,2.7-6.8c1.5-2,3.3-3.7,4.7-5.8c1-1.5,1.7-3.3,1.5-5c-0.1-1.1-0.6-2.1-1.2-3.1c-1.2-2.1-2.7-4-3.5-6.2
					c-0.8-2.2-0.8-5,1-6.7c1.4-1.4,3.6-1.6,5.5-1.5c1.8,0.1,3.6,0.9,5.2,1.7c5.2,2.7,8.2,8.8,13.7,10.8c2.1,0.8,4.4,0.9,6.6,1.5
					s4.4,1.6,5.5,3.6c2.1,3.9-1.5,8.9-0.1,13.1c1.3,3.7,5,5.1,7.1,8.4c0.9,1.5,1.2,3.2,1,4.9c-0.2,2.9-0.6,5.1-1.9,8.3
					c-1.1,2.7-4.4,7.9-4.4,7.9S56.8,342.6,56.6,342.7z"/>
			</g>
			<g id="XMLID_420_">
				<path id="XMLID_486_" class="st4" d="M70.1,334.4C70.1,334.4,70.1,334.4,70.1,334.4c-0.4,0-0.7-0.3-0.6-0.7
					c0.6-25.3-11.9-53-20.7-61c-0.3-0.2-0.3-0.6,0-0.9c0.2-0.3,0.6-0.3,0.9,0c9,8.1,21.7,36.3,21.1,61.9
					C70.8,334.1,70.5,334.4,70.1,334.4z"/>
			</g>
			<g id="XMLID_398_">
				<path id="XMLID_418_" class="st4" d="M65.5,303.6c-0.1,0-0.1,0-0.2,0c-8.2-2.4-18.3-2.6-18.4-2.6c-0.4,0-0.6-0.3-0.6-0.7
					c0-0.4,0.3-0.6,0.7-0.6c0.1,0,10.4,0.3,18.7,2.7c0.3,0.1,0.5,0.5,0.4,0.8C66,303.4,65.7,303.5,65.5,303.6z"/>
			</g>
		</g>
	</g>
</g>
<g id="Speech_Bubble">
	<g id="Speach_Bubble_1_">
		<g id="XMLID_557_">
			<path id="XMLID_2921_" class="st6" d="M301.2,309.7l-3.8-2.2c-1.2-0.7-2.2-2.4-2.2-3.8l0-157.5c0-1.4,1-3.1,2.2-3.8l105.3-60.8
				c1.2-0.7,3.1-0.7,4.3,0l3.8,2.2c1.2,0.7,2.2,2.4,2.2,3.8v157.5c0,1.4-1,3.1-2.2,3.8l-105.3,60.8
				C304.3,310.4,302.4,310.4,301.2,309.7z"/>
			<path id="XMLID_2933_" class="st6" d="M413,87.3c-0.1-1.1-1.1-1.5-2.1-0.9l-105.3,60.8c-0.6,0.4-1.1,0.9-1.5,1.6l-8.1-4.7
				c0.4-0.7,0.9-1.3,1.5-1.6l105.4-60.8c1.2-0.7,3.1-0.7,4.3,0l3.8,2.2C411.9,84.5,412.8,86,413,87.3z"/>
			<path id="XMLID_2932_" class="st7" d="M305.1,309.9c-1.2,0.5-2.9,0.5-4-0.2l-3.8-2.2c-1.2-0.7-2.2-2.4-2.2-3.8V146.3
				c0-0.7,0.2-1.4,0.6-2.1l8.1,4.7c-0.4,0.7-0.6,1.4-0.6,2.1v157.5C303.3,309.7,304.1,310.3,305.1,309.9z"/>
			<path id="XMLID_560_" class="st8" d="M303.3,151v157.5c0,1.4,1,1.9,2.2,1.2l105.3-60.8c1.2-0.7,2.2-2.4,2.2-3.8V87.7
				c0-1.4-1-1.9-2.2-1.2l-105.3,60.8C304.3,147.9,303.3,149.6,303.3,151z"/>
			<path id="XMLID_2955_" class="st6" d="M278.7,211c-1.4-0.8-7.7-4.4-8-4.6c-1-0.6-1.4-2.1-0.4-3.1l24.9-26.7l8.1,4.7L278.4,208
				C277.5,209,277.8,210.4,278.7,211z"/>
			<path id="XMLID_2927_" class="st8" d="M303.3,181.3L278.4,208c-1.2,1.3-0.2,3.5,1.6,3.4l23.3-1.9V181.3z"/>
		</g>
		<g id="XMLID_492_">
			<path id="XMLID_3091_" class="st2" d="M358.2,133.2c12.3-7.1,22.2-1.3,22.2,12.8s-10,31.4-22.2,38.5
				c-12.3,7.1-22.2,1.3-22.2-12.8C335.9,157.5,345.9,140.3,358.2,133.2z"/>
			<path id="XMLID_3076_" class="st4" d="M358,144.4c4-2.3,7.2-0.4,7.2,4.2c0,4.6-3.2,10.2-7.2,12.5c-4,2.3-7.2,0.4-7.2-4.2
				C350.8,152.3,354,146.7,358,144.4z"/>
			<path id="XMLID_3075_" class="st4" d="M372.2,168.9c0-7.6-5.3-10.6-11.8-6.8l-4.1,2.4c-6.5,3.8-11.8,13-11.8,20.5v2.1
				c1.2,0.4,2.5,0.6,3.8,0.6c3,0,6.3-1,9.9-3c5.3-3.1,10.2-8.1,14.1-13.9V168.9z"/>
		</g>
		<path id="XMLID_3178_" class="st2" d="M344.1,254.7l28.2-16.3c1.2-0.7,2.2-0.1,2.2,1.2v9.1c0,1.4-1,3.1-2.2,3.8l-28.2,16.3
			c-1.2,0.7-2.2,0.1-2.2-1.2v-9.1C341.9,257.1,342.9,255.4,344.1,254.7z"/>
		<path class="st9" d="M330.3,234.5l55.7-32.2c1.4-0.8,2.6-0.2,2.6,1.5v3.4c0,1.7-1.2,3.7-2.6,4.5l-55.7,32.2
			c-1.4,0.8-2.6,0.2-2.6-1.5V239C327.7,237.3,328.9,235.3,330.3,234.5z"/>
	</g>
</g>
<g id="Question_Marks_1_">
	<g id="Question_Marks">
		<g>
			<path class="st2" d="M247.4,38.4c1.7,0.4,3.4,1,4.9,1.9c1.5,0.8,2.9,1.9,3.9,3.1c1.1,1.2,1.8,2.6,2.3,4.2
				c0.5,1.6,0.5,3.3,0.1,5.1c-0.3,1.5-0.8,2.7-1.6,3.7c-0.7,1-1.5,1.8-2.4,2.6c-0.9,0.7-1.9,1.3-2.9,1.9c-1,0.5-2,1-2.9,1.5
				c-0.9,0.5-1.7,1-2.5,1.6c-0.7,0.6-1.2,1.3-1.5,2.1c-0.2,0.4-0.4,0.7-0.7,0.9c-0.3,0.2-0.7,0.3-1.1,0.2l-4.2-0.9
				c-0.4-0.1-0.7-0.3-1-0.7c-0.2-0.4-0.3-0.8-0.2-1.2c0.4-1.4,1-2.6,1.8-3.6c0.8-1,1.6-1.8,2.6-2.5c1-0.7,1.9-1.3,3-1.8
				c1-0.5,2-1,2.9-1.5c0.9-0.5,1.6-1,2.3-1.5c0.6-0.5,1-1.2,1.2-2c0.3-1.4,0-2.7-1-3.9c-1-1.2-2.5-2-4.4-2.4c-3.2-0.7-5.8,0.4-8,3.2
				c-0.3,0.4-0.5,0.6-0.8,0.8c-0.3,0.2-0.6,0.2-1.1,0.1l-4.5-1c-0.3-0.1-0.6-0.2-0.8-0.5c-0.2-0.3-0.2-0.6-0.2-1
				c0.3-1.3,1-2.5,2.1-3.7c1.1-1.2,2.4-2.2,3.9-3c1.5-0.8,3.2-1.4,5.1-1.7C243.5,37.9,245.4,38,247.4,38.4z M242.6,70.6
				c0.4,0.1,0.7,0.3,1,0.7c0.2,0.4,0.3,0.7,0.2,1.2l-1.1,4.9c-0.1,0.4-0.3,0.7-0.7,1c-0.4,0.2-0.7,0.3-1.2,0.2l-4.8-1.1
				c-0.4-0.1-0.7-0.3-1-0.7c-0.2-0.4-0.3-0.7-0.2-1.2l1.1-4.9c0.1-0.4,0.3-0.7,0.7-1c0.4-0.2,0.7-0.3,1.2-0.2L242.6,70.6z"/>
		</g>
		<g>
			<path class="st2" d="M252.7,85.3c1.2-0.2,2.4-0.2,3.6-0.1c1.2,0.1,2.3,0.5,3.3,1c1,0.5,1.9,1.2,2.6,2.1c0.7,0.9,1.2,2,1.4,3.2
				c0.2,1,0.2,2,0,2.8c-0.2,0.8-0.5,1.6-0.9,2.3c-0.4,0.7-0.9,1.3-1.4,1.9c-0.5,0.6-1,1.2-1.5,1.7c-0.5,0.5-0.8,1.1-1.2,1.7
				c-0.3,0.6-0.5,1.1-0.5,1.7c0,0.3-0.1,0.6-0.2,0.8c-0.1,0.2-0.4,0.4-0.6,0.4l-3,0.5c-0.3,0-0.6,0-0.8-0.2
				c-0.3-0.2-0.4-0.4-0.4-0.7c-0.1-1,0-1.9,0.2-2.8c0.2-0.8,0.6-1.6,1-2.3c0.4-0.7,0.9-1.3,1.4-1.9c0.5-0.6,1-1.2,1.5-1.7
				c0.4-0.5,0.8-1.1,1.1-1.6c0.3-0.5,0.4-1,0.3-1.6c-0.2-1-0.7-1.7-1.6-2.2c-0.9-0.5-2.1-0.6-3.5-0.4c-2.2,0.4-3.6,1.7-4.3,4.1
				c-0.1,0.3-0.2,0.5-0.3,0.7c-0.1,0.2-0.3,0.3-0.7,0.3l-3.2,0.5c-0.2,0-0.4,0-0.6-0.1c-0.2-0.1-0.3-0.3-0.4-0.6
				c-0.1-0.9,0-1.9,0.4-2.9c0.4-1,0.9-2,1.7-2.9c0.8-0.9,1.7-1.7,2.8-2.4C250.1,86,251.3,85.5,252.7,85.3z M257.9,107.2
				c0.3,0,0.5,0,0.8,0.2c0.2,0.2,0.4,0.4,0.4,0.7l0.6,3.4c0,0.3,0,0.5-0.2,0.8c-0.2,0.2-0.4,0.4-0.7,0.4l-3.3,0.5
				c-0.3,0-0.5,0-0.8-0.2c-0.2-0.2-0.4-0.4-0.4-0.7l-0.6-3.4c0-0.3,0-0.5,0.2-0.8c0.2-0.2,0.4-0.4,0.7-0.4L257.9,107.2z"/>
		</g>
		<g class="st10">
			<path d="M252.7,85.3c1.2-0.2,2.4-0.2,3.6-0.1c1.2,0.1,2.3,0.5,3.3,1c1,0.5,1.9,1.2,2.6,2.1c0.7,0.9,1.2,2,1.4,3.2
				c0.2,1,0.2,2,0,2.8c-0.2,0.8-0.5,1.6-0.9,2.3c-0.4,0.7-0.9,1.3-1.4,1.9c-0.5,0.6-1,1.2-1.5,1.7c-0.5,0.5-0.8,1.1-1.2,1.7
				c-0.3,0.6-0.5,1.1-0.5,1.7c0,0.3-0.1,0.6-0.2,0.8c-0.1,0.2-0.4,0.4-0.6,0.4l-3,0.5c-0.3,0-0.6,0-0.8-0.2
				c-0.3-0.2-0.4-0.4-0.4-0.7c-0.1-1,0-1.9,0.2-2.8c0.2-0.8,0.6-1.6,1-2.3c0.4-0.7,0.9-1.3,1.4-1.9c0.5-0.6,1-1.2,1.5-1.7
				c0.4-0.5,0.8-1.1,1.1-1.6c0.3-0.5,0.4-1,0.3-1.6c-0.2-1-0.7-1.7-1.6-2.2c-0.9-0.5-2.1-0.6-3.5-0.4c-2.2,0.4-3.6,1.7-4.3,4.1
				c-0.1,0.3-0.2,0.5-0.3,0.7c-0.1,0.2-0.3,0.3-0.7,0.3l-3.2,0.5c-0.2,0-0.4,0-0.6-0.1c-0.2-0.1-0.3-0.3-0.4-0.6
				c-0.1-0.9,0-1.9,0.4-2.9c0.4-1,0.9-2,1.7-2.9c0.8-0.9,1.7-1.7,2.8-2.4C250.1,86,251.3,85.5,252.7,85.3z M257.9,107.2
				c0.3,0,0.5,0,0.8,0.2c0.2,0.2,0.4,0.4,0.4,0.7l0.6,3.4c0,0.3,0,0.5-0.2,0.8c-0.2,0.2-0.4,0.4-0.7,0.4l-3.3,0.5
				c-0.3,0-0.5,0-0.8-0.2c-0.2-0.2-0.4-0.4-0.4-0.7l-0.6-3.4c0-0.3,0-0.5,0.2-0.8c0.2-0.2,0.4-0.4,0.7-0.4L257.9,107.2z"/>
		</g>
		<g>
			<path class="st2" d="M281,90.7c0.3,0.2,0.4,0.5,0.5,0.8c0.1,0.3,0,0.7-0.2,0.9l-2.4,3.4c-0.2,0.3-0.5,0.4-0.8,0.5
				c-0.3,0.1-0.7,0-0.9-0.2l-3.3-2.3c-0.3-0.2-0.4-0.5-0.5-0.8c-0.1-0.3,0-0.7,0.2-0.9l2.4-3.4c0.2-0.3,0.5-0.4,0.8-0.5
				c0.3-0.1,0.7,0,0.9,0.2L281,90.7z M294.8,68c1.2,0.8,2.2,1.8,3.1,3c0.9,1.1,1.6,2.3,2,3.6c0.4,1.3,0.6,2.6,0.4,3.9
				c-0.1,1.3-0.7,2.6-1.5,3.9c-0.7,1-1.5,1.8-2.4,2.3c-0.9,0.5-1.7,0.9-2.7,1.2c-0.9,0.2-1.8,0.4-2.8,0.5c-0.9,0.1-1.8,0.2-2.7,0.2
				c-0.8,0.1-1.6,0.2-2.4,0.4c-0.7,0.2-1.3,0.6-1.8,1.1c-0.2,0.2-0.5,0.4-0.9,0.5c-0.3,0.1-0.6,0-0.9-0.2l-2.9-2.1
				c-0.3-0.2-0.5-0.5-0.5-0.8c-0.1-0.4,0-0.7,0.2-0.9c0.8-1,1.6-1.7,2.5-2.2c0.9-0.5,1.8-0.8,2.8-1.1c0.9-0.2,1.9-0.4,2.8-0.4
				c0.9-0.1,1.8-0.1,2.6-0.2c0.8-0.1,1.6-0.2,2.2-0.4c0.6-0.2,1.2-0.6,1.5-1.1c0.7-1,0.8-2,0.5-3.2c-0.4-1.2-1.2-2.3-2.6-3.2
				c-2.2-1.5-4.5-1.6-7.1-0.1c-0.3,0.2-0.6,0.3-0.8,0.3c-0.2,0-0.5-0.1-0.9-0.3l-3.1-2.2c-0.2-0.2-0.4-0.4-0.4-0.6
				c-0.1-0.3,0-0.5,0.2-0.8c0.7-0.9,1.6-1.6,2.8-2.1s2.5-0.9,3.9-1c1.4-0.1,2.9,0,4.4,0.3C292.1,66.4,293.5,67,294.8,68z"/>
		</g>
		<g class="st11">
			<path class="st4" d="M281,90.7c0.3,0.2,0.4,0.5,0.5,0.8c0.1,0.3,0,0.7-0.2,0.9l-2.4,3.4c-0.2,0.3-0.5,0.4-0.8,0.5
				c-0.3,0.1-0.7,0-0.9-0.2l-3.3-2.3c-0.3-0.2-0.4-0.5-0.5-0.8c-0.1-0.3,0-0.7,0.2-0.9l2.4-3.4c0.2-0.3,0.5-0.4,0.8-0.5
				c0.3-0.1,0.7,0,0.9,0.2L281,90.7z M294.8,68c1.2,0.8,2.2,1.8,3.1,3c0.9,1.1,1.6,2.3,2,3.6c0.4,1.3,0.6,2.6,0.4,3.9
				c-0.1,1.3-0.7,2.6-1.5,3.9c-0.7,1-1.5,1.8-2.4,2.3c-0.9,0.5-1.7,0.9-2.7,1.2c-0.9,0.2-1.8,0.4-2.8,0.5c-0.9,0.1-1.8,0.2-2.7,0.2
				c-0.8,0.1-1.6,0.2-2.4,0.4c-0.7,0.2-1.3,0.6-1.8,1.1c-0.2,0.2-0.5,0.4-0.9,0.5c-0.3,0.1-0.6,0-0.9-0.2l-2.9-2.1
				c-0.3-0.2-0.5-0.5-0.5-0.8c-0.1-0.4,0-0.7,0.2-0.9c0.8-1,1.6-1.7,2.5-2.2c0.9-0.5,1.8-0.8,2.8-1.1c0.9-0.2,1.9-0.4,2.8-0.4
				c0.9-0.1,1.8-0.1,2.6-0.2c0.8-0.1,1.6-0.2,2.2-0.4c0.6-0.2,1.2-0.6,1.5-1.1c0.7-1,0.8-2,0.5-3.2c-0.4-1.2-1.2-2.3-2.6-3.2
				c-2.2-1.5-4.5-1.6-7.1-0.1c-0.3,0.2-0.6,0.3-0.8,0.3c-0.2,0-0.5-0.1-0.9-0.3l-3.1-2.2c-0.2-0.2-0.4-0.4-0.4-0.6
				c-0.1-0.3,0-0.5,0.2-0.8c0.7-0.9,1.6-1.6,2.8-2.1s2.5-0.9,3.9-1c1.4-0.1,2.9,0,4.4,0.3C292.1,66.4,293.5,67,294.8,68z"/>
		</g>
	</g>
</g>
<g id="Character">
	<g id="Character_3_">
		<g id="XMLID_285_">
			<path id="XMLID_286_" class="st7" d="M206.5,179.2H171V93.1c0-15.6,12.6-28.2,28.2-28.2h3.3c15.6,0,28.2,12.6,28.2,28.2v62
				C230.7,168.4,219.9,179.2,206.5,179.2z"/>
		</g>
		<g id="XMLID_2226_">
			<g id="XMLID_283_">
				<path id="XMLID_284_" class="st7" d="M167.5,386.4c-0.3,2.2-0.9,4.7-1,10.8c-0.1,6.6-1.3,8.9-1.5,14.3
					c-0.2,6.1,0.9,8.5,3.4,11.9c2.5,3.5,9,6.6,11.8,0.8c2.8-5.9,2.4-9.7,1.5-15.7c-0.9-6.2-1-9.7-1.6-14.4c-0.5-4.2-1-7.4-1-7.4
					L167.5,386.4z"/>
				<path id="XMLID_2235_" class="st12" d="M186.2,342.9l-21.6-0.4c0.3,14.4,2.6,30.4,3,44c0.1,2.5-0.1,19.8,0.9,25
					c1.4,7.9,10.8,6.8,11.3,2.1c0.5-4.7-0.6-24.8-0.6-26.9c-0.1-8.7,4-23.3,6.1-38.9C185.4,347,186.1,343.6,186.2,342.9z"/>
			</g>
			<g id="XMLID_266_">
				<path id="XMLID_282_" class="st7" d="M213.9,375.2c0,0-0.9-0.5-1,0.5c-0.2,1.1-0.5,3.3-1,5.1c-0.6,2.5-1.1,6.5-0.8,8.6
					s5.1,4.6,8.1,5.5c4.5,1.4,7.6,3.6,10,6c3,2.8,9.5,5.5,14,5.5c5.2,0,8.9-1.7,10.6-4.6c1.8-2.9-1.6-3.2-7.6-7
					c-1.4-0.9-2.9-1.9-4.7-3c-9.5-6.2-13-9.5-15.7-15.7L213.9,375.2z"/>
				<path id="XMLID_269_" class="st12" d="M226.1,371.4c-0.2-4.5,2.9-42.3,2.9-42.3l-20.5,9.4c4.4,26.2,5.3,32.4,5.4,36.7l0,0
					c0,0.1-0.1,0.5-0.1,1.1c0,5.1,5.8,7.8,10.3,11.2c1.8,1.3,6.9,5.3,12.1,7.9c3.3,1.6,9.9,1.8,10.7-0.3
					c-5.5-4.2-13.4-10.4-17.7-15.2C227,377.6,226.2,375.8,226.1,371.4z"/>
			</g>
			<path id="XMLID_261_" class="st6" d="M173.4,202.2c-7.9,17.3-7.9,30.7-6.6,52.7c1.2,20.2,3.1,38.1,3.1,38.1
				c-0.3,3.6-5.3,10.6-5.9,26.5c-0.6,14.8,1,33.7,1,33.7s11.2,6.2,19.5-0.1c0,0,8-38.2,10.3-56.8c2-16.2,5.6-36.9,5.6-36.9l7.5,36.8
				c0,0-2.9,9.1-3.5,16c-1.1,10.9,5.1,32.4,5.1,32.4s11.6,3.5,18.7-2.8c0,0,2.6-34.9,3.6-48.1c1.3-17.6-1.5-65.4-3.6-90.6
				L173.4,202.2z"/>
			<path id="XMLID_2227_" class="st7" d="M200.4,259.4l3.1-27.7c0,0,13.9-1.9,20.3-7.8c0,0-4.7,8.7-16.4,10.4l-4.5,25.8l5.1,36.2
				L200.4,259.4z"/>
		</g>
		<g id="XMLID_2194_">
			<path id="XMLID_610_" class="st12" d="M256.9,195.3c0.9-8.5,0.8-14.2,0.8-15.3c-0.3-4.4-1.1-5.1-7.2-12.9
				c-8.3-10.5-15.4-20-22.9-29.4c-5.4-6.7-11-7.8-16.5-7.5c-3.8,0.2,3.7,18.7,7.4,29.6l21.6,23.2c0.7,0.9,1,2,0.9,3.2l-1.3,19.7
				l6.5,8.6C246,214.6,255.8,206.2,256.9,195.3z"/>
			<path id="XMLID_2220_" class="st2" d="M190.3,130.9L190.3,130.9c-4.2,0.3-11.7,1-11.7,1c-4.4,2.4-5.5,4.4-6.3,10.3
				c-0.3,2.5,1.7,9.1,3.4,18.4l3.3,17.4l-0.4,8.6c-1.7,5.3-5.6,11.8-9,21.4c16.7,9.3,30.7,9.7,43.4,8c9.7-1.2,14.8-3.6,16.5-5.9
				c-0.4-9.5-1-15.4-1.2-25.3c-0.1-4.2,0.2-8.4,0.3-13.2c6.5-5.3,6.6-14.2,3-19.9c-8.2-13.3-16.2-21.7-21.5-21.3L190.3,130.9z"/>
			<path id="XMLID_564_" class="st13" d="M190.3,130.9L190.3,130.9c-4.2,0.3-11.7,1-11.7,1c-4.4,2.4-5.5,4.4-6.3,10.3
				c-0.3,2.5,1.7,9.1,3.4,18.4l3.3,17.4l-0.4,8.6c-1.7,5.3-5.6,11.8-9,21.4c16.7,9.3,30.7,9.7,43.4,8c9.7-1.2,14.8-3.6,16.5-5.9
				c-0.4-9.5-1-15.4-1.2-25.3c-0.1-4.2,0.2-8.4,0.3-13.2c6.5-5.3,6.6-14.2,3-19.9c-8.2-13.3-16.2-21.7-21.5-21.3L190.3,130.9z"/>
			<path class="st14" d="M215.8,171.7c0,0-7.6,5.9-16.3,2.8c-8.7-3.1-10-10.7-10-10.7s-0.9,9.9,10.1,13.3
				C210.1,180.5,215.8,171.7,215.8,171.7z"/>
			<g id="XMLID_2195_">
				<g id="XMLID_2209_">
					<path class="st12" d="M226.1,103.6c-0.3,14.4-5,18-7.4,19c-2.3,1-6.9,0.4-11.3-0.3v8.7c0,0,5.1,5.3,4.7,9.3
						c-0.4,4-8,4.4-13.7,0.5c-4.2-2.8-7.1-6.1-8.4-7.6c-0.5-0.6-0.7-1.3-0.7-2v-20.4c0,0-2.4,2.6-6.7-0.4c-4.3-2.9-4.6-8.3-2-11.4
						c1.9-2.2,6.6-2.3,8.8,1.1c1.3,2.5,1.4,5,2.9,4c3.8-2.7,1.8-9,6.4-12c0,0,0,0,0,0c1.4-0.7,2.9-1.4,4.7-2
						c8.2-2.8,15.3-5.2,17-10.8C223.6,81.1,226.5,86.6,226.1,103.6z"/>
				</g>
				<circle class="st15" cx="209.9" cy="114.6" r="1.9"/>
				<g id="XMLID_2206_">
					<path id="XMLID_2207_" class="st7" d="M208.7,101.4c0.1,1.1-0.8,2.1-1.9,2.2c-1.1,0.1-2-0.8-2.1-2c-0.1-1.1,0.8-2.1,1.9-2.2
						C207.7,99.4,208.6,100.3,208.7,101.4z"/>
				</g>
				<g id="XMLID_2200_">
					<path id="XMLID_2201_" class="st7" d="M223.8,101.6c0.1,1-0.7,1.9-1.7,2c-1.1,0.1-1.9-0.7-1.9-1.8c-0.1-1,0.7-1.9,1.7-2
						C222.9,99.8,223.8,100.6,223.8,101.6z"/>
				</g>
				<g>
					<path class="st6" d="M206.1,106.6c-3.6,0-6.5-2.9-6.5-6.5c0-4.4,4.6-4.4,6.5-4.4c1.9,0,6.5,0,6.5,4.4
						C212.6,103.6,209.7,106.6,206.1,106.6z M206.1,96.7c-3.9,0-5.5,1-5.5,3.4c0,3,2.5,5.5,5.5,5.5s5.5-2.5,5.5-5.5
						C211.6,97.6,210,96.7,206.1,96.7z"/>
				</g>
				<g>
					<path class="st6" d="M222.6,106.6c-3.6,0-6.5-2.9-6.5-6.5c0-4.4,4.6-4.4,6.5-4.4c1.9,0,6.5,0,6.5,4.4
						C229.1,103.6,226.2,106.6,222.6,106.6z M222.6,96.7c-3.9,0-5.5,1-5.5,3.4c0,3,2.5,5.5,5.5,5.5s5.5-2.5,5.5-5.5
						C228.1,97.6,226.6,96.7,222.6,96.7z"/>
				</g>
				<g id="XMLID_2198_">
					<polygon id="XMLID_2199_" class="st16" points="213.6,98 213.9,110.1 220.3,108.1 					"/>
				</g>
				<g id="XMLID_2196_">
					<path id="XMLID_2197_" class="st16" d="M207.4,122.3c-4.6-0.6-14.2-3.4-15.7-7.1c0,0,0.5,2.4,3.3,4.8
						c2.9,2.4,12.3,5.2,12.3,5.2V122.3z"/>
				</g>
				<path id="XMLID_405_" class="st7" d="M207.7,92.1l-4.2,2.6c-0.7-1.2-0.3-2.8,0.9-3.5C205.5,90.4,207,90.8,207.7,92.1z"/>
				<path id="XMLID_382_" class="st7" d="M224.9,94.9l-4.7-1.6c0.4-1.3,1.8-2,3.1-1.6C224.6,92.2,225.3,93.6,224.9,94.9z"/>
				<g>
					<path class="st6" d="M212.1,100.6c-0.3,0-0.5-0.2-0.5-0.5c0-0.8,1.6-1.4,3.1-1.4s2.4,0.5,2.4,1.4c0,0.3-0.2,0.5-0.5,0.5
						c-0.3,0-0.5-0.2-0.5-0.5c0-0.1-0.5-0.3-1.4-0.3c-0.9,0-2.1,0.2-2.1,0.4C212.6,100.4,212.4,100.6,212.1,100.6z"/>
				</g>
				<g>
					<path class="st6" d="M200.1,100.1C200.1,100.1,200.1,100.1,200.1,100.1l-11.5-1c-0.2-0.2-0.7-0.7-1.9-1.2l13.4,1.2
						c0.3,0,0.5,0.3,0.5,0.6C200.6,99.9,200.4,100.1,200.1,100.1z"/>
				</g>
			</g>
		</g>
		<g>
			<path class="st12" d="M153.2,112.1c3.7-5,6.3-8.8,9.7-13c1.9-2.4,3.2-4.2,5-6.7c1.3-1.7,2-3.2,3.5-3.7c1.6-0.6,3.1-1.8,4.2-2.9
				c0.7-0.8,1.3-1.7,2-2.5c2.1-2.9,4.7-5.4,7.6-7.6c3-2.3,6.4-4,9.4-6.2c1.8-1.3,3.8-3.4,1.6-5.4c-0.7-0.6-1.5-1-2.4-1.1
				c-5.4-1.2-10.2,0.7-15.5,2c-2.3,0.6-4.6,1.3-6.8,2.3c-1.1,0.5-2.1,1-3,1.7c-1.4,1.2-2.2,2.8-3.1,4.4c-2.4,4.2-7.4,7.9-10.8,11.2
				c-4.1,3.8-7.8,7.4-12.4,11.6c-4.2,3.8-8.3,7.3-12.2,11.5c-3.2,3.5-2,6.2-1.6,7.1c2.6,5.3,5.5,7.3,9,10.6
				c6,5.7,26.8,22.2,33.6,27.7c1.5,1.2,2.6,2.7,3.4,4.4l1.3,3.1c7.8,1.4,13.1-10.3,6.6-24.5c-1.1-2.3-2.7-4.3-4.8-5.7
				C169.3,124.3,153.2,112.1,153.2,112.1z"/>
			<path class="st16" d="M153.2,112.1c0,0-3.5,4.7-9.6,6.6c0,0,5,1.3,11.8-4.9L153.2,112.1z"/>
		</g>
		<g id="XMLID_2739_">
			<g id="XMLID_2725_">
				<g id="XMLID_2695_">
					<path id="XMLID_563_" class="st6" d="M254.9,184.9L254.9,184.9l-1.3-1.1l0,0c-0.3-0.2-0.7-0.3-1.3-0.1l-13.9,3.8
						c-1.3,0.4-2.7,1.7-3.1,2.9l-10,28.8c-0.2,0.7-0.1,1.2,0.2,1.5l0,0l1.3,1.1l0,0c0.3,0.2,0.7,0.3,1.3,0.2l13.9-3.8
						c1.3-0.4,2.7-1.7,3.1-2.9c2-5.7,8-23.2,10-28.8C255.4,185.7,255.2,185.2,254.9,184.9z"/>
					<path id="XMLID_2696_" class="st2" d="M226.6,220.3l10-28.8c0.4-1.3,1.8-2.6,3.1-2.9l13.9-3.8c1.3-0.4,2,0.4,1.5,1.6
						c-2,5.7-8,23.2-10,28.8c-0.4,1.3-1.8,2.6-3.1,2.9l-13.9,3.8C226.8,222.3,226.1,221.6,226.6,220.3z"/>
					<path id="XMLID_2726_" class="st8" d="M238.2,189.4c-0.7,0.6-1.3,1.4-1.6,2.1l-10,28.8c-0.2,0.6-0.2,1.2,0.1,1.4l-1.2-1.1l0,0
						c-0.3-0.3-0.4-0.8-0.2-1.5l10-28.8c0.2-0.7,0.8-1.4,1.5-2L238.2,189.4z"/>
				</g>
				<path id="XMLID_2549_" class="st16" d="M251,198c-1,2.9-4.5,4.9-10.2,6.3c-5.7,1.4-8.9,7.4-8,9.3c0.9,1.9,10.2,3.6,13.9,3
					c3.7-0.5,7.4-5.9,8.6-7.5s2.4-13.2,1.2-14.8c-1.2-1.6-3.7-1.3-3.7-1.3L251,198z"/>
			</g>
		</g>
	</g>
</g>
</svg>
