<?xml version="1.0" encoding="utf-8"?>
<!-- Generator: Adobe Illustrator 27.1.1, SVG Export Plug-In . SVG Version: 6.00 Build 0)  -->
<svg version="1.1" xmlns="http://www.w3.org/2000/svg" xmlns:xlink="http://www.w3.org/1999/xlink" x="0px" y="0px"
	 viewBox="0 0 59 25" style="enable-background:new 0 0 59 25;" xml:space="preserve">
<style type="text/css">
	.st0{display:none;}
	.st1{display:inline;}
	.st2{fill:#FFFFFF;}
	.st3{fill:#1470B8;}
	.st4{fill:#1DB574;}
	.st5{fill:#23B474;}
	.st6{fill:#1EB573;}
	.st7{fill:#21B573;}
	.st8{fill:#1FB573;}
	.st9{fill:#166FB8;}
	.st10{fill:#1DB575;}
	.st11{fill:#1254A0;}
	.st12{fill:#1570B7;}
	.st13{fill:#114F99;}
	.st14{fill:#125099;}
	.st15{fill:#134F97;}
	.st16{fill:#11519A;}
	.st17{fill:#55B54A;}
	.st18{fill:#3CAD4B;}
	.st19{fill:#54B34B;}
	.st20{fill:#114F98;}
	.st21{fill:#124F97;}
	.st22{fill:#3DAF4C;}
	.st23{fill:#3FAD4C;}
	.st24{fill:#3BAF4C;}
	.st25{fill:#3BAC4B;}
	.st26{fill:#3DAD4C;}
	.st27{fill:#3AAE4C;}
	.st28{fill:#10509B;}
	.st29{fill:#125098;}
	.st30{fill:#A8BBE0;}
	.st31{fill:#6BC394;}
	.st32{fill:#3CAE4D;}
	.st33{fill:#99D0AE;}
	.st34{fill:#3DAE4B;}
	.st35{fill:#3BAE4E;}
	.st36{fill:#69BD8F;}
	.st37{fill:#8ECCA5;}
	.st38{fill:#CEE3D4;}
	.st39{fill:#6EC393;}
	.st40{fill:#70C492;}
	.st41{fill:#7FBC9B;}
	.st42{fill:#80BD9C;}
	.st43{fill:#71849B;}
	.st44{fill:#3B5F8A;}
	.st45{fill:#7F8F9C;}
	.st46{fill:#65A264;}
	.st47{fill:#F6F5F5;}
	.st48{fill:#669967;}
	.st49{fill:#32679A;}
	.st50{fill:#807D81;}
	.st51{fill:#254E82;}
	.st52{fill:#8EA7D6;}
	.st53{fill:#808884;}
	.st54{fill:#808184;}
	.st55{fill:#AABCE0;}
	.st56{fill:#68BF8D;}
	.st57{fill:#B6DEC4;}
	.st58{fill:#F5F5F5;}
	.st59{fill:#7B867C;}
	.st60{fill:#61BE8A;}
	.st61{fill:#838056;}
	.st62{fill:#79C69B;}
	.st63{fill:#134D95;}
	.st64{fill:#2B5287;}
	.st65{fill:#82BD9C;}
	.st66{fill:#79797F;}
	.st67{fill:#79BD97;}
	.st68{fill:#D4E6DA;}
	.st69{fill:#6A6D6F;}
	.st70{fill:#D0E3D6;}
	.st71{fill:#48A050;}
	.st72{fill:#807D7F;}
	.st73{fill:#807C7F;}
	.st74{fill:#747578;}
	.st75{fill:#6FB392;}
	.st76{fill:#6F767F;}
	.st77{fill:#818483;}
	.st78{fill:#818281;}
	.st79{fill:#8C8C8A;}
	.st80{fill:#729D65;}
	.st81{fill:#B2C2E3;}
	.st82{fill:#666D68;}
	.st83{fill:#716C6E;}
	.st84{fill:#767377;}
	.st85{fill:#9CD2B1;}
	.st86{fill:#648D60;}
	.st87{fill:#3BAE4C;}
	.st88{fill:#8F9692;}
	.st89{fill:#6F91CA;}
	.st90{fill:#8CA7D6;}
	.st91{fill:#919AAC;}
	.st92{fill:#7C7479;}
	.st93{fill:#838182;}
	.st94{fill:#8A8791;}
	.st95{fill:#63605E;}
	.st96{fill:#61AC8B;}
	.st97{fill:#6186BD;}
	.st98{fill:#6DB292;}
	.st99{fill:#C8DFC3;}
	.st100{fill:#B8DEC5;}
	.st101{fill:#6EBE71;}
	.st102{fill:#709C70;}
	.st103{fill:#FEFFFF;}
	.st104{fill:#7495CD;}
	.st105{fill:#68B0DA;}
	.st106{fill:#679084;}
	.st107{fill:#6ABBE3;}
	.st108{fill:#56A2D3;}
	.st109{fill:#DCE7F2;}
	.st110{fill:#E0ECF6;}
	.st111{fill:#224F84;}
	.st112{fill:#CAE1F2;}
	.st113{fill:#558FC6;}
	.st114{fill:#5F88C1;}
	.st115{fill:#A5CEED;}
	.st116{fill:#164D89;}
	.st117{fill:#A2CCEB;}
	.st118{fill:#AAD4F1;}
	.st119{fill:#94D2F0;}
	.st120{fill:#4B7CB6;}
	.st121{fill:#5181B9;}
	.st122{fill:#E7EBF6;}
	.st123{fill:#FCFDFE;}
	.st124{fill:#F5F7FB;}
	.st125{fill:#EFF2F9;}
	.st126{fill:#F7F8FC;}
	.st127{fill:#BD3B29;}
	.st128{fill:#EBF5E9;}
	.st129{fill:#3C5F74;}
	.st130{fill:#2B3D48;}
	.st131{fill:#C1CACC;}
	.st132{fill:#2F4F80;}
	.st133{display:none;fill:#49B863;}
	.st134{clip-path:url(#SVGID_00000157997037352071613110000002451077541162108092_);fill:#808184;}
	.st135{fill:#50B748;}
	.st136{fill:#0455A4;}
	.st137{fill:#231F20;}
	.st138{fill:#8DD7F7;}
	.st139{fill:#1B93D2;}
	.st140{fill:#E6E7E8;}
	.st141{fill:#D0D2D3;}
	.st142{fill:#EB2027;}
	
		.st143{clip-path:url(#SVGID_00000091711075579449198240000008783034357028644769_);fill-rule:evenodd;clip-rule:evenodd;fill:#38B04A;}
	
		.st144{clip-path:url(#SVGID_00000091711075579449198240000008783034357028644769_);fill-rule:evenodd;clip-rule:evenodd;fill:#0A519C;}
	.st145{fill-rule:evenodd;clip-rule:evenodd;fill:#38B04A;}
	
		.st146{clip-path:url(#SVGID_00000137093115377193761730000013581838841755642275_);fill-rule:evenodd;clip-rule:evenodd;fill:#38B04A;}
	.st147{fill-rule:evenodd;clip-rule:evenodd;fill:#0A519C;}
	.st148{fill-rule:evenodd;clip-rule:evenodd;fill:#6E7072;}
	.st149{fill-rule:evenodd;clip-rule:evenodd;fill:#6D6F71;}
	.st150{fill-rule:evenodd;clip-rule:evenodd;fill:#0B519D;}
	.st151{fill-rule:evenodd;clip-rule:evenodd;fill:#6F7273;}
	.st152{fill-rule:evenodd;clip-rule:evenodd;fill:#6E6F72;}
	.st153{fill-rule:evenodd;clip-rule:evenodd;fill:#3AB14A;}
	.st154{fill-rule:evenodd;clip-rule:evenodd;fill:#6F7272;}
	.st155{fill-rule:evenodd;clip-rule:evenodd;fill:#707373;}
	.st156{fill-rule:evenodd;clip-rule:evenodd;fill:#6B6F73;}
	.st157{fill-rule:evenodd;clip-rule:evenodd;fill:#727475;}
	.st158{fill-rule:evenodd;clip-rule:evenodd;fill:#747577;}
	.st159{fill-rule:evenodd;clip-rule:evenodd;fill:#757979;}
	.st160{fill-rule:evenodd;clip-rule:evenodd;fill:#747B78;}
	.st161{fill-rule:evenodd;clip-rule:evenodd;fill:#898B8C;}
	.st162{fill-rule:evenodd;clip-rule:evenodd;fill:#838587;}
	.st163{fill-rule:evenodd;clip-rule:evenodd;fill:#1F5EA0;}
	.st164{fill-rule:evenodd;clip-rule:evenodd;fill:#16589E;}
	.st165{fill-rule:evenodd;clip-rule:evenodd;fill:#6992C2;}
	.st166{fill-rule:evenodd;clip-rule:evenodd;fill:#898D91;}
	.st167{fill-rule:evenodd;clip-rule:evenodd;fill:#858788;}
	.st168{fill-rule:evenodd;clip-rule:evenodd;fill:#30639C;}
	.st169{fill-rule:evenodd;clip-rule:evenodd;fill:#87888A;}
	.st170{fill-rule:evenodd;clip-rule:evenodd;fill:#969899;}
	.st171{fill-rule:evenodd;clip-rule:evenodd;fill:#5277A1;}
	.st172{fill-rule:evenodd;clip-rule:evenodd;fill:#898A8C;}
	.st173{fill-rule:evenodd;clip-rule:evenodd;fill:#7199C4;}
	.st174{fill-rule:evenodd;clip-rule:evenodd;fill:#BBCCE1;}
	.st175{fill-rule:evenodd;clip-rule:evenodd;fill:#0B519C;}
	.st176{fill-rule:evenodd;clip-rule:evenodd;fill:#486280;}
	.st177{fill-rule:evenodd;clip-rule:evenodd;fill:#868889;}
	.st178{fill:#49B863;}
</style>
<g id="Layer_1" class="st0">
	<g class="st1">
		<g>
			<path class="st2" d="M29.49,24.99c-9.69,0-19.39,0-29.08,0.01C0.08,25,0,24.95,0,24.6C0.01,16.52,0.01,8.45,0,0.37
				C0,0.11,0.02,0,0.35,0c19.44,0.01,38.87,0.01,58.31,0C58.93,0,59,0.05,59,0.33c-0.01,8.11-0.01,16.22,0,24.33
				c0,0.4-0.18,0.34-0.42,0.34C48.88,24.99,39.19,24.99,29.49,24.99z"/>
			<path class="st3" d="M27.66,16.25c0,2.48-0.02,4.96,0,7.44c0,0.41-0.1,0.52-0.52,0.52c-2.12-0.03-4.24-0.02-6.37-0.02
				c-0.12-0.16-0.06-0.35-0.06-0.53c0-3.36,0-6.71-0.01-10.07c0-0.18,0.06-0.36-0.06-0.53c-1.98,0-3.96-0.01-5.93-0.01
				c-4.27,0-8.55-0.01-12.82,0.01c-0.51,0-0.53-0.21-0.5-0.58c0.02-0.32-0.12-0.73,0.48-0.64c0.34,0.05,0.69,0.01,1.05,0.01
				c-0.13-0.64,0.18-1.17,0.3-1.74C3.28,9.89,3.4,9.68,3.45,9.46c0.16-0.7,0.51-1.2,1.24-1.4C4.83,7.61,4.73,7.15,4.75,6.7
				c0.03-0.61-0.04-1.21,0.04-1.82C4.91,4.45,4.77,4.2,4.31,4.14C4.18,4.12,4.06,4.04,3.94,4C3.82,3.96,3.7,3.93,3.7,3.78
				C3.69,3.64,3.82,3.61,3.93,3.57C4.85,3.23,5.76,2.9,6.68,2.56c0.13-0.05,0.25-0.05,0.38,0c0.9,0.33,1.81,0.65,2.71,0.98
				C10.02,3.63,10.23,3.7,9.9,4c-0.22,0.2-0.18,0.54,0.01,0.79c0.13,0.17,0.13,0.36,0.08,0.52c-0.06,0.21-0.3,0.24-0.46,0.16
				C9.28,5.34,9.34,5.05,9.44,4.91c0.19-0.25,0.14-0.49,0.14-0.75c-0.7,0.12-0.65,0.11-0.6,0.82c0.06,0.87,0.03,1.76,0.02,2.63
				C8.99,7.91,9.04,8.11,9.36,8.2c0.46,0.13,0.69,0.47,0.83,0.91c0.26,0.83,0.58,1.65,0.6,2.54c0,0.14,0.04,0.23,0.19,0.21
				c0.2-0.03,0.5,0.13,0.58-0.1c0.23-0.64,0.75-0.95,1.31-1.21c0.6-0.28,1.2-0.55,1.64-1.1c0.03,0.08,0.06,0.12,0.05,0.13
				c-0.32,0.47-0.17,0.78,0.34,0.96c0.6,0.21,0.93,0.6,0.78,1.31c0.11-0.06,0.16-0.07,0.16-0.08c-0.11-0.7,0.29-1.05,0.88-1.26
				c0.43-0.16,0.55-0.42,0.3-0.82c-0.04-0.06-0.04-0.12,0.02-0.23c0.46,0.63,1.18,0.82,1.81,1.18c0.45,0.26,0.99,0.46,1.02,1.11
				c0.01,0.14,0.14,0.11,0.23,0.11c0.18,0,0.36-0.01,0.55-0.01c0.13-0.58,0.03-1.17,0.06-1.75c0.02-0.44-0.04-0.88,0.04-1.32
				c0.27-5.38,4.83-9.12,10.08-8.28c3.45,0.56,5.73,2.49,6.81,5.8c0.17,0.54,0.21,1.12,0.31,1.68c0.06,0.5,0.05,1,0,1.5
				c-0.09,0.79-0.2,1.57-0.53,2.39c0.23,0,0.42,0,0.61,0c6.39,0,12.77,0,19.16,0.01c0.16,0,0.44-0.12,0.48,0.11
				c0.06,0.33,0.09,0.7-0.02,1.03c-0.04,0.12-0.24,0.05-0.37,0.05c-1.43,0-2.86,0-4.29,0c-5.22,0-10.44,0-15.67-0.01
				c-0.35,0-0.57,0.09-0.78,0.38c-1.19,1.69-2.92,2.42-4.9,2.71c-0.89,0.13-1.79,0.1-2.68,0.08C28.52,16.18,28.09,16.12,27.66,16.25
				z"/>
			<path class="st4" d="M39.25,10.15c-0.01-2.57-0.01-5.14-0.02-7.7c0-0.29,0.1-0.36,0.37-0.35c1.05,0.01,2.09-0.03,3.14,0.02
				c0.8,0.04,1.59,0.16,2.32,0.54c1.46,0.75,2.17,2.39,1.89,4.2c-0.21,1.37-0.9,2.32-2.07,2.96c-0.85,0.47-1.79,0.54-2.75,0.43
				c-0.12-0.72-0.03-1.44-0.05-2.17c0-0.09,0.06-0.15,0.14-0.18c0.41-0.05,0.82-0.07,1.22-0.17c0.7-0.17,1.08-0.73,1.1-1.52
				c0.02-0.87-0.29-1.37-1.03-1.61c-0.16-0.05-0.32-0.07-0.48-0.11c-0.39-0.08-0.79-0.02-1.18-0.04c-0.12-0.01-0.18,0.05-0.18,0.17
				c-0.02,1.85,0.04,3.7-0.03,5.55C40.84,10.24,40.04,10.25,39.25,10.15z"/>
			<path class="st5" d="M3.89,18.44c0.2,0.74,0.72,1.24,1.32,1.28c1.06,0.07,1.53-0.19,1.89-1.04c0.02-0.06,0.06-0.11,0.09-0.17
				c0.73-0.08,1.45-0.02,2.18-0.03c0.17,0,0.31,0.02,0.23,0.25c-0.37,1.58-1.19,2.78-2.85,3.24C6.64,21.99,6.53,22,6.41,22.02
				c-0.57,0.06-1.15,0.06-1.72-0.01c-1.84-0.31-3.27-1.97-3.28-3.82c-0.01-2.13,1.03-3.77,2.9-4.24c2.16-0.54,4.38,0.08,5.19,2.66
				c0.02,0.14-0.07,0.17-0.18,0.16c-0.82-0.02-1.63,0.05-2.45-0.04c-0.82-1.1-2.75-0.71-2.99,0.68C3.82,17.76,3.83,18.1,3.89,18.44z
				"/>
			<path class="st6" d="M55.6,2.12c0.76,0,1.52,0,2.28,0c0.06,0.07,0.05,0.15,0.05,0.24c0,1.82,0,3.63,0,5.45
				c0,0.07-0.01,0.13-0.04,0.19c-0.33,2.34-2.89,2.98-4.5,2.13c-0.88-0.47-1.24-1.27-1.31-2.23c-0.08-1.5-0.02-3-0.03-4.5
				c0-0.42-0.07-0.85,0.05-1.27c0.76,0,1.52,0,2.28,0c0.1,0.15,0.05,0.32,0.05,0.48c0,1.46,0,2.93,0,4.39
				c0,0.16-0.03,0.33,0.03,0.49c0.05,0.27,0.13,0.57,0.44,0.57c0.31,0,0.59-0.18,0.6-0.57c0.07-1.61,0.01-3.22,0.03-4.83
				C55.55,2.47,55.5,2.28,55.6,2.12z"/>
			<path class="st7" d="M18.26,16.33c-0.19,0.05-0.34,0.15-0.28,0.38c0.05,0.21,0.23,0.29,0.41,0.3c0.41,0.03,0.83,0.03,1.24,0.02
				c0.25-0.01,0.36,0.06,0.35,0.33c-0.02,0.38-0.02,0.76,0,1.14c0.02,0.28-0.1,0.33-0.35,0.32c-0.45-0.01-0.9,0-1.34,0
				c-0.17,0-0.34,0.06-0.39,0.24c-0.05,0.18-0.06,0.37,0.17,0.45c0.67,0.13,1.34-0.03,2.01,0.08l-0.01,0.02
				c0.12,0.67,0.03,1.35,0.05,2.02c0.01,0.18-0.12,0.21-0.27,0.21c-0.76-0.02-1.52,0.05-2.28-0.04c-1.23-0.17-1.96-0.98-1.98-2.19
				c-0.01-1.16-0.01-2.31,0-3.47c0.01-1.14,0.73-1.94,1.87-2.12c0.79-0.08,1.58-0.01,2.37-0.04c0.26-0.01,0.29,0.13,0.29,0.34
				c-0.01,0.62,0.01,1.25-0.01,1.87c-0.39,0.17-0.81,0.04-1.21,0.08C18.69,16.3,18.47,16.24,18.26,16.33z"/>
			<path class="st8" d="M14.19,13.84c0.11,0,0.21,0.02,0.29,0.1c0.07,0.73,0.08,1.46-0.01,2.19c-0.25,0.05-0.54-0.09-0.76,0.14
				c-0.24,0.25-0.31,0.5-0.14,0.84c0.29,0.58,0.64,1.12,0.73,1.82c0.19,1.47-0.65,2.78-2.11,3.08c-0.41,0.05-0.82,0.06-1.23-0.01
				c-0.18-0.02-0.35-0.07-0.5-0.19c-0.05-0.74-0.08-1.47,0.01-2.21c0.23,0.02,0.36,0.28,0.64,0.2c0.51-0.15,0.7-0.53,0.48-1.03
				c-0.2-0.45-0.45-0.88-0.61-1.36c-0.46-1.39,0.26-2.97,1.63-3.5c0.11-0.04,0.22-0.06,0.33-0.09
				C13.38,13.77,13.78,13.77,14.19,13.84z"/>
			<path class="st9" d="M17.98,5.89c0.33,0.45,0.29,1.14-0.16,1.73c-0.19,0.25-0.3,0.51-0.35,0.8c-0.05,0.27-0.17,0.52-0.41,0.65
				c-0.32,0.17-0.42,0.39-0.39,0.75c0.03,0.45-0.51,1.03-0.9,1.02c-0.36-0.01-0.99-0.61-0.98-1c0.01-0.37-0.04-0.68-0.41-0.86
				c-0.09-0.05-0.18-0.17-0.2-0.27c-0.11-0.53-0.35-0.99-0.65-1.42c-0.44-0.63-0.11-1.24,0.03-1.86c0.12-0.51,0.02-0.78-0.41-0.95
				c0.26-0.13,0.47-0.11,0.68-0.04c0.51,0.18,1.06,0.26,1.55,0.5c0.14,0.07,0.27,0.04,0.42-0.01c0.55-0.18,1.11-0.34,1.67-0.49
				c0.18-0.05,0.43-0.21,0.51,0.14C18.04,5.02,18.04,5.45,17.98,5.89z"/>
			<path class="st10" d="M48.22,2.12c0.76,0,1.52,0,2.28,0c0.08,0.08,0.06,0.18,0.06,0.28c0,2.51,0,5.02,0,7.53
				c0,0.08,0,0.17-0.04,0.24c-0.69,0.1-1.39,0.02-2.09,0.04c-0.37,0.01-0.27-0.26-0.27-0.45c-0.01-2.1-0.01-4.21,0-6.31
				C48.17,3,48.1,2.55,48.22,2.12z"/>
			<path class="st11" d="M34.43,16.28c0.07-0.08,0.15-0.16,0.22-0.23c0.15-0.13,0.34-0.11,0.52-0.11c1.01,0,2.02-0.01,3.03,0
				c0.16,0,0.27,0.09,0.37,0.21c0.03,0.14,0.27,0.23,0.13,0.42c-0.32,0.03-0.65,0.01-0.97,0c0.2,0.02,0.4-0.01,0.6,0.02
				c0.15,0.02,0.35-0.03,0.39,0.21c-0.11,0.72-0.17,1.44,0.02,2.15c0.04,0.16,0.03,0.33,0.02,0.49c-0.07,0.38-0.25,0.67-0.67,0.72
				c-0.32-0.17,0.15-0.54-0.18-0.66c0.01,0.12,0.14,0.33-0.09,0.43c-0.24,0.11-0.34-0.12-0.46-0.27c-0.02,0.31,0.38,0.3,0.4,0.57
				c-0.06,0.23-0.22,0.33-0.45,0.34c-0.5,0.03-0.61-0.31-0.66-0.7c-0.14,0.28-0.14,0.31,0.08,0.54c0.06,0.04,0.11,0.08,0.12,0.16
				c-0.02,0.05-0.05,0.08-0.1,0.11c-0.17,0.06-0.34,0.05-0.52,0.04c-0.13-0.01-0.24-0.06-0.34-0.14c-0.29-0.2-0.17-0.46-0.1-0.7
				c0.01-0.12,0.02-0.23-0.03-0.34c-0.05-0.11-0.14-0.18-0.26-0.22c-0.17-0.05-0.19,0.1-0.24,0.19c-0.08,0.13-0.12,0.27-0.28,0.34
				c-0.14,0.01-0.28,0.07-0.43,0.01c-0.15-0.09-0.21-0.24-0.25-0.4c-0.08-0.36,0.07-0.68,0.13-1.02c0.11-0.57,0.02-1.14-0.05-1.71
				c0.32-0.22,0.7-0.05,1.04-0.12c0.05-0.01,0.1-0.01,0.15-0.02c0.24,0.09,0.48,0,0.71,0c0.17,0.05,0.33,0.06,0.5,0.02
				c-0.38,0-0.75,0-1.12-0.01c-0.36-0.03-0.73,0.05-1.09-0.03C34.49,16.51,34.36,16.45,34.43,16.28z"/>
			<path class="st12" d="M12.52,3.89c-0.04,0.34-0.1,0.63,0.18,0.86c0.05,0.04,0.1,0.19,0.07,0.22c-0.48,0.46,0.03,0.96-0.06,1.43
				c-0.04,0.2-0.05,0.35-0.29,0.36C12.17,6.77,12.01,6.67,12,6.43c-0.01-0.15,0.01-0.3,0.05-0.44c0.09-0.32,0.31-0.63-0.03-0.94
				c-0.07-0.06-0.04-0.2,0.03-0.28c0.24-0.27,0.2-0.63,0.12-0.9c-0.12-0.37,0.09-0.39,0.31-0.46c0.91-0.26,1.82-0.51,2.73-0.76
				c0.29-0.08,0.59-0.09,0.89-0.01c0.93,0.25,1.85,0.52,2.78,0.79c0.12,0.03,0.31,0.03,0.32,0.19c0.01,0.17-0.18,0.16-0.3,0.19
				c-1.01,0.29-2.01,0.57-3.02,0.86c-0.17,0.05-0.33,0.04-0.49-0.01C14.44,4.41,13.51,4.16,12.52,3.89z"/>
			<path class="st13" d="M40.22,18.2c-0.21,0.04-0.22-0.09-0.19-0.24c0.13-0.7,0.27-1.41,0.4-2.11c0.02-0.13,0.1-0.22,0.23-0.22
				c0.49,0.02,0.99-0.09,1.48,0.06c0.51,0.16,0.61,0.37,0.48,1.15c-0.04,0.23-0.07,0.48-0.24,0.68c-0.37,0.43-0.86,0.58-1.4,0.64
				C40.73,18.19,40.47,18.14,40.22,18.2z"/>
			<path class="st14" d="M51.64,16.43c0.15-0.83,0.15-0.83,0.74-0.75c-0.16,0.76-0.33,1.53-0.48,2.29c-0.04,0.22-0.21,0.3-0.35,0.25
				c-0.3-0.12-0.57,0.02-0.85,0.03c-0.62,0.03-0.94-0.59-0.67-1.27C50.29,16.3,50.96,16.06,51.64,16.43z"/>
			<path class="st15" d="M44.03,18.23c-0.03-0.11-0.03-0.24-0.21-0.12c-0.22,0.14-0.49,0.24-0.73,0.19
				c-0.25-0.05-0.57-0.28-0.5-0.51c0.08-0.27,0.25-0.65,0.66-0.64c0.24,0,0.44-0.11,0.67-0.12c0.15-0.01,0.34-0.05,0.31-0.24
				c-0.03-0.25-0.26-0.13-0.41-0.14c-0.23-0.02-0.31,0.29-0.55,0.29c-0.1,0-0.19-0.01-0.3-0.02c0.19-0.63,1.28-0.96,1.74-0.54
				c0.17,0.15,0.12,0.33,0.09,0.51c-0.06,0.39-0.17,0.76-0.2,1.16C44.58,18.42,44.21,18.13,44.03,18.23L44.03,18.23z"/>
			<path class="st16" d="M48.6,18.27c-0.88-0.02-1.06-0.49-0.98-0.92c0.14-0.78,0.87-1.29,1.58-1.1c0.25,0.07,0.58,0.09,0.61,0.46
				c0.04,0.53-0.02,1.02-0.51,1.36c-0.14,0.09-0.29,0.16-0.46,0.17C48.76,18.28,48.68,18.28,48.6,18.27z"/>
			<path class="st17" d="M35.3,21.32c-0.79-0.29-1.54-0.62-1.67-1.59c-0.04-0.08,0-0.14,0.05-0.19c0.44-0.34,0.45-0.34,0.71,0.08
				c0.29,0.45,0.79,0.62,1.23,0.87c0.31,0.17,0.78,0.18,0.81,0.69c0,0.05-0.02,0.1-0.04,0.15c-0.04,0.07-0.09,0.13-0.15,0.18
				C35.87,21.73,35.62,21.32,35.3,21.32z"/>
			<path class="st18" d="M43.92,19.43c0.1-0.11,0.24-0.13,0.38-0.15c0.07,0,0.15-0.02,0.2,0.06c0.04,0.43-0.22,0.79-0.28,1.2
				c-0.12,0.72-0.65,1.04-1.35,0.85c-0.31-0.08-0.48-0.24-0.45-0.6c0.04-0.45,0.14-0.89,0.29-1.32c0.06-0.19,0.19-0.14,0.3-0.18
				c0.07-0.03,0.14-0.03,0.2,0.04c0.01,0.09,0.21,0.09,0.06,0.26c-0.28,0.33-0.22,0.77-0.31,1.16c-0.04,0.18,0.1,0.27,0.26,0.28
				c0.25,0.03,0.43-0.09,0.49-0.32c0.09-0.36,0.14-0.73,0.2-1.1C43.86,19.54,43.86,19.48,43.92,19.43z"/>
			<path class="st19" d="M38.21,21.1c-0.12,0.07-0.23,0.14-0.35,0.22c-0.27,0.04-0.52,0.12-0.75,0.28
				c-0.02,0.01-0.05,0.01-0.07,0.02c-0.2,0.04-0.21-0.15-0.31-0.24c-0.06-0.08-0.09-0.17-0.09-0.27c0.02-0.3,0.24-0.44,0.49-0.47
				c0.44-0.06,0.76-0.37,1.15-0.54c0.19-0.08,0.39-0.25,0.41-0.52c0-0.05,0.01-0.1,0.02-0.14c0.1-0.13,0.23-0.18,0.39-0.16
				c0.05,0.02,0.09,0.05,0.12,0.08c0.33,0.43,0.18,0.81-0.14,1.17C38.83,20.78,38.58,21.03,38.21,21.1z"/>
			<path class="st20" d="M46.41,16.63c-0.32,0-0.51,0.09-0.51,0.47c0,0.27-0.13,0.54-0.17,0.82c-0.04,0.3-0.24,0.33-0.47,0.3
				c-0.32-0.04-0.14-0.29-0.14-0.43c0.01-0.2,0.12-0.4,0.16-0.61c0.02-0.15,0.15-0.36-0.11-0.46c-0.09-0.04-0.09-0.14-0.06-0.22
				c0.02-0.06,0.05-0.15,0.09-0.15c0.45-0.09,0.34-0.99,1.04-0.72c0.09,0.04,0.24-0.06,0.28,0.12c0.03,0.17-0.08,0.18-0.2,0.2
				c-0.13,0.02-0.23,0.11-0.21,0.24c0.04,0.25,0.27,0.1,0.4,0.16C46.57,16.47,46.5,16.55,46.41,16.63z"/>
			<path class="st21" d="M46.41,16.63c0.03-0.09,0.07-0.19,0.1-0.28c0.16-0.01,0.32-0.09,0.34-0.24c0.08-0.56,0.49-0.48,0.86-0.47
				c0.07,0,0.18-0.03,0.19,0.09c0.01,0.11-0.04,0.17-0.15,0.22c-0.34,0.16-0.33,0.16-0.09,0.39c0.12,0.12,0.09,0.3-0.04,0.32
				c-0.39,0.06-0.36,0.35-0.41,0.61c-0.04,0.23-0.1,0.45-0.15,0.67c-0.06,0.27-0.27,0.32-0.5,0.27c-0.28-0.07-0.14-0.26-0.09-0.43
				c0.07-0.25,0.08-0.53,0.17-0.76C46.75,16.73,46.55,16.72,46.41,16.63z"/>
			<path class="st22" d="M46.14,20.21c-0.06,0.31-0.13,0.65-0.21,0.98c-0.05,0.2-0.2,0.26-0.38,0.21c-0.23-0.06-0.07-0.21-0.05-0.31
				c0.03-0.18,0.09-0.35,0.1-0.53c0.01-0.12,0.13-0.31-0.13-0.34c-0.18-0.02-0.33,0.02-0.38,0.22c-0.05,0.21-0.13,0.41-0.14,0.62
				c-0.01,0.28-0.18,0.27-0.36,0.25c-0.29-0.03-0.09-0.21-0.09-0.33c0-0.05,0.02-0.1,0.03-0.15c0.13-1.02,0.33-1.16,1.33-1.02
				C46.09,19.85,46.14,19.98,46.14,20.21z"/>
			<path class="st23" d="M57.06,19.85c-0.35,0.6-0.67,1.16-1,1.71c-0.07,0.11-0.16,0.22-0.27,0.29c-0.17,0.12-0.45,0.16-0.55,0.02
				c-0.14-0.2,0.11-0.29,0.27-0.35c0.21-0.08,0.18-0.25,0.15-0.41c-0.06-0.34-0.12-0.67-0.18-1.01c-0.02-0.13-0.06-0.27,0.16-0.27
				c0.15,0,0.31-0.01,0.33,0.2c0.02,0.22,0.03,0.44,0.05,0.7C56.45,20.46,56.3,19.68,57.06,19.85z"/>
			<path class="st24" d="M51.99,20.01c0.54-0.36,1.17-0.28,1.36,0.18c-0.16,0.03-0.33,0.06-0.49-0.01c-0.16-0.07-0.3-0.1-0.49,0.02
				c0.17,0.22,0.41,0.26,0.64,0.31c0.35,0.07,0.33,0.26,0.21,0.51c-0.2,0.41-1.09,0.54-1.41,0.22c-0.07-0.07-0.16-0.2-0.09-0.26
				c0.15-0.12,0.34-0.09,0.51,0c0.26,0.14,0.26,0.14,0.51-0.09c-0.29-0.13-0.61-0.15-0.84-0.36C51.84,20.33,51.78,20.14,51.99,20.01
				z"/>
			<path class="st25" d="M49.22,20.73c-0.02,0.37,0.19,0.46,0.46,0.29c0.19-0.11,0.37-0.12,0.57-0.11c-0.27,0.46-0.93,0.64-1.3,0.39
				c-0.28-0.2-0.31-0.48-0.22-0.75c0.11-0.37,0.31-0.7,0.76-0.75c0.7-0.07,1.02,0.18,0.91,0.72c-0.02,0.11-0.07,0.18-0.2,0.16
				C49.88,20.67,49.54,20.59,49.22,20.73z"/>
			<path class="st26" d="M47.72,20.74c0.5-0.21,0.29-1.1,1.1-0.88c-0.27,0.47-0.53,0.94-0.8,1.4c-0.1,0.17-0.26,0.16-0.43,0.17
				c-0.19,0-0.23-0.14-0.25-0.25c-0.06-0.35-0.08-0.71-0.12-1.06c-0.02-0.16-0.02-0.29,0.21-0.29c0.21,0,0.3,0.06,0.29,0.28
				C47.71,20.29,47.72,20.5,47.72,20.74z"/>
			<path class="st27" d="M54.5,20.47c0.06-0.17-0.12-0.23-0.17-0.35c-0.08-0.19,0.46-0.73,0.67-0.7c0.06,0.01,0.23-0.01,0.13,0.1
				c-0.25,0.26,0.63,0.33,0.07,0.63c-0.31,0.16-0.39,0.53-0.23,0.85c0.05,0.1,0.2,0.15,0.09,0.3c-0.12,0.17-0.3,0.12-0.46,0.1
				c-0.15-0.02-0.23-0.14-0.21-0.29C54.41,20.9,54.46,20.69,54.5,20.47z"/>
			<path class="st28" d="M53.49,17.82c-0.23-0.6,0.19-1.12,0.19-1.69c0-0.54,0.28-0.55,0.68-0.47c-0.12,0.49-0.13,1-0.34,1.47
				C53.87,17.39,53.99,17.84,53.49,17.82z"/>
			<path class="st29" d="M52.3,17.81c0.09-0.37,0.2-0.84,0.31-1.31c0.07-0.28,0.29-0.17,0.45-0.16c0.26,0.01,0.14,0.21,0.11,0.33
				c-0.08,0.43-0.2,0.85-0.26,1.28c-0.04,0.3-0.23,0.26-0.43,0.27C52.22,18.23,52.31,18.05,52.3,17.81z"/>
			<path class="st30" d="M20.66,13.06c0.21,0.15,0.1,0.36,0.1,0.54c0.01,3.53,0.01,7.05,0.02,10.58c-0.21-0.15-0.11-0.37-0.11-0.55
				C20.66,20.11,20.66,16.59,20.66,13.06z"/>
			<path class="st31" d="M48.22,2.12c0,2.53,0,5.06-0.01,7.59c0,0.34,0.09,0.47,0.44,0.46c0.61-0.03,1.23-0.01,1.84-0.02
				c0.04,0.02,0.05,0.04,0.04,0.06c-0.01,0.02-0.02,0.03-0.03,0.03c-0.68,0.01-1.36,0.01-2.04,0.02c-0.26,0.01-0.35-0.08-0.35-0.34
				c0.01-2.52,0-5.04,0-7.56C48.11,2.27,48.08,2.15,48.22,2.12z"/>
			<path class="st32" d="M51.79,20.17c-0.45,0.03-0.72,0.25-0.78,0.71c-0.01,0.11-0.07,0.21-0.11,0.32
				c-0.05,0.14-0.14,0.22-0.29,0.2c-0.21-0.03-0.13-0.18-0.11-0.31c0.05-0.3,0.1-0.6,0.17-0.9c0.07-0.3,0.19-0.54,0.57-0.31
				c0.14,0.08,0.24-0.08,0.36-0.1C51.94,19.78,51.89,19.96,51.79,20.17z"/>
			<path class="st33" d="M50.49,10.24c0-0.03,0-0.06-0.01-0.09c0-2.68,0-5.36,0-8.04c0.18,0.09,0.11,0.26,0.11,0.39
				c0,2.44,0,4.89,0,7.33C50.6,9.98,50.67,10.14,50.49,10.24z"/>
			<path class="st34" d="M46.98,20.02c-0.08,0.37-0.16,0.78-0.26,1.18c-0.05,0.2-0.21,0.25-0.39,0.2c-0.18-0.05-0.12-0.23-0.09-0.33
				c0.09-0.31,0.15-0.62,0.19-0.95c0.02-0.21,0.17-0.34,0.42-0.31C46.97,19.83,47.03,19.86,46.98,20.02z"/>
			<path class="st35" d="M54.19,19.86c-0.1,0.42-0.2,0.83-0.28,1.25c-0.04,0.19-0.11,0.33-0.32,0.29c-0.21-0.04-0.21-0.2-0.16-0.38
				c0.07-0.26,0.13-0.53,0.16-0.81C53.64,19.83,53.84,19.75,54.19,19.86z"/>
			<path class="st36" d="M57.9,7.99c-0.01-1.96-0.01-3.91-0.02-5.87c0.14,0.04,0.1,0.15,0.1,0.24c0,1.75,0,3.5,0,5.25
				C57.99,7.74,57.99,7.87,57.9,7.99z"/>
			<path class="st37" d="M52.11,2.12c-0.01,1.92-0.02,3.85-0.03,5.77c-0.1-0.13-0.08-0.28-0.08-0.43c0-1.67,0-3.33,0-5
				C52.01,2.34,51.94,2.19,52.11,2.12z"/>
			<path class="st38" d="M41.61,10.15c0.01-1.88,0.02-3.77,0.03-5.65c0.03-0.05,0.06-0.05,0.09,0c0,1.75,0,3.5-0.01,5.25
				c0,0.17,0.08,0.37-0.11,0.5c-0.03-0.02-0.03-0.04-0.03-0.06C41.59,10.16,41.6,10.15,41.61,10.15z"/>
			<path class="st39" d="M54.48,7.48c-0.14-0.16-0.08-0.35-0.08-0.52c-0.01-1.61-0.01-3.23-0.01-4.84c0.14,0.04,0.1,0.15,0.1,0.24
				C54.49,4.06,54.49,5.77,54.48,7.48z"/>
			<path class="st40" d="M55.6,2.12c0,1.61,0,3.22-0.01,4.84c0,0.18,0.06,0.36-0.08,0.52c-0.01-1.72-0.01-3.44-0.02-5.17
				C55.5,2.23,55.49,2.14,55.6,2.12z"/>
			<path class="st41" d="M20.06,16.21c0-0.58-0.02-1.15,0.02-1.73c0.02-0.39-0.13-0.47-0.49-0.46c-0.71,0.02-1.42,0-2.12,0
				c0.83-0.19,1.67-0.05,2.51-0.08c0.22-0.01,0.19,0.19,0.19,0.33c0,0.64,0,1.29-0.01,1.93C20.12,16.28,20.09,16.28,20.06,16.21z"/>
			<path class="st42" d="M17.57,21.82c0.69,0,1.39-0.02,2.08,0c0.32,0.01,0.44-0.08,0.43-0.41c-0.02-0.59-0.01-1.18-0.01-1.78
				c0.23,0.7,0.06,1.42,0.09,2.13c0,0.1-0.08,0.15-0.17,0.15C19.18,21.87,18.36,22.01,17.57,21.82z"/>
			<path class="st43" d="M34.47,16.72c0.23,0.93,0.01,1.86-0.05,2.79c-0.05,0.03-0.09,0.03-0.12-0.02c-0.06-0.26-0.21-0.5-0.15-0.78
				c0.16,0.03,0.18-0.08,0.21-0.2c0.16-0.59,0.15-1.18-0.08-1.74c-0.1-0.23-0.05-0.37,0.15-0.49c0.01,0.12,0.12,0.15,0.19,0.22
				c0,0.06-0.04,0.1-0.08,0.14C34.52,16.67,34.49,16.69,34.47,16.72z"/>
			<path class="st44" d="M38.75,19.43c-0.01,0.03-0.02,0.06-0.02,0.09c-0.02,0.04-0.06,0.05-0.09,0.02c0.06-0.51-0.13-1-0.12-1.51
				c0.01-0.44,0.02-0.88,0.12-1.31c0.05-0.05,0.09-0.11,0.08-0.19c-0.06-0.11-0.12-0.21-0.18-0.32c0.07-0.02,0.13-0.02,0.18,0.05
				c0.52,0.32,0.05,0.65,0,0.98c-0.08,0.43-0.07,0.87-0.01,1.3c0.03,0.1-0.02,0.24,0.11,0.3C38.91,19.04,38.86,19.24,38.75,19.43z"
				/>
			<path class="st45" d="M38.72,16.25c-0.06-0.02-0.12-0.03-0.18-0.05c-0.07-0.06-0.13-0.12-0.2-0.18
				c-1.03-0.09-2.05-0.01-3.08-0.04c-0.18,0-0.37,0.05-0.54-0.05c0.1-0.13,0.24-0.09,0.37-0.1c1,0,1.99,0.01,2.99,0
				C38.4,15.83,38.63,15.92,38.72,16.25z"/>
			<path class="st46" d="M34.15,18.72c0.22,0.23,0.18,0.52,0.19,0.79c0.03,0.03,0.03,0.05,0.02,0.08c-0.01,0.02-0.02,0.03-0.03,0.03
				c-0.19-0.41-0.4-0.15-0.6-0.01c-0.08-0.23,0.07-0.48-0.09-0.7C33.7,18.55,33.89,18.54,34.15,18.72z"/>
			<path class="st47" d="M49.9,18.93c0.22-0.12,0.44-0.18,0.61,0.05c0.21,0.28-0.1,0.38-0.21,0.55c-0.18,0.05-0.35,0.08-0.49-0.08
				C49.65,19.25,49.82,19.09,49.9,18.93z"/>
			<path class="st48" d="M38.75,19.43c-0.02-0.21-0.03-0.41,0.08-0.6c0.2-0.11,0.38-0.52,0.62-0.03c0.02,0.25-0.13,0.39-0.31,0.52
				C39.01,19.35,38.88,19.39,38.75,19.43z"/>
			<path class="st49" d="M34.73,15.93c1.03,0,2.06,0,3.09,0.01c0.18,0,0.37-0.06,0.52,0.08c-1.23,0.01-2.46,0.02-3.69,0.03
				C34.64,15.98,34.67,15.95,34.73,15.93z"/>
			<path class="st50" d="M43.92,19.43c-0.01,0.06-0.01,0.12-0.02,0.18c-0.28,0.04-0.47,0.02-0.34-0.35
				c0.12-0.36,0.02-0.82,0.46-1.03c0,0-0.01-0.01-0.01-0.01c-0.03,0.19-0.23,0.37,0.05,0.56c0.14,0.1-0.06,0.1-0.11,0.16
				C43.82,19.08,43.52,19.24,43.92,19.43z"/>
			<path class="st51" d="M53.49,17.82c0.3-0.13,0.36-0.46,0.53-0.69c-0.01,0.16-0.03,0.32-0.02,0.48c0.03,0.38-0.15,0.56-0.5,0.62
				c-0.08,0.02-0.12-0.01-0.12-0.1C53.42,18.03,53.45,17.93,53.49,17.82z"/>
			<path class="st52" d="M4.79,4.88C4.79,5.84,4.8,6.8,4.8,7.76c0,0.11,0.02,0.24-0.11,0.3c0-0.89,0.01-1.77,0.02-2.66
				C4.7,5.22,4.66,5.04,4.79,4.88z"/>
			<path class="st53" d="M39.13,19.31c0.01-0.23,0.25-0.32,0.31-0.52c0.18,0.38,0.39,0.76-0.01,1.14
				C39.35,19.72,39.29,19.49,39.13,19.31L39.13,19.31z"/>
			<path class="st54" d="M53.38,18.14c0.04,0.03,0.08,0.06,0.12,0.1c-0.06,0.24-0.13,0.48-0.18,0.72c-0.06,0.26-0.39,0.68,0.37,0.43
				c-0.2,0.29-0.43,0.3-0.6,0.22c-0.22-0.1-0.02-0.29,0.01-0.43C53.17,18.82,53.28,18.48,53.38,18.14z"/>
			<path class="st55" d="M20.75,8.76c0,0.94,0.01,1.89,0.01,2.83c0,0.09,0.02,0.2-0.11,0.25c0-0.85,0-1.7,0.01-2.55
				C20.67,9.11,20.63,8.92,20.75,8.76z"/>
			<path class="st56" d="M6.88,16.74c0.71,0,1.42,0,2.12-0.01c0.17,0,0.37,0.06,0.5-0.12c0.08,0.09,0.08,0.21-0.05,0.21
				C8.6,16.79,7.73,16.94,6.88,16.74z"/>
			<path class="st57" d="M9.6,18.73c-0.03-0.29-0.26-0.2-0.42-0.2c-0.66-0.01-1.33-0.01-1.99-0.02c0.78-0.19,1.56-0.06,2.34-0.07
				C9.71,18.44,9.71,18.6,9.6,18.73z"/>
			<path class="st58" d="M52.12,19.01c0.15-0.1,0.28-0.23,0.48-0.19c0.17,0.28,0.02,0.45-0.21,0.6l0.01-0.01
				c-0.13,0.08-0.28,0.14-0.39,0.01C51.88,19.26,52.04,19.14,52.12,19.01z"/>
			<path class="st59" d="M33.64,18.91c0.4,0.19,0.24,0.44,0.09,0.7c-0.03,0.04-0.07,0.08-0.1,0.12
				C33.16,19.45,33.58,19.18,33.64,18.91z"/>
			<path class="st60" d="M42.22,7.89c-0.21,0.58-0.06,1.17-0.1,1.76c-0.01,0.2,0,0.4,0,0.59c-0.22-0.24-0.08-0.52-0.1-0.78
				c-0.03-0.42-0.01-0.85,0-1.28C42.03,8.05,41.97,7.85,42.22,7.89z"/>
			<path class="st61" d="M36.84,21.31c0.07,0.1,0.14,0.2,0.21,0.31c-0.23,0.26-0.44,0.59-0.81,0.17c-0.1-0.11-0.08-0.24-0.02-0.36
				c0.03-0.04,0.06-0.07,0.1-0.11C36.48,21.49,36.66,21.57,36.84,21.31z"/>
			<path class="st62" d="M41.61,10.15c0.01,0.03,0.01,0.06,0,0.1c-0.69,0-1.38,0.01-2.07,0.01c-0.1,0-0.24,0.05-0.29-0.1
				C40.03,10.15,40.82,10.15,41.61,10.15z"/>
			<path class="st63" d="M53.35,15.62c0.02,0.42-0.21,0.45-0.5,0.41c-0.13-0.02-0.17-0.1-0.14-0.2
				C52.82,15.49,53.12,15.69,53.35,15.62z"/>
			<path class="st64" d="M41.02,18.12c0.47-0.16,0.95-0.29,1.36-0.59c-0.1,0.33-0.36,0.48-0.66,0.59c-0.09,0.08-0.19,0.1-0.3,0.06
				C41.29,18.15,41.14,18.22,41.02,18.12z"/>
			<path class="st65" d="M10.49,19.61c0,0.74-0.01,1.47-0.01,2.21c-0.19-0.73-0.07-1.47-0.06-2.21c0-0.01,0.02-0.02,0.03-0.02
				C10.46,19.59,10.48,19.6,10.49,19.61z"/>
			<path class="st66" d="M48.6,18.27c0.08-0.01,0.16-0.03,0.24-0.04c-0.06,0.17-0.35,0.35,0.02,0.51c0.09,0.04,0.07,0.17-0.03,0.17
				c-0.31,0-0.21,0.33-0.38,0.43c-0.05,0.04-0.07,0.02-0.06-0.04C48.36,18.94,48.54,18.62,48.6,18.27z"/>
			<path class="st67" d="M14.48,16.13c0-0.73,0.01-1.46,0.01-2.19C14.64,14.67,14.66,15.4,14.48,16.13z"/>
			<path class="st68" d="M20.07,19.61c-0.67-0.03-1.35,0.11-2.01-0.08C18.73,19.56,19.41,19.42,20.07,19.61z"/>
			<path class="st69" d="M42.39,18.06c-0.08,0.46-0.08,0.95-0.43,1.34C42.1,18.95,42.11,18.47,42.39,18.06z"/>
			<path class="st70" d="M20.06,16.21c0.03,0.01,0.07,0.01,0.1,0c-0.32,0.26-0.7,0.07-1.05,0.11c-0.28,0.03-0.56,0-0.85,0
				C18.85,16.11,19.46,16.3,20.06,16.21z"/>
			<path class="st71" d="M47.14,19.5c-0.18,0.14-0.38,0.17-0.6,0.07c0.02-0.47,0.3-0.37,0.59-0.26
				C47.17,19.37,47.18,19.43,47.14,19.5z"/>
			<path class="st48" d="M39.13,19.31c0.27,0.12,0.3,0.36,0.31,0.62c-0.01,0.24-0.1,0.43-0.29,0.59c-0.04,0.04-0.08,0.03-0.12-0.01
				C39.36,20.14,39.34,19.73,39.13,19.31z"/>
			<path class="st72" d="M49.3,18.73c0.09,0.22,0,0.35-0.04,0.48c-0.02,0.08-0.07,0.16,0,0.23c0.05,0.06,0.21-0.11,0.19,0.08
				c-0.01,0.07-0.12,0.11-0.21,0.1c-0.14-0.01-0.15-0.11-0.15-0.21C49.08,19.18,49.1,18.96,49.3,18.73z"/>
			<path class="st73" d="M42.82,18.91c-0.12,0.23-0.24,0.45-0.36,0.68c-0.08-0.3,0.11-0.54,0.05-0.85
				C42.64,18.81,42.73,18.86,42.82,18.91C42.82,18.92,42.82,18.91,42.82,18.91z"/>
			<path class="st74" d="M52.4,19.42c0.13-0.18,0.25-0.36,0.21-0.6c0.28,0.04,0.16,0.2,0.12,0.36c-0.02,0.08-0.2,0.21,0.08,0.26
				c0.14,0.03-0.03,0.14-0.09,0.16C52.56,19.65,52.52,19.46,52.4,19.42z"/>
			<path class="st75" d="M4.69,22.01c0.57,0,1.15,0,1.72,0.01C5.84,22.16,5.27,22.17,4.69,22.01z"/>
			<path class="st76" d="M41.43,18.15c0.09-0.01,0.19-0.02,0.28-0.03c-0.22,0.31-0.46,0.6-0.43,1.02c-0.17-0.34-0.02-0.62,0.13-0.9
				c-0.03-0.03-0.04-0.05-0.02-0.07C41.4,18.15,41.42,18.15,41.43,18.15z"/>
			<path class="st77" d="M45.61,19.02c-0.07-0.14-0.15-0.07-0.23-0.02c-0.16,0.1-0.16-0.03-0.17-0.12
				c-0.01-0.09,0.02-0.18,0.13-0.15c0.15,0.05,0.35-0.06,0.45,0.1C45.84,18.91,45.7,18.97,45.61,19.02L45.61,19.02z"/>
			<path class="st78" d="M52.12,19.01C52,19.3,52,19.5,52.41,19.41c-0.24,0.44-0.47,0.04-0.71,0l0.01,0.01
				C51.92,19.36,51.88,19.04,52.12,19.01z"/>
			<path class="st79" d="M43.2,19.32c-0.07-0.01-0.13-0.02-0.2-0.04c0.1-0.21,0.19-0.4-0.18-0.37c0,0,0.01,0.01,0.01,0.01
				c0.1-0.15,0.21-0.27,0.4-0.13C43.46,18.97,43.19,19.14,43.2,19.32z"/>
			<path class="st80" d="M36.21,21.42c0.01,0.12,0.02,0.24,0.02,0.36c-0.31-0.15-0.62-0.31-0.93-0.46
				C35.62,21.2,35.87,21.66,36.21,21.42z"/>
			<path class="st81" d="M37.95,9.47c0-0.5,0-1,0-1.5C38.09,8.47,38.09,8.97,37.95,9.47z"/>
			<path class="st82" d="M47.97,18.82c0.23,0.22-0.24,0.54,0.16,0.69c-0.05,0.07-0.13,0.13-0.21,0.1c-0.12-0.05-0.22-0.14-0.17-0.28
				C47.8,19.16,47.88,19.01,47.97,18.82z"/>
			<path class="st83" d="M49.9,18.93c-0.14,0.38-0.1,0.65,0.4,0.61c-0.22,0.17-0.44,0.16-0.59-0.07
				C49.58,19.24,49.69,19.05,49.9,18.93z"/>
			<path class="st84" d="M51.2,18.91c-0.13,0.23-0.26,0.47-0.39,0.7c-0.05-0.31,0.13-0.54,0.1-0.82C51.04,18.8,51.06,19,51.2,18.91
				C51.2,18.92,51.2,18.91,51.2,18.91z"/>
			<path class="st85" d="M41.73,4.5l-0.05,0c0,0-0.05,0-0.05,0c0.46-0.2,0.92-0.15,1.39-0.02C42.6,4.48,42.16,4.49,41.73,4.5z"/>
			<path class="st86" d="M39.03,20.51c0.04,0,0.08,0,0.12,0.01c-0.25,0.29-0.49,0.6-0.94,0.58C38.49,20.9,38.76,20.71,39.03,20.51z"
				/>
			<path class="st87" d="M54.29,19.42c-0.02,0.16-0.12,0.2-0.25,0.2c-0.11,0-0.25,0.03-0.25-0.15c0-0.13,0.11-0.16,0.21-0.15
				C54.11,19.33,54.25,19.26,54.29,19.42z"/>
			<path class="st88" d="M44.5,19.33c-0.07-0.02-0.13-0.04-0.2-0.06c0.07-0.31,0.17-0.53,0.48-0.16
				C44.76,19.28,44.53,19.19,44.5,19.33z"/>
			<path class="st89" d="M27.66,16.25c0.43-0.21,0.86-0.14,1.29-0.03C28.52,16.23,28.09,16.24,27.66,16.25z"/>
			<path class="st90" d="M17.98,5.89c0-0.44,0-0.87,0-1.31C18.15,5.02,18.11,5.45,17.98,5.89z"/>
			<path class="st91" d="M38.72,18.53c-0.16-0.44-0.16-0.87,0.01-1.3C38.72,17.66,38.72,18.09,38.72,18.53z"/>
			<path class="st92" d="M47.14,19.5c-0.01-0.06-0.01-0.12-0.02-0.19c0.1-0.19,0.21-0.33,0.2,0.04c-0.01,0.17,0.36-0.02,0.2,0.22
				C47.41,19.71,47.26,19.58,47.14,19.5z"/>
			<path class="st93" d="M51.2,18.92c0.11-0.16,0.26-0.3,0.4-0.09c0.14,0.22,0.01,0.38-0.21,0.48l0.01,0.01
				C51.36,19.17,51.66,18.85,51.2,18.92C51.2,18.91,51.2,18.92,51.2,18.92z"/>
			<path class="st94" d="M45.61,19.02c-0.02,0.21-0.11,0.45,0.28,0.44c-0.16,0.17-0.32,0.26-0.44,0.06
				C45.33,19.32,45.41,19.13,45.61,19.02C45.61,19.02,45.61,19.02,45.61,19.02z"/>
			<path class="st95" d="M46.17,18.85c0.22,0.3,0.09,0.53-0.16,0.81C46.07,19.33,46.12,19.09,46.17,18.85z"/>
			<path class="st96" d="M14.19,13.84c-0.41,0-0.81,0-1.22,0C13.38,13.69,13.78,13.69,14.19,13.84z"/>
			<path class="st97" d="M41.43,18.15c0,0.03-0.01,0.06-0.02,0.09c-0.4-0.01-0.8-0.02-1.19-0.03c0.26-0.15,0.54-0.03,0.8-0.08
				C41.16,18.13,41.3,18.14,41.43,18.15z"/>
			<path class="st98" d="M10.98,22.01c0.41,0,0.82,0,1.23,0.01C11.79,22.16,11.38,22.17,10.98,22.01z"/>
			<path class="st99" d="M51.79,20.17c-0.04-0.14,0.14-0.39-0.19-0.38c0.31-0.26,0.27,0.14,0.4,0.22c-0.08,0.16-0.11,0.33-0.09,0.5
				C51.78,20.43,51.8,20.3,51.79,20.17z"/>
			<path class="st66" d="M48.45,19.34c0.1,0.17,0.27,0.02,0.42,0.1c-0.15,0.16-0.32,0.23-0.5,0.14c-0.13-0.06-0.07-0.19,0.01-0.29
				C48.41,19.32,48.43,19.33,48.45,19.34z"/>
			<path class="st100" d="M3.89,18.44c-0.14-0.34-0.14-0.68,0.01-1.02C3.89,17.76,3.89,18.1,3.89,18.44z"/>
			<path class="st78" d="M51.4,19.31c0.05,0.18,0.21,0.06,0.31,0.11c0,0-0.01-0.01-0.01-0.01c-0.08,0.27-0.29,0.26-0.45,0.15
				C51.16,19.5,51.3,19.37,51.4,19.31C51.41,19.32,51.4,19.31,51.4,19.31z"/>
			<path class="st101" d="M49.22,20.73c0.32-0.19,0.65-0.15,0.99-0.04C49.88,20.7,49.55,20.72,49.22,20.73z"/>
			<path class="st102" d="M37.11,21.6c0.18-0.28,0.45-0.32,0.75-0.28C37.62,21.42,37.39,21.57,37.11,21.6z"/>
			<path class="st2" d="M27.66,10.05c0.04-0.68-0.14-1.37,0.16-2.04c0.31-0.69,0.95-1.05,1.68-0.92c1.04,0.17,1.4,0.6,1.35,1.57
				c-0.04,0.82-0.62,1.35-1.56,1.41c-0.12,0.01-0.23,0.01-0.35,0.01C28.52,10.11,28.09,10.17,27.66,10.05z"/>
			<path class="st103" d="M6.84,9.65C6.69,9.15,6.43,8.77,6,8.54C5.71,8.38,5.79,8.25,5.98,8.12c0.37-0.25,0.27-0.41-0.03-0.66
				C5.5,7.07,5.32,6.5,5.2,5.93c-0.02-0.11-0.04-0.2,0.13-0.25c0.64-0.18,1.36-0.11,1.91-0.6C7.34,5,7.4,5.15,7.47,5.21
				c0.2,0.17,0.37,0.41,0.6,0.51c0.49,0.22,0.44,0.52,0.24,0.9C8.16,6.93,8.03,7.29,7.74,7.48C7.33,7.74,7.51,7.91,7.76,8.11
				c0.18,0.15,0.33,0.27-0.01,0.43C7.3,8.76,7.1,9.2,6.84,9.65z"/>
			<path class="st104" d="M27.66,10.05c0.43,0.01,0.86,0.02,1.29,0.03C28.52,10.19,28.09,10.26,27.66,10.05z"/>
			<path class="st105" d="M37.54,17.91c0,0.45,0.33,0.72,0.65,1.02c-0.11,0.04-0.16,0.08-0.19,0.07c-0.38-0.14-0.7-0.11-1.07,0.13
				c-0.28,0.19-0.64,0.1-0.92-0.12c-0.12-0.09-0.2-0.22-0.37-0.22c-0.07-0.1-0.03-0.18,0.06-0.24c0.32-0.06,0.64,0,0.95-0.03
				c0.19-0.09,0.63,0.25,0.53-0.32c0-0.04,0-0.09,0.01-0.13C37.25,17.92,37.4,17.92,37.54,17.91z"/>
			<path class="st106" d="M34.33,19.62c0-0.04,0.01-0.07,0.01-0.11c0.02,0,0.05,0,0.07,0c0.07,0.11,0.15,0.21,0.22,0.32
				c0.44,0.2,0.86,0.42,1.28,0.67c0.1,0.04,0.2,0.08,0.29,0.13c0.21,0.11,0.42,0.14,0.63,0l0.01,0c0.11-0.17,0.28-0.17,0.46-0.16
				c0.2,0.02,0.3-0.13,0.42-0.26c0.08-0.09,0.17-0.16,0.3-0.12c0.36-0.01,0.5-0.27,0.61-0.56c0.03-0.01,0.06-0.01,0.09-0.02
				c0.05,0.37-0.23,0.53-0.47,0.69c-0.34,0.22-0.7,0.43-1.11,0.52c-0.21,0.05-0.41,0.15-0.44,0.41c-0.1,0.08-0.21,0.12-0.34,0.05
				c-0.04-0.32-0.31-0.39-0.55-0.49C35.25,20.44,34.64,20.24,34.33,19.62z"/>
			<path class="st107" d="M35.62,18.42c0.01-0.23,0.01-0.46,0.02-0.69c0.06-0.14,0.16-0.23,0.3-0.27c0.26-0.21,0.55-0.31,0.89-0.21
				c-0.03,0.25,0.14,0.53-0.12,0.75c-0.16,0.13-0.4-0.1-0.54,0.13c-0.21,0.08-0.23,0.37-0.46,0.44
				C35.64,18.54,35.59,18.5,35.62,18.42z"/>
			<path class="st108" d="M36.63,17.94c0.08-0.11,0.21-0.2,0.09-0.36c-0.13-0.17,0.03-0.24,0.11-0.34c0.32,0.1,0.63,0.25,0.96,0
				c0.07-0.06,0.23-0.12,0.3,0.03c0.07,0.13-0.07,0.21-0.15,0.28c-0.12,0.11-0.26,0.2-0.4,0.29c-0.22-0.04-0.29,0.08-0.3,0.27
				l-0.02,0.02c-0.03,0.03-0.07,0.05-0.12,0.05C36.92,18.15,36.76,18.08,36.63,17.94z"/>
			<path class="st109" d="M34.95,19.83c0.05-0.08,0.09-0.18,0.16-0.25c0.13-0.14,0.04-0.49,0.37-0.41c0.34,0.08,0.55,0.3,0.45,0.69
				c-0.07,0.22-0.21,0.38-0.45,0.35C35.25,20.18,34.98,20.15,34.95,19.83z"/>
			<path class="st110" d="M38.03,20.09c-0.1,0.05-0.17,0.14-0.3,0.12c-0.27-0.11-0.45-0.3-0.55-0.57c-0.04-0.1-0.07-0.18,0.04-0.25
				c0.13-0.08,0.17,0.02,0.21,0.11c0.04,0.07,0.07,0.15,0.11,0.22c0.05,0.1,0.09,0.24,0.24,0.17c0.14-0.07,0.07-0.19,0.04-0.3
				c-0.03-0.15-0.32-0.33-0.05-0.44c0.25-0.1,0.23,0.24,0.33,0.39C38.24,19.73,38.09,19.91,38.03,20.09z"/>
			<path class="st111" d="M34.95,19.83c0.32,0.33,0.64,0.46,0.98,0.03c0.03,0.21-0.27,0.42-0.01,0.64
				c-0.48-0.12-0.94-0.28-1.28-0.67C34.75,19.85,34.85,19.7,34.95,19.83z"/>
			<path class="st112" d="M36.73,20.51c-0.16,0.04-0.34,0.03-0.28-0.18c0.06-0.24-0.26-0.62,0.24-0.71
				C36.87,19.91,36.79,20.21,36.73,20.51z"/>
			<path class="st113" d="M35.94,17.45c-0.08,0.11-0.11,0.29-0.3,0.27c-0.23-0.09-0.42-0.22-0.57-0.46
				C35.41,17.16,35.65,17.45,35.94,17.45z"/>
			<path class="st114" d="M35.62,18.42c0.03,0.04,0.06,0.07,0.09,0.11c0.04,0.02,0.05,0.04,0.04,0.06
				c-0.01,0.02-0.02,0.04-0.03,0.04c-0.03,0.06-0.06,0.12-0.09,0.18c-0.17,0.2-0.39,0.23-0.71,0.24
				C35.14,18.73,35.42,18.62,35.62,18.42z"/>
			<path class="st115" d="M35.64,16.55c0.57,0,1.15-0.18,1.7,0.09c-0.34,0.06-0.67,0.06-1.01,0c-0.23-0.02-0.47,0.24-0.69-0.01
				c-0.03-0.02-0.04-0.04-0.03-0.05C35.61,16.56,35.62,16.55,35.64,16.55z"/>
			<path class="st116" d="M36.73,20.51c-0.02-0.3,0.05-0.6-0.05-0.89c0.14,0.04,0.17,0.16,0.14,0.27c-0.09,0.41,0.13,0.55,0.48,0.58
				c-0.15,0.05-0.31,0.1-0.46,0.16C36.81,20.59,36.77,20.55,36.73,20.51z"/>
			<path class="st117" d="M38.72,16.51c0.18,0.15,0.06,0.18-0.08,0.19c-0.34-0.12-0.71-0.05-1.05-0.19
				C37.96,16.51,38.34,16.51,38.72,16.51z"/>
			<path class="st118" d="M35.64,16.55c0,0.03,0,0.05,0,0.08c0,0-0.05-0.01-0.05-0.01l-0.05,0.01c-0.36,0.07-0.72,0.09-1.08-0.02
				c0.06-0.04,0.11-0.07,0.17-0.11C34.96,16.52,35.3,16.46,35.64,16.55z"/>
			<path class="st119" d="M37.25,18.1c-0.15-0.15-0.08-0.24,0.08-0.34c0.13-0.09,0.19-0.11,0.22,0.07c0,0.03-0.01,0.05,0,0.08
				C37.53,18.11,37.3,17.97,37.25,18.1z"/>
			<path class="st120" d="M34.46,16.61c0.36,0.01,0.72,0.01,1.08,0.02c-0.34,0.2-0.71,0.05-1.07,0.09
				C34.46,16.69,34.46,16.65,34.46,16.61z"/>
			<path class="st116" d="M36.85,20.62c-0.21,0.35-0.42,0.25-0.63,0C36.42,20.62,36.64,20.62,36.85,20.62z"/>
			<path class="st121" d="M36.33,16.64c0.34,0,0.67,0,1.01,0C37,16.77,36.67,16.77,36.33,16.64z"/>
			<path class="st122" d="M12.39,5.11c-0.11,0-0.19-0.04-0.2-0.16c-0.01-0.12,0.07-0.18,0.17-0.19c0.11-0.01,0.19,0.05,0.21,0.16
				C12.58,5.04,12.5,5.09,12.39,5.11z"/>
			<path class="st123" d="M41.92,16.64c0,0.73-0.25,1.08-0.8,1.18c-0.25,0.04-0.48,0.05-0.35-0.35c0.09-0.29,0.1-0.61,0.17-0.91
				c0.05-0.21,0.06-0.42,0.4-0.44C41.81,16.1,42.06,16.19,41.92,16.64z"/>
			<path class="st124" d="M51.2,16.73c0.27-0.05,0.31,0.12,0.31,0.35c-0.02,0.43-0.26,0.74-0.59,0.73
				c-0.31-0.01-0.34-0.22-0.31-0.45C50.65,17.03,50.71,16.7,51.2,16.73z"/>
			<path class="st125" d="M43.62,17.83c-0.12-0.03-0.34,0.07-0.31-0.19c0.05-0.37,0.39-0.28,0.61-0.36
				c0.12-0.04,0.21-0.02,0.19,0.12C44.09,17.69,43.91,17.83,43.62,17.83z"/>
			<path class="st126" d="M48.3,17.36c0.02-0.44,0.27-0.75,0.58-0.73c0.29,0.02,0.35,0.22,0.32,0.45c-0.04,0.36-0.12,0.72-0.57,0.75
				C48.3,17.87,48.29,17.61,48.3,17.36z"/>
			<path class="st127" d="M36.37,21.18c0.11-0.02,0.23-0.03,0.34-0.05c0.04,0.06,0.09,0.12,0.13,0.18c0.01,0.22-0.03,0.41-0.3,0.41
				c-0.28-0.01-0.2-0.25-0.23-0.41C36.32,21.27,36.34,21.22,36.37,21.18z"/>
			<path class="st128" d="M49.64,20.42c-0.11-0.04-0.31,0.08-0.31-0.12c0-0.17,0.19-0.25,0.36-0.26c0.14-0.01,0.27,0.08,0.28,0.22
				C49.97,20.5,49.76,20.39,49.64,20.42z"/>
			<path class="st129" d="M35.72,18.62c-0.01-0.03-0.01-0.06-0.01-0.1c0.17-0.14,0.12-0.47,0.42-0.51
				c-0.05,0.41,0.42,0.28,0.54,0.51c0.01,0.05,0,0.09-0.03,0.12C36.33,18.64,36.03,18.63,35.72,18.62z"/>
			<path class="st130" d="M36.64,18.65c-0.01-0.05-0.02-0.1-0.03-0.16c0.08-0.23,0.49-0.05,0.48-0.39c0.04,0.01,0.09,0.02,0.13,0.02
				c0.07,0.14,0.14,0.28,0.22,0.43C37.18,18.73,36.9,18.62,36.64,18.65z"/>
			<path class="st131" d="M37.09,18.1c0.01,0.11,0.18,0.19,0.08,0.33c-0.1,0.13-0.22,0.11-0.34,0.04c-0.08-0.05-0.15-0.03-0.22,0.03
				c-0.2-0.03-0.41-0.08-0.63,0.03c-0.06-0.23,0.16-0.33,0.15-0.51c0.14-0.16,0.33-0.09,0.5-0.08
				C36.81,17.92,36.95,18.03,37.09,18.1z"/>
			<path class="st132" d="M35.67,19.58c-0.02,0.14-0.07,0.27-0.21,0.3c-0.1,0.03-0.16-0.06-0.13-0.14c0.05-0.11,0.05-0.27,0.19-0.31
				C35.63,19.41,35.66,19.5,35.67,19.58z"/>
		</g>
	</g>
</g>
<g id="Layer_2">
	<rect x="-1.28" y="-1.13" class="st133" width="62.26" height="27.52"/>
	<g>
		<g>
			<defs>
				<rect id="SVGID_1_" x="33.39" y="15.43" width="23.61" height="6.74"/>
			</defs>
			<clipPath id="SVGID_00000072254437887192443260000008224469170489416851_">
				<use xlink:href="#SVGID_1_"  style="overflow:visible;"/>
			</clipPath>
			<path style="clip-path:url(#SVGID_00000072254437887192443260000008224469170489416851_);fill:#808184;" d="M38.83,18.82
				c-0.28-1.06-0.11-1.81,0.27-2.38l-0.67-0.71h-3.62l-0.64,0.69c0.57,1.22,0.16,2,0.15,2.36l0,0c-0.4-0.4-0.63-0.16-0.67,0l0,0
				c-0.15,0.49-0.27,0.67-0.27,0.67c0.08,0.21,0.17,0.23,0.21,0.23l0,0c0.01,0.95,0.83,1.44,1.73,1.76
				c0.92,0.33,1.21,0.73,1.21,0.73s0.55-0.56,1.48-0.81c0.95-0.36,1.52-1.03,1.46-1.68l0,0c0.19,0,0.21-0.05,0.27-0.25
				c0,0-0.13-0.1-0.25-0.56l0,0c0-0.07-0.03-0.15-0.08-0.25C39.16,18.36,38.84,18.8,38.83,18.82L38.83,18.82L38.83,18.82z"/>
		</g>
		<path class="st135" d="M33.87,19.03c0.01-0.01,0.13-0.22,0.15-0.04c0.01,0.16-0.28,0.04-0.31-0.18c-0.01-0.12,0.48-0.38,0.55,0.37
			l0,0c0.04,1.04,1.16,1.35,1.64,1.55c0.57,0.33,0.63,0.45,0.63,0.45s0.25-0.27,0.64-0.43c0.97-0.36,1.7-0.7,1.69-1.61
			c0.04-0.63,0.73-0.66,0.44-0.15c-0.08,0.15-0.43,0.19-0.16-0.1l0.09,0.18c0.01,0,0.04-0.01,0.05-0.04c0,0-0.11-0.26-0.12-0.26
			c-0.09,0.03-0.17,0.15-0.16,0.27c0.01,0.25,0.43,0.62,0.4,0.82c-0.17,1.03-1.65,1.48-1.65,1.48c-0.68,0.19-1.2,0.7-1.2,0.7
			c-0.31-0.44-1.41-0.77-1.41-0.77c-1.37-0.58-1.46-1.33-1.44-1.57c0.01-0.18,0.33-0.47,0.33-0.47c0.08-0.1,0.11-0.4-0.07-0.47
			c-0.01,0-0.13,0.21-0.13,0.21C33.85,19,33.87,19.03,33.87,19.03L33.87,19.03z"/>
		<path class="st136" d="M34.41,19.24c0.04,0.78,0.76,1.04,1.46,1.29c0.44,0.16,0.67,0.43,0.67,0.43c0.31-0.26,0.45-0.33,0.71-0.41
			c0.77-0.27,1.62-0.56,1.44-1.69c-0.4-1.69,0.25-2.36,0.25-2.36l-0.6-0.62h-3.49l-0.52,0.59c0.48,1.04,0.21,1.89,0.15,2.32
			c-0.08,0.37-0.05,0.19-0.07,0.49V19.24L34.41,19.24z"/>
		<polygon class="st2" points="36.56,16.22 36.59,16.13 36.51,16.09 36.6,16.09 36.63,16.01 36.66,16.09 36.74,16.09 36.67,16.13 
			36.7,16.22 36.63,16.17 36.56,16.22 		"/>
		<path class="st2" d="M36.58,17.15c0.56,0,1.01,0.47,1.01,1.03c0,0.56-0.45,1.02-1.01,1.02s-1.01-0.45-1.01-1.02
			C35.57,17.6,36.02,17.15,36.58,17.15L36.58,17.15z"/>
		<path class="st137" d="M35.58,18.18c0-0.56,0.45-1.03,1-1.03c0.56,0,1.01,0.47,1.01,1.03c0,0.56-0.45,1.02-1.01,1.02
			S35.58,18.73,35.58,18.18L35.58,18.18z M35.57,18.18c0,0.56,0.45,1.02,1.01,1.02s1.01-0.45,1.01-1.02c0-0.56-0.45-1.03-1.01-1.03
			S35.57,17.6,35.57,18.18L35.57,18.18z"/>
		<path class="st138" d="M36.56,17.2c0.53,0,0.95,0.43,0.95,0.96c0,0.54-0.43,0.96-0.95,0.96c-0.52,0-0.95-0.43-0.95-0.96
			C35.62,17.63,36.04,17.2,36.56,17.2L36.56,17.2z"/>
		<path class="st139" d="M35.65,18.18c0-0.52,0.41-0.93,0.92-0.93c0.52,0,0.92,0.41,0.92,0.93c0,0.52-0.4,0.93-0.92,0.93
			C36.06,19.11,35.65,18.69,35.65,18.18L35.65,18.18z M35.59,18.18c0,0.55,0.44,0.99,0.97,0.99c0.55,0,0.97-0.44,0.97-0.99
			c0-0.55-0.43-0.99-0.97-0.99C36.03,17.18,35.59,17.63,35.59,18.18L35.59,18.18z"/>
		<path class="st139" d="M36.3,19.07c-0.01,0-0.01,0.01-0.01,0.03c0.01,0.01,0.03,0.01,0.04,0.01c0.24-0.14,0.28-0.12,0.52,0
			c0.01,0.01,0.03,0,0.04-0.01c0-0.01,0-0.03-0.01-0.04C36.62,18.93,36.55,18.91,36.3,19.07L36.3,19.07z"/>
		<path class="st139" d="M35.62,18.15c-0.01,0-0.03,0.01-0.03,0.03s0.01,0.03,0.03,0.03h1.9c0.01,0,0.03-0.01,0.03-0.03
			s-0.01-0.03-0.03-0.03H35.62L35.62,18.15z"/>
		<path class="st139" d="M36.87,17.25c-0.21,0.15-0.33,0.16-0.56,0c-0.01-0.01-0.03,0-0.04,0c-0.01,0.01,0,0.03,0,0.04
			c0.25,0.19,0.4,0.15,0.61,0c0.01-0.01,0.01-0.03,0.01-0.04C36.9,17.23,36.87,17.23,36.87,17.25L36.87,17.25z"/>
		<path class="st139" d="M36,17.37c-0.01,0.01,0,0.03,0.01,0.04c0.4,0.26,0.71,0.34,1.13,0.01c0.01-0.01,0.01-0.03,0-0.04
			c-0.01-0.01-0.03-0.01-0.04,0c-0.41,0.32-0.69,0.25-1.08-0.01C36.03,17.36,36.02,17.36,36,17.37L36,17.37z"/>
		<path class="st139" d="M35.82,17.53c-0.01,0.01,0,0.03,0,0.04c0.68,0.49,1.08,0.26,1.38,0.08l0.09-0.05
			c0.01-0.01,0.01-0.03,0.01-0.04c-0.01-0.01-0.03-0.01-0.04-0.01l-0.09,0.05c-0.32,0.19-0.67,0.4-1.33-0.07
			C35.85,17.51,35.83,17.52,35.82,17.53L35.82,17.53z"/>
		<path class="st139" d="M35.71,18.52c-0.01,0.01-0.01,0.03-0.01,0.04c0.01,0.01,0.03,0.01,0.04,0.01c0.15-0.08,0.89-0.47,1.7,0
			c0.01,0.01,0.03,0,0.04-0.01s0-0.03-0.01-0.04C36.63,18.04,35.86,18.44,35.71,18.52L35.71,18.52z"/>
		<path class="st139" d="M35.83,18.78c-0.01,0-0.01,0.03-0.01,0.04c0,0.01,0.03,0.01,0.04,0.01c0.72-0.34,0.77-0.32,1.38-0.04
			l0.04,0.01c0.01,0,0.03,0,0.04-0.01c0-0.01,0-0.03-0.01-0.04l-0.04-0.01C36.64,18.45,36.58,18.43,35.83,18.78L35.83,18.78z"/>
		<path class="st139" d="M36.84,17.31c0.25,0.15,0.52,0.51,0.52,0.91c0,0.33-0.19,0.62-0.56,0.84l0.03,0.04
			c0.48-0.29,0.59-0.63,0.59-0.88c0-0.41-0.28-0.8-0.55-0.96L36.84,17.31L36.84,17.31z"/>
		<path class="st139" d="M36.75,17.36c0.23,0.22,0.36,0.51,0.36,0.81c0,0.32-0.13,0.62-0.36,0.85l0.04,0.04
			c0.24-0.25,0.39-0.56,0.37-0.89c0-0.32-0.13-0.62-0.37-0.85L36.75,17.36L36.75,17.36z"/>
		<path class="st139" d="M36.68,17.37c0.32,0.49,0.25,1.29-0.01,1.62l0.04,0.04c0.29-0.34,0.36-1.15,0.03-1.69L36.68,17.37
			L36.68,17.37z"/>
		<path class="st139" d="M36.47,19.02l0.04-0.03c-0.15-0.23-0.47-0.86-0.04-1.62l-0.04-0.03C35.99,18.14,36.31,18.78,36.47,19.02
			L36.47,19.02z"/>
		<path class="st139" d="M36.39,19.06l0.04-0.04c-0.49-0.54-0.49-1.14-0.01-1.66l-0.04-0.04C35.87,17.86,35.89,18.5,36.39,19.06
			L36.39,19.06z"/>
		<path class="st139" d="M35.77,18.18c-0.01,0.26,0.08,0.62,0.56,0.92l0.03-0.04c-0.36-0.22-0.55-0.52-0.53-0.87
			c0.01-0.41,0.32-0.77,0.52-0.88l-0.03-0.05C36.07,17.38,35.78,17.77,35.77,18.18L35.77,18.18z"/>
		<polygon class="st140" points="36.58,18.73 36.58,18.99 36.58,18.73 		"/>
		<polygon class="st139" points="36.55,18.73 36.59,18.73 36.59,18.99 36.55,18.99 36.55,18.73 		"/>
		<path class="st139" d="M36.55,18.08v0.82c0,0.01,0.01,0.03,0.03,0.03s0.03-0.01,0.03-0.03v-0.82c0-0.01-0.01-0.03-0.03-0.03
			S36.55,18.07,36.55,18.08L36.55,18.08z"/>
		<path class="st2" d="M37.55,18.51c0.84,0.49,0.68,0.76-1.06-0.33c-0.8-0.49-2.16-1.43-0.65-0.67l0.03-0.04
			c-1.7-0.8-0.17,0.26,0.57,0.74c1.89,1.21,2.06,0.8,1.13,0.25L37.55,18.51L37.55,18.51z"/>
		<path class="st2" d="M37.35,17.51c0.99-0.59,1.04-0.25-0.76,0.76c-0.83,0.45-2.34,1.21-0.95,0.27l-0.03-0.05
			c-1.52,1.1,0.2,0.25,0.97-0.18c1.97-1.07,1.76-1.47,0.72-0.84L37.35,17.51L37.35,17.51z"/>
		<polygon class="st137" points="36.1,18.01 36.03,18.01 35.75,18.58 35.75,18.58 36.22,18.58 36.48,18.58 36.5,18.59 36.48,18.6 
			36.5,18.6 36.64,18.6 36.66,18.6 36.64,18.58 37.11,18.58 37.4,18.58 37.4,18.58 37.4,18.56 37.11,18.01 36.9,18.01 36.1,18.01 		
			"/>
		<path class="st137" d="M36.1,18.03c0,0,1,0,1.01,0c0,0.01,0.28,0.55,0.28,0.55l0,0l0,0h-0.28h-0.47v0.01v0.01l0,0H36.5v-0.01
			l-0.01-0.01h-0.27c0,0-0.45,0-0.47,0l0,0c0,0,0.28-0.54,0.28-0.55C36.04,18.03,36.1,18.03,36.1,18.03L36.1,18.03z M36.9,18h-0.87
			h-0.01l-0.28,0.56v0.01l0.01,0.01h0.75v0.01l0.01,0.01h0.16l0.01-0.01v-0.01l0,0c0.03,0,0.73,0,0.73,0l0.01-0.01v-0.01l-0.01-0.01
			L37.14,18h-0.01H36.9L36.9,18L36.9,18z"/>
		<polygon class="st137" points="35.75,18.58 35.75,18.59 35.75,18.59 35.75,18.6 36.48,18.6 36.5,18.6 36.48,18.6 36.47,18.6 
			36.47,18.6 36.47,18.62 36.48,18.62 36.5,18.63 36.64,18.63 36.64,18.63 36.66,18.62 36.67,18.62 36.67,18.62 36.67,18.6 
			36.66,18.6 36.66,18.6 36.66,18.6 37.4,18.6 37.4,18.59 37.4,18.59 37.4,18.59 37.4,18.58 37.4,18.58 37.4,18.58 36.64,18.58 
			36.64,18.58 36.64,18.59 36.64,18.59 36.64,18.6 36.64,18.6 36.64,18.6 36.51,18.6 36.51,18.6 36.5,18.6 36.51,18.59 36.51,18.59 
			36.51,18.58 36.5,18.58 36.5,18.58 35.77,18.58 35.75,18.58 35.75,18.58 35.75,18.58 		"/>
		<path class="st137" d="M35.75,18.59C35.77,18.59,35.77,18.59,35.75,18.59c0.01,0,0.75,0,0.75,0l0,0h-0.01v0.01h0.13l0.01-0.01l0,0
			c0,0,0.73,0,0.75,0l0,0l0,0c-0.01,0-0.73,0-0.73,0l-0.01,0.01v0.01l0,0l-0.01,0.01h-0.15l0,0l0.01-0.01V18.6L35.75,18.59
			L35.75,18.59L35.75,18.59z M37.39,18.58h-0.76l-0.01,0.01v0.01c-0.01,0-0.11,0-0.12,0v-0.01l-0.01-0.01h-0.73l0,0l0,0h-0.01v0.01
			l0.01,0.01c0,0,0.69,0,0.72,0l0,0v0.01l0.01,0.01h0.01l0.01,0.01h0.16l0.01-0.01h0.01v-0.01l0,0c0.03,0,0.72,0,0.72,0l0.01-0.01
			l0,0l0,0l0.01-0.01v-0.01H37.39L37.39,18.58L37.39,18.58z"/>
		<polygon class="st2" points="36.11,17.99 36.06,18.01 35.81,18.55 35.93,18.55 36.03,18.54 36.16,18.52 36.3,18.5 36.36,18.48 
			36.42,18.5 36.47,18.51 36.5,18.54 36.51,18.58 36.52,18.59 36.63,18.59 36.63,18.59 36.64,18.55 36.66,18.51 36.7,18.48 
			36.74,18.47 36.79,18.47 36.87,18.48 36.95,18.51 37.1,18.54 37.23,18.55 37.34,18.55 37.08,18.03 37.03,17.99 36.59,18.26 
			36.11,17.99 		"/>
		<path class="st137" d="M36.06,18.01c0,0,0.04-0.01,0.05-0.03c0.01,0,0.47,0.27,0.47,0.27h0.01l0.44-0.27
			c0.01,0,0.05,0.03,0.05,0.03s0.23,0.48,0.24,0.51c-0.03,0-0.09,0-0.09,0l-0.13-0.01l-0.15-0.01l-0.08-0.03l-0.08-0.01h-0.05
			l-0.05,0.01l-0.04,0.03l-0.03,0.04c0,0,0,0.03-0.01,0.04c-0.01,0-0.09,0-0.09,0l-0.03-0.05l-0.03-0.03l-0.04-0.01l-0.04-0.01
			l-0.08,0.01l-0.13,0.03l-0.13,0.01l-0.11,0.01c0,0-0.08,0-0.11,0C35.83,18.51,36.06,18.01,36.06,18.01L36.06,18.01z M36.06,18.01
			l-0.25,0.54l0.01,0.01h0.12l0.11-0.01l0.13-0.01l0.13-0.03l0.07-0.01l0.04,0.01l0.05,0.01l0.03,0.03l0.01,0.04l0.01,0.01h0.01
			h0.11h0.01l0.01-0.04l0.01-0.04l0.04-0.03l0.04-0.01h0.05l0.07,0.01l0.08,0.03l0.15,0.03l0.13,0.01h0.11l0.01-0.01l-0.25-0.52
			l-0.05-0.04h-0.01l-0.44,0.27c-0.01,0-0.47-0.27-0.47-0.27h-0.01L36.06,18.01L36.06,18.01z"/>
		<polygon class="st137" points="36.56,17.99 36.58,17.99 36.58,18.52 36.56,18.52 36.56,17.99 		"/>
		<polygon class="st137" points="35.81,18.54 35.9,18.48 35.91,18.49 35.82,18.55 35.81,18.54 		"/>
		<polygon class="st137" points="37.24,18.51 37.34,18.55 37.34,18.54 37.26,18.5 37.24,18.51 		"/>
		<polygon class="st137" points="36.1,17.99 35.89,18.5 35.96,18.5 36.07,18.47 36.18,18.45 36.28,18.43 36.35,18.41 36.39,18.41 
			36.44,18.43 36.48,18.44 36.52,18.45 36.54,18.48 36.56,18.51 36.58,18.54 36.59,18.51 36.62,18.47 36.64,18.44 36.68,18.43 
			36.74,18.41 36.78,18.41 36.82,18.41 36.91,18.43 37.06,18.47 37.18,18.5 37.24,18.5 37.26,18.51 37.04,18 36.98,17.99 
			36.91,17.99 36.86,17.97 36.82,17.96 36.76,17.95 36.74,17.93 36.7,17.93 36.66,17.93 36.63,17.93 36.62,17.95 36.6,17.96 
			36.59,17.97 36.58,17.99 36.58,17.99 36.56,17.97 36.56,17.96 36.54,17.95 36.54,17.95 36.5,17.93 36.47,17.92 36.42,17.92 
			36.38,17.95 36.32,17.95 36.3,17.96 36.26,17.97 36.22,17.97 36.15,17.99 36.12,17.99 36.1,17.99 		"/>
		<path class="st137" d="M36.12,18h0.03l0.05-0.01l0.04-0.01l0.04-0.01l0.04-0.01l0.04-0.01l0.05-0.01h0.05l0.03,0.01l0.03,0.01
			v0.01l0.03,0.01v0.01L36.56,18h0.01l0.01-0.01h0.01l0.01-0.03h0.01h0.03h0.07l0.04,0.01l0.04,0.01L36.84,18l0.07,0.01h0.07
			l0.05,0.01c0,0.01,0.19,0.45,0.21,0.48l-0.08-0.01l-0.12-0.01l-0.13-0.04l-0.09-0.01h-0.09l-0.04-0.01l-0.05,0.01l-0.03,0.03
			l-0.03,0.04v0.01c0-0.01-0.01-0.01-0.01-0.01l-0.01-0.01l-0.03-0.03l-0.04-0.01l-0.04-0.01l-0.05-0.01h-0.05h-0.05l-0.11,0.03
			l-0.11,0.01l-0.11,0.01c0,0-0.04,0-0.05,0.01C35.91,18.47,36.1,18,36.12,18C36.11,18,36.12,18,36.12,18L36.12,18z M36.38,17.93
			l-0.04,0.01l-0.04,0.01l-0.04,0.01l-0.04,0.01l-0.07-0.01H36.1h-0.01l-0.2,0.52l0.01,0.01l0.07-0.01l0.11-0.01l0.11-0.01
			l0.11-0.03l0.07-0.01h0.04l0.04,0.01l0.04,0.01l0.04,0.01l0.01,0.01l0.01,0.03l0.01,0.03h0.01l0.01-0.03l0.03-0.04l0.03-0.03
			l0.04-0.01l0.04-0.01h0.09l0.09,0.01l0.13,0.04l0.12,0.01l0.08,0.01l0.01,0.01l0.01-0.01l-0.21-0.51l0,0l-0.07-0.01h-0.07
			l-0.07-0.01l-0.03-0.01l-0.04-0.01l-0.04-0.01H36.7h-0.07l-0.03,0.01l-0.01,0.03h-0.01c0,0,0,0-0.01,0.01l0,0l-0.01-0.01v-0.01
			l-0.01-0.01l-0.03-0.01l-0.03-0.01h-0.05L36.38,17.93L36.38,17.93z"/>
		<polygon class="st141" points="36.11,17.99 35.89,18.5 35.98,18.48 36.08,18.45 36.18,18.44 36.28,18.41 36.36,18.4 36.39,18.4 
			36.44,18.41 36.48,18.43 36.52,18.45 36.54,18.47 36.56,18.5 36.58,18.52 36.59,18.5 36.62,18.45 36.64,18.43 36.68,18.41 
			36.74,18.4 36.78,18.4 36.82,18.4 36.91,18.43 37.06,18.45 37.16,18.48 37.23,18.5 37.26,18.5 37.04,17.99 36.96,17.99 
			36.91,17.97 36.86,17.96 36.82,17.95 36.76,17.93 36.74,17.93 36.7,17.92 36.66,17.92 36.63,17.93 36.62,17.95 36.6,17.95 
			36.59,17.97 36.58,17.97 36.58,17.99 36.56,17.97 36.56,17.95 36.55,17.95 36.54,17.93 36.5,17.92 36.48,17.92 36.42,17.92 
			36.38,17.93 36.32,17.95 36.3,17.96 36.27,17.97 36.22,17.97 36.15,17.97 36.12,17.99 36.11,17.99 		"/>
		<path class="st137" d="M36.59,17.99L36.59,17.99L36.59,17.99l0.04-0.04l0.01-0.01l0.03-0.01h0.04l0.04,0.01h0.04l0.04,0.01
			l0.04,0.01l0.05,0.01l0.07,0.01c0,0,0.05,0,0.07,0c0,0.01,0.19,0.45,0.2,0.48l-0.08-0.01h-0.12l-0.15-0.04l-0.09-0.01h-0.08
			l-0.05,0.01l-0.04,0.01l-0.04,0.03l-0.03,0.04c0,0,0,0,0,0.01c0-0.01-0.01-0.01-0.01-0.01l-0.01-0.03l-0.01-0.01l-0.04-0.01
			l-0.04-0.01l-0.05-0.01h-0.04l-0.08-0.01l-0.11,0.03l-0.09,0.03l-0.11,0.01c0,0-0.05,0-0.07,0.01c0.01-0.03,0.21-0.47,0.21-0.48
			l0,0l0.04-0.01l0.07-0.01h0.04l0.03-0.01l0.04-0.01l0.05-0.01l0.04-0.01h0.08l0.03,0.01l0.01,0.01l0.01,0.01l0.01,0.01
			L36.59,17.99L36.59,17.99L36.59,17.99z M36.63,17.92l-0.01,0.01l-0.01,0.01c0,0-0.03,0.01-0.03,0.03l-0.01-0.01l-0.01-0.03
			l-0.03-0.01L36.5,17.9h-0.03h-0.05l-0.05,0.01l-0.05,0.01l-0.04,0.01l-0.03,0.01H36.2l-0.05,0.01l-0.04,0.01H36.1l-0.21,0.49
			l0.01,0.01l0.08-0.01l0.11-0.01l0.11-0.01l0.11-0.03l0.07-0.01h0.04l0.05,0.01l0.04,0.01l0.04,0.01l0.04,0.04l0.01,0.04h0.01
			l0.01-0.03l0.03-0.04l0.03-0.03l0.04-0.01l0.05-0.01h0.05l0.09,0.01l0.15,0.04l0.11,0.01l0.08,0.01l0.01,0.01l0.01-0.01
			l-0.21-0.51h-0.01h-0.08l-0.07-0.01l-0.05-0.01l-0.03-0.01l-0.04-0.01h-0.04l-0.04-0.01h-0.04H36.63L36.63,17.92z"/>
		<polygon class="st137" points="36.56,17.99 36.58,17.99 36.58,18.52 36.56,18.52 36.56,17.99 		"/>
		<path class="st2" d="M34.55,16.6h-0.09v-0.19h0.09v0.03l0,0h-0.04v0.12h0.04l0,0V16.6L34.55,16.6z M34.74,16.5v0.03
			c-0.01,0-0.01,0-0.01,0c-0.01,0-0.01,0.01-0.01,0.01c0,0.01,0,0.01,0.01,0.01c0,0,0,0,0.01,0v0.03c-0.01,0-0.01,0-0.03,0
			c-0.04,0-0.05-0.01-0.05-0.04c0-0.03,0.01-0.04,0.05-0.04C34.73,16.5,34.73,16.5,34.74,16.5L34.74,16.5z M34.74,16.44v0.03
			c-0.01,0.01-0.03,0.01-0.03,0.03h-0.04c0-0.01,0.01-0.03,0.01-0.04C34.7,16.45,34.71,16.44,34.74,16.44L34.74,16.44L34.74,16.44z
			 M34.65,16.49c0,0.03-0.01,0.05-0.01,0.07c-0.01,0.01-0.04,0.03-0.07,0.03h-0.01v-0.03c0.01,0,0.01-0.01,0.03-0.01
			c0.01-0.01,0.01-0.03,0.01-0.04c0-0.01,0-0.04-0.01-0.04c-0.01-0.01-0.01-0.01-0.03-0.01v-0.04h0.01c0.03,0,0.04,0,0.07,0.01
			C34.63,16.44,34.65,16.46,34.65,16.49L34.65,16.49L34.65,16.49z M35.03,16.42C35.02,16.42,35.02,16.42,35.03,16.42
			c-0.01,0-0.01,0-0.01,0c-0.01,0-0.01,0-0.01,0.01c-0.01,0-0.01,0-0.01,0.01v0.01h0.03v0.03h-0.03v0.12h-0.04v-0.14h-0.01v-0.03
			h0.01v-0.01c0-0.03,0.01-0.04,0.04-0.04c0.01,0,0.01,0,0.04,0V16.42L35.03,16.42z M34.93,16.42L34.93,16.42
			C34.91,16.42,34.91,16.42,34.93,16.42c-0.01,0-0.01,0-0.01,0.01c-0.01,0-0.01,0-0.01,0.01v0.01h0.03v0.03H34.9v0.12h-0.04v-0.14
			h-0.01v-0.03h0.01v-0.01c0-0.03,0.01-0.04,0.04-0.04c0.01,0,0.01,0,0.03,0V16.42L34.93,16.42L34.93,16.42z M34.74,16.6v-0.03
			c0,0,0.01,0,0.01-0.01l0.01-0.01v-0.03h-0.01l-0.01,0.01V16.5h0.01c0.01,0,0.01,0,0.01-0.01c0.01,0,0.01,0,0.01-0.01
			c0-0.01-0.01-0.01-0.03-0.01l0,0v-0.03l0,0c0.03,0,0.04,0.01,0.05,0.01c0.01,0,0.01,0.01,0.01,0.04v0.07c0,0.01,0,0.01,0,0.01
			s0.01,0.01,0.01,0c0,0.01,0,0.01,0,0.01h-0.01c-0.01,0-0.03,0-0.03,0c-0.01,0-0.01-0.01-0.01-0.01l0,0l0,0
			C34.75,16.59,34.75,16.6,34.74,16.6L34.74,16.6L34.74,16.6z M35.11,16.44v0.04c-0.01,0-0.03,0.01-0.03,0.04
			c0,0.03,0.01,0.04,0.03,0.04v0.03c-0.05,0-0.08-0.03-0.08-0.07C35.03,16.46,35.06,16.44,35.11,16.44L35.11,16.44L35.11,16.44z
			 M35.11,16.6v-0.03l0,0c0.01,0,0.04-0.01,0.04-0.04c0-0.04-0.01-0.04-0.04-0.04l0,0v-0.05l0,0c0.05,0,0.08,0.03,0.08,0.08
			C35.19,16.57,35.17,16.6,35.11,16.6L35.11,16.6L35.11,16.6z M35.29,16.45v0.03l0,0c-0.01,0-0.03,0.01-0.03,0.04
			c0,0.03,0.01,0.04,0.03,0.04l0,0v0.04h-0.01c-0.03,0-0.04-0.01-0.05-0.01c0-0.03,0-0.04,0-0.07c0-0.03,0-0.04,0.01-0.05
			C35.25,16.45,35.25,16.44,35.29,16.45C35.27,16.44,35.29,16.44,35.29,16.45L35.29,16.45L35.29,16.45z M35.96,16.6
			c-0.01,0-0.03,0-0.04,0c-0.01,0-0.01,0-0.03-0.01c-0.01,0-0.01-0.01-0.01-0.03v-0.08h-0.03v-0.03h0.03v-0.04h0.04v0.04h0.03v0.03
			h-0.03v0.07c0,0.01,0,0.01,0,0.01h0.01c0.01,0,0.01,0,0.01,0v0.04H35.96L35.96,16.6z M35.85,16.6h-0.04v-0.1
			c0-0.01,0-0.03-0.01-0.03c-0.01,0-0.01,0-0.01,0.01c-0.03,0-0.03,0-0.03,0.01v0.1h-0.04v-0.15h0.04v0.01l0,0
			c0.01-0.01,0.01-0.03,0.04-0.03c0.01,0,0.03,0.01,0.04,0.01c0.01,0,0.01,0.01,0.01,0.03V16.6L35.85,16.6L35.85,16.6z M35.67,16.6
			h-0.04v-0.19h0.04V16.6L35.67,16.6L35.67,16.6z M35.51,16.6h-0.04v-0.21h0.04V16.6L35.51,16.6L35.51,16.6z M35.45,16.6h-0.04
			v-0.15h0.04V16.6L35.45,16.6L35.45,16.6z M35.45,16.44h-0.04v-0.04h0.04V16.44L35.45,16.44L35.45,16.44z M35.29,16.6v-0.04
			c0.03,0,0.04-0.01,0.04-0.04c0-0.03-0.01-0.04-0.04-0.04v-0.03c0.01,0,0.03,0.01,0.04,0.01l0,0v-0.07h0.04v0.21h-0.04v-0.01l0,0
			C35.31,16.59,35.31,16.6,35.29,16.6L35.29,16.6L35.29,16.6z M36.06,16.44v0.03c-0.01,0-0.03,0.01-0.04,0.04h0.04v0.03h-0.04
			c0,0.03,0.01,0.04,0.04,0.04v0.03c-0.05,0-0.08-0.03-0.08-0.07c0-0.03,0.01-0.04,0.01-0.05C36,16.45,36.03,16.44,36.06,16.44
			L36.06,16.44L36.06,16.44L36.06,16.44z M36.42,16.6h-0.04v-0.1c0-0.01-0.01-0.03-0.01-0.03c-0.01,0-0.01,0-0.01,0.01
			c-0.01,0.01-0.01,0.01-0.01,0.01v0.1H36.3v-0.15h0.04v0.01l0,0c0-0.01,0.01-0.03,0.04-0.03c0.01,0,0.03,0.01,0.04,0.01
			c0,0.01,0,0.03,0,0.04V16.6L36.42,16.6z M36.26,16.49c-0.01,0-0.01,0-0.01,0c-0.01,0-0.03,0-0.03,0.01
			c-0.01,0.01-0.01,0.01-0.01,0.03v0.07h-0.05v-0.15h0.05v0.03l0,0c0.01-0.01,0.01-0.04,0.04-0.04c0.01,0,0.01,0,0.01,0.01V16.49
			L36.26,16.49L36.26,16.49z M36.06,16.53V16.5h0.03c0-0.01,0-0.01,0-0.01c-0.01-0.01-0.01-0.01-0.03-0.01l0,0v-0.04
			c0.03,0,0.04,0.01,0.05,0.03c0.01,0.01,0.01,0.04,0.01,0.07H36.06L36.06,16.53L36.06,16.53z M36.06,16.6v-0.03l0,0
			c0.01,0,0.01,0,0.01-0.01c0.01,0,0.01-0.01,0.01-0.01h0.04c0,0.01-0.01,0.01-0.01,0.03C36.1,16.6,36.08,16.6,36.06,16.6
			L36.06,16.6L36.06,16.6L36.06,16.6z M36.51,16.5v0.03c-0.01,0-0.01,0-0.01,0c-0.01,0-0.01,0.01-0.01,0.01c0,0.01,0,0.01,0.01,0.01
			h0.01v0.03c-0.01,0-0.01,0-0.03,0c-0.04,0-0.05-0.01-0.05-0.04c0-0.03,0.01-0.04,0.05-0.04C36.5,16.5,36.5,16.5,36.51,16.5
			L36.51,16.5L36.51,16.5z M36.51,16.44v0.03c-0.01,0.01-0.03,0.01-0.03,0.03h-0.04c0-0.01,0.01-0.03,0.01-0.04
			C36.47,16.45,36.48,16.44,36.51,16.44L36.51,16.44L36.51,16.44z M36.76,16.6h-0.04v-0.15h0.04V16.6L36.76,16.6z M36.76,16.44
			h-0.04v-0.04h0.04V16.44L36.76,16.44L36.76,16.44z M36.7,16.6c-0.01,0-0.01,0-0.03,0c-0.01,0-0.03,0-0.04-0.01
			c0,0-0.01-0.01-0.01-0.03v-0.08H36.6v-0.03h0.01v-0.04h0.04v0.04h0.03v0.03h-0.03v0.07c0,0.01,0,0.01,0.01,0.01c0,0,0,0,0.01,0
			h0.01V16.6L36.7,16.6L36.7,16.6z M36.51,16.6v-0.03c0.01,0,0.01,0,0.01-0.01c0.01,0,0.01-0.01,0.01-0.01v-0.03h-0.01l-0.01,0.01
			V16.5c0.01,0,0.01,0,0.01,0c0.01,0,0.01,0,0.01-0.01c0,0,0,0,0-0.01c0-0.01-0.01-0.01-0.03-0.01l0,0v-0.03l0,0
			c0.03,0,0.04,0.01,0.05,0.01c0.01,0,0.01,0.01,0.01,0.04v0.07c0,0.01,0,0.01,0,0.01c0.01,0,0.01,0.01,0.01,0c0,0.01,0,0.01,0,0.01
			h-0.01c-0.01,0-0.03,0-0.03,0c-0.01,0-0.01-0.01-0.01-0.01l0,0l0,0C36.54,16.59,36.52,16.6,36.51,16.6L36.51,16.6L36.51,16.6z
			 M36.87,16.44v0.04c-0.03,0-0.04,0.01-0.04,0.04c0,0.03,0.01,0.04,0.04,0.04v0.03c-0.05,0-0.08-0.03-0.08-0.07
			C36.79,16.46,36.82,16.44,36.87,16.44L36.87,16.44L36.87,16.44z M37.11,16.6h-0.04v-0.1c0-0.01-0.01-0.03-0.03-0.03
			s-0.01,0-0.01,0.01c-0.01,0.01-0.01,0.01-0.01,0.01v0.1h-0.04v-0.15h0.04v0.01l0,0c0.01-0.01,0.03-0.03,0.04-0.03
			c0.01,0,0.03,0.01,0.04,0.01c0.01,0,0.01,0.01,0.01,0.03V16.6L37.11,16.6L37.11,16.6z M36.87,16.6v-0.03l0,0
			c0.01,0,0.03-0.01,0.03-0.04c0-0.04-0.01-0.04-0.03-0.04l0,0v-0.05l0,0c0.05,0,0.08,0.03,0.08,0.08
			C36.95,16.57,36.92,16.6,36.87,16.6L36.87,16.6L36.87,16.6L36.87,16.6z M37.2,16.5v0.03h-0.01c-0.01,0-0.01,0.01-0.01,0.01
			c0,0.01,0.01,0.01,0.01,0.01c0.01,0,0.01,0,0.01,0v0.03c-0.01,0-0.01,0-0.01,0c-0.04,0-0.05-0.01-0.05-0.04
			c0-0.03,0.01-0.04,0.04-0.04C37.19,16.5,37.2,16.5,37.2,16.5L37.2,16.5L37.2,16.5z M37.2,16.44v0.03
			c-0.01,0.01-0.03,0.01-0.03,0.03h-0.04c0-0.01,0-0.03,0.01-0.04C37.18,16.45,37.19,16.44,37.2,16.44L37.2,16.44L37.2,16.44z
			 M38.05,16.45L38,16.6h-0.05l-0.05-0.15h0.05l0.03,0.1l0,0l0.03-0.1H38.05L38.05,16.45z M37.88,16.6h-0.04v-0.15h0.04V16.6
			L37.88,16.6L37.88,16.6z M37.88,16.44h-0.04v-0.04h0.04V16.44L37.88,16.44L37.88,16.44z M37.82,16.6h-0.04v-0.1
			c0-0.01-0.01-0.03-0.03-0.03c-0.01,0-0.01,0-0.01,0.01c-0.01,0.01-0.01,0.01-0.01,0.01v0.1h-0.04v-0.15h0.04v0.01l0,0
			c0.01-0.01,0.03-0.03,0.04-0.03c0.01,0,0.03,0.01,0.04,0.01c0.01,0,0.01,0.01,0.01,0.03V16.6L37.82,16.6L37.82,16.6z M37.64,16.52
			c0,0.03-0.01,0.04-0.01,0.05c-0.01,0.01-0.04,0.01-0.07,0.01s-0.04,0-0.07-0.01c-0.01-0.01-0.01-0.03-0.01-0.05v-0.11h0.04v0.12
			c0,0.01,0.01,0.03,0.04,0.03s0.04-0.01,0.04-0.03v-0.12h0.05v0.11H37.64L37.64,16.52z M37.36,16.6h-0.05v-0.21h0.05V16.6
			L37.36,16.6L37.36,16.6z M37.2,16.6v-0.03c0.01,0,0.01,0,0.01-0.01c0.01,0,0.01-0.01,0.01-0.01v-0.03h-0.01c0,0,0,0.01-0.01,0.01
			V16.5c0.01,0,0.01,0,0.01,0c0.01,0,0.01,0,0.01-0.01c0,0,0,0,0-0.01c0-0.01-0.01-0.01-0.01-0.01c-0.01,0-0.01,0-0.01,0v-0.03h0.01
			c0.01,0,0.04,0.01,0.05,0.01c0.01,0,0.01,0.01,0.01,0.04v0.07c0,0.01,0,0.01,0.01,0.01c0,0,0,0.01,0,0c0,0.01,0,0.01,0,0.01h-0.01
			c-0.01,0-0.01,0-0.03,0l-0.01-0.01l0,0l0,0C37.23,16.59,37.22,16.6,37.2,16.6L37.2,16.6L37.2,16.6z M38.13,16.44v0.03
			c-0.01,0-0.03,0.01-0.03,0.04h0.03v0.03h-0.03c0,0.03,0.01,0.04,0.03,0.04v0.03c-0.05,0-0.08-0.03-0.08-0.07
			c0-0.03,0.01-0.04,0.01-0.05C38.09,16.45,38.11,16.44,38.13,16.44L38.13,16.44L38.13,16.44L38.13,16.44z M38.84,16.45l-0.05,0.15
			c-0.01,0.01-0.01,0.03-0.01,0.03c-0.01,0.01-0.01,0.01-0.04,0.01c-0.01,0-0.01,0-0.03,0v-0.03h0.01c0.01,0,0.01-0.01,0.01-0.03
			l-0.05-0.14h0.05l0.03,0.1l0,0l0.03-0.1H38.84L38.84,16.45z M38.68,16.6c-0.01,0-0.03,0-0.04,0c-0.01,0-0.03,0-0.03-0.01
			c-0.01,0-0.01-0.01-0.01-0.03v-0.08h-0.03v-0.03h0.03v-0.04h0.04v0.04h0.04v0.03h-0.03v0.07c0,0.01,0,0.01,0,0.01h0.01
			c0.01,0,0.01,0,0.01,0V16.6L38.68,16.6L38.68,16.6z M38.56,16.6h-0.04v-0.15h0.04V16.6L38.56,16.6L38.56,16.6z M38.56,16.44h-0.04
			v-0.04h0.04V16.44L38.56,16.44L38.56,16.44z M38.49,16.56c0,0.03-0.03,0.04-0.07,0.04s-0.08-0.01-0.08-0.04h0.04
			c0,0.01,0.01,0.01,0.03,0.01c0.01,0,0.03-0.01,0.03-0.01l-0.01-0.01c-0.01,0-0.01,0-0.03-0.01c-0.03,0-0.04-0.01-0.04-0.01
			c-0.01-0.01-0.01-0.01-0.01-0.04c0-0.01,0.01-0.01,0.01-0.03c0.01-0.01,0.03-0.01,0.05-0.01c0.01,0,0.04,0.01,0.05,0.01
			c0.01,0.01,0.01,0.01,0.01,0.03h-0.04c0-0.01-0.01-0.01-0.01-0.01c-0.01,0-0.03,0-0.03,0.01c0,0.01,0.01,0.01,0.04,0.01
			c0.01,0,0.03,0.01,0.04,0.01C38.48,16.52,38.49,16.53,38.49,16.56L38.49,16.56L38.49,16.56z M38.33,16.49c-0.01,0-0.01,0-0.01,0
			c-0.01,0-0.01,0-0.03,0.01c-0.01,0-0.01,0.01-0.01,0.01v0.07h-0.04v-0.14h0.04v0.03l0,0c0.01-0.01,0.03-0.04,0.04-0.04
			c0,0,0.01,0,0.01,0.01V16.49L38.33,16.49L38.33,16.49z M38.13,16.53V16.5h0.03c0-0.01,0-0.01,0-0.01
			c-0.01-0.01-0.01-0.01-0.03-0.01l0,0v-0.04c0.03,0,0.04,0.01,0.07,0.03c0.01,0.01,0.01,0.04,0.01,0.07H38.13L38.13,16.53
			L38.13,16.53z M38.13,16.6v-0.03l0,0c0.01,0,0.01,0,0.01-0.01c0.01,0,0.01-0.01,0.01-0.01h0.04c0,0.01,0,0.01-0.01,0.03
			C38.19,16.6,38.16,16.6,38.13,16.6L38.13,16.6L38.13,16.6L38.13,16.6z"/>
		<path class="st140" d="M35.33,19.1l0.16,0.07v0.25l-0.2,0.44l0.07,0.03c0.05,0.03,0.09,0.04,0.13,0.04c0,0,0,0,0.01,0v0.23
			c-0.07-0.01-0.12-0.03-0.16-0.04l-0.39-0.18L35.33,19.1L35.33,19.1z M35.49,19.17l0.21,0.1c0.07,0.04,0.13,0.07,0.16,0.11
			c0.04,0.04,0.07,0.1,0.08,0.15c0.01,0.04,0.01,0.1,0.01,0.15c-0.01,0.07-0.03,0.12-0.05,0.18c-0.04,0.1-0.08,0.15-0.12,0.19
			c-0.04,0.04-0.09,0.07-0.15,0.1c-0.04,0.01-0.09,0.01-0.15,0.01l0,0v-0.23c0.03-0.01,0.04-0.01,0.08-0.04
			c0.01-0.03,0.04-0.07,0.08-0.14c0.04-0.1,0.04-0.15,0.04-0.21c-0.01-0.04-0.05-0.08-0.12-0.11l-0.07-0.04l-0.01,0.04V19.17
			L35.49,19.17z"/>
		<polygon class="st140" points="36.44,19.66 36.72,19.66 36.72,20.58 36.44,20.58 36.44,19.66 		"/>
		<path class="st140" d="M37.63,19.2l0.25-0.12l0.23,0.49c0.03,0.05,0.04,0.1,0.04,0.15c0,0.04,0,0.1-0.01,0.15
			c-0.01,0.04-0.04,0.08-0.07,0.12c-0.04,0.04-0.11,0.07-0.16,0.11c-0.04,0.01-0.09,0.04-0.13,0.04c-0.05,0.01-0.11,0.03-0.13,0.03
			c-0.04,0-0.08-0.01-0.12-0.03s-0.08-0.04-0.11-0.07c-0.04-0.04-0.07-0.1-0.09-0.12l-0.24-0.49l0.25-0.12l0.24,0.51
			c0.01,0.04,0.04,0.07,0.08,0.1c0.04,0.01,0.08,0.01,0.13-0.01c0.04-0.03,0.07-0.05,0.08-0.1c0.01-0.04,0.01-0.07-0.01-0.12
			L37.63,19.2L37.63,19.2z"/>
		<path class="st142" d="M36.55,21.23c0.16,0,0.31,0.14,0.31,0.32c0,0.18-0.15,0.32-0.31,0.32c-0.17,0-0.31-0.14-0.31-0.32
			C36.24,21.36,36.38,21.23,36.55,21.23L36.55,21.23z"/>
		<g>
			<defs>
				<rect id="SVGID_00000122707828502024969360000013110594640064348095_" x="33.39" y="15.43" width="23.61" height="6.74"/>
			</defs>
			<clipPath id="SVGID_00000021815398406327659710000000703309754708900228_">
				<use xlink:href="#SVGID_00000122707828502024969360000013110594640064348095_"  style="overflow:visible;"/>
			</clipPath>
			
				<path style="clip-path:url(#SVGID_00000021815398406327659710000000703309754708900228_);fill-rule:evenodd;clip-rule:evenodd;fill:#38B04A;" d="
				M44.45,19.62c-0.08,0.37-0.15,0.74-0.23,1.11c-0.1,0.45-0.38,0.7-0.82,0.75c-0.22,0.02-0.43,0.02-0.65-0.04
				c-0.26-0.07-0.39-0.27-0.36-0.54c0.03-0.35,0.13-0.68,0.19-1.03c0.03-0.17,0.07-0.33,0.1-0.5c0.01-0.06,0.04-0.08,0.1-0.08
				c0.07,0,0.14,0,0.22-0.01c0.04-0.03,0.08-0.04,0.13,0c0.12,0.01,0.12,0.01,0.08,0.16c0.02,0.06,0,0.12-0.03,0.17
				c-0.07,0.35-0.15,0.71-0.22,1.06c-0.05,0.24-0.01,0.34,0.13,0.4c0.18,0.08,0.42,0.01,0.52-0.15c0.06-0.09,0.08-0.2,0.11-0.31
				c0.06-0.32,0.13-0.65,0.2-0.97c0-0.02,0-0.04,0-0.05c-0.02-0.06,0.01-0.11,0.04-0.15c0.02-0.15,0.02-0.15,0.17-0.15
				c0.05,0,0.11,0,0.16-0.01c0.04-0.02,0.09-0.04,0.13,0c0.12-0.01,0.1,0.06,0.07,0.14C44.48,19.49,44.52,19.56,44.45,19.62
				L44.45,19.62z"/>
			
				<path style="clip-path:url(#SVGID_00000021815398406327659710000000703309754708900228_);fill-rule:evenodd;clip-rule:evenodd;fill:#0A519C;" d="
				M46.34,16.59c-0.08,0.06-0.17,0.03-0.26,0.03c-0.09,0-0.12,0.04-0.13,0.12c-0.09,0.45-0.18,0.9-0.27,1.35
				c-0.01,0.08-0.04,0.11-0.12,0.1c-0.13-0.01-0.27-0.01-0.4,0c-0.08,0-0.11-0.02-0.09-0.11c0.08-0.37,0.15-0.75,0.23-1.12
				c0.02-0.08,0.03-0.17,0.05-0.25c0.02-0.07-0.01-0.09-0.07-0.09c0,0-0.01,0-0.01,0c-0.22,0-0.22,0-0.17-0.23
				c0.04-0.21,0.04-0.21,0.25-0.21c0.09,0,0.13-0.03,0.13-0.12c0-0.02,0.01-0.05,0.02-0.07c0.04-0.37,0.24-0.52,0.6-0.55
				c0.14-0.01,0.28,0,0.42,0.01c0.05,0,0.07,0.02,0.06,0.07c-0.01,0.03-0.01,0.06-0.02,0.08c-0.02,0.08-0.02,0.17-0.06,0.22
				c-0.05,0.06-0.14,0.02-0.22,0.03c-0.12,0.02-0.22,0.15-0.21,0.29c0.01,0.04,0.04,0.04,0.06,0.04c0.07,0,0.15,0,0.22,0
				c0.06,0,0.07,0.02,0.06,0.08c-0.01,0.05-0.03,0.1-0.03,0.16C46.36,16.47,46.39,16.54,46.34,16.59L46.34,16.59z"/>
			
				<path style="clip-path:url(#SVGID_00000021815398406327659710000000703309754708900228_);fill-rule:evenodd;clip-rule:evenodd;fill:#0A519C;" d="
				M46.4,16.46c0.02-0.08,0.04-0.15,0.05-0.23c0.01-0.05,0.05-0.05,0.09-0.05c0.08,0,0.17,0.03,0.23-0.02
				c0.06-0.05,0.04-0.15,0.06-0.23c0.06-0.28,0.2-0.42,0.48-0.48c0.19-0.04,0.37-0.01,0.56,0c0.03,0,0.05,0.02,0.04,0.05
				c-0.01,0.02-0.01,0.05-0.02,0.07c-0.02,0.09-0.02,0.19-0.07,0.25c-0.05,0.06-0.16,0.01-0.24,0.03c-0.03,0.01-0.06,0.02-0.09,0.04
				c-0.08,0.06-0.08,0.15-0.09,0.23c-0.01,0.05,0.02,0.05,0.05,0.05c0.07,0,0.15,0,0.22,0c0.05,0,0.08,0.01,0.06,0.07
				c-0.01,0.02-0.01,0.03-0.01,0.05c-0.02,0.1-0.02,0.23-0.08,0.29c-0.06,0.06-0.18,0.02-0.28,0.02c-0.07,0-0.08,0.04-0.09,0.09
				c-0.09,0.46-0.19,0.92-0.28,1.38c-0.01,0.07-0.04,0.09-0.11,0.09c-0.14,0-0.28,0-0.43,0c-0.07,0-0.1-0.01-0.08-0.1
				c0.08-0.4,0.16-0.81,0.24-1.21c0.01-0.05,0.02-0.1,0.03-0.15c0.01-0.07,0-0.11-0.08-0.1c-0.04,0-0.07,0-0.11,0
				c-0.11,0-0.12-0.02-0.09-0.12C46.38,16.48,46.39,16.47,46.4,16.46L46.4,16.46z"/>
		</g>
		<path class="st145" d="M52.34,21.47c-0.15,0-0.29-0.01-0.43-0.06c-0.19-0.07-0.28-0.23-0.25-0.42c0.01-0.05,0.03-0.07,0.08-0.07
			c0.12,0,0.24,0,0.36,0c0.05,0,0.07,0.01,0.08,0.07c0.03,0.12,0.08,0.16,0.21,0.16c0.15,0.01,0.25-0.05,0.29-0.14
			c0.03-0.08,0-0.13-0.1-0.16c-0.15-0.04-0.3-0.07-0.44-0.11c-0.14-0.04-0.29-0.09-0.32-0.26c-0.03-0.19,0.03-0.37,0.17-0.5
			c0.1-0.1,0.23-0.14,0.37-0.16c0.24-0.04,0.48-0.05,0.7,0.05c0.17,0.07,0.26,0.21,0.25,0.37c0,0.05-0.02,0.08-0.07,0.08
			c-0.12,0-0.24,0-0.36,0c-0.04,0-0.06-0.01-0.07-0.06c-0.01-0.08-0.06-0.11-0.13-0.12c-0.09-0.01-0.18-0.01-0.26,0.03
			c-0.05,0.02-0.08,0.06-0.08,0.11c0,0.06,0.04,0.08,0.08,0.1c0.13,0.07,0.27,0.08,0.41,0.1c0.08,0.02,0.16,0.04,0.23,0.07
			c0.15,0.06,0.22,0.2,0.19,0.37c-0.06,0.3-0.24,0.48-0.54,0.54C52.57,21.46,52.46,21.47,52.34,21.47L52.34,21.47z"/>
		<g>
			<defs>
				<rect id="SVGID_00000155867301460403557750000016135851296241528248_" x="33.39" y="15.43" width="23.61" height="6.74"/>
			</defs>
			<clipPath id="SVGID_00000116924300957022160740000000933128024666690969_">
				<use xlink:href="#SVGID_00000155867301460403557750000016135851296241528248_"  style="overflow:visible;"/>
			</clipPath>
			
				<path style="clip-path:url(#SVGID_00000116924300957022160740000000933128024666690969_);fill-rule:evenodd;clip-rule:evenodd;fill:#38B04A;" d="
				M45.15,20.02c0.19-0.21,0.41-0.24,0.64-0.22c0.24,0.02,0.38,0.2,0.34,0.44c-0.07,0.38-0.15,0.75-0.22,1.13
				c-0.01,0.05-0.04,0.07-0.09,0.07c-0.11,0-0.22,0-0.33,0c-0.07,0-0.09-0.02-0.07-0.09c0.06-0.3,0.12-0.6,0.18-0.9
				c0.04-0.2-0.04-0.28-0.24-0.26c-0.15,0.02-0.26,0.13-0.3,0.3c-0.06,0.28-0.12,0.56-0.17,0.85c-0.01,0.07-0.04,0.11-0.12,0.1
				c-0.09-0.01-0.19-0.01-0.28,0c-0.11,0.01-0.11-0.04-0.09-0.12c0.08-0.35,0.15-0.71,0.22-1.06c0.02-0.11,0.05-0.22,0.07-0.33
				c0.01-0.06,0.04-0.09,0.1-0.09c0.1,0.01,0.19,0.01,0.29,0c0.09-0.01,0.12,0.02,0.09,0.11C45.16,19.95,45.16,19.97,45.15,20.02
				L45.15,20.02z"/>
			
				<path style="clip-path:url(#SVGID_00000116924300957022160740000000933128024666690969_);fill-rule:evenodd;clip-rule:evenodd;fill:#38B04A;" d="
				M56.02,20.82c0.08-0.15,0.15-0.31,0.23-0.46c0.07-0.14,0.14-0.28,0.21-0.43c0.03-0.08,0.08-0.12,0.17-0.11
				c0.1,0.01,0.19,0.01,0.29,0c0.1-0.01,0.09,0.03,0.05,0.1c-0.23,0.4-0.46,0.81-0.69,1.21c-0.1,0.18-0.2,0.35-0.3,0.53
				c-0.14,0.26-0.34,0.37-0.62,0.35C55.32,22,55.27,22,55.23,22c-0.08,0-0.12-0.03-0.09-0.12c0.01-0.03,0.02-0.07,0.02-0.1
				c0.01-0.11,0.03-0.17,0.17-0.14c0.16,0.03,0.33-0.18,0.3-0.35c-0.08-0.45-0.15-0.91-0.23-1.36c-0.02-0.09,0-0.12,0.09-0.11
				c0.1,0.01,0.21,0.01,0.31,0c0.07,0,0.1,0.02,0.11,0.1c0.02,0.27,0.05,0.54,0.08,0.81c0,0.03,0.01,0.06,0.01,0.08
				C56,20.82,56.01,20.82,56.02,20.82L56.02,20.82z"/>
		</g>
		<path class="st145" d="M47.76,20.93c0.06-0.12,0.11-0.23,0.17-0.35c0.1-0.22,0.21-0.45,0.31-0.68c0.03-0.06,0.06-0.08,0.13-0.08
			c0.12,0,0.24,0,0.36,0c0.07,0,0.07,0.02,0.04,0.07c-0.27,0.49-0.54,0.98-0.8,1.47c-0.02,0.04-0.05,0.06-0.1,0.06
			c-0.14,0-0.28,0-0.43,0c-0.05,0-0.08-0.02-0.09-0.08c-0.07-0.48-0.13-0.97-0.2-1.45c-0.01-0.06,0.01-0.08,0.07-0.08
			c0.11,0,0.23,0.01,0.34,0c0.1-0.01,0.12,0.03,0.13,0.12c0.01,0.31,0.03,0.61,0.04,0.92c0,0.02,0,0.04,0.01,0.06
			C47.74,20.93,47.75,20.93,47.76,20.93L47.76,20.93z"/>
		<path class="st147" d="M53.23,18.17c-0.06-0.03-0.02-0.07-0.01-0.11c0.12-0.61,0.24-1.21,0.37-1.82c0.05-0.22,0.09-0.45,0.14-0.67
			c0.01-0.07,0.03-0.1,0.11-0.1c0.14,0.01,0.28,0.01,0.42,0c0.08,0,0.09,0.03,0.08,0.1c-0.13,0.64-0.27,1.28-0.4,1.92
			c0,0.01,0,0.02,0,0.03c-0.1-0.01-0.19-0.01-0.28,0.05c-0.16,0.12-0.22,0.31-0.3,0.49C53.33,18.12,53.33,18.2,53.23,18.17
			L53.23,18.17z"/>
		<path class="st145" d="M54.92,19.34c0.25,0,0.25,0,0.19,0.26c-0.04,0.21-0.04,0.22,0.17,0.23c0.06,0,0.07,0.02,0.06,0.08
			c0,0.01,0,0.02-0.01,0.03c-0.05,0.23-0.05,0.23-0.28,0.24c-0.05,0-0.07,0.02-0.08,0.07c-0.04,0.23-0.09,0.47-0.14,0.7
			c-0.02,0.1,0,0.13,0.11,0.14c0.03,0,0.06,0,0.09,0c0.05-0.01,0.06,0.01,0.05,0.06c-0.02,0.07-0.03,0.15-0.04,0.22
			c-0.01,0.04-0.02,0.06-0.06,0.06c-0.17,0.02-0.34,0.03-0.51,0c-0.12-0.02-0.17-0.08-0.17-0.21c0-0.18,0.06-0.36,0.09-0.53
			c0.02-0.14,0.05-0.27,0.08-0.41c0.02-0.07,0-0.09-0.08-0.09c-0.17,0-0.17,0-0.13-0.18c0.01-0.02,0.01-0.05,0.01-0.07
			c0.01-0.08,0.04-0.11,0.12-0.1c0.16,0.01,0.16,0,0.19-0.15c0.02-0.07,0.04-0.15,0.05-0.22c0.01-0.1,0.05-0.12,0.14-0.11
			C54.83,19.35,54.87,19.34,54.92,19.34L54.92,19.34z"/>
		<path class="st147" d="M52.5,18.18c-0.07,0-0.14,0-0.21,0c-0.07,0-0.1-0.02-0.08-0.1c0.09-0.44,0.18-0.88,0.27-1.32
			c0.03-0.17,0.07-0.33,0.1-0.5c0.01-0.06,0.03-0.08,0.09-0.08c0.15,0,0.3,0,0.46,0c0.06,0,0.07,0.02,0.06,0.08
			c-0.13,0.61-0.25,1.21-0.37,1.82c-0.01,0.07-0.04,0.11-0.12,0.1C52.64,18.17,52.57,18.18,52.5,18.18L52.5,18.18z"/>
		<path class="st145" d="M51.18,20.06c0.06-0.05,0.11-0.1,0.16-0.15c0.12-0.1,0.26-0.13,0.42-0.12c0.05,0,0.07,0.02,0.06,0.07
			c-0.03,0.11-0.05,0.23-0.07,0.34c-0.01,0.06-0.04,0.07-0.08,0.06c-0.05-0.01-0.11-0.01-0.16-0.01c-0.24,0.03-0.39,0.16-0.45,0.4
			c-0.05,0.22-0.1,0.45-0.14,0.67c-0.01,0.07-0.04,0.1-0.12,0.1c-0.1-0.01-0.21,0-0.31,0c-0.06,0-0.09-0.01-0.07-0.09
			c0.1-0.48,0.2-0.96,0.3-1.44c0.01-0.05,0.03-0.08,0.09-0.08c0.11,0,0.22,0,0.33,0c0.08,0,0.09,0.03,0.07,0.1
			C51.18,19.96,51.17,20.01,51.18,20.06L51.18,20.06z"/>
		<path class="st145" d="M53.58,21.43c-0.25,0-0.25,0-0.2-0.25c0.09-0.42,0.17-0.84,0.25-1.26c0.01-0.07,0.04-0.09,0.11-0.09
			c0.11,0,0.21,0,0.32,0c0.06,0,0.08,0.02,0.07,0.08c-0.1,0.48-0.2,0.97-0.3,1.45c-0.01,0.06-0.04,0.08-0.09,0.07
			C53.69,21.43,53.64,21.43,53.58,21.43L53.58,21.43z"/>
		<path class="st145" d="M46.42,21.43c-0.24,0-0.24,0-0.19-0.24c0.08-0.43,0.17-0.85,0.26-1.28c0.01-0.07,0.04-0.09,0.1-0.09
			c0.1,0,0.21,0,0.31,0c0.07,0,0.1,0.01,0.08,0.1c-0.1,0.46-0.2,0.93-0.29,1.39c-0.02,0.1-0.06,0.13-0.15,0.12
			C46.5,21.42,46.46,21.43,46.42,21.43L46.42,21.43z"/>
		<path class="st148" d="M42.65,17.66c0.07,0.05-0.02,0.07-0.02,0.1c-0.09,0.04-0.12,0.12-0.15,0.2c-0.09,0.22-0.13,0.46-0.18,0.69
			c-0.04,0.16-0.08,0.32-0.14,0.48c-0.14,0.36-0.38,0.54-0.77,0.53c-0.21-0.01-0.43,0-0.65,0c0.01-0.06,0.06-0.08,0.11-0.1
			c0.12-0.05,0.26-0.06,0.39-0.06c0.14,0,0.29-0.01,0.43,0.01c0.1,0.01,0.18-0.04,0.23-0.13c0.1-0.16,0.14-0.34,0.17-0.52
			c0.06-0.3,0.11-0.6,0.27-0.87c0.05-0.09,0.11-0.16,0.18-0.23c0.01-0.02,0.01-0.03,0-0.04c-0.01-0.02-0.04-0.04,0-0.05
			C42.56,17.67,42.6,17.67,42.65,17.66L42.65,17.66z"/>
		<path class="st149" d="M53.23,18.17c0.07,0,0.08-0.05,0.1-0.1c0.06-0.17,0.13-0.34,0.26-0.48c0.01-0.01,0.03-0.02,0.05-0.04
			c0.02,0.01,0.03,0.03,0.03,0.05c-0.05,0.14-0.14,0.26-0.16,0.41c-0.01,0.04-0.03,0.07-0.01,0.11c0.05,0.04,0.11,0.01,0.17,0.02
			c0.04,0,0.08,0,0.11,0.03c-0.08,0.02-0.17,0.01-0.26,0.01c-0.05,0-0.08,0.01-0.09,0.07c-0.08,0.39-0.17,0.78-0.34,1.15
			c-0.02,0.05-0.01,0.06,0.04,0.07c0.22,0.02,0.36,0,0.54-0.1c-0.01,0.07-0.08,0.15-0.18,0.2c-0.17,0.09-0.35,0.06-0.53,0.04
			c-0.06-0.01-0.03-0.05-0.02-0.08c0.15-0.42,0.23-0.86,0.34-1.29C53.29,18.2,53.27,18.19,53.23,18.17L53.23,18.17z"/>
		<path class="st148" d="M48.62,18.24c0.02-0.02,0.03-0.04,0.05-0.06c0.02-0.02,0.04-0.05,0.07-0.04c0.04,0.02,0,0.05,0,0.08
			c-0.04,0.14-0.08,0.29-0.11,0.43c-0.02,0.1,0.01,0.12,0.09,0.11c0.04,0,0.09,0,0.13,0c0.03,0,0.06,0,0.06,0.04
			c0,0.04-0.01,0.07-0.06,0.07c-0.07,0-0.14,0-0.21,0c-0.04,0-0.07,0.01-0.08,0.05c-0.03,0.18-0.09,0.35-0.19,0.53
			c0.17,0,0.34,0.04,0.48-0.08c0.02-0.01,0.04-0.03,0.05-0.01c0.02,0.02,0,0.04-0.01,0.06c-0.09,0.11-0.21,0.18-0.35,0.19
			c-0.08,0.01-0.16,0-0.24,0c-0.06,0-0.07-0.02-0.05-0.08c0.05-0.19,0.1-0.39,0.15-0.58c0.01-0.05,0.02-0.09-0.05-0.09
			c-0.03,0-0.05-0.02-0.05-0.05c0-0.04,0.02-0.07,0.05-0.06c0.08,0.01,0.09-0.04,0.11-0.1C48.52,18.52,48.57,18.38,48.62,18.24
			L48.62,18.24z"/>
		<path class="st148" d="M43.95,19.44c-0.01,0.05-0.03,0.1-0.04,0.15c-0.12,0.04-0.25,0.02-0.37,0.03c-0.06,0-0.06-0.03-0.05-0.08
			c0.05-0.19,0.09-0.39,0.14-0.58c0.01-0.05,0.02-0.08-0.05-0.08c-0.03,0-0.05-0.02-0.05-0.05c0-0.04,0.02-0.06,0.06-0.06
			c0.08,0.01,0.09-0.04,0.11-0.1c0.02-0.07,0.04-0.15,0.07-0.22c0.05-0.13,0.09-0.26,0.21-0.35c0.01,0.02,0.02,0.05,0.03,0.07
			c-0.09,0.13-0.11,0.3-0.14,0.45c-0.03,0.15-0.03,0.15,0.12,0.15c0.03,0,0.06,0,0.08,0c0.03,0,0.07-0.01,0.07,0.05
			c0,0.05-0.03,0.07-0.08,0.07c-0.06,0-0.12,0-0.19,0c-0.05,0-0.07,0.02-0.08,0.06c-0.03,0.16-0.08,0.32-0.17,0.47
			c-0.02,0.02-0.02,0.05,0.02,0.05C43.75,19.46,43.85,19.49,43.95,19.44L43.95,19.44z"/>
		<path class="st150" d="M52.96,15.95c-0.08,0-0.15,0-0.23,0c-0.06,0-0.08-0.02-0.07-0.08c0.02-0.11,0.05-0.22,0.07-0.33
			c0.01-0.05,0.03-0.07,0.08-0.07c0.15,0,0.31,0,0.46,0c0.07,0,0.07,0.02,0.06,0.08c-0.02,0.11-0.05,0.21-0.06,0.32
			c-0.01,0.06-0.04,0.08-0.1,0.08C53.11,15.94,53.04,15.95,52.96,15.95L52.96,15.95z"/>
		<path class="st151" d="M51.19,18.86c0.06-0.06,0.12-0.09,0.2-0.1c0.16-0.03,0.26,0.08,0.22,0.25c-0.03,0.12-0.1,0.21-0.18,0.3
			c-0.04,0.05-0.09,0.09-0.13,0.14c0.17,0.03,0.32,0.04,0.46-0.09c0.02,0.07-0.02,0.1-0.05,0.13c-0.13,0.13-0.29,0.15-0.45,0.13
			c-0.04,0-0.1,0.03-0.12-0.02c-0.02-0.04,0.04-0.07,0.06-0.11c0.08-0.12,0.16-0.24,0.22-0.38c0.03-0.07,0.07-0.15,0.01-0.21
			c-0.06-0.07-0.13-0.02-0.2,0c-0.02,0.01-0.03,0.01-0.05,0C51.16,18.88,51.18,18.86,51.19,18.86L51.19,18.86z"/>
		<path class="st152" d="M41.44,18.17c0.16-0.13,0.32-0.26,0.52-0.34c0.09-0.04,0.17-0.07,0.26-0.08c0.02-0.02,0.05-0.01,0.06-0.02
			l0,0c0.03-0.01,0.07-0.03,0.08,0.02c-0.07,0.02-0.14,0.04-0.21,0.07c-0.03,0.02-0.05,0.04-0.08,0.06
			c-0.08,0.04-0.16,0.09-0.24,0.15c-0.03,0.03-0.08,0.04-0.1,0.08c-0.06,0.02-0.1,0.06-0.14,0.11c-0.22,0.28-0.36,0.6-0.34,0.97
			c0,0.01,0,0.03,0,0.04c0,0.01,0,0.01-0.01,0.02c-0.06-0.01-0.05-0.06-0.06-0.09c-0.05-0.32,0-0.61,0.18-0.87
			C41.41,18.24,41.44,18.21,41.44,18.17L41.44,18.17z"/>
		<path class="st148" d="M47.6,18.79c0.09-0.04,0.18-0.04,0.27-0.03c0.11,0.02,0.17,0.12,0.14,0.26c-0.03,0.13-0.07,0.25-0.13,0.37
			c-0.03,0.06-0.01,0.08,0.05,0.08c0.1,0.01,0.18-0.06,0.27-0.11c0,0.1-0.14,0.24-0.25,0.26c-0.09,0.02-0.16-0.01-0.2-0.11
			c-0.03-0.02,0.02-0.11-0.06-0.09c0,0-0.01,0.01-0.02,0.01c-0.03,0.01-0.03-0.02-0.04-0.04c0-0.05,0.04-0.08,0.06-0.11
			c0.07-0.09,0.11-0.19,0.13-0.3c0.02-0.12-0.01-0.16-0.13-0.14c-0.02,0-0.04,0.01-0.06,0.01C47.59,18.85,47.56,18.84,47.6,18.79
			L47.6,18.79z"/>
		<path class="st148" d="M52.31,18.79c0.09-0.05,0.18-0.04,0.27-0.03c0.1,0.01,0.16,0.12,0.14,0.24c-0.03,0.13-0.07,0.25-0.13,0.37
			c-0.05,0.09-0.01,0.1,0.07,0.1c0.09,0,0.16-0.05,0.24-0.11c0,0.1-0.15,0.25-0.26,0.27c-0.09,0.02-0.16-0.03-0.2-0.16
			c-0.02-0.06-0.04-0.06-0.08-0.02c-0.06-0.02-0.02-0.06,0-0.08c0.04-0.05,0.09-0.1,0.1-0.17c0.02-0.07,0.05-0.13,0.07-0.2
			c0.03-0.13-0.01-0.17-0.13-0.16c-0.02,0-0.05,0.01-0.07,0C52.29,18.84,52.27,18.82,52.31,18.79L52.31,18.79z"/>
		<path class="st153" d="M46.61,19.31c0-0.02,0.01-0.04,0.02-0.05c0.04-0.03,0.09-0.03,0.15-0.03c0.09,0.03,0.18,0.01,0.27,0.02
			c0.06,0,0.08,0.02,0.07,0.08c-0.02,0.1-0.05,0.19-0.07,0.29c-0.17,0.03-0.33,0.03-0.5,0C46.51,19.51,46.57,19.41,46.61,19.31
			L46.61,19.31z"/>
		<path class="st153" d="M53.95,19.64c-0.25,0-0.25,0-0.2-0.26c0.02-0.1,0.06-0.13,0.15-0.12c0.09,0.01,0.18,0,0.27,0
			c0.07,0,0.11,0.01,0.08,0.09c-0.01,0.01,0,0.03-0.01,0.04C54.2,19.64,54.2,19.64,53.95,19.64L53.95,19.64z"/>
		<path class="st154" d="M49.54,19.37c-0.03,0.16-0.25,0.3-0.39,0.27c-0.08-0.02-0.12-0.08-0.12-0.16c0-0.23,0.06-0.44,0.13-0.65
			c0.02-0.08,0.1-0.06,0.15-0.05c0.06,0.02,0.02,0.07,0.01,0.1c-0.06,0.18-0.09,0.37-0.17,0.54c-0.03,0.05,0,0.07,0.05,0.07
			C49.33,19.49,49.44,19.46,49.54,19.37L49.54,19.37z"/>
		<path class="st148" d="M50.32,19.52c-0.15,0.17-0.49,0.18-0.64,0.02c-0.08-0.09-0.09-0.2-0.06-0.31c0.04-0.14,0.11-0.26,0.24-0.34
			c0.03-0.02,0.05,0,0.06,0.03c0,0.05-0.03,0.09-0.05,0.13c-0.04,0.07-0.06,0.13-0.06,0.21c0,0.09,0.05,0.15,0.13,0.19
			c0.08,0.03,0.16,0.01,0.24,0.01c0.05,0,0.1-0.01,0.14,0.02C50.33,19.5,50.33,19.51,50.32,19.52L50.32,19.52z"/>
		<path class="st154" d="M52.31,18.79c-0.01,0.02-0.02,0.03,0.01,0.04c0,0.05-0.04,0.06-0.07,0.09c-0.11,0.09-0.19,0.21-0.23,0.35
			c-0.03,0.11,0.02,0.18,0.13,0.18c0.1,0,0.17-0.07,0.23-0.14c0.03-0.03,0.04-0.09,0.09-0.08c0,0.07-0.05,0.12-0.09,0.17
			c-0.01,0.02-0.07,0.03-0.03,0.07c-0.1,0.12-0.21,0.2-0.37,0.17c-0.1-0.02-0.15-0.09-0.16-0.19
			C51.81,19.17,52.03,18.88,52.31,18.79L52.31,18.79z"/>
		<path class="st151" d="M47.6,18.79c-0.01,0.03-0.01,0.04,0.02,0.04c0,0.05-0.04,0.05-0.06,0.08c-0.12,0.1-0.21,0.22-0.25,0.38
			c-0.02,0.1,0.02,0.15,0.13,0.15c0.08,0,0.13-0.05,0.21-0.06c0,0.02,0.01,0.04,0.02,0.05c-0.17,0.21-0.31,0.25-0.49,0.15
			c-0.12-0.15-0.07-0.3,0.02-0.45C47.3,18.98,47.42,18.85,47.6,18.79L47.6,18.79z"/>
		<path class="st148" d="M42.68,19c0.04-0.06,0.08-0.1,0.14-0.13c0.02,0,0.03,0.01,0.03,0.03c-0.2,0.14-0.24,0.38-0.34,0.58
			c-0.03,0.06-0.03,0.14-0.12,0.14c-0.06,0-0.08-0.01-0.06-0.08c0.1-0.26,0.18-0.52,0.18-0.8c0-0.02,0-0.04,0.02-0.04
			c0.01,0,0.03,0.01,0.04,0.02c0.03,0.03,0.06,0.07,0.06,0.12c0.03,0.06-0.01,0.12,0.02,0.18C42.67,19.01,42.67,19.01,42.68,19
			C42.68,19.01,42.68,19,42.68,19L42.68,19z"/>
		<path class="st151" d="M44.41,19.28c-0.04,0-0.09,0-0.13,0c0.03-0.05,0.1-0.06,0.14-0.11c-0.09-0.07-0.1-0.16-0.06-0.25
			c0.05-0.1,0.13-0.15,0.24-0.15c0.11,0,0.21,0,0.32,0c0.02,0,0.04,0,0.05,0.02c0.01,0.03,0,0.05-0.02,0.07
			c-0.07,0.07-0.14,0.09-0.24,0.05c-0.04-0.02-0.09-0.05-0.13-0.06c-0.06-0.02-0.12,0.01-0.14,0.08c-0.02,0.07,0.04,0.09,0.08,0.1
			c0.06,0.03,0.13,0.04,0.2,0.04c0.02,0,0.05,0.01,0.06,0.04c0.01,0.03-0.01,0.05-0.03,0.06c-0.04,0.03-0.09,0.04-0.14,0.03
			C44.53,19.18,44.47,19.22,44.41,19.28L44.41,19.28z"/>
		<path class="st154" d="M46.32,19.09c-0.07,0.15-0.13,0.3-0.19,0.46c-0.02,0.05-0.05,0.07-0.1,0.07c-0.05,0-0.07-0.02-0.05-0.07
			c0.1-0.26,0.17-0.53,0.18-0.81c0-0.05,0.02-0.06,0.06-0.02c0.04,0.04,0.07,0.08,0.07,0.14c0.02,0.06-0.02,0.14,0.06,0.19
			C46.35,19.04,46.32,19.07,46.32,19.09L46.32,19.09z"/>
		<path class="st148" d="M51.03,19.09c-0.06,0.14-0.12,0.28-0.18,0.42c-0.01,0.02-0.02,0.05-0.03,0.07
			c-0.03,0.06-0.09,0.05-0.13,0.03c-0.05-0.02-0.01-0.06,0-0.09c0.09-0.24,0.16-0.49,0.17-0.75c0-0.03-0.01-0.07,0.03-0.08
			c0.03-0.01,0.05,0.03,0.07,0.06c0.02,0.03,0.04,0.06,0.03,0.1c0.03,0.06-0.03,0.15,0.06,0.19C51.05,19.04,51.04,19.07,51.03,19.09
			L51.03,19.09z"/>
		<path class="st151" d="M49.91,18.95c0-0.03-0.02-0.05-0.05-0.05c0.16-0.15,0.34-0.16,0.53-0.12c0.13,0.03,0.19,0.13,0.19,0.27
			c0,0.21-0.1,0.36-0.26,0.48c0-0.01,0-0.01,0-0.02c-0.01-0.01-0.01-0.02-0.01-0.03c0-0.01,0.01-0.03,0.02-0.04
			c0.03-0.02,0.03-0.06,0.03-0.09c0.02-0.08,0.04-0.16,0.03-0.24c-0.02-0.21-0.21-0.31-0.39-0.2
			C49.98,18.92,49.95,18.95,49.91,18.95L49.91,18.95z"/>
		<path class="st155" d="M45.61,19.01c0,0.01,0,0.02-0.01,0.04c-0.04,0.07-0.07,0.15-0.08,0.24c0,0.2,0.08,0.24,0.26,0.15
			c0.03-0.02,0.08-0.07,0.1-0.03c0.03,0.04-0.04,0.08-0.07,0.1c-0.08,0.07-0.16,0.13-0.26,0.13c-0.11,0-0.16-0.05-0.18-0.15
			c-0.02-0.14,0.02-0.26,0.09-0.37c0.04-0.06,0.07-0.12,0.13-0.16C45.63,18.97,45.62,18.99,45.61,19.01L45.61,19.01z"/>
		<path class="st148" d="M45.61,19.01c0-0.02,0-0.04,0-0.05c0.01-0.03,0-0.04-0.03-0.04c-0.05,0-0.1,0-0.14,0
			c-0.06-0.01-0.1,0.02-0.12,0.08c-0.02,0.06-0.06,0.1-0.1,0.16c-0.04,0-0.04-0.02-0.02-0.04c0-0.02,0-0.03,0.02-0.04
			c0.03-0.05,0.05-0.09,0.02-0.15c-0.06-0.01-0.07-0.06-0.07-0.11c0-0.05,0.03-0.1,0.08-0.12c0.05-0.02,0.09,0,0.11,0.05
			c0.02,0.04,0.06,0.03,0.09,0.03c0.12,0,0.25,0,0.37,0c0.01,0.01,0.01,0.02,0.02,0.03C45.77,18.86,45.69,18.94,45.61,19.01
			L45.61,19.01z"/>
		<path class="st151" d="M42.86,18.9c-0.01-0.01-0.02-0.02-0.03-0.03c0.07-0.08,0.16-0.11,0.25-0.12c0.14-0.01,0.22,0.09,0.2,0.24
			c-0.02,0.12-0.11,0.2-0.16,0.29c-0.04,0-0.08,0-0.13,0c0.03-0.07,0.06-0.13,0.09-0.2c0.02-0.06,0.05-0.13,0-0.18
			c-0.04-0.05-0.11-0.03-0.16-0.01C42.9,18.89,42.88,18.9,42.86,18.9L42.86,18.9z"/>
		<path class="st151" d="M46.77,19.26c-0.05,0-0.09,0-0.14,0c0.03-0.06,0.06-0.11,0.08-0.17c0.07-0.16,0.02-0.23-0.15-0.21
			c-0.02,0.01-0.04,0.02-0.07,0.02c-0.06,0.01-0.05-0.02-0.02-0.05c0.06-0.05,0.12-0.09,0.2-0.1c0.16-0.03,0.26,0.07,0.22,0.24
			c-0.01,0.08-0.06,0.13-0.09,0.2C46.8,19.22,46.79,19.24,46.77,19.26L46.77,19.26z"/>
		<path class="st156" d="M53.66,17.59c-0.01-0.01-0.01-0.03-0.02-0.04c0.09-0.05,0.19-0.09,0.29-0.02c0.09,0.14,0.06,0.27-0.02,0.39
			c-0.03,0.04-0.05,0.08-0.08,0.12c-0.04,0.04-0.07,0.08-0.13,0.08c-0.02-0.01-0.03-0.02-0.03-0.03c0-0.04,0.03-0.07,0.06-0.1
			c0.04-0.05,0.06-0.1,0.08-0.16C53.84,17.68,53.8,17.61,53.66,17.59L53.66,17.59z"/>
		<path class="st157" d="M44.45,19.62c0.01-0.07,0.02-0.13,0.03-0.2c0,0.05,0.04,0.05,0.07,0.05c0.16-0.01,0.33,0.03,0.46-0.1
			c0.01-0.01,0.03-0.01,0.04,0c0.02,0.02,0,0.03-0.01,0.05c-0.09,0.11-0.18,0.21-0.34,0.2C44.62,19.61,44.53,19.62,44.45,19.62
			L44.45,19.62z"/>
		<path class="st158" d="M49.28,18.53c0-0.06,0-0.12,0.03-0.17c0.04-0.07,0.1-0.1,0.16-0.06c0.08,0.04,0.03,0.1,0,0.15
			c-0.03,0.04-0.06,0.08-0.1,0.12c-0.02,0.02-0.04,0.06-0.07,0.05C49.26,18.6,49.29,18.55,49.28,18.53L49.28,18.53z"/>
		<path class="st159" d="M43.17,19.61c0.01-0.06,0.02-0.11,0.03-0.17c0.09,0.04,0.15-0.06,0.24-0.07
			C43.39,19.51,43.28,19.55,43.17,19.61L43.17,19.61z"/>
		<path class="st160" d="M46.61,19.31c-0.02,0.1-0.04,0.21-0.06,0.31c-0.04-0.01-0.1,0.02-0.12-0.02c-0.02-0.05,0.03-0.08,0.06-0.11
			C46.52,19.43,46.57,19.37,46.61,19.31L46.61,19.31z"/>
		<path class="st161" d="M46.48,18.85c0,0.02-0.02,0.05,0.03,0.03c0.02-0.01,0.04-0.01,0.06-0.01c-0.1,0.05-0.18,0.13-0.25,0.22
			c-0.01-0.08-0.07-0.15-0.04-0.24c0.03,0.04,0.01,0.09,0.02,0.14C46.38,18.96,46.41,18.87,46.48,18.85L46.48,18.85z"/>
		<path class="st162" d="M51.03,19.09c-0.03-0.08-0.06-0.15-0.04-0.24c0.03,0.04,0.01,0.09,0.02,0.14c0.08-0.03,0.11-0.12,0.18-0.13
			c-0.02,0.03,0,0.04,0.03,0.05C51.14,18.95,51.09,19.02,51.03,19.09L51.03,19.09z"/>
		<path class="st163" d="M41.83,18c0.07-0.07,0.16-0.12,0.25-0.15c0.01,0.02-0.01,0.03-0.02,0.05c-0.05,0.05-0.11,0.1-0.18,0.13
			C41.86,18.03,41.83,18.04,41.83,18L41.83,18z"/>
		<path class="st164" d="M53.7,18.11c0.04-0.02,0.07-0.06,0.12-0.07c-0.01,0.05,0,0.1-0.05,0.13c-0.04,0-0.08-0.01-0.12-0.01
			C53.66,18.13,53.68,18.12,53.7,18.11L53.7,18.11z"/>
		<path class="st165" d="M44.32,18.19c0.05-0.03,0.1-0.02,0.15-0.02c0.11,0.01,0.16-0.03,0.16-0.15c0.04,0.11,0.02,0.16-0.09,0.16
			C44.47,18.19,44.4,18.19,44.32,18.19L44.32,18.19z"/>
		<path class="st166" d="M42.37,17.74c-0.02-0.03-0.06-0.01-0.08-0.02c0.05-0.04,0.12,0,0.16-0.04c0.02-0.01,0.03-0.01,0.05,0.01
			c0.01,0.01,0.03,0.02,0.04,0.04c-0.03,0.03-0.07,0-0.1,0.02C42.42,17.74,42.39,17.74,42.37,17.74L42.37,17.74z"/>
		<path class="st167" d="M45.53,19.29c-0.01-0.09,0.01-0.17,0.08-0.24C45.58,19.13,45.56,19.21,45.53,19.29L45.53,19.29z"/>
		<path class="st168" d="M41.83,18c0.01,0.02,0.03,0.02,0.05,0.03c-0.04,0.03-0.08,0.05-0.13,0.06C41.74,18.02,41.8,18.03,41.83,18
			L41.83,18z"/>
		<path class="st169" d="M42.68,19c-0.02,0.03-0.04,0.02-0.04-0.01c0-0.05,0-0.11,0-0.16C42.69,18.88,42.64,18.95,42.68,19L42.68,19
			z"/>
		<path class="st170" d="M42.5,17.68c-0.02,0-0.03,0-0.05-0.01c0.06-0.04,0.13,0,0.19-0.04c0,0.01,0.01,0.01,0.01,0.02
			C42.6,17.69,42.55,17.67,42.5,17.68L42.5,17.68z"/>
		<path class="st171" d="M42.07,17.9c0.01-0.02,0.01-0.03,0.02-0.05c0.02-0.02,0.05-0.04,0.08-0.04
			C42.14,17.84,42.11,17.88,42.07,17.9L42.07,17.9z"/>
		<path class="st172" d="M47.69,19.43c0.03-0.04,0.05-0.03,0.06,0.01c0.01,0.03,0,0.05,0,0.08C47.72,19.49,47.74,19.43,47.69,19.43
			L47.69,19.43z"/>
		<path class="st170" d="M45.24,18.92c0.05,0.06,0.02,0.1-0.02,0.15C45.22,19.02,45.25,18.97,45.24,18.92L45.24,18.92z"/>
		<path class="st173" d="M51.19,18c0.01-0.03,0.02-0.06,0.05-0.04c0.02,0.01,0.01,0.05-0.01,0.06C51.23,18,51.21,18,51.19,18
			L51.19,18z"/>
		<path class="st170" d="M42.44,17.74c0.03-0.03,0.07-0.01,0.1-0.02c0.02,0.03-0.01,0.04-0.02,0.04
			C42.5,17.72,42.46,17.75,42.44,17.74L42.44,17.74z"/>
		<path class="st170" d="M45.2,19.11c0,0.02,0,0.04,0.02,0.04c0,0.02-0.02,0.05-0.04,0.03C45.14,19.16,45.18,19.13,45.2,19.11
			L45.2,19.11z"/>
		<path class="st166" d="M42.29,17.72c-0.01,0.03-0.04,0.02-0.06,0.02c0.01-0.02,0.01-0.05,0.04-0.06
			C42.27,17.69,42.28,17.71,42.29,17.72L42.29,17.72z"/>
		<path class="st174" d="M47.49,15.9c0.02-0.03,0.05-0.04,0.09-0.04C47.56,15.89,47.53,15.9,47.49,15.9L47.49,15.9z"/>
		<path class="st175" d="M53.66,17.59c0.12-0.04,0.2,0.04,0.18,0.19c-0.02,0.12-0.09,0.21-0.17,0.3c-0.05,0.11-0.14,0.08-0.22,0.07
			C53.48,17.95,53.55,17.76,53.66,17.59L53.66,17.59z"/>
		<path class="st176" d="M53.45,18.15c0.09,0.02,0.16-0.01,0.22-0.07c0.01,0.01,0.02,0.02,0.03,0.03c-0.01,0.02-0.03,0.04-0.04,0.06
			C53.59,18.16,53.52,18.19,53.45,18.15L53.45,18.15z"/>
		<path class="st177" d="M49.91,19.47c0.14,0.01,0.28,0.01,0.41,0c0,0.01,0,0.02,0,0.03c-0.11,0-0.21,0-0.32,0
			C49.97,19.5,49.93,19.51,49.91,19.47L49.91,19.47z"/>
		<path class="st177" d="M50.34,19.45c0.02-0.03,0.03-0.06,0.05-0.09C50.38,19.4,50.38,19.44,50.34,19.45L50.34,19.45z"/>
		<path class="st147" d="M41.86,17.07c-0.02,0.07-0.05,0.14-0.08,0.21c-0.13,0.28-0.34,0.42-0.64,0.42c-0.04,0-0.09,0-0.13,0
			c-0.07,0-0.13,0-0.2,0c-0.07,0-0.08-0.02-0.07-0.09c0.1-0.45,0.19-0.9,0.28-1.36c0.05-0.26,0.06-0.26,0.31-0.26
			c0.1,0,0.21,0,0.31,0.02c0.19,0.03,0.29,0.13,0.31,0.32C42,16.58,41.93,16.82,41.86,17.07L41.86,17.07z M42.66,16.2
			c-0.01-0.23-0.1-0.43-0.31-0.56c-0.13-0.09-0.28-0.12-0.43-0.12c-0.45-0.01-0.89,0-1.34-0.01c-0.06,0-0.08,0.03-0.09,0.09
			c-0.02,0.13-0.05,0.26-0.08,0.4c-0.14,0.7-0.28,1.39-0.43,2.09c-0.01,0.07-0.01,0.1,0.07,0.1c0.47,0,0.93-0.01,1.4-0.01
			c0.05,0.01,0.08-0.02,0.11-0.05c0.05-0.04,0.09-0.08,0.15-0.12c0.16-0.11,0.34-0.19,0.52-0.25c0.03-0.02,0.03-0.05,0.04-0.08
			C42.57,17.24,42.68,16.74,42.66,16.2L42.66,16.2z"/>
		<path class="st147" d="M51.29,17.53c-0.1,0.17-0.25,0.24-0.44,0.23c-0.17-0.01-0.27-0.1-0.28-0.28c-0.01-0.24,0.04-0.46,0.16-0.66
			c0.09-0.14,0.22-0.21,0.42-0.21c0.19,0,0.3,0.11,0.3,0.33C51.44,17.14,51.39,17.35,51.29,17.53L51.29,17.53z M52.28,15.48
			c-0.15,0.01-0.29,0.01-0.44,0c-0.07,0-0.1,0.03-0.11,0.1c-0.02,0.13-0.05,0.25-0.07,0.38c-0.03,0.15-0.06,0.29-0.1,0.46
			c-0.07-0.13-0.15-0.21-0.27-0.24c-0.37-0.09-0.71-0.03-0.98,0.27c-0.32,0.36-0.43,0.8-0.37,1.28c0.03,0.24,0.16,0.42,0.4,0.49
			c0.32,0.09,0.61,0.04,0.86-0.2c0.03-0.02,0.05-0.03,0.04,0.02c-0.03,0.15-0.03,0.15,0.13,0.15c0.12,0,0.24,0,0.36,0
			c0.06,0,0.09-0.02,0.1-0.09c0.03-0.16,0.07-0.33,0.1-0.49c0.14-0.68,0.28-1.35,0.42-2.03C52.36,15.5,52.35,15.47,52.28,15.48
			L52.28,15.48z"/>
		<path class="st147" d="M44.1,17.27c-0.04,0.35-0.24,0.55-0.57,0.55c-0.14,0-0.21-0.04-0.24-0.13c-0.03-0.11,0.04-0.26,0.14-0.32
			c0.07-0.04,0.15-0.05,0.23-0.07c0.13-0.02,0.26-0.04,0.39-0.07C44.09,17.21,44.1,17.21,44.1,17.27L44.1,17.27z M44.59,17.73
			c0.07-0.36,0.15-0.72,0.21-1.08c0.04-0.28-0.08-0.44-0.35-0.49c-0.3-0.06-0.6-0.06-0.9,0.01c-0.3,0.06-0.5,0.24-0.6,0.54
			c-0.02,0.05-0.04,0.09,0.04,0.09c0.15,0,0.3,0,0.46,0c0.04,0,0.05-0.01,0.07-0.05c0.12-0.21,0.35-0.3,0.58-0.22
			c0.09,0.03,0.13,0.1,0.11,0.2c-0.02,0.12-0.08,0.18-0.23,0.2c-0.21,0.03-0.43,0.05-0.64,0.08c-0.39,0.05-0.62,0.26-0.7,0.62
			c-0.01,0.01-0.01,0.02,0,0.03c0.02,0.04-0.02,0.06-0.01,0.1c0,0.25,0.11,0.39,0.33,0.45c0.19,0.05,0.39,0.04,0.58-0.01
			c0.16-0.04,0.29-0.12,0.42-0.23c0.01,0.05,0.01,0.08,0.01,0.12c0.01,0.02-0.01,0.06,0.03,0.07c0.1,0.07,0.21,0.01,0.31,0.02
			c0.06-0.02,0.12-0.01,0.18-0.01c0.13,0,0.13-0.01,0.12-0.16c-0.07-0.02-0.08-0.08-0.07-0.15C44.57,17.83,44.58,17.78,44.59,17.73
			L44.59,17.73z"/>
		<path class="st147" d="M48.93,17.63c-0.12,0.15-0.27,0.18-0.45,0.15c-0.15-0.03-0.22-0.16-0.22-0.41
			c0.01-0.18,0.05-0.39,0.17-0.57c0.11-0.17,0.26-0.25,0.46-0.23c0.15,0.01,0.25,0.1,0.26,0.25C49.18,17.11,49.12,17.39,48.93,17.63
			L48.93,17.63z M49.8,16.76c-0.01-0.31-0.19-0.52-0.49-0.6c-0.15-0.04-0.31-0.05-0.46-0.04c-0.37,0.02-0.7,0.12-0.94,0.44
			c-0.2,0.27-0.28,0.58-0.29,0.91c-0.01,0.45,0.19,0.68,0.62,0.75c0.13,0.02,0.25,0.02,0.38,0.02c0.03,0.01,0.05-0.02,0.06-0.04
			c0.04-0.04,0.05,0,0.06,0.02c0.23-0.02,0.45-0.1,0.62-0.27C49.7,17.63,49.82,17.21,49.8,16.76L49.8,16.76z"/>
		<path class="st145" d="M49.91,20.41c-0.01,0.04-0.04,0.03-0.07,0.03c-0.09,0-0.17,0-0.26,0c-0.09,0-0.18,0-0.27,0
			c-0.05,0-0.06-0.02-0.04-0.07c0.06-0.22,0.33-0.35,0.53-0.25C49.88,20.16,49.94,20.32,49.91,20.41L49.91,20.41z M50.37,20.27
			c-0.03-0.24-0.16-0.4-0.38-0.46c-0.21-0.06-0.42-0.05-0.63,0.02c-0.5,0.15-0.69,0.66-0.66,1.12c0.02,0.28,0.16,0.44,0.43,0.49
			c0.2,0.04,0.39,0.04,0.59-0.01c0.24-0.06,0.44-0.2,0.55-0.45c0.03-0.06,0.02-0.08-0.05-0.08c-0.09,0-0.17,0.01-0.26,0
			c-0.1-0.01-0.16,0.01-0.22,0.11c-0.08,0.14-0.28,0.18-0.43,0.11c-0.11-0.05-0.15-0.15-0.13-0.31c0.01-0.06,0.03-0.08,0.08-0.08
			c0.17,0,0.33,0,0.5,0c0.17,0,0.34,0,0.51,0c0.06,0,0.08-0.02,0.09-0.07C50.37,20.54,50.38,20.41,50.37,20.27L50.37,20.27z"/>
	</g>
	<g>
		<g>
			<path class="st178" d="M7.03,18l2.4,0.06c-0.11,0.9-0.34,1.63-0.69,2.19c-0.35,0.57-0.83,1.02-1.44,1.35
				c-0.61,0.33-1.24,0.49-1.91,0.49c-0.73,0-1.41-0.19-2.03-0.57c-0.62-0.38-1.1-0.9-1.46-1.54c-0.36-0.65-0.54-1.35-0.54-2.11
				c0-0.73,0.19-1.41,0.56-2.05c0.37-0.64,0.87-1.15,1.49-1.53c0.62-0.38,1.28-0.57,1.98-0.57c0.67,0,1.29,0.15,1.84,0.44
				c0.56,0.3,1.02,0.71,1.39,1.24c0.37,0.53,0.63,1.13,0.78,1.81l-2.44,0.17c-0.35-0.78-0.88-1.16-1.58-1.16
				c-0.29,0-0.56,0.08-0.81,0.24c-0.25,0.16-0.45,0.37-0.59,0.63s-0.22,0.54-0.22,0.84s0.07,0.57,0.22,0.83
				c0.15,0.26,0.35,0.46,0.6,0.61c0.25,0.15,0.52,0.22,0.8,0.22c0.45,0,0.82-0.15,1.11-0.44C6.79,18.86,6.96,18.48,7.03,18z"/>
			<path class="st178" d="M14.34,13.89v2.27c-0.17-0.06-0.3-0.1-0.38-0.1c-0.17,0-0.32,0.07-0.45,0.21
				c-0.13,0.14-0.19,0.3-0.19,0.47c0,0.11,0.05,0.28,0.15,0.48c0.1,0.21,0.2,0.42,0.31,0.65c0.11,0.23,0.2,0.46,0.28,0.7
				s0.12,0.49,0.12,0.74c0,0.52-0.13,0.99-0.38,1.42s-0.6,0.76-1.03,1c-0.43,0.24-0.9,0.36-1.4,0.36c-0.32,0-0.66-0.09-1.03-0.26
				v-2.31c0.22,0.13,0.41,0.19,0.58,0.19c0.17,0,0.34-0.06,0.48-0.18c0.15-0.12,0.22-0.27,0.22-0.44c0-0.12-0.09-0.37-0.27-0.73
				c-0.18-0.36-0.32-0.67-0.42-0.95c-0.1-0.27-0.15-0.59-0.15-0.95c0-0.48,0.12-0.94,0.35-1.36c0.24-0.42,0.55-0.76,0.96-1.01
				c0.4-0.25,0.84-0.38,1.31-0.38C13.71,13.72,14.03,13.78,14.34,13.89z"/>
			<path class="st178" d="M19.92,17.01v1.79h-1.5c-0.18,0-0.32,0.02-0.42,0.07s-0.15,0.16-0.15,0.32c0,0.18,0.06,0.29,0.18,0.34
				s0.28,0.07,0.49,0.07h1.54v2.28h-1.88c-0.77,0-1.37-0.2-1.8-0.6c-0.48-0.45-0.73-1.01-0.73-1.68v-3.52c0-0.39,0.1-0.75,0.31-1.08
				s0.48-0.6,0.82-0.8c0.34-0.2,0.69-0.29,1.06-0.29h2.21v2.29h-1.54c-0.35,0-0.52,0.13-0.52,0.4c0,0.27,0.19,0.41,0.57,0.41H19.92z
				"/>
		</g>
	</g>
	<g>
		<g>
			<path class="st178" d="M41.68,4.47v5.74h-2.4V2.05h3.58c0.56,0,1.02,0.07,1.38,0.2c0.51,0.18,0.97,0.47,1.38,0.85
				c0.41,0.38,0.74,0.82,0.98,1.33c0.24,0.51,0.36,1.04,0.36,1.58c0,0.61-0.1,1.17-0.31,1.69s-0.5,0.97-0.87,1.35
				c-0.38,0.38-0.82,0.68-1.32,0.89s-1.06,0.32-1.64,0.32c-0.16,0-0.41-0.01-0.74-0.02v-2.4h0.61c0.52,0,0.97-0.15,1.33-0.45
				c0.36-0.3,0.54-0.71,0.54-1.24c0-0.31-0.08-0.59-0.23-0.84c-0.15-0.26-0.36-0.46-0.61-0.6s-0.53-0.22-0.83-0.22H41.68z"/>
			<path class="st178" d="M50.56,2.04v8.17h-2.41V2.04H50.56z"/>
			<path class="st178" d="M57.86,2.04v5.39c0,0.4-0.07,0.79-0.21,1.15c-0.14,0.37-0.34,0.69-0.59,0.96
				c-0.25,0.27-0.55,0.49-0.9,0.65c-0.35,0.16-0.72,0.23-1.12,0.23c-0.55,0-1.05-0.13-1.5-0.39c-0.45-0.26-0.81-0.62-1.07-1.08
				c-0.26-0.46-0.39-0.97-0.39-1.52V2.04h2.39v5.31c0,0.16,0.05,0.3,0.15,0.41c0.1,0.11,0.23,0.16,0.38,0.16
				c0.15,0,0.27-0.06,0.37-0.17S55.5,7.5,55.5,7.34V2.04H57.86z"/>
		</g>
	</g>
	<g>
		<path class="st9" d="M28.76,16.11V9.96c0.58,0,1.07-0.13,1.46-0.39c0.39-0.26,0.59-0.66,0.59-1.19c0-0.46-0.15-0.85-0.46-1.19
			c-0.31-0.33-0.69-0.5-1.14-0.5c-0.48,0-0.86,0.2-1.14,0.59s-0.42,0.85-0.42,1.38v15.51h-6.89V9.16c0-1.37,0.15-2.43,0.45-3.16
			c0.41-1.11,1.03-2.11,1.86-2.99c0.83-0.88,1.79-1.57,2.89-2.06s2.23-0.74,3.39-0.74c1.11,0,2.19,0.21,3.24,0.63s2,1.01,2.84,1.78
			c0.84,0.77,1.5,1.66,1.98,2.68c0.48,1.02,0.72,2.11,0.72,3.27c0,1.18-0.24,2.31-0.71,3.37c-0.47,1.06-1.16,1.95-2.06,2.67
			c-0.77,0.59-1.55,0.99-2.36,1.2c-0.81,0.21-1.76,0.31-2.86,0.31H28.76z"/>
	</g>
	<rect x="27.52" y="9.96" class="st9" width="1.3" height="6.15"/>
	<g>
		<g>
			<path class="st9" d="M19.97,11.16c-0.82-0.38-1.3-0.69-2.16-0.98c-0.06-0.02-0.14-0.06-0.17-0.12c-0.07-0.14-0.12-0.28-0.17-0.43
				c-0.03-0.09-0.06-0.18-0.17-0.22c-0.03-0.01-0.06-0.07-0.06-0.1c0.01-0.34-0.11-0.58,0.03-0.71c0.26-0.24,0.2-0.54,0.33-0.69
				c0.13-0.15,0.45-1.19,0.39-1.32c-0.06-0.13-0.28-0.07-0.23-0.14c0.2-0.26,0.26-0.77,0.25-1.19c0.04,0.08,0.06,0.16,0.06,0.25
				v0.09l1.28-0.86l-3.49-2.35l-3.49,2.34l0.32,0.21v0.47c-0.06,0.02-0.11,0.07-0.11,0.14c0,0.05,0.03,0.1,0.07,0.12l-0.28,1.64h0.7
				l-0.28-1.64c0.04-0.03,0.07-0.07,0.07-0.12c0-0.07-0.05-0.12-0.11-0.14V4.99l0.89,0.6V5.54c0.01,0.09,0.02,0.17,0.04,0.27
				c0.07,0.31,0.2,0.29,0.31,0.65c0,0.01,0,0.01,0,0.02v0.02c-0.01,0.04-0.04,0.09-0.07,0.09c-0.13,0.04-0.13,0.11-0.11,0.2
				c0.01,0.07,0.11,0.55,0.17,0.72c0.04,0.13,0.13,0.25,0.15,0.38c0.05,0.26,0.15,0.49,0.35,0.69c0.03,0.03,0.06,0.09,0.05,0.13
				c-0.02,0.2-0.04,0.4-0.07,0.6c-0.01,0.04-0.05,0.1-0.09,0.1c-0.15,0.03-0.17,0.13-0.21,0.24c-0.05,0.14-0.1,0.27-0.16,0.41
				c-0.02,0.04-0.07,0.08-0.11,0.1c-0.27,0.1-0.54,0.2-0.81,0.3c-0.29,0.11-1.05,0.59-1.33,0.72c-0.17,0.08-0.07,0.72-0.07,0.72
				c3.29,0,5.05,0,8.34,0C20.02,11.9,20.14,11.23,19.97,11.16z"/>
		</g>
	</g>
	<rect x="1.36" y="11.59" class="st9" width="56.5" height="1.44"/>
	<g>
		<g>
			<g>
				<path class="st9" d="M10,8.52C9.93,8.34,9.74,8.23,9.57,8.16L8.99,7.9c0-0.42,0-2.49,0-2.71c0-0.34-0.04-0.64-0.13-0.91
					l0.72-0.26l0,0.65l-0.05,0c-0.03,0-0.06,0.02-0.07,0.05L9.4,5.28c0,0.02,0,0.03,0.01,0.05c0.01,0.01,0.03,0.02,0.04,0.02l0.5,0
					c0.02,0,0.03-0.01,0.04-0.02c0.01-0.01,0.02-0.03,0.01-0.05c-0.01-0.11-0.03-0.21-0.04-0.32L9.95,4.74
					c0-0.03-0.03-0.06-0.07-0.05l-0.05,0l0-0.74l0.03-0.01L9.95,3.9c0.07-0.03,0.12-0.09,0.12-0.17c0-0.08-0.05-0.14-0.12-0.17
					L6.93,2.49c-0.04-0.01-0.08-0.01-0.12,0L3.79,3.56C3.72,3.59,3.67,3.65,3.67,3.73c0,0.08,0.05,0.14,0.12,0.17l1.09,0.39
					c-0.1,0.27-0.14,0.58-0.14,0.93l0,2.69L4.17,8.16C4,8.23,3.83,8.34,3.74,8.52c0,0-1.28,3.2-0.58,3.2h7.43
					C11.28,11.72,10,8.52,10,8.52z M8.03,8.25c0,0-0.97,0.32-1.16,1.42c0,0,0,0,0,0C6.68,8.56,5.71,8.25,5.71,8.25l0.64-0.62
					c-0.9-0.39-1.14-1.74-1.14-1.74C5.16,5.7,5.15,5.56,5.15,5.56C5.6,5.53,7.17,5.4,7.28,4.9c0.15,0.27,0.93,0.94,1.25,0.99
					c0,0-0.31,1.33-1.15,1.73L8.03,8.25z"/>
			</g>
		</g>
	</g>
	<g>
	</g>
	<g>
	</g>
	<g>
	</g>
	<g>
	</g>
	<g>
	</g>
	<g>
	</g>
</g>
</svg>
