<?xml version="1.0" encoding="utf-8"?>
<!-- Generator: Adobe Illustrator 27.1.1, SVG Export Plug-In . SVG Version: 6.00 Build 0)  -->
<svg version="1.1" id="Layer_1" xmlns="http://www.w3.org/2000/svg" xmlns:xlink="http://www.w3.org/1999/xlink" x="0px" y="0px"
	 viewBox="0 0 280 280" style="enable-background:new 0 0 280 280;" xml:space="preserve">
<style type="text/css">
	.st0{clip-path:url(#SVGID_00000101062710665547243500000006312352921214096316_);fill:#808184;}
	.st1{fill:#51B748;}
	.st2{fill:#0A57A4;}
	.st3{fill:#FFFFFF;}
	.st4{fill:#231F20;}
	.st5{fill:#8DD6F7;}
	.st6{fill:#2293D1;}
	.st7{fill:#E6E7E7;}
	.st8{fill:#D0D2D3;}
	.st9{fill:#E9262A;}
</style>
<g>
	<g>
		<g>
			<g>
				<defs>
					<rect id="SVGID_1_" x="15.09" y="6.92" width="920.66" height="254.87"/>
				</defs>
				<clipPath id="SVGID_00000014596110869853013460000006507247295662084250_">
					<use xlink:href="#SVGID_1_"  style="overflow:visible;"/>
				</clipPath>
				<path style="clip-path:url(#SVGID_00000014596110869853013460000006507247295662084250_);fill:#808184;" d="M227.26,135.14
					c-10.9-39.97-4.15-68.51,10.38-89.79l-25.95-27H70.51L45.59,44.31c22.32,46.19,6.23,75.78,5.71,89.28l0,0
					c-15.57-15.05-24.39-6.23-25.95,0l0,0c-5.71,18.69-10.38,25.43-10.38,25.43c3.11,7.79,6.75,8.82,8.3,8.82l0,0
					c0.52,35.81,32.18,54.5,67.48,66.44c35.81,12.46,47.23,27.51,47.23,27.51s21.28-21.28,57.61-30.62
					c36.85-13.49,59.17-38.93,57.09-63.32l0,0c7.27,0,8.3-2.08,10.38-9.34c0,0-5.19-3.63-9.86-21.28l0,0c0-2.6-1.04-5.71-3.11-9.34
					C240.23,117.49,227.78,134.1,227.26,135.14L227.26,135.14L227.26,135.14z"/>
			</g>
		</g>
		<path class="st1" d="M34.17,142.92c0.52-0.52,5.19-8.3,5.71-1.56c0.52,6.23-10.9,1.56-11.94-6.75
			c-0.52-4.67,18.69-14.53,21.28,14.01l0,0c1.56,39.45,45.16,50.87,63.84,58.65c22.32,12.46,24.4,17.13,24.4,17.13
			s9.86-10.38,24.91-16.09c37.89-13.5,66.44-26.47,65.92-60.73c1.56-23.88,28.55-24.91,17.13-5.71c-3.12,5.71-16.61,7.27-6.23-3.63
			l3.63,6.75c0.52,0,1.56-0.52,2.08-1.56c0,0-4.15-9.86-4.67-9.86c-3.63,1.04-6.75,5.71-6.23,10.38
			c0.52,9.34,16.61,23.36,15.57,31.14c-6.75,38.93-64.36,56.06-64.36,56.06c-26.47,7.27-46.71,26.47-46.71,26.47
			c-11.94-16.61-55.02-29.06-55.02-29.06c-53.46-21.8-57.09-50.35-56.06-59.17c0.52-6.75,12.98-17.65,12.98-17.65
			c3.11-3.63,4.15-15.05-2.59-17.65c-0.52,0-5.19,7.79-5.19,7.79C33.14,141.89,34.17,142.92,34.17,142.92L34.17,142.92z"/>
		<path class="st2" d="M54.94,150.71c1.56,29.59,29.59,39.45,57.09,48.79c17.13,6.23,25.95,16.09,25.95,16.09
			c11.94-9.86,17.65-12.46,27.51-15.57c30.1-10.38,63.32-21.28,56.06-63.84c-15.57-63.84,9.86-89.27,9.86-89.27l-23.36-23.36H72.06
			L51.82,45.86c18.69,39.45,8.3,71.63,5.71,87.72c-3.11,14.01-2.08,7.27-2.6,18.69v-1.56H54.94z"/>
		<polygon class="st3" points="139.02,36.52 140.06,33.41 136.94,31.85 140.58,31.85 141.62,28.74 142.65,31.85 145.77,31.85 
			143.17,33.41 144.21,36.52 141.62,34.96 		"/>
		<path class="st3" d="M139.54,71.82c21.8,0,39.45,17.65,39.45,38.93s-17.65,38.41-39.45,38.41s-39.45-17.13-39.45-38.41
			C100.09,88.94,117.74,71.82,139.54,71.82L139.54,71.82z"/>
		<path class="st4" d="M100.61,110.74c0-21.28,17.65-38.93,38.93-38.93c21.8,0,39.45,17.65,39.45,38.93s-17.65,38.41-39.45,38.41
			S100.61,131.51,100.61,110.74L100.61,110.74z M100.09,110.74c0,21.28,17.65,38.41,39.45,38.41s39.45-17.13,39.45-38.41
			s-17.65-38.93-39.45-38.93S100.09,88.94,100.09,110.74L100.09,110.74z"/>
		<path class="st5" d="M139.02,73.89c20.76,0,36.85,16.09,36.85,36.33s-16.61,36.33-36.85,36.33s-36.85-16.09-36.85-36.33
			C102.17,89.98,118.78,73.89,139.02,73.89L139.02,73.89z"/>
		<path class="st6" d="M103.21,110.74c0-19.72,16.09-35.29,35.81-35.29c20.24,0,35.81,15.57,35.81,35.29s-15.57,35.29-35.81,35.29
			C119.3,146.04,103.21,129.95,103.21,110.74L103.21,110.74z M101.13,110.74c0,20.76,17.13,37.37,37.89,37.37
			c21.28,0,37.89-16.61,37.89-37.37s-16.61-37.37-37.89-37.37C118.26,72.85,101.13,89.98,101.13,110.74L101.13,110.74z"/>
		<path class="st6" d="M128.64,144.48c-0.52,0-0.52,0.52-0.52,1.04c0.52,0.52,1.04,0.52,1.56,0.52c9.34-5.19,10.9-4.67,20.24,0
			c0.52,0.52,1.04,0,1.56-0.52c0-0.52,0-1.04-0.52-1.56C141.1,139.29,138.5,138.25,128.64,144.48L128.64,144.48z"/>
		<path class="st6" d="M102.17,109.71c-0.52,0-1.04,0.52-1.04,1.04c0,0.52,0.52,1.04,1.04,1.04h74.22c0.52,0,1.04-0.52,1.04-1.04
			c0-0.52-0.52-1.04-1.04-1.04H102.17L102.17,109.71z"/>
		<path class="st6" d="M150.96,75.45c-8.31,5.71-12.98,6.23-21.8,0c-0.52-0.52-1.04,0-1.56,0c-0.52,0.52,0,1.04,0,1.56
			c9.86,7.27,15.57,5.71,23.88,0c0.52-0.52,0.52-1.04,0.52-1.56C152,74.93,150.96,74.93,150.96,75.45L150.96,75.45z"/>
		<path class="st6" d="M117.22,80.12c-0.52,0.52,0,1.04,0.52,1.56c15.57,9.86,27.51,12.98,44.12,0.52c0.52-0.52,0.52-1.04,0-1.56
			s-1.04-0.52-1.56,0c-16.09,11.94-26.99,9.34-42.04-0.52C118.26,79.6,117.74,79.6,117.22,80.12L117.22,80.12z"/>
		<path class="st6" d="M109.95,86.35c-0.52,0.52,0,1.04,0,1.56c26.47,18.69,42.04,9.86,53.98,3.11l3.63-2.08
			c0.52-0.52,0.52-1.04,0.52-1.56c-0.52-0.52-1.04-0.52-1.56-0.52l-3.63,2.08c-12.46,7.27-25.95,15.05-51.9-2.6
			C110.99,85.31,110.47,85.83,109.95,86.35L109.95,86.35z"/>
		<path class="st6" d="M105.8,123.72c-0.52,0.52-0.52,1.04-0.52,1.56c0.52,0.52,1.04,0.52,1.56,0.52c5.71-3.11,34.78-17.65,66.44,0
			c0.52,0.52,1.04,0,1.56-0.52s0-1.04-0.52-1.56C141.62,105.55,111.51,120.61,105.8,123.72L105.8,123.72z"/>
		<path class="st6" d="M110.47,133.58c-0.52,0-0.52,1.04-0.52,1.56s1.04,0.52,1.56,0.52c28.03-12.98,30.1-11.94,53.98-1.56
			l1.56,0.52c0.52,0,1.04,0,1.56-0.52c0-0.52,0-1.04-0.52-1.56l-1.56-0.52C142.13,121.12,139.54,120.09,110.47,133.58L110.47,133.58
			z"/>
		<path class="st6" d="M149.92,78.04c9.86,5.71,20.24,19.2,20.24,34.26c0,12.46-7.27,23.36-21.8,31.66l1.04,1.56
			c18.69-10.9,22.84-23.88,22.84-33.22c0-15.57-10.9-30.1-21.28-36.33L149.92,78.04L149.92,78.04z"/>
		<path class="st6" d="M146.29,79.6c8.82,8.3,14.01,19.2,14.01,30.62c0,11.94-5.19,23.36-14.01,32.18l1.56,1.56
			c9.34-9.34,15.05-21.28,14.53-33.74c0-11.94-5.19-23.36-14.53-32.18L146.29,79.6L146.29,79.6z"/>
		<path class="st6" d="M143.69,80.12c12.46,18.69,9.86,48.79-0.52,61.25l1.56,1.56c11.42-12.98,14.01-43.6,1.04-63.84L143.69,80.12
			L143.69,80.12z"/>
		<path class="st6" d="M135.39,142.41l1.56-1.04c-5.71-8.82-18.17-32.7-1.56-61.25l-1.56-1.04
			C116.7,109.19,129.16,133.58,135.39,142.41L135.39,142.41z"/>
		<path class="st6" d="M132.27,143.96l1.56-1.56c-19.2-20.24-19.2-43.08-0.52-62.8l-1.56-1.56
			C112.03,98.81,112.55,122.68,132.27,143.96L132.27,143.96z"/>
		<path class="st6" d="M107.88,110.74c-0.52,9.86,3.11,23.36,21.8,34.77l1.04-1.56c-14.01-8.31-21.28-19.72-20.76-32.7
			c0.52-15.57,12.46-29.07,20.24-33.22l-1.04-2.08C119.82,80.64,108.4,95.17,107.88,110.74L107.88,110.74z"/>
		<path class="st7" d="M139.54,131.51v9.86V131.51z"/>
		<polygon class="st6" points="138.5,131.51 140.06,131.51 140.06,141.37 138.5,141.37 		"/>
		<path class="st6" d="M138.5,107.11v31.14c0,0.52,0.52,1.04,1.04,1.04s1.04-0.52,1.04-1.04v-31.14c0-0.52-0.52-1.04-1.04-1.04
			S138.5,106.59,138.5,107.11L138.5,107.11z"/>
		<path class="st3" d="M177.43,123.2c32.7,18.69,26.47,28.55-41.52-12.46c-31.14-18.69-84.08-53.98-25.43-25.43l1.04-1.56
			c-66.44-30.1-6.75,9.86,22.32,28.03c73.7,45.67,80.45,30.1,44.12,9.34L177.43,123.2L177.43,123.2z"/>
		<path class="st3" d="M169.64,85.31c38.41-22.32,40.49-9.34-29.59,28.55c-32.18,17.13-91.35,45.67-36.85,10.38l-1.04-2.08
			c-59.17,41.52,7.79,9.34,37.89-6.75c76.82-40.49,68.51-55.54,28.03-31.66L169.64,85.31L169.64,85.31z"/>
		<polygon class="st4" points="120.85,104.52 118.26,104.52 107.36,125.8 107.36,125.8 125.53,125.8 135.91,125.8 136.43,126.31 
			135.91,126.83 136.43,126.83 142.13,126.83 142.65,126.83 142.13,125.8 160.3,125.8 171.72,125.8 171.72,125.8 171.72,125.28 
			160.3,104.52 152,104.52 		"/>
		<path class="st4" d="M120.85,105.03c0,0,38.93,0,39.45,0c0,0.52,10.9,20.76,10.9,20.76l0,0l0,0h-10.9h-18.17v0.52v0.52l0,0h-5.71
			v-0.52l-0.52-0.52h-10.38c0,0-17.65,0-18.17,0l0,0c0,0,10.9-20.24,10.9-20.76C118.78,105.03,120.85,105.03,120.85,105.03
			L120.85,105.03z M152,104h-33.74h-0.52l-10.9,21.28v0.52l0.52,0.52h29.07v0.52l0.52,0.52h6.23l0.52-0.52v-0.52l0,0
			c1.04,0,28.55,0,28.55,0l0.52-0.52v-0.52l-0.52-0.52L161.35,104h-0.52H152L152,104L152,104z"/>
		<polygon class="st4" points="107.36,125.8 107.36,126.31 107.36,126.31 107.36,126.83 135.91,126.83 136.43,126.83 135.91,126.83 
			135.39,126.83 135.39,126.83 135.39,127.35 135.91,127.35 136.43,127.87 142.13,127.87 142.13,127.87 142.65,127.35 
			143.17,127.35 143.17,127.35 143.17,126.83 142.65,126.83 142.65,126.83 142.65,126.83 171.72,126.83 171.72,126.31 
			171.72,126.31 171.72,126.31 171.72,125.8 171.72,125.8 171.72,125.8 142.13,125.8 142.13,125.8 142.13,126.31 142.13,126.31 
			142.13,126.83 142.13,126.83 142.13,126.83 136.94,126.83 136.94,126.83 136.43,126.83 136.94,126.31 136.94,126.31 136.94,125.8 
			136.43,125.8 136.43,125.8 107.88,125.8 107.36,125.8 107.36,125.8 		"/>
		<path class="st4" d="M107.36,126.31C107.88,126.31,107.88,126.31,107.36,126.31c0.52,0,29.07,0,29.07,0l0,0h-0.52v0.52h5.19
			l0.52-0.52l0,0c0,0,28.55,0,29.07,0l0,0l0,0c-0.52,0-28.55,0-28.55,0l-0.52,0.52v0.52l0,0l-0.52,0.52h-5.71l0,0l0.52-0.52v-0.52
			L107.36,126.31L107.36,126.31L107.36,126.31z M171.2,125.8h-29.58l-0.52,0.52v0.52c-0.52,0-4.15,0-4.67,0v-0.52l-0.52-0.52h-28.55
			l0,0l0,0h-0.52v0.52l0.52,0.52c0,0,26.99,0,28.03,0l0,0v0.51l0.52,0.52h0.52l0.52,0.52h6.23l0.52-0.52h0.52v-0.52l0,0
			c1.04,0,28.03,0,28.03,0l0.52-0.52l0,0l0,0l0.52-0.52v-0.52h-2.09V125.8L171.2,125.8z"/>
		<polygon class="st3" points="121.37,103.48 119.3,104.52 109.44,124.76 114.11,124.76 118.26,124.24 123.45,123.72 128.64,122.68 
			131.24,122.16 133.31,122.68 135.39,123.2 136.43,124.24 136.94,125.8 137.46,126.31 141.62,126.31 141.62,126.31 142.13,124.76 
			142.65,123.2 144.21,122.16 145.77,121.64 147.84,121.64 150.96,122.16 154.07,123.2 159.78,124.24 164.97,124.76 169.13,124.76 
			159.26,105.03 157.19,103.48 140.06,113.86 		"/>
		<path class="st4" d="M119.3,104.52c0,0,1.56-0.52,2.08-1.04c0.52,0,18.17,10.38,18.17,10.38h0.52l17.13-10.38
			c0.52,0,2.08,1.04,2.08,1.04s8.82,18.17,9.34,19.2c-1.04,0-3.63,0-3.63,0l-5.19-0.52l-5.71-0.52l-3.11-1.04l-3.12-0.52h-2.08
			l-2.08,0.52l-1.56,1.04l-1.04,1.56c0,0,0,1.04-0.52,1.56c-0.52,0-3.63,0-3.63,0l-1.04-2.08l-1.04-1.04l-1.56-0.52l-1.56-0.52
			l-3.11,0.52l-5.19,1.04l-5.19,0.52l-4.15,0.52c0,0-3.11,0-4.15,0C110.47,123.2,119.3,104.52,119.3,104.52L119.3,104.52z
			 M119.3,104.52l-9.86,20.24l0.52,0.52h4.67l4.15-0.52l5.19-0.52l5.19-1.04l2.6-0.52l1.56,0.52l2.08,0.52l1.04,1.04l0.52,1.56
			l0.52,0.52H138h4.15h0.52l0.52-1.56l0.52-1.56l1.56-1.04l1.56-0.52h2.08l2.6,0.52l3.11,1.04l5.71,1.04l5.19,0.52h4.15l0.52-0.52
			l-9.86-19.72l-2.08-1.56h-0.52l-17.13,10.38c-0.52,0-18.17-10.38-18.17-10.38h-0.52L119.3,104.52L119.3,104.52z"/>
		<polygon class="st4" points="139.02,103.48 139.54,103.48 139.54,123.72 139.02,123.72 		"/>
		<polygon class="st4" points="109.56,124.24 113.13,122.12 113.4,122.57 109.82,124.68 		"/>
		<polygon class="st4" points="165.49,123.2 169.13,124.76 169.13,124.24 166.01,122.68 		"/>
		<polygon class="st4" points="120.85,103.48 112.55,122.68 115.66,122.68 119.82,121.64 123.97,121.12 128.12,120.09 
			130.72,119.57 132.27,119.57 134.35,120.09 135.91,120.61 137.46,121.12 137.98,122.16 139.02,123.2 139.54,124.24 140.06,123.2 
			141.1,121.64 142.13,120.61 143.69,120.09 145.77,119.57 147.33,119.57 148.88,119.57 152.52,120.09 158.22,121.64 162.9,122.68 
			165.49,122.68 166.01,123.2 157.71,104 155.11,103.48 152.52,103.48 150.44,102.96 148.88,102.44 146.81,101.92 145.77,101.4 
			144.21,101.4 142.65,101.4 141.62,101.4 141.1,101.92 140.58,102.44 140.06,102.96 139.54,103.48 139.54,103.48 139.02,102.96 
			139.02,102.44 137.98,101.92 137.98,101.92 136.43,101.4 135.39,100.88 133.31,100.88 131.75,101.92 129.68,101.92 128.64,102.44 
			127.08,102.96 125.53,102.96 122.93,103.48 121.89,103.48 		"/>
		<path class="st4" d="M121.89,104h1.04l2.08-0.52l1.56-0.52l1.56-0.52l1.56-0.52l1.56-0.52l2.08-0.52h2.08l1.04,0.52l1.04,0.52
			v0.52l1.04,0.52v0.52l0.52,0.52h0.52l0.52-0.52h0.52l0.52-1.04h0.52h1.04h2.6l1.56,0.52l1.56,0.52l1.56,0.52l2.59,0.52h2.6
			l2.08,0.52c0,0.52,7.27,17.13,8.31,18.17l-3.11-0.52l-4.67-0.52l-5.19-1.56l-3.63-0.52h-3.63l-1.56-0.52l-2.08,0.52l-1.04,1.04
			l-1.04,1.56v0.52c0-0.52-0.52-0.52-0.52-0.52l-0.52-0.52l-1.04-1.04l-1.56-0.52l-1.56-0.52l-2.08-0.52h-2.08h-2.08l-4.15,1.04
			l-4.15,0.52l-4.15,0.52c0,0-1.56,0-2.08,0.52C113.59,121.64,120.85,104,121.89,104C121.37,104,121.89,104,121.89,104L121.89,104z
			 M131.75,101.4l-1.56,0.52l-1.56,0.52l-1.56,0.52l-1.56,0.52l-2.6-0.52h-2.08h-0.52l-7.79,19.72l0.52,0.52l2.6-0.52l4.15-0.52
			l4.15-0.52l4.15-1.04l2.6-0.52h1.56l1.56,0.52l1.56,0.52l1.56,0.52l0.52,0.52l0.52,1.04l0.52,1.04h0.52l0.52-1.04l1.04-1.56
			l1.04-1.04l1.56-0.52l1.56-0.52h3.63l3.63,0.52l5.19,1.56l4.67,0.52l3.11,0.52l0.52,0.52l0.52-0.52l-8.3-19.2l0,0l-2.59-0.52h-2.6
			l-2.59-0.52l-1.04-0.52l-1.56-0.52l-1.56-0.52h-1.56h-2.6l-1.04,0.52l-0.52,1.04h-0.52c0,0,0,0-0.52,0.52l0,0l-0.52-0.52v-0.52
			l-0.52-0.52l-1.04-0.52l-1.04-0.52h-2.08L131.75,101.4L131.75,101.4z"/>
		<polygon class="st8" points="121.37,103.48 112.55,122.68 116.18,122.16 120.34,121.12 123.97,120.61 128.12,119.57 
			131.24,119.05 132.27,119.05 134.35,119.57 135.91,120.09 137.46,121.12 137.98,121.64 139.02,122.68 139.54,123.72 
			140.06,122.68 141.1,121.12 142.13,120.09 143.69,119.57 145.77,119.05 147.33,119.05 148.88,119.05 152.52,120.09 158.22,121.12 
			162.38,122.16 164.97,122.68 166.01,122.68 157.71,103.48 154.59,103.48 152.52,102.96 150.44,102.44 148.88,101.92 146.81,101.4 
			145.77,101.4 144.21,100.88 142.65,100.88 141.62,101.4 141.1,101.92 140.58,101.92 140.06,102.96 139.54,102.96 139.54,103.48 
			139.02,102.96 139.02,101.92 138.5,101.92 137.98,101.4 136.43,100.88 135.91,100.88 133.31,100.88 131.75,101.4 129.68,101.92 
			128.64,102.44 127.6,102.96 125.53,102.96 122.93,102.96 121.89,103.48 		"/>
		<path class="st4" d="M140.06,103.48L140.06,103.48L140.06,103.48l1.56-1.56l0.52-0.52l1.04-0.52h1.56l1.56,0.52h1.56l1.56,0.52
			l1.56,0.52l2.08,0.52l2.6,0.52c0,0,2.08,0,2.6,0c0,0.52,7.27,17.13,7.79,18.17l-3.11-0.52h-4.67l-5.71-1.56l-3.63-0.52h-3.11
			l-2.08,0.52l-1.56,0.52l-1.56,1.04l-1.04,1.56c0,0,0,0,0,0.52c0-0.52-0.52-0.52-0.52-0.52l-0.52-1.04l-0.52-0.52l-1.56-0.52
			l-1.56-0.52l-2.08-0.52h-1.56l-3.11-0.52l-4.15,1.04l-3.63,1.04l-4.15,0.52c0,0-2.08,0-2.59,0.52c0.52-1.04,8.3-17.65,8.3-18.17
			l0,0l1.56-0.52l2.6-0.52h1.56l1.04-0.52l1.56-0.52l2.08-0.52l1.56-0.52H137l1.04,0.52l0.52,0.52l0.52,0.52l0.52,0.52
			L140.06,103.48L140.06,103.48L140.06,103.48z M141.62,100.88l-0.52,0.52l-0.52,0.52c0,0-1.04,0.52-1.04,1.04l-0.52-0.52
			l-0.52-1.04l-1.04-0.52l-1.04-0.52h-1.04h-2.08l-2.08,0.52l-2.08,0.52l-1.56,0.52l-1.04,0.52h-1.56l-2.08,0.52l-1.56,0.52h-0.52
			l-8.31,18.69l0.52,0.52l3.11-0.52l4.15-0.52l4.15-0.52l4.15-1.04l2.6-0.52h1.56l2.08,0.52l1.56,0.52l1.56,0.52l1.56,1.56
			l0.52,1.56h0.52l0.52-1.04l1.04-1.56l1.04-1.04l1.56-0.52l2.08-0.52h2.08l3.63,0.52l5.71,1.56l4.15,0.52l3.11,0.52l0.52,0.52
			l0.52-0.52l-8.31-19.2h-0.52h-3.11l-2.6-0.52l-2.08-0.52l-1.04-0.52l-1.56-0.52h-1.56l-1.56-0.52h-1.56h-0.99V100.88z"/>
		<polygon class="st4" points="139.02,103.48 139.54,103.48 139.54,123.72 139.02,123.72 		"/>
		<path class="st3" d="M60.65,51.05h-3.63v-7.27h3.63v1.04l0,0h-1.56v4.67h1.56l0,0V51.05L60.65,51.05z M67.91,47.42v1.04
			c-0.52,0-0.52,0-0.52,0c-0.52,0-0.52,0.52-0.52,0.52c0,0.52,0,0.52,0.52,0.52c0,0,0,0,0.52,0v1.04c-0.52,0-0.52,0-1.04,0
			c-1.56,0-2.08-0.52-2.08-1.56s0.52-1.56,2.08-1.56C67.39,47.42,67.39,47.42,67.91,47.42L67.91,47.42z M67.91,44.83v1.04
			c-0.52,0.52-1.04,0.52-1.04,1.04h-1.56c0-0.52,0.52-1.04,0.52-1.56C66.36,45.35,66.87,44.83,67.91,44.83L67.91,44.83L67.91,44.83z
			 M64.28,46.9c0,1.04-0.52,2.08-0.52,2.6c-0.52,0.52-1.56,1.04-2.6,1.04h-0.52V49.5c0.52,0,0.52-0.52,1.04-0.52
			c0.52-0.52,0.52-1.04,0.52-1.56s0-1.56-0.52-1.56c-0.52-0.51-0.52-0.51-1.03-0.51v-1.56h0.52c1.04,0,1.56,0,2.6,0.52
			C63.76,44.83,64.28,45.86,64.28,46.9L64.28,46.9L64.28,46.9z M79.33,44.31C78.81,44.31,78.81,44.31,79.33,44.31
			c-0.52,0-0.52,0-0.52,0c-0.52,0-0.52,0-0.52,0.52c-0.52,0-0.52,0-0.52,0.52v0.52h1.04v1.04h-1.04v4.67h-1.56v-5.19h-0.52v-1.04
			h0.52v-0.52c0-1.04,0.52-1.56,1.56-1.56c0.52,0,0.52,0,1.56,0L79.33,44.31L79.33,44.31z M75.18,44.31L75.18,44.31
			C74.66,44.31,74.66,44.31,75.18,44.31c-0.52,0-0.52,0-0.52,0.52c-0.52,0-0.52,0-0.52,0.52v0.52h1.04v1.04h-1.04v4.67h-1.56v-5.19
			h-0.52v-1.04h0.52v-0.52c0-1.04,0.52-1.56,1.56-1.56c0.52,0,0.52,0,1.04,0L75.18,44.31L75.18,44.31L75.18,44.31z M67.91,51.05
			v-1.04c0,0,0.52,0,0.52-0.52l0.52-0.52v-1.04h-0.52l-0.52,0.52v-1.04h0.52c0.52,0,0.52,0,0.52-0.52c0.52,0,0.52,0,0.52-0.52
			s-0.52-0.52-1.04-0.52l0,0v-1.04l0,0c1.04,0,1.56,0.52,2.08,0.52c0.52,0,0.52,0.52,0.52,1.56v2.6c0,0.52,0,0.52,0,0.52
			s0.52,0.52,0.52,0c0,0.52,0,0.52,0,0.52h-0.52c-0.52,0-1.04,0-1.04,0c-0.52,0-0.52-0.52-0.52-0.52l0,0l0,0
			C68.43,50.54,68.43,51.05,67.91,51.05L67.91,51.05L67.91,51.05z M82.45,44.83v1.56c-0.52,0-1.04,0.52-1.04,1.56
			c0,1.04,0.52,1.56,1.04,1.56v1.04c-2.08,0-3.11-1.04-3.11-2.6C79.33,45.86,80.37,44.83,82.45,44.83L82.45,44.83L82.45,44.83z
			 M82.45,51.05v-1.04l0,0c0.52,0,1.56-0.52,1.56-1.56c0-1.56-0.52-1.56-1.56-1.56l0,0v-2.08l0,0c2.08,0,3.11,1.04,3.11,3.11
			C85.56,50.02,84.52,51.05,82.45,51.05L82.45,51.05L82.45,51.05z M89.19,45.35v1.04l0,0c-0.52,0-1.04,0.52-1.04,1.56
			c0,1.04,0.52,1.56,1.04,1.56l0,0v1.56h-0.52c-1.04,0-1.56-0.52-2.08-0.52c0-1.04,0-1.56,0-2.6s0-1.56,0.52-2.08
			C87.64,45.35,87.64,44.83,89.19,45.35C88.67,44.83,89.19,44.83,89.19,45.35L89.19,45.35L89.19,45.35z M115.66,51.05
			c-0.52,0-1.04,0-1.56,0s-0.52,0-1.04-0.52c-0.52,0-0.52-0.52-0.52-1.04v-3.11h-1.04v-1.03h1.04v-1.56h1.56v1.56h1.04v1.04h-1.04
			v2.6c0,0.52,0,0.52,0,0.52h0.52c0.52,0,0.52,0,0.52,0v1.56h0.52V51.05z M110.99,51.05h-1.56v-3.63c0-0.52,0-1.04-0.52-1.04
			s-0.52,0-0.52,0.52c-1.04,0-1.04,0-1.04,0.52v3.63h-1.56v-5.7h1.56v0.52l0,0c0.52-0.52,0.52-1.04,1.56-1.04
			c0.52,0,1.04,0.52,1.56,0.52s0.52,0.52,0.52,1.04V51.05L110.99,51.05L110.99,51.05z M104.25,51.05h-1.56v-7.27h1.56V51.05
			L104.25,51.05L104.25,51.05z M98.02,51.05h-1.56v-7.79h1.56L98.02,51.05L98.02,51.05L98.02,51.05z M95.42,51.05h-1.56v-5.7h1.56
			V51.05L95.42,51.05L95.42,51.05z M95.42,44.83h-1.56v-1.56h1.56V44.83L95.42,44.83L95.42,44.83z M89.19,51.05v-1.56
			c1.04,0,1.56-0.52,1.56-1.56c0-1.04-0.52-1.56-1.56-1.56v-1.02c0.52,0,1.04,0.52,1.56,0.52l0,0v-2.6h1.56v7.79h-1.56v-0.52l0,0
			C90.23,50.54,90.23,51.05,89.19,51.05L89.19,51.05L89.19,51.05z M119.3,44.83v1.04c-0.52,0-1.04,0.52-1.56,1.56h1.56v1.04h-1.56
			c0,1.04,0.52,1.56,1.56,1.56v1.04c-2.08,0-3.11-1.04-3.11-2.6c0-1.04,0.52-1.56,0.52-2.08C117.22,45.35,118.26,44.83,119.3,44.83
			L119.3,44.83L119.3,44.83L119.3,44.83z M133.31,51.05h-1.56v-3.63c0-0.52-0.52-1.04-0.52-1.04c-0.52,0-0.52,0-0.52,0.52
			c-0.52,0.52-0.52,0.52-0.52,0.52v3.63h-1.56v-5.7h1.56v0.52l0,0c0-0.52,0.52-1.04,1.56-1.04c0.52,0,1.04,0.52,1.56,0.52
			c0,0.52,0,1.04,0,1.56V51.05L133.31,51.05z M127.08,46.9c-0.52,0-0.52,0-0.52,0c-0.52,0-1.04,0-1.04,0.52
			C125,47.94,125,47.94,125,48.46v2.6h-2.08v-5.71H125v1.04l0,0c0.52-0.52,0.52-1.56,1.56-1.56c0.52,0,0.52,0,0.52,0.52V46.9
			L127.08,46.9L127.08,46.9z M119.3,48.46v-1.04h1.04c0-0.52,0-0.52,0-0.52c-0.52-0.52-0.52-0.52-1.04-0.52l0,0v-1.56
			c1.04,0,1.56,0.52,2.08,1.04c0.52,0.52,0.52,1.56,0.52,2.6H119.3L119.3,48.46L119.3,48.46z M119.3,51.05v-1.04l0,0
			c0.52,0,0.52,0,0.52-0.52c0.52,0,0.52-0.52,0.52-0.52h1.56c0,0.52-0.52,0.52-0.52,1.04C120.85,51.05,120.34,51.05,119.3,51.05
			L119.3,51.05L119.3,51.05L119.3,51.05z M136.94,47.42v1.04c-0.52,0-0.52,0-0.52,0c-0.52,0-0.52,0.52-0.52,0.52
			c0,0.52,0,0.52,0.52,0.52h0.52v1.04c-0.52,0-0.52,0-1.04,0c-1.56,0-2.08-0.52-2.08-1.56s0.52-1.56,2.08-1.56
			C136.43,47.42,136.43,47.42,136.94,47.42L136.94,47.42L136.94,47.42z M136.94,44.83v1.04c-0.52,0.52-1.04,0.52-1.04,1.04h-1.56
			c0-0.52,0.52-1.04,0.52-1.56C135.39,45.35,135.91,44.83,136.94,44.83L136.94,44.83L136.94,44.83z M146.81,51.05h-1.56v-5.7h1.56
			V51.05L146.81,51.05z M146.81,44.83h-1.56v-1.56h1.56V44.83L146.81,44.83L146.81,44.83z M144.21,51.05c-0.52,0-0.52,0-1.04,0
			c-0.52,0-1.04,0-1.56-0.52c0,0-0.52-0.52-0.52-1.04v-3.11h-0.52v-1.03h0.52v-1.56h1.56v1.56h1.04v1.04h-1.04v2.6
			c0,0.52,0,0.52,0.52,0.52c0,0,0,0,0.52,0h0.52L144.21,51.05L144.21,51.05L144.21,51.05z M136.94,51.05v-1.04
			c0.52,0,0.52,0,0.52-0.52c0.52,0,0.52-0.52,0.52-0.52v-1.04h-0.52l-0.52,0.52v-1.04c0.52,0,0.52,0,0.52,0c0.52,0,0.52,0,0.52-0.52
			c0,0,0,0,0-0.52s-0.52-0.52-1.04-0.52l0,0v-1.04l0,0c1.04,0,1.56,0.52,2.08,0.52s0.52,0.52,0.52,1.56v2.6c0,0.52,0,0.52,0,0.52
			c0.52,0,0.52,0.52,0.52,0c0,0.52,0,0.52,0,0.52h-0.52c-0.52,0-1.04,0-1.04,0c-0.52,0-0.52-0.52-0.52-0.52l0,0l0,0
			C137.98,50.54,137.46,51.05,136.94,51.05L136.94,51.05L136.94,51.05z M150.96,44.83v1.56c-1.04,0-1.56,0.52-1.56,1.56
			c0,1.04,0.52,1.56,1.56,1.56v1.04c-2.08,0-3.12-1.04-3.12-2.6C147.84,45.86,148.88,44.83,150.96,44.83L150.96,44.83L150.96,44.83z
			 M160.3,51.05h-1.56v-3.63c0-0.52-0.52-1.04-1.04-1.04c-0.52,0-0.52,0-0.52,0.52c-0.52,0.52-0.52,0.52-0.52,0.52v3.63h-1.56v-5.7
			h1.56v0.52l0,0c0.52-0.52,1.04-1.04,1.56-1.04s1.04,0.52,1.56,0.52s0.52,0.52,0.52,1.04V51.05L160.3,51.05L160.3,51.05z
			 M150.96,51.05v-1.04l0,0c0.52,0,1.04-0.52,1.04-1.56c0-1.56-0.52-1.56-1.04-1.56l0,0v-2.08l0,0c2.08,0,3.11,1.04,3.11,3.11
			C154.07,50.02,153.03,51.05,150.96,51.05L150.96,51.05L150.96,51.05L150.96,51.05z M163.94,47.42v1.04h-0.52
			c-0.52,0-0.52,0.52-0.52,0.52c0,0.52,0.52,0.52,0.52,0.52c0.52,0,0.52,0,0.52,0v1.04c-0.52,0-0.52,0-0.52,0
			c-1.56,0-2.08-0.52-2.08-1.56s0.52-1.56,1.56-1.56C163.42,47.42,163.94,47.42,163.94,47.42L163.94,47.42L163.94,47.42z
			 M163.94,44.83v1.04c-0.52,0.52-1.04,0.52-1.04,1.04h-1.56c0-0.52,0-1.04,0.52-1.56C162.9,45.35,163.42,44.83,163.94,44.83
			L163.94,44.83L163.94,44.83z M197.15,45.35l-2.08,5.71h-2.08l-2.06-5.71h2.08l1.04,3.63l0,0l1.04-3.63L197.15,45.35L197.15,45.35z
			 M190.41,51.05h-1.56v-5.7h1.56V51.05L190.41,51.05L190.41,51.05z M190.41,44.83h-1.56v-1.56h1.56V44.83L190.41,44.83
			L190.41,44.83z M187.81,51.05h-1.56v-3.63c0-0.52-0.52-1.04-1.04-1.04c-0.52,0-0.52,0-0.52,0.52c-0.52,0.52-0.52,0.52-0.52,0.52
			v3.63h-1.56v-5.7h1.56v0.52l0,0c0.52-0.52,1.04-1.04,1.56-1.04s1.04,0.52,1.56,0.52s0.52,0.52,0.52,1.04V51.05L187.81,51.05
			L187.81,51.05z M181.06,47.94c0,1.04-0.52,1.56-0.52,2.08c-0.52,0.52-1.56,0.52-2.6,0.52s-1.56,0-2.6-0.52
			c-0.52-0.52-0.52-1.04-0.52-2.08v-4.15h1.56v4.67c0,0.52,0.52,1.04,1.56,1.04s1.56-0.52,1.56-1.04v-4.67h2.08v4.15L181.06,47.94
			L181.06,47.94z M170.16,51.05h-2.08v-7.79h2.08V51.05L170.16,51.05L170.16,51.05z M163.94,51.05v-1.04c0.52,0,0.52,0,0.52-0.52
			c0.52,0,0.52-0.52,0.52-0.52v-1.04h-0.52c0,0,0,0.52-0.52,0.52v-1.04c0.52,0,0.52,0,0.52,0c0.52,0,0.52,0,0.52-0.52
			c0,0,0,0,0-0.52s-0.52-0.52-0.52-0.52c-0.52,0-0.52,0-0.52,0v-1.04h0.52c0.52,0,1.56,0.52,2.08,0.52s0.52,0.52,0.52,1.56v2.6
			c0,0.52,0,0.52,0.52,0.52c0,0,0,0.52,0,0c0,0.52,0,0.52,0,0.52h-0.52c-0.52,0-0.52,0-1.04,0l-0.52-0.52l0,0l0,0
			C164.97,50.54,164.45,51.05,163.94,51.05L163.94,51.05L163.94,51.05z M200.27,44.83v1.04c-0.52,0-1.04,0.52-1.04,1.56h1.04v1.04
			h-1.04c0,1.04,0.52,1.56,1.04,1.56v1.04c-2.08,0-3.11-1.04-3.11-2.6c0-1.04,0.52-1.56,0.52-2.08
			C198.71,45.35,199.23,44.83,200.27,44.83L200.27,44.83L200.27,44.83L200.27,44.83z M227.78,45.35l-2.08,5.71
			c-0.52,0.52-0.52,1.04-0.52,1.04c-0.52,0.52-0.52,0.52-1.56,0.52c-0.52,0-0.52,0-1.04,0v-1.04h0.52c0.52,0,0.52-0.52,0.52-1.04
			l-2.07-5.19h2.08l1.04,3.63l0,0l1.04-3.63L227.78,45.35L227.78,45.35z M221.55,51.05c-0.52,0-1.04,0-1.56,0s-1.04,0-1.04-0.52
			c-0.52,0-0.52-0.52-0.52-1.04v-3.11h-1.04v-1.03h1.04v-1.56h1.56v1.56h1.56v1.04h-1.04v2.6c0,0.52,0,0.52,0,0.52h0.52
			c0.52,0,0.52,0,0.52,0L221.55,51.05L221.55,51.05L221.55,51.05z M216.88,51.05h-1.56v-5.7h1.56V51.05L216.88,51.05L216.88,51.05z
			 M216.88,44.83h-1.56v-1.56h1.56V44.83L216.88,44.83L216.88,44.83z M214.28,49.5c0,1.04-1.04,1.56-2.6,1.56
			c-1.56,0-3.11-0.52-3.11-1.56h1.56c0,0.52,0.52,0.52,1.04,0.52c0.52,0,1.04-0.52,1.04-0.52l-0.52-0.52c-0.52,0-0.52,0-1.04-0.52
			c-1.04,0-1.56-0.52-1.56-0.52c-0.52-0.52-0.52-0.52-0.52-1.56c0-0.52,0.52-0.52,0.52-1.04c0.52-0.52,1.04-0.52,2.08-0.52
			c0.52,0,1.56,0.52,2.08,0.52c0.52,0.52,0.52,0.52,0.52,1.04h-1.56c0-0.52-0.52-0.52-0.52-0.52c-0.52,0-1.04,0-1.04,0.52
			s0.52,0.52,1.56,0.52c0.52,0,1.04,0.52,1.56,0.52C213.76,47.94,214.28,48.46,214.28,49.5L214.28,49.5L214.28,49.5z M208.05,46.9
			c-0.52,0-0.52,0-0.52,0c-0.52,0-0.52,0-1.04,0.52c-0.52,0-0.52,0.52-0.52,0.52v2.6h-1.56v-5.19h1.56v1.04l0,0
			c0.52-0.52,1.04-1.56,1.56-1.56c0,0,0.52,0,0.52,0.52V46.9L208.05,46.9L208.05,46.9z M200.27,48.46v-1.04h1.04
			c0-0.52,0-0.52,0-0.52c-0.52-0.52-0.52-0.52-1.04-0.52l0,0v-1.56c1.04,0,1.56,0.52,2.6,1.04c0.52,0.52,0.52,1.56,0.52,2.6H200.27
			L200.27,48.46L200.27,48.46z M200.27,51.05v-1.04l0,0c0.52,0,0.52,0,0.52-0.52c0.52,0,0.52-0.52,0.52-0.52h1.55
			c0,0.52,0,0.52-0.52,1.04C202.34,51.05,201.31,51.05,200.27,51.05L200.27,51.05L200.27,51.05L200.27,51.05z"/>
		<path class="st7" d="M90.75,145.52l6.23,2.6v9.34l-7.79,16.61l2.59,1.04c2.08,1.04,3.63,1.56,5.19,1.56c0,0,0,0,0.52,0v8.82
			c-2.6-0.52-4.67-1.04-6.23-1.56l-15.05-6.75L90.75,145.52L90.75,145.52z M96.98,148.11l8.3,3.63c2.6,1.56,5.19,2.6,6.23,4.15
			c1.56,1.56,2.6,3.63,3.11,5.71c0.52,1.56,0.52,3.63,0.52,5.71c-0.52,2.59-1.04,4.67-2.08,6.75c-1.56,3.63-3.11,5.71-4.67,7.27
			s-3.63,2.6-5.71,3.63c-1.56,0.52-3.63,0.52-5.71,0.52l0,0v-8.82c1.04-0.52,1.56-0.52,3.11-1.56c0.52-1.04,1.56-2.6,3.11-5.19
			c1.56-3.63,1.56-5.71,1.56-7.78c-0.52-1.56-2.08-3.11-4.67-4.15l-2.6-1.56l-0.52,1.56v-9.87H96.98z"/>
		<polygon class="st7" points="134.35,166.8 145.25,166.8 145.25,201.57 134.35,201.57 		"/>
		<path class="st7" d="M180.54,149.15l9.86-4.67l8.82,18.68c1.04,2.08,1.56,3.63,1.56,5.71c0,1.56,0,3.63-0.52,5.71
			c-0.52,1.56-1.56,3.11-2.6,4.67c-1.56,1.56-4.15,2.6-6.23,4.15c-1.56,0.52-3.63,1.56-5.19,1.56c-2.08,0.52-4.15,1.04-5.19,1.04
			c-1.56,0-3.11-0.52-4.67-1.04c-1.56-0.52-3.11-1.56-4.15-2.6c-1.56-1.56-2.6-3.63-3.63-4.67l-9.34-18.68l9.86-4.67l9.34,19.2
			c0.52,1.56,1.56,2.6,3.11,3.63c1.56,0.52,3.12,0.52,5.19-0.52c1.56-1.04,2.6-2.08,3.11-3.63c0.52-1.56,0.52-2.6-0.52-4.67
			L180.54,149.15L180.54,149.15z"/>
		<path class="st9" d="M138.5,225.97c6.23,0,11.94,5.19,11.94,11.94s-5.71,11.94-11.94,11.94c-6.75,0-11.94-5.19-11.94-11.94
			S131.75,225.97,138.5,225.97L138.5,225.97z"/>
	</g>
	<g>
	</g>
	<g>
	</g>
	<g>
	</g>
	<g>
	</g>
	<g>
	</g>
	<g>
	</g>
</g>
<g>
</g>
<g>
</g>
<g>
</g>
<g>
</g>
<g>
</g>
<g>
</g>
</svg>
