<?xml version="1.0" encoding="utf-8"?>
<!-- Generator: Adobe Illustrator 27.1.1, SVG Export Plug-In . SVG Version: 6.00 Build 0)  -->
<svg version="1.1" id="Layer_1" xmlns="http://www.w3.org/2000/svg" xmlns:xlink="http://www.w3.org/1999/xlink" x="0px" y="0px"
	 viewBox="0 0 945 300" style="enable-background:new 0 0 945 300;" xml:space="preserve">
<style type="text/css">
	.st0{clip-path:url(#SVGID_00000121280008398888294340000016080695167461004439_);fill:#808184;}
	.st1{fill:#50B748;}
	.st2{fill:#0455A4;}
	.st3{fill:#FFFFFF;}
	.st4{fill:#231F20;}
	.st5{fill:#8DD7F7;}
	.st6{fill:#1B93D2;}
	.st7{fill:#E6E7E8;}
	.st8{fill:#D0D2D3;}
	.st9{fill:#EB2027;}
	
		.st10{clip-path:url(#SVGID_00000102528985826102319230000016215566477197981831_);fill-rule:evenodd;clip-rule:evenodd;fill:#38B04A;}
	
		.st11{clip-path:url(#SVGID_00000102528985826102319230000016215566477197981831_);fill-rule:evenodd;clip-rule:evenodd;fill:#0A519C;}
	.st12{fill-rule:evenodd;clip-rule:evenodd;fill:#38B04A;}
	
		.st13{clip-path:url(#SVGID_00000036961012464655976210000012727587105713578927_);fill-rule:evenodd;clip-rule:evenodd;fill:#38B04A;}
	.st14{fill-rule:evenodd;clip-rule:evenodd;fill:#0A519C;}
	.st15{fill-rule:evenodd;clip-rule:evenodd;fill:#6E7072;}
	.st16{fill-rule:evenodd;clip-rule:evenodd;fill:#6D6F71;}
	.st17{fill-rule:evenodd;clip-rule:evenodd;fill:#0B519D;}
	.st18{fill-rule:evenodd;clip-rule:evenodd;fill:#6F7273;}
	.st19{fill-rule:evenodd;clip-rule:evenodd;fill:#6E6F72;}
	.st20{fill-rule:evenodd;clip-rule:evenodd;fill:#3AB14A;}
	.st21{fill-rule:evenodd;clip-rule:evenodd;fill:#6F7272;}
	.st22{fill-rule:evenodd;clip-rule:evenodd;fill:#707373;}
	.st23{fill-rule:evenodd;clip-rule:evenodd;fill:#6B6F73;}
	.st24{fill-rule:evenodd;clip-rule:evenodd;fill:#727475;}
	.st25{fill-rule:evenodd;clip-rule:evenodd;fill:#747577;}
	.st26{fill-rule:evenodd;clip-rule:evenodd;fill:#757979;}
	.st27{fill-rule:evenodd;clip-rule:evenodd;fill:#747B78;}
	.st28{fill-rule:evenodd;clip-rule:evenodd;fill:#898B8C;}
	.st29{fill-rule:evenodd;clip-rule:evenodd;fill:#838587;}
	.st30{fill-rule:evenodd;clip-rule:evenodd;fill:#1F5EA0;}
	.st31{fill-rule:evenodd;clip-rule:evenodd;fill:#16589E;}
	.st32{fill-rule:evenodd;clip-rule:evenodd;fill:#6992C2;}
	.st33{fill-rule:evenodd;clip-rule:evenodd;fill:#898D91;}
	.st34{fill-rule:evenodd;clip-rule:evenodd;fill:#858788;}
	.st35{fill-rule:evenodd;clip-rule:evenodd;fill:#30639C;}
	.st36{fill-rule:evenodd;clip-rule:evenodd;fill:#87888A;}
	.st37{fill-rule:evenodd;clip-rule:evenodd;fill:#969899;}
	.st38{fill-rule:evenodd;clip-rule:evenodd;fill:#5277A1;}
	.st39{fill-rule:evenodd;clip-rule:evenodd;fill:#898A8C;}
	.st40{fill-rule:evenodd;clip-rule:evenodd;fill:#7199C4;}
	.st41{fill-rule:evenodd;clip-rule:evenodd;fill:#BBCCE1;}
	.st42{fill-rule:evenodd;clip-rule:evenodd;fill:#0B519C;}
	.st43{fill-rule:evenodd;clip-rule:evenodd;fill:#486280;}
	.st44{fill-rule:evenodd;clip-rule:evenodd;fill:#868889;}
</style>
<g>
	<g>
		<defs>
			<rect id="SVGID_1_" x="12.23" y="22.57" width="920.66" height="254.87"/>
		</defs>
		<clipPath id="SVGID_00000055671360049706204370000003345040990867054734_">
			<use xlink:href="#SVGID_1_"  style="overflow:visible;"/>
		</clipPath>
		<path style="clip-path:url(#SVGID_00000055671360049706204370000003345040990867054734_);fill:#808184;" d="M224.4,150.79
			c-10.9-39.97-4.15-68.51,10.38-89.79L208.83,34H67.65L42.73,59.96c22.32,46.19,6.23,75.78,5.71,89.28l0,0
			c-15.57-15.05-24.39-6.23-25.95,0l0,0c-5.71,18.69-10.38,25.43-10.38,25.43c3.11,7.79,6.75,8.82,8.3,8.82l0,0
			c0.52,35.81,32.18,54.5,67.48,66.44c35.81,12.46,47.23,27.51,47.23,27.51s21.28-21.28,57.61-30.62
			c36.85-13.49,59.17-38.93,57.09-63.32l0,0c7.27,0,8.3-2.08,10.38-9.34c0,0-5.19-3.63-9.86-21.28l0,0c0-2.6-1.04-5.71-3.11-9.34
			C237.37,133.14,224.92,149.75,224.4,150.79L224.4,150.79L224.4,150.79z"/>
	</g>
	<path class="st1" d="M31.31,158.57c0.52-0.52,5.19-8.3,5.71-1.56c0.52,6.23-10.9,1.56-11.94-6.75
		c-0.52-4.67,18.69-14.53,21.28,14.01l0,0c1.56,39.45,45.16,50.87,63.84,58.65c22.32,12.46,24.4,17.13,24.4,17.13
		s9.86-10.38,24.91-16.09c37.89-13.5,66.44-26.47,65.92-60.73c1.56-23.88,28.55-24.91,17.13-5.71c-3.12,5.71-16.61,7.27-6.23-3.63
		l3.63,6.75c0.52,0,1.56-0.52,2.08-1.56c0,0-4.15-9.86-4.67-9.86c-3.63,1.04-6.75,5.71-6.23,10.38
		c0.52,9.34,16.61,23.36,15.57,31.14c-6.75,38.93-64.36,56.06-64.36,56.06c-26.47,7.27-46.71,26.47-46.71,26.47
		c-11.94-16.61-55.02-29.06-55.02-29.06c-53.46-21.8-57.09-50.35-56.06-59.17c0.52-6.75,12.98-17.65,12.98-17.65
		c3.11-3.63,4.15-15.05-2.59-17.65c-0.52,0-5.19,7.79-5.19,7.79C30.28,157.54,31.31,158.57,31.31,158.57L31.31,158.57z"/>
	<path class="st2" d="M52.08,166.36c1.56,29.59,29.59,39.45,57.09,48.79c17.13,6.23,25.95,16.09,25.95,16.09
		c11.94-9.86,17.65-12.46,27.51-15.57c30.1-10.38,63.32-21.28,56.06-63.84c-15.57-63.84,9.86-89.27,9.86-89.27l-23.36-23.36H69.2
		L48.96,61.51c18.69,39.45,8.3,71.63,5.71,87.72c-3.11,14.01-2.08,7.27-2.6,18.69V166.36L52.08,166.36z"/>
	<polygon class="st3" points="136.16,52.17 137.2,49.06 134.08,47.5 137.72,47.5 138.76,44.39 139.79,47.5 142.91,47.5 
		140.31,49.06 141.35,52.17 138.76,50.61 136.16,52.17 	"/>
	<path class="st3" d="M136.68,87.47c21.8,0,39.45,17.65,39.45,38.93c0,21.28-17.65,38.41-39.45,38.41s-39.45-17.13-39.45-38.41
		C97.23,104.59,114.88,87.47,136.68,87.47L136.68,87.47z"/>
	<path class="st4" d="M97.75,126.39c0-21.28,17.65-38.93,38.93-38.93c21.8,0,39.45,17.65,39.45,38.93
		c0,21.28-17.65,38.41-39.45,38.41S97.75,147.16,97.75,126.39L97.75,126.39z M97.23,126.39c0,21.28,17.65,38.41,39.45,38.41
		s39.45-17.13,39.45-38.41c0-21.28-17.65-38.93-39.45-38.93S97.23,104.59,97.23,126.39L97.23,126.39z"/>
	<path class="st5" d="M136.16,89.54c20.76,0,36.85,16.09,36.85,36.33c0,20.24-16.61,36.33-36.85,36.33
		c-20.24,0-36.85-16.09-36.85-36.33C99.31,105.63,115.92,89.54,136.16,89.54L136.16,89.54z"/>
	<path class="st6" d="M100.35,126.39c0-19.72,16.09-35.29,35.81-35.29c20.24,0,35.81,15.57,35.81,35.29
		c0,19.72-15.57,35.29-35.81,35.29C116.44,161.69,100.35,145.6,100.35,126.39L100.35,126.39z M98.27,126.39
		c0,20.76,17.13,37.37,37.89,37.37c21.28,0,37.89-16.61,37.89-37.37c0-20.76-16.61-37.37-37.89-37.37
		C115.4,88.5,98.27,105.63,98.27,126.39L98.27,126.39z"/>
	<path class="st6" d="M125.78,160.13c-0.52,0-0.52,0.52-0.52,1.04c0.52,0.52,1.04,0.52,1.56,0.52c9.34-5.19,10.9-4.67,20.24,0
		c0.52,0.52,1.04,0,1.56-0.52c0-0.52,0-1.04-0.52-1.56C138.24,154.94,135.64,153.9,125.78,160.13L125.78,160.13z"/>
	<path class="st6" d="M99.31,125.36c-0.52,0-1.04,0.52-1.04,1.04c0,0.52,0.52,1.04,1.04,1.04h74.22c0.52,0,1.04-0.52,1.04-1.04
		c0-0.52-0.52-1.04-1.04-1.04H99.31L99.31,125.36z"/>
	<path class="st6" d="M148.1,91.1c-8.31,5.71-12.98,6.23-21.8,0c-0.52-0.52-1.04,0-1.56,0c-0.52,0.52,0,1.04,0,1.56
		c9.86,7.27,15.57,5.71,23.88,0c0.52-0.52,0.52-1.04,0.52-1.56C149.14,90.58,148.1,90.58,148.1,91.1L148.1,91.1z"/>
	<path class="st6" d="M114.36,95.77c-0.52,0.52,0,1.04,0.52,1.56c15.57,9.86,27.51,12.98,44.12,0.52c0.52-0.52,0.52-1.04,0-1.56
		c-0.52-0.52-1.04-0.52-1.56,0c-16.09,11.94-26.99,9.34-42.04-0.52C115.4,95.25,114.88,95.25,114.36,95.77L114.36,95.77z"/>
	<path class="st6" d="M107.09,102c-0.52,0.52,0,1.04,0,1.56c26.47,18.69,42.04,9.86,53.98,3.11l3.63-2.08
		c0.52-0.52,0.52-1.04,0.52-1.56c-0.52-0.52-1.04-0.52-1.56-0.52l-3.63,2.08c-12.46,7.27-25.95,15.05-51.9-2.6
		C108.13,100.96,107.61,101.48,107.09,102L107.09,102z"/>
	<path class="st6" d="M102.94,139.37c-0.52,0.52-0.52,1.04-0.52,1.56c0.52,0.52,1.04,0.52,1.56,0.52c5.71-3.11,34.78-17.65,66.44,0
		c0.52,0.52,1.04,0,1.56-0.52c0.52-0.52,0-1.04-0.52-1.56C138.76,121.2,108.65,136.26,102.94,139.37L102.94,139.37z"/>
	<path class="st6" d="M107.61,149.23c-0.52,0-0.52,1.04-0.52,1.56c0,0.52,1.04,0.52,1.56,0.52c28.03-12.98,30.1-11.94,53.98-1.56
		l1.56,0.52c0.52,0,1.04,0,1.56-0.52c0-0.52,0-1.04-0.52-1.56l-1.56-0.52C139.27,136.77,136.68,135.74,107.61,149.23L107.61,149.23z
		"/>
	<path class="st6" d="M147.06,93.69c9.86,5.71,20.24,19.2,20.24,34.26c0,12.46-7.27,23.36-21.8,31.66l1.04,1.56
		c18.69-10.9,22.84-23.88,22.84-33.22c0-15.57-10.9-30.1-21.28-36.33L147.06,93.69L147.06,93.69z"/>
	<path class="st6" d="M143.43,95.25c8.82,8.3,14.01,19.2,14.01,30.62c0,11.94-5.19,23.36-14.01,32.18l1.56,1.56
		c9.34-9.34,15.05-21.28,14.53-33.74c0-11.94-5.19-23.36-14.53-32.18L143.43,95.25L143.43,95.25z"/>
	<path class="st6" d="M140.83,95.77c12.46,18.69,9.86,48.79-0.52,61.25l1.56,1.56c11.42-12.98,14.01-43.6,1.04-63.84L140.83,95.77
		L140.83,95.77z"/>
	<path class="st6" d="M132.53,158.06l1.56-1.04c-5.71-8.82-18.17-32.7-1.56-61.25l-1.56-1.04
		C113.84,124.84,126.3,149.23,132.53,158.06L132.53,158.06z"/>
	<path class="st6" d="M129.41,159.61l1.56-1.56c-19.2-20.24-19.2-43.08-0.52-62.8l-1.56-1.56
		C109.17,114.46,109.69,138.33,129.41,159.61L129.41,159.61z"/>
	<path class="st6" d="M105.02,126.39c-0.52,9.86,3.11,23.36,21.8,34.77l1.04-1.56c-14.01-8.31-21.28-19.72-20.76-32.7
		c0.52-15.57,12.46-29.07,20.24-33.22l-1.04-2.08C116.96,96.29,105.54,110.82,105.02,126.39L105.02,126.39z"/>
	<polygon class="st7" points="136.68,147.16 136.68,157.02 136.68,147.16 	"/>
	<polygon class="st6" points="135.64,147.16 137.2,147.16 137.2,157.02 135.64,157.02 135.64,147.16 	"/>
	<path class="st6" d="M135.64,122.76v31.14c0,0.52,0.52,1.04,1.04,1.04s1.04-0.52,1.04-1.04v-31.14c0-0.52-0.52-1.04-1.04-1.04
		S135.64,122.24,135.64,122.76L135.64,122.76z"/>
	<path class="st3" d="M174.57,138.85c32.7,18.69,26.47,28.55-41.52-12.46c-31.14-18.69-84.08-53.98-25.43-25.43l1.04-1.56
		c-66.44-30.1-6.75,9.86,22.32,28.03c73.7,45.67,80.45,30.1,44.12,9.34L174.57,138.85L174.57,138.85z"/>
	<path class="st3" d="M166.78,100.96c38.41-22.32,40.49-9.34-29.59,28.55c-32.18,17.13-91.35,45.67-36.85,10.38l-1.04-2.08
		c-59.17,41.52,7.79,9.34,37.89-6.75c76.82-40.49,68.51-55.54,28.03-31.66L166.78,100.96L166.78,100.96z"/>
	<polygon class="st4" points="117.99,120.17 115.4,120.17 104.5,141.45 104.5,141.45 122.67,141.45 133.05,141.45 133.57,141.96 
		133.05,142.48 133.57,142.48 139.27,142.48 139.79,142.48 139.27,141.45 157.44,141.45 168.86,141.45 168.86,141.45 168.86,140.93 
		157.44,120.17 149.14,120.17 117.99,120.17 	"/>
	<path class="st4" d="M117.99,120.68c0,0,38.93,0,39.45,0c0,0.52,10.9,20.76,10.9,20.76l0,0l0,0h-10.9h-18.17v0.52v0.52l0,0h-5.71
		v-0.52l-0.52-0.52h-10.38c0,0-17.65,0-18.17,0l0,0c0,0,10.9-20.24,10.9-20.76C115.92,120.68,117.99,120.68,117.99,120.68
		L117.99,120.68z M149.14,119.65H115.4h-0.52l-10.9,21.28v0.52l0.52,0.52h29.07v0.52l0.52,0.52h6.23l0.52-0.52v-0.52l0,0
		c1.04,0,28.55,0,28.55,0l0.52-0.52v-0.52l-0.52-0.52l-10.9-20.76h-0.52H149.14L149.14,119.65L149.14,119.65z"/>
	<polygon class="st4" points="104.5,141.45 104.5,141.96 104.5,141.96 104.5,142.48 133.05,142.48 133.57,142.48 133.05,142.48 
		132.53,142.48 132.53,142.48 132.53,143 133.05,143 133.57,143.52 139.27,143.52 139.27,143.52 139.79,143 140.31,143 140.31,143 
		140.31,142.48 139.79,142.48 139.79,142.48 139.79,142.48 168.86,142.48 168.86,141.96 168.86,141.96 168.86,141.96 168.86,141.45 
		168.86,141.45 168.86,141.45 139.27,141.45 139.27,141.45 139.27,141.96 139.27,141.96 139.27,142.48 139.27,142.48 139.27,142.48 
		134.08,142.48 134.08,142.48 133.57,142.48 134.08,141.96 134.08,141.96 134.08,141.45 133.57,141.45 133.57,141.45 105.02,141.45 
		104.5,141.45 104.5,141.45 104.5,141.45 	"/>
	<path class="st4" d="M104.5,141.96C105.02,141.96,105.02,141.96,104.5,141.96c0.52,0,29.07,0,29.07,0l0,0h-0.52v0.52h5.19
		l0.52-0.52l0,0c0,0,28.55,0,29.07,0l0,0l0,0c-0.52,0-28.55,0-28.55,0l-0.52,0.52V143l0,0l-0.52,0.52h-5.71l0,0l0.52-0.52v-0.52
		L104.5,141.96L104.5,141.96L104.5,141.96z M168.34,141.45h-29.58l-0.52,0.52v0.52c-0.52,0-4.15,0-4.67,0v-0.52l-0.52-0.52H104.5
		l0,0l0,0h-0.52v0.52l0.52,0.52c0,0,26.99,0,28.03,0l0,0V143l0.52,0.52h0.52l0.52,0.52h6.23l0.52-0.52h0.52V143l0,0
		c1.04,0,28.03,0,28.03,0l0.52-0.52l0,0l0,0l0.52-0.52v-0.52H168.34L168.34,141.45L168.34,141.45z"/>
	<polygon class="st3" points="118.51,119.13 116.44,120.17 106.58,140.41 111.25,140.41 115.4,139.89 120.59,139.37 125.78,138.33 
		128.38,137.81 130.45,138.33 132.53,138.85 133.57,139.89 134.08,141.45 134.6,141.96 138.76,141.96 138.76,141.96 139.27,140.41 
		139.79,138.85 141.35,137.81 142.91,137.29 144.98,137.29 148.1,137.81 151.21,138.85 156.92,139.89 162.11,140.41 166.27,140.41 
		156.4,120.68 154.33,119.13 137.2,129.51 118.51,119.13 	"/>
	<path class="st4" d="M116.44,120.17c0,0,1.56-0.52,2.08-1.04c0.52,0,18.17,10.38,18.17,10.38h0.52l17.13-10.38
		c0.52,0,2.08,1.04,2.08,1.04s8.82,18.17,9.34,19.2c-1.04,0-3.63,0-3.63,0l-5.19-0.52l-5.71-0.52l-3.11-1.04l-3.12-0.52h-2.08
		l-2.08,0.52l-1.56,1.04l-1.04,1.56c0,0,0,1.04-0.52,1.56c-0.52,0-3.63,0-3.63,0l-1.04-2.08l-1.04-1.04l-1.56-0.52l-1.56-0.52
		l-3.11,0.52l-5.19,1.04l-5.19,0.52l-4.15,0.52c0,0-3.11,0-4.15,0C107.61,138.85,116.44,120.17,116.44,120.17L116.44,120.17z
		 M116.44,120.17l-9.86,20.24l0.52,0.52h4.67l4.15-0.52l5.19-0.52l5.19-1.04l2.6-0.52l1.56,0.52l2.08,0.52l1.04,1.04l0.52,1.56
		l0.52,0.52h0.52h4.15h0.52l0.52-1.56l0.52-1.56l1.56-1.04l1.56-0.52h2.08l2.6,0.52l3.11,1.04l5.71,1.04l5.19,0.52h4.15l0.52-0.52
		l-9.86-19.72l-2.08-1.56h-0.52l-17.13,10.38c-0.52,0-18.17-10.38-18.17-10.38h-0.52L116.44,120.17L116.44,120.17z"/>
	<polygon class="st4" points="136.16,119.13 136.68,119.13 136.68,139.37 136.16,139.37 136.16,119.13 	"/>
	<polygon class="st4" points="106.7,139.89 110.27,137.77 110.54,138.22 106.96,140.33 106.7,139.89 	"/>
	<polygon class="st4" points="162.63,138.85 166.27,140.41 166.27,139.89 163.15,138.33 162.63,138.85 	"/>
	<polygon class="st4" points="117.99,119.13 109.69,138.33 112.8,138.33 116.96,137.29 121.11,136.77 125.26,135.74 127.86,135.22 
		129.41,135.22 131.49,135.74 133.05,136.26 134.6,136.77 135.12,137.81 136.16,138.85 136.68,139.89 137.2,138.85 138.24,137.29 
		139.27,136.26 140.83,135.74 142.91,135.22 144.47,135.22 146.02,135.22 149.66,135.74 155.36,137.29 160.04,138.33 162.63,138.33 
		163.15,138.85 154.85,119.65 152.25,119.13 149.66,119.13 147.58,118.61 146.02,118.09 143.95,117.57 142.91,117.05 141.35,117.05 
		139.79,117.05 138.76,117.05 138.24,117.57 137.72,118.09 137.2,118.61 136.68,119.13 136.68,119.13 136.16,118.61 136.16,118.09 
		135.12,117.57 135.12,117.57 133.57,117.05 132.53,116.53 130.45,116.53 128.89,117.57 126.82,117.57 125.78,118.09 124.22,118.61 
		122.67,118.61 120.07,119.13 119.03,119.13 117.99,119.13 	"/>
	<path class="st4" d="M119.03,119.65h1.04l2.08-0.52l1.56-0.52l1.56-0.52l1.56-0.52l1.56-0.52l2.08-0.52h2.08l1.04,0.52l1.04,0.52
		v0.52l1.04,0.52v0.52l0.52,0.52h0.52l0.52-0.52h0.52l0.52-1.04h0.52h1.04h2.6l1.56,0.52l1.56,0.52l1.56,0.52l2.59,0.52h2.6
		l2.08,0.52c0,0.52,7.27,17.13,8.31,18.17l-3.11-0.52l-4.67-0.52l-5.19-1.56l-3.63-0.52h-3.63l-1.56-0.52l-2.08,0.52l-1.04,1.04
		l-1.04,1.56v0.52c0-0.52-0.52-0.52-0.52-0.52l-0.52-0.52l-1.04-1.04l-1.56-0.52l-1.56-0.52l-2.08-0.52h-2.08h-2.08l-4.15,1.04
		l-4.15,0.52l-4.15,0.52c0,0-1.56,0-2.08,0.52C110.73,137.29,117.99,119.65,119.03,119.65
		C118.51,119.65,119.03,119.65,119.03,119.65L119.03,119.65z M128.89,117.05l-1.56,0.52l-1.56,0.52l-1.56,0.52l-1.56,0.52l-2.6-0.52
		h-2.08h-0.52l-7.79,19.72l0.52,0.52l2.6-0.52l4.15-0.52l4.15-0.52l4.15-1.04l2.6-0.52h1.56l1.56,0.52l1.56,0.52l1.56,0.52
		l0.52,0.52l0.52,1.04l0.52,1.04h0.52l0.52-1.04l1.04-1.56l1.04-1.04l1.56-0.52l1.56-0.52h3.63l3.63,0.52l5.19,1.56l4.67,0.52
		l3.11,0.52l0.52,0.52l0.52-0.52l-8.3-19.2l0,0l-2.59-0.52h-2.6l-2.59-0.52l-1.04-0.52l-1.56-0.52l-1.56-0.52h-1.56h-2.6l-1.04,0.52
		l-0.52,1.04h-0.52c0,0,0,0-0.52,0.52l0,0l-0.52-0.52v-0.52l-0.52-0.52l-1.04-0.52l-1.04-0.52h-2.08L128.89,117.05L128.89,117.05z"
		/>
	<polygon class="st8" points="118.51,119.13 109.69,138.33 113.32,137.81 117.48,136.77 121.11,136.26 125.26,135.22 128.38,134.7 
		129.41,134.7 131.49,135.22 133.05,135.74 134.6,136.77 135.12,137.29 136.16,138.33 136.68,139.37 137.2,138.33 138.24,136.77 
		139.27,135.74 140.83,135.22 142.91,134.7 144.47,134.7 146.02,134.7 149.66,135.74 155.36,136.77 159.52,137.81 162.11,138.33 
		163.15,138.33 154.85,119.13 151.73,119.13 149.66,118.61 147.58,118.09 146.02,117.57 143.95,117.05 142.91,117.05 141.35,116.53 
		139.79,116.53 138.76,117.05 138.24,117.57 137.72,117.57 137.2,118.61 136.68,118.61 136.68,119.13 136.16,118.61 136.16,117.57 
		135.64,117.57 135.12,117.05 133.57,116.53 133.05,116.53 130.45,116.53 128.89,117.05 126.82,117.57 125.78,118.09 124.74,118.61 
		122.67,118.61 120.07,118.61 119.03,119.13 118.51,119.13 	"/>
	<path class="st4" d="M137.2,119.13L137.2,119.13L137.2,119.13l1.56-1.56l0.52-0.52l1.04-0.52h1.56l1.56,0.52h1.56l1.56,0.52
		l1.56,0.52l2.08,0.52l2.6,0.52c0,0,2.08,0,2.6,0c0,0.52,7.27,17.13,7.79,18.17l-3.11-0.52h-4.67l-5.71-1.56l-3.63-0.52h-3.11
		l-2.08,0.52l-1.56,0.52l-1.56,1.04l-1.04,1.56c0,0,0,0,0,0.52c0-0.52-0.52-0.52-0.52-0.52l-0.52-1.04l-0.52-0.52l-1.56-0.52
		l-1.56-0.52l-2.08-0.52h-1.56l-3.11-0.52l-4.15,1.04l-3.63,1.04l-4.15,0.52c0,0-2.08,0-2.59,0.52c0.52-1.04,8.3-17.65,8.3-18.17
		l0,0l1.56-0.52l2.6-0.52h1.56l1.04-0.52l1.56-0.52l2.08-0.52l1.56-0.52h3.11l1.04,0.52l0.52,0.52l0.52,0.52l0.52,0.52L137.2,119.13
		L137.2,119.13L137.2,119.13z M138.76,116.53l-0.52,0.52l-0.52,0.52c0,0-1.04,0.52-1.04,1.04l-0.52-0.52l-0.52-1.04l-1.04-0.52
		l-1.04-0.52h-1.04h-2.08l-2.08,0.52l-2.08,0.52l-1.56,0.52l-1.04,0.52h-1.56l-2.08,0.52l-1.56,0.52h-0.52l-8.31,18.69l0.52,0.52
		l3.11-0.52l4.15-0.52l4.15-0.52l4.15-1.04l2.6-0.52h1.56l2.08,0.52l1.56,0.52l1.56,0.52l1.56,1.56l0.52,1.56h0.52l0.52-1.04
		l1.04-1.56l1.04-1.04l1.56-0.52l2.08-0.52h2.08l3.63,0.52l5.71,1.56l4.15,0.52l3.11,0.52l0.52,0.52l0.52-0.52l-8.31-19.2h-0.52
		h-3.11l-2.6-0.52l-2.08-0.52l-1.04-0.52l-1.56-0.52h-1.56l-1.56-0.52h-1.56H138.76L138.76,116.53z"/>
	<polygon class="st4" points="136.16,119.13 136.68,119.13 136.68,139.37 136.16,139.37 136.16,119.13 	"/>
	<path class="st3" d="M57.79,66.7h-3.63v-7.27h3.63v1.04l0,0h-1.56v4.67h1.56l0,0V66.7L57.79,66.7z M65.05,63.07v1.04
		c-0.52,0-0.52,0-0.52,0c-0.52,0-0.52,0.52-0.52,0.52c0,0.52,0,0.52,0.52,0.52c0,0,0,0,0.52,0v1.04c-0.52,0-0.52,0-1.04,0
		c-1.56,0-2.08-0.52-2.08-1.56c0-1.04,0.52-1.56,2.08-1.56C64.53,63.07,64.53,63.07,65.05,63.07L65.05,63.07z M65.05,60.48v1.04
		c-0.52,0.52-1.04,0.52-1.04,1.04h-1.56c0-0.52,0.52-1.04,0.52-1.56C63.5,61,64.01,60.48,65.05,60.48L65.05,60.48L65.05,60.48z
		 M61.42,62.55c0,1.04-0.52,2.08-0.52,2.6c-0.52,0.52-1.56,1.04-2.6,1.04h-0.52v-1.04c0.52,0,0.52-0.52,1.04-0.52
		c0.52-0.52,0.52-1.04,0.52-1.56c0-0.52,0-1.56-0.52-1.56C58.3,61,58.3,61,57.79,61v-1.56h0.52c1.04,0,1.56,0,2.6,0.52
		C60.9,60.48,61.42,61.51,61.42,62.55L61.42,62.55L61.42,62.55z M76.47,59.96C75.95,59.96,75.95,59.96,76.47,59.96
		c-0.52,0-0.52,0-0.52,0c-0.52,0-0.52,0-0.52,0.52c-0.52,0-0.52,0-0.52,0.52v0.52h1.04v1.04h-1.04v4.67h-1.56v-5.19h-0.52V61h0.52
		v-0.52c0-1.04,0.52-1.56,1.56-1.56c0.52,0,0.52,0,1.56,0V59.96L76.47,59.96z M72.32,59.96L72.32,59.96
		C71.8,59.96,71.8,59.96,72.32,59.96c-0.52,0-0.52,0-0.52,0.52c-0.52,0-0.52,0-0.52,0.52v0.52h1.04v1.04h-1.04v4.67h-1.56v-5.19
		H69.2V61h0.52v-0.52c0-1.04,0.52-1.56,1.56-1.56c0.52,0,0.52,0,1.04,0V59.96L72.32,59.96L72.32,59.96z M65.05,66.7v-1.04
		c0,0,0.52,0,0.52-0.52l0.52-0.52v-1.04h-0.52l-0.52,0.52v-1.04h0.52c0.52,0,0.52,0,0.52-0.52c0.52,0,0.52,0,0.52-0.52
		c0-0.52-0.52-0.52-1.04-0.52l0,0v-1.04l0,0c1.04,0,1.56,0.52,2.08,0.52c0.52,0,0.52,0.52,0.52,1.56v2.6c0,0.52,0,0.52,0,0.52
		s0.52,0.52,0.52,0c0,0.52,0,0.52,0,0.52h-0.52c-0.52,0-1.04,0-1.04,0c-0.52,0-0.52-0.52-0.52-0.52l0,0l0,0
		C65.57,66.19,65.57,66.7,65.05,66.7L65.05,66.7L65.05,66.7z M79.59,60.48v1.56c-0.52,0-1.04,0.52-1.04,1.56
		c0,1.04,0.52,1.56,1.04,1.56v1.04c-2.08,0-3.11-1.04-3.11-2.6C76.47,61.51,77.51,60.48,79.59,60.48L79.59,60.48L79.59,60.48z
		 M79.59,66.7v-1.04l0,0c0.52,0,1.56-0.52,1.56-1.56c0-1.56-0.52-1.56-1.56-1.56l0,0v-2.08l0,0c2.08,0,3.11,1.04,3.11,3.11
		C82.7,65.67,81.66,66.7,79.59,66.7L79.59,66.7L79.59,66.7z M86.33,61v1.04l0,0c-0.52,0-1.04,0.52-1.04,1.56
		c0,1.04,0.52,1.56,1.04,1.56l0,0v1.56h-0.52c-1.04,0-1.56-0.52-2.08-0.52c0-1.04,0-1.56,0-2.6c0-1.04,0-1.56,0.52-2.08
		C84.78,61,84.78,60.48,86.33,61C85.81,60.48,86.33,60.48,86.33,61L86.33,61L86.33,61z M112.8,66.7c-0.52,0-1.04,0-1.56,0
		c-0.52,0-0.52,0-1.04-0.52c-0.52,0-0.52-0.52-0.52-1.04v-3.11h-1.04V61h1.04v-1.56h1.56V61h1.04v1.04h-1.04v2.6
		c0,0.52,0,0.52,0,0.52h0.52c0.52,0,0.52,0,0.52,0v1.56H112.8L112.8,66.7z M108.13,66.7h-1.56v-3.63c0-0.52,0-1.04-0.52-1.04
		c-0.52,0-0.52,0-0.52,0.52c-1.04,0-1.04,0-1.04,0.52v3.63h-1.56V61h1.56v0.52l0,0c0.52-0.52,0.52-1.04,1.56-1.04
		c0.52,0,1.04,0.52,1.56,0.52c0.52,0,0.52,0.52,0.52,1.04V66.7L108.13,66.7L108.13,66.7z M101.39,66.7h-1.56v-7.27h1.56V66.7
		L101.39,66.7L101.39,66.7z M95.16,66.7H93.6v-7.79h1.56V66.7L95.16,66.7L95.16,66.7z M92.56,66.7H91V61h1.56V66.7L92.56,66.7
		L92.56,66.7z M92.56,60.48H91v-1.56h1.56V60.48L92.56,60.48L92.56,60.48z M86.33,66.7v-1.56c1.04,0,1.56-0.52,1.56-1.56
		c0-1.04-0.52-1.56-1.56-1.56V61c0.52,0,1.04,0.52,1.56,0.52l0,0v-2.6h1.56v7.79h-1.56v-0.52l0,0C87.37,66.19,87.37,66.7,86.33,66.7
		L86.33,66.7L86.33,66.7z M116.44,60.48v1.04c-0.52,0-1.04,0.52-1.56,1.56h1.56v1.04h-1.56c0,1.04,0.52,1.56,1.56,1.56v1.04
		c-2.08,0-3.11-1.04-3.11-2.6c0-1.04,0.52-1.56,0.52-2.08C114.36,61,115.4,60.48,116.44,60.48L116.44,60.48L116.44,60.48
		L116.44,60.48z M130.45,66.7h-1.56v-3.63c0-0.52-0.52-1.04-0.52-1.04c-0.52,0-0.52,0-0.52,0.52c-0.52,0.52-0.52,0.52-0.52,0.52
		v3.63h-1.56V61h1.56v0.52l0,0c0-0.52,0.52-1.04,1.56-1.04c0.52,0,1.04,0.52,1.56,0.52c0,0.52,0,1.04,0,1.56V66.7L130.45,66.7z
		 M124.22,62.55c-0.52,0-0.52,0-0.52,0c-0.52,0-1.04,0-1.04,0.52c-0.52,0.52-0.52,0.52-0.52,1.04v2.6h-2.08V61h2.08v1.04l0,0
		c0.52-0.52,0.52-1.56,1.56-1.56c0.52,0,0.52,0,0.52,0.52V62.55L124.22,62.55L124.22,62.55z M116.44,64.11v-1.04h1.04
		c0-0.52,0-0.52,0-0.52c-0.52-0.52-0.52-0.52-1.04-0.52l0,0v-1.56c1.04,0,1.56,0.52,2.08,1.04c0.52,0.52,0.52,1.56,0.52,2.6H116.44
		L116.44,64.11L116.44,64.11z M116.44,66.7v-1.04l0,0c0.52,0,0.52,0,0.52-0.52c0.52,0,0.52-0.52,0.52-0.52h1.56
		c0,0.52-0.52,0.52-0.52,1.04C117.99,66.7,117.48,66.7,116.44,66.7L116.44,66.7L116.44,66.7L116.44,66.7z M134.08,63.07v1.04
		c-0.52,0-0.52,0-0.52,0c-0.52,0-0.52,0.52-0.52,0.52c0,0.52,0,0.52,0.52,0.52h0.52v1.04c-0.52,0-0.52,0-1.04,0
		c-1.56,0-2.08-0.52-2.08-1.56c0-1.04,0.52-1.56,2.08-1.56C133.57,63.07,133.57,63.07,134.08,63.07L134.08,63.07L134.08,63.07z
		 M134.08,60.48v1.04c-0.52,0.52-1.04,0.52-1.04,1.04h-1.56c0-0.52,0.52-1.04,0.52-1.56C132.53,61,133.05,60.48,134.08,60.48
		L134.08,60.48L134.08,60.48z M143.95,66.7h-1.56V61h1.56V66.7L143.95,66.7z M143.95,60.48h-1.56v-1.56h1.56V60.48L143.95,60.48
		L143.95,60.48z M141.35,66.7c-0.52,0-0.52,0-1.04,0c-0.52,0-1.04,0-1.56-0.52c0,0-0.52-0.52-0.52-1.04v-3.11h-0.52V61h0.52v-1.56
		h1.56V61h1.04v1.04h-1.04v2.6c0,0.52,0,0.52,0.52,0.52c0,0,0,0,0.52,0h0.52V66.7L141.35,66.7L141.35,66.7z M134.08,66.7v-1.04
		c0.52,0,0.52,0,0.52-0.52c0.52,0,0.52-0.52,0.52-0.52v-1.04h-0.52l-0.52,0.52v-1.04c0.52,0,0.52,0,0.52,0c0.52,0,0.52,0,0.52-0.52
		c0,0,0,0,0-0.52c0-0.52-0.52-0.52-1.04-0.52l0,0v-1.04l0,0c1.04,0,1.56,0.52,2.08,0.52c0.52,0,0.52,0.52,0.52,1.56v2.6
		c0,0.52,0,0.52,0,0.52c0.52,0,0.52,0.52,0.52,0c0,0.52,0,0.52,0,0.52h-0.52c-0.52,0-1.04,0-1.04,0c-0.52,0-0.52-0.52-0.52-0.52l0,0
		l0,0C135.12,66.19,134.6,66.7,134.08,66.7L134.08,66.7L134.08,66.7z M148.1,60.48v1.56c-1.04,0-1.56,0.52-1.56,1.56
		c0,1.04,0.52,1.56,1.56,1.56v1.04c-2.08,0-3.12-1.04-3.12-2.6C144.98,61.51,146.02,60.48,148.1,60.48L148.1,60.48L148.1,60.48z
		 M157.44,66.7h-1.56v-3.63c0-0.52-0.52-1.04-1.04-1.04c-0.52,0-0.52,0-0.52,0.52c-0.52,0.52-0.52,0.52-0.52,0.52v3.63h-1.56V61
		h1.56v0.52l0,0c0.52-0.52,1.04-1.04,1.56-1.04c0.52,0,1.04,0.52,1.56,0.52c0.52,0,0.52,0.52,0.52,1.04V66.7L157.44,66.7
		L157.44,66.7z M148.1,66.7v-1.04l0,0c0.52,0,1.04-0.52,1.04-1.56c0-1.56-0.52-1.56-1.04-1.56l0,0v-2.08l0,0
		c2.08,0,3.11,1.04,3.11,3.11C151.21,65.67,150.17,66.7,148.1,66.7L148.1,66.7L148.1,66.7L148.1,66.7z M161.08,63.07v1.04h-0.52
		c-0.52,0-0.52,0.52-0.52,0.52c0,0.52,0.52,0.52,0.52,0.52c0.52,0,0.52,0,0.52,0v1.04c-0.52,0-0.52,0-0.52,0
		c-1.56,0-2.08-0.52-2.08-1.56c0-1.04,0.52-1.56,1.56-1.56C160.56,63.07,161.08,63.07,161.08,63.07L161.08,63.07L161.08,63.07z
		 M161.08,60.48v1.04c-0.52,0.52-1.04,0.52-1.04,1.04h-1.56c0-0.52,0-1.04,0.52-1.56C160.04,61,160.56,60.48,161.08,60.48
		L161.08,60.48L161.08,60.48z M194.29,61l-2.08,5.71h-2.08L188.07,61h2.08l1.04,3.63l0,0l1.04-3.63H194.29L194.29,61z M187.55,66.7
		h-1.56V61h1.56V66.7L187.55,66.7L187.55,66.7z M187.55,60.48h-1.56v-1.56h1.56V60.48L187.55,60.48L187.55,60.48z M184.95,66.7
		h-1.56v-3.63c0-0.52-0.52-1.04-1.04-1.04c-0.52,0-0.52,0-0.52,0.52c-0.52,0.52-0.52,0.52-0.52,0.52v3.63h-1.56V61h1.56v0.52l0,0
		c0.52-0.52,1.04-1.04,1.56-1.04c0.52,0,1.04,0.52,1.56,0.52c0.52,0,0.52,0.52,0.52,1.04V66.7L184.95,66.7L184.95,66.7z
		 M178.2,63.59c0,1.04-0.52,1.56-0.52,2.08c-0.52,0.52-1.56,0.52-2.6,0.52s-1.56,0-2.6-0.52c-0.52-0.52-0.52-1.04-0.52-2.08v-4.15
		h1.56v4.67c0,0.52,0.52,1.04,1.56,1.04s1.56-0.52,1.56-1.04v-4.67h2.08v4.15H178.2L178.2,63.59z M167.3,66.7h-2.08v-7.79h2.08V66.7
		L167.3,66.7L167.3,66.7z M161.08,66.7v-1.04c0.52,0,0.52,0,0.52-0.52c0.52,0,0.52-0.52,0.52-0.52v-1.04h-0.52c0,0,0,0.52-0.52,0.52
		v-1.04c0.52,0,0.52,0,0.52,0c0.52,0,0.52,0,0.52-0.52c0,0,0,0,0-0.52c0-0.52-0.52-0.52-0.52-0.52c-0.52,0-0.52,0-0.52,0v-1.04h0.52
		c0.52,0,1.56,0.52,2.08,0.52c0.52,0,0.52,0.52,0.52,1.56v2.6c0,0.52,0,0.52,0.52,0.52c0,0,0,0.52,0,0c0,0.52,0,0.52,0,0.52h-0.52
		c-0.52,0-0.52,0-1.04,0l-0.52-0.52l0,0l0,0C162.11,66.19,161.59,66.7,161.08,66.7L161.08,66.7L161.08,66.7z M197.41,60.48v1.04
		c-0.52,0-1.04,0.52-1.04,1.56h1.04v1.04h-1.04c0,1.04,0.52,1.56,1.04,1.56v1.04c-2.08,0-3.11-1.04-3.11-2.6
		c0-1.04,0.52-1.56,0.52-2.08C195.85,61,196.37,60.48,197.41,60.48L197.41,60.48L197.41,60.48L197.41,60.48z M224.92,61l-2.08,5.71
		c-0.52,0.52-0.52,1.04-0.52,1.04c-0.52,0.52-0.52,0.52-1.56,0.52c-0.52,0-0.52,0-1.04,0v-1.04h0.52c0.52,0,0.52-0.52,0.52-1.04
		L218.69,61h2.08l1.04,3.63l0,0l1.04-3.63H224.92L224.92,61z M218.69,66.7c-0.52,0-1.04,0-1.56,0c-0.52,0-1.04,0-1.04-0.52
		c-0.52,0-0.52-0.52-0.52-1.04v-3.11h-1.04V61h1.04v-1.56h1.56V61h1.56v1.04h-1.04v2.6c0,0.52,0,0.52,0,0.52h0.52
		c0.52,0,0.52,0,0.52,0V66.7L218.69,66.7L218.69,66.7z M214.02,66.7h-1.56V61h1.56V66.7L214.02,66.7L214.02,66.7z M214.02,60.48
		h-1.56v-1.56h1.56V60.48L214.02,60.48L214.02,60.48z M211.42,65.15c0,1.04-1.04,1.56-2.6,1.56c-1.56,0-3.11-0.52-3.11-1.56h1.56
		c0,0.52,0.52,0.52,1.04,0.52c0.52,0,1.04-0.52,1.04-0.52l-0.52-0.52c-0.52,0-0.52,0-1.04-0.52c-1.04,0-1.56-0.52-1.56-0.52
		c-0.52-0.52-0.52-0.52-0.52-1.56c0-0.52,0.52-0.52,0.52-1.04c0.52-0.52,1.04-0.52,2.08-0.52c0.52,0,1.56,0.52,2.08,0.52
		c0.52,0.52,0.52,0.52,0.52,1.04h-1.56c0-0.52-0.52-0.52-0.52-0.52c-0.52,0-1.04,0-1.04,0.52c0,0.52,0.52,0.52,1.56,0.52
		c0.52,0,1.04,0.52,1.56,0.52C210.9,63.59,211.42,64.11,211.42,65.15L211.42,65.15L211.42,65.15z M205.19,62.55
		c-0.52,0-0.52,0-0.52,0c-0.52,0-0.52,0-1.04,0.52c-0.52,0-0.52,0.52-0.52,0.52v2.6h-1.56V61h1.56v1.04l0,0
		c0.52-0.52,1.04-1.56,1.56-1.56c0,0,0.52,0,0.52,0.52V62.55L205.19,62.55L205.19,62.55z M197.41,64.11v-1.04h1.04
		c0-0.52,0-0.52,0-0.52c-0.52-0.52-0.52-0.52-1.04-0.52l0,0v-1.56c1.04,0,1.56,0.52,2.6,1.04c0.52,0.52,0.52,1.56,0.52,2.6H197.41
		L197.41,64.11L197.41,64.11z M197.41,66.7v-1.04l0,0c0.52,0,0.52,0,0.52-0.52c0.52,0,0.52-0.52,0.52-0.52H200
		c0,0.52,0,0.52-0.52,1.04C199.48,66.7,198.45,66.7,197.41,66.7L197.41,66.7L197.41,66.7L197.41,66.7z"/>
	<path class="st7" d="M87.89,161.17l6.23,2.6v9.34l-7.79,16.61l2.59,1.04c2.08,1.04,3.63,1.56,5.19,1.56c0,0,0,0,0.52,0v8.82
		c-2.6-0.52-4.67-1.04-6.23-1.56l-15.05-6.75L87.89,161.17L87.89,161.17z M94.12,163.76l8.3,3.63c2.6,1.56,5.19,2.6,6.23,4.15
		c1.56,1.56,2.6,3.63,3.11,5.71c0.52,1.56,0.52,3.63,0.52,5.71c-0.52,2.59-1.04,4.67-2.08,6.75c-1.56,3.63-3.11,5.71-4.67,7.27
		c-1.56,1.56-3.63,2.6-5.71,3.63c-1.56,0.52-3.63,0.52-5.71,0.52l0,0v-8.82c1.04-0.52,1.56-0.52,3.11-1.56
		c0.52-1.04,1.56-2.6,3.11-5.19c1.56-3.63,1.56-5.71,1.56-7.78c-0.52-1.56-2.08-3.11-4.67-4.15l-2.6-1.56l-0.52,1.56V163.76
		L94.12,163.76z"/>
	<polygon class="st7" points="131.49,182.45 142.39,182.45 142.39,217.22 131.49,217.22 131.49,182.45 	"/>
	<path class="st7" d="M177.68,164.8l9.86-4.67l8.82,18.68c1.04,2.08,1.56,3.63,1.56,5.71c0,1.56,0,3.63-0.52,5.71
		c-0.52,1.56-1.56,3.11-2.6,4.67c-1.56,1.56-4.15,2.6-6.23,4.15c-1.56,0.52-3.63,1.56-5.19,1.56c-2.08,0.52-4.15,1.04-5.19,1.04
		c-1.56,0-3.11-0.52-4.67-1.04c-1.56-0.52-3.11-1.56-4.15-2.6c-1.56-1.56-2.6-3.63-3.63-4.67l-9.34-18.68l9.86-4.67l9.34,19.2
		c0.52,1.56,1.56,2.6,3.11,3.63c1.56,0.52,3.12,0.52,5.19-0.52c1.56-1.04,2.6-2.08,3.11-3.63c0.52-1.56,0.52-2.6-0.52-4.67
		L177.68,164.8L177.68,164.8z"/>
	<path class="st9" d="M135.64,241.62c6.23,0,11.94,5.19,11.94,11.94c0,6.75-5.71,11.94-11.94,11.94c-6.75,0-11.94-5.19-11.94-11.94
		C123.7,246.81,128.89,241.62,135.64,241.62L135.64,241.62z"/>
	<g>
		<defs>
			<rect id="SVGID_00000119083702862528982060000017750450511175116716_" x="12.23" y="22.57" width="920.66" height="254.87"/>
		</defs>
		<clipPath id="SVGID_00000018923438794846545130000014949275484658584450_">
			<use xlink:href="#SVGID_00000119083702862528982060000017750450511175116716_"  style="overflow:visible;"/>
		</clipPath>
		
			<path style="clip-path:url(#SVGID_00000018923438794846545130000014949275484658584450_);fill-rule:evenodd;clip-rule:evenodd;fill:#38B04A;" d="
			M443.57,180.81c-2.95,13.95-5.8,27.93-8.89,41.85c-3.76,16.9-14.71,26.28-32.02,28.18c-8.53,0.93-16.95,0.8-25.25-1.33
			c-10-2.55-15.26-10.22-14.21-20.49c1.35-13.15,4.96-25.87,7.44-38.81c1.21-6.34,2.75-12.62,3.92-18.97
			c0.43-2.35,1.44-3.1,3.76-2.99c2.81,0.13,5.64-0.11,8.47-0.19c1.65-1.06,3.29-1.44,4.89,0.08c4.77,0.38,4.77,0.38,3.16,5.86
			c0.75,2.32,0.16,4.39-1.19,6.31c-2.83,13.41-5.72,26.8-8.49,40.22c-1.86,9.01-0.51,12.88,5.03,15.14
			c7.02,2.87,16.23,0.35,20.3-5.58c2.42-3.53,3.31-7.59,4.16-11.69c2.53-12.23,5.16-24.45,7.73-36.68c0.14-0.65,0.06-1.34,0.08-2.01
			c-0.9-2.31,0.31-4.02,1.6-5.71c0.82-5.71,0.82-5.69,6.52-5.73c2.12-0.01,4.23-0.16,6.35-0.24c1.73-0.65,3.47-1.54,5.19,0.03
			c4.8-0.34,3.92,2.37,2.8,5.21C444.74,175.84,446.22,178.68,443.57,180.81L443.57,180.81z"/>
		
			<path style="clip-path:url(#SVGID_00000018923438794846545130000014949275484658584450_);fill-rule:evenodd;clip-rule:evenodd;fill:#0A519C;" d="
			M517.15,66.12c-3.14,2.42-6.77,1.08-10.08,0.97c-3.59-0.12-4.56,1.34-5.18,4.41c-3.44,17.01-7.08,33.98-10.53,51
			c-0.58,2.87-1.73,3.99-4.79,3.82c-5.24-0.28-10.51-0.24-15.75-0.02c-3.3,0.14-4.23-0.78-3.5-4.12
			c3.09-14.06,5.97-28.17,8.94-42.25c0.66-3.16,1.26-6.33,2.02-9.47c0.62-2.54-0.23-3.56-2.8-3.22c-0.13,0.02-0.27,0-0.4,0
			c-8.41-0.13-8.41-0.13-6.53-8.55c1.75-7.87,1.75-8.05,9.81-7.81c3.46,0.1,5.03-0.95,5.02-4.41c0-0.92,0.5-1.82,0.61-2.75
			c1.57-13.8,9.4-19.63,23.4-20.94c5.51-0.51,11.02,0.03,16.52,0.52c1.88,0.17,2.75,0.79,2.24,2.76c-0.27,1.04-0.45,2.1-0.7,3.15
			c-0.7,2.87-0.66,6.34-2.33,8.44c-1.85,2.34-5.55,0.61-8.42,0.98c-4.83,0.61-8.75,5.79-8.07,10.79c0.23,1.69,1.38,1.35,2.38,1.37
			c2.83,0.04,5.66,0.13,8.48-0.02c2.31-0.12,2.85,0.74,2.21,2.84c-0.58,1.91-1.26,3.82-0.99,5.88
			C518.24,61.71,519.28,64.29,517.15,66.12L517.15,66.12z"/>
		
			<path style="clip-path:url(#SVGID_00000018923438794846545130000014949275484658584450_);fill-rule:evenodd;clip-rule:evenodd;fill:#0A519C;" d="
			M519.63,61.31c0.67-2.84,1.39-5.67,2-8.52c0.42-1.95,1.81-1.95,3.38-2.03c3.05-0.15,6.76,1.28,8.97-0.65
			c2.2-1.92,1.71-5.77,2.35-8.78c2.26-10.59,7.97-16.01,18.54-18c7.28-1.37,14.48-0.24,21.72,0.02c1.35,0.05,2,0.67,1.69,2.06
			c-0.2,0.92-0.44,1.83-0.66,2.75c-0.79,3.27-0.69,7.26-2.61,9.59c-1.93,2.33-6.11,0.28-9.23,1.03c-1.23,0.25-2.32,0.84-3.43,1.37
			c-3.01,2.13-2.93,5.59-3.67,8.67c-0.43,1.81,0.79,1.97,2.13,1.97c2.83-0.01,5.66,0.08,8.49-0.03c2.11-0.08,3.11,0.53,2.4,2.79
			c-0.2,0.64-0.27,1.32-0.43,1.97c-0.9,3.77-0.7,8.62-3.03,11c-2.26,2.32-7.18,0.69-10.91,0.65c-2.71-0.03-2.98,1.59-3.38,3.53
			c-3.62,17.39-7.35,34.76-10.83,52.18c-0.56,2.79-1.75,3.46-4.31,3.4c-5.52-0.14-11.05-0.15-16.57,0c-2.81,0.08-3.73-0.41-3.04-3.6
			c3.31-15.25,6.33-30.56,9.45-45.84c0.22-1.96,0.75-3.86,1.15-5.78c0.55-2.67-0.1-4.08-3.14-3.72c-1.44,0.17-2.92,0.04-4.38,0.03
			c-4.1-0.03-4.59-0.71-3.41-4.69C519,62.16,519.26,61.7,519.63,61.31L519.63,61.31z"/>
	</g>
	<path class="st12" d="M751.2,250.82c-5.68,0.03-11.32-0.34-16.72-2.3c-7.49-2.74-10.94-8.57-9.83-16.04
		c0.3-2.01,1.03-2.76,3.07-2.71c4.71,0.11,9.44,0.11,14.15,0c1.95-0.05,2.81,0.55,3.25,2.57c0.98,4.47,3.12,5.93,8.12,6.16
		c5.67,0.27,9.91-1.73,11.3-5.32c1.18-3.06,0.02-5.06-3.88-6.08c-5.73-1.5-11.53-2.73-17.26-4.24c-5.58-1.47-11.36-3.24-12.46-9.92
		c-1.22-7.36,1.15-13.88,6.79-18.93c4.03-3.61,8.99-5.36,14.26-6.2c9.27-1.48,18.54-1.94,27.45,1.76c6.75,2.8,9.97,7.82,9.57,13.97
		c-0.13,2.03-0.83,2.89-2.92,2.85c-4.72-0.09-9.44-0.06-14.15-0.01c-1.54,0.02-2.48-0.22-2.62-2.11c-0.23-3.08-2.44-4.33-5.2-4.7
		c-3.5-0.48-6.98-0.5-10.31,0.96c-1.88,0.82-3.1,2.23-3.26,4.27c-0.16,2.1,1.47,3.08,3.02,3.9c5,2.63,10.6,2.94,16,3.95
		c3.06,0.58,6.06,1.34,8.93,2.5c5.94,2.41,8.67,7.63,7.46,14.02c-2.15,11.37-9.28,18.27-21.1,20.5
		C760.34,250.51,755.79,250.87,751.2,250.82L751.2,250.82z"/>
	<g>
		<defs>
			<rect id="SVGID_00000161597967096255536350000015968262374825623445_" x="12.23" y="22.57" width="920.66" height="254.87"/>
		</defs>
		<clipPath id="SVGID_00000054244551835383450740000000138474708367805631_">
			<use xlink:href="#SVGID_00000161597967096255536350000015968262374825623445_"  style="overflow:visible;"/>
		</clipPath>
		
			<path style="clip-path:url(#SVGID_00000054244551835383450740000000138474708367805631_);fill-rule:evenodd;clip-rule:evenodd;fill:#38B04A;" d="
			M470.91,195.83c7.38-7.86,15.82-9.23,24.86-8.44c9.43,0.83,14.87,7.53,13.12,16.58c-2.75,14.26-5.88,28.45-8.74,42.69
			c-0.41,2.06-1.46,2.62-3.33,2.59c-4.31-0.05-8.62-0.14-12.93,0.03c-2.86,0.12-3.39-0.84-2.8-3.55c2.47-11.3,4.82-22.63,7.06-33.98
			c1.47-7.47-1.7-10.68-9.26-9.66c-5.9,0.79-10.19,4.84-11.63,11.34c-2.35,10.64-4.63,21.29-6.77,31.98
			c-0.56,2.82-1.56,4.16-4.7,3.89c-3.61-0.31-7.3-0.38-10.89,0.01c-4.17,0.45-4.3-1.38-3.58-4.62c2.99-13.39,5.84-26.82,8.74-40.23
			c0.91-4.21,1.87-8.41,2.67-12.64c0.44-2.33,1.41-3.44,4-3.28c3.76,0.22,7.55,0.24,11.31,0.01c3.48-0.22,4.85,0.78,3.43,4.29
			C471.22,193.44,471.21,194.13,470.91,195.83L470.91,195.83z"/>
		
			<path style="clip-path:url(#SVGID_00000054244551835383450740000000138474708367805631_);fill-rule:evenodd;clip-rule:evenodd;fill:#38B04A;" d="
			M894.83,226.29c3-5.82,6.01-11.64,8.99-17.47c2.76-5.39,5.58-10.76,8.17-16.23c1.35-2.86,3-4.4,6.46-4.07
			c3.74,0.36,7.55,0.25,11.31,0.04c3.84-0.22,3.65,1.11,2.04,3.83c-8.98,15.19-17.85,30.44-26.76,45.66
			c-3.88,6.62-7.98,13.12-11.63,19.87c-5.28,9.75-13.23,14.15-24.25,13.11c-1.74-0.16-3.49-0.23-5.24-0.24
			c-3.09-0.02-4.65-1.03-3.34-4.42c0.48-1.24,0.7-2.61,0.83-3.94c0.42-4.01,1.25-6.34,6.58-5.35c6.2,1.14,12.84-6.84,11.75-13.08
			c-2.99-17.1-5.96-34.21-9.16-51.28c-0.62-3.3,0.01-4.37,3.41-4.17c4.03,0.25,8.09,0.23,12.12,0c2.88-0.16,4.05,0.71,4.31,3.7
			c0.88,10.19,2.02,20.36,3.06,30.54c0.11,1.04,0.21,2.08,0.32,3.12C894.14,226.04,894.49,226.16,894.83,226.29L894.83,226.29z"/>
	</g>
	<path class="st12" d="M572.62,230.33c2.16-4.39,4.34-8.76,6.46-13.16c4.07-8.5,8.18-16.98,12.1-25.55
		c1.06-2.32,2.46-3.15,4.95-3.06c4.71,0.17,9.43,0.12,14.15,0.02c2.56-0.05,2.69,0.81,1.55,2.82
		c-10.47,18.52-20.91,37.07-31.29,55.64c-0.92,1.65-2.06,2.24-3.88,2.22c-5.53-0.07-11.05-0.09-16.58,0
		c-2.14,0.04-3.01-0.62-3.33-2.9c-2.55-18.27-5.23-36.52-7.95-54.76c-0.36-2.42,0.43-3.1,2.74-3.04c4.45,0.12,8.91,0.29,13.34-0.04
		c3.72-0.27,4.84,1.03,4.96,4.68c0.38,11.57,1.12,23.13,1.73,34.69c0.04,0.75,0.16,1.49,0.24,2.24
		C572.08,230.21,572.35,230.27,572.62,230.33L572.62,230.33z"/>
	<path class="st14" d="M786.11,126.1c-2.35-1.06-0.84-2.83-0.58-4.14c4.72-22.93,9.54-45.84,14.34-68.76
		c1.77-8.43,3.58-16.85,5.28-25.29c0.51-2.55,1.36-3.92,4.43-3.74c5.51,0.32,11.05,0.23,16.57,0.03c3.17-0.12,3.53,1.11,2.94,3.84
		c-5.26,24.17-10.43,48.35-15.62,72.54c-0.09,0.39-0.09,0.8-0.14,1.2c-3.76-0.29-7.5-0.52-10.84,1.77
		c-6.35,4.65-8.66,11.79-11.55,18.58C790.04,124.25,789.69,127.18,786.11,126.1L786.11,126.1z"/>
	<path class="st12" d="M851.81,170.3c9.58,0,9.58,0,7.55,9.68c-1.69,8.05-1.7,8.14,6.53,8.57c2.25,0.12,2.88,0.92,2.37,2.95
		c-0.1,0.39-0.19,0.78-0.28,1.18c-1.92,8.8-1.91,8.88-10.73,9.25c-2.05,0.08-2.77,0.83-3.14,2.72c-1.74,8.84-3.65,17.64-5.39,26.48
		c-0.78,3.94,0.16,5.05,4.21,5.36c1.2,0.09,2.43,0.03,3.62-0.14c1.93-0.27,2.44,0.56,2.07,2.3c-0.59,2.76-1.15,5.53-1.72,8.3
		c-0.27,1.33-0.97,2.11-2.41,2.26c-6.57,0.7-13.16,1.08-19.7-0.05c-4.8-0.83-6.69-3.19-6.71-8.08c-0.03-6.93,2.34-13.48,3.5-20.22
		c0.9-5.16,2.07-10.28,3.26-15.39c0.63-2.68-0.17-3.55-2.95-3.55c-6.5-0.01-6.5-0.14-5.02-6.7c0.21-0.92,0.45-1.84,0.54-2.77
		c0.28-2.91,1.61-4.06,4.74-3.94c6.07,0.23,6.08,0.03,7.39-5.84c0.62-2.76,1.56-5.49,1.77-8.28c0.27-3.61,2.01-4.54,5.26-4.14
		C848.28,170.48,850.06,170.3,851.81,170.3L851.81,170.3z"/>
	<path class="st14" d="M757.7,126.24c-2.7,0-5.4-0.14-8.08,0.04c-2.86,0.19-3.8-0.61-3.14-3.66c3.62-16.57,7.06-33.18,10.55-49.78
		c1.33-6.32,2.74-12.63,3.91-18.98c0.42-2.28,1.3-3.17,3.69-3.11c5.93,0.15,11.86,0.12,17.79,0.02c2.47-0.04,2.92,0.8,2.42,3.14
		c-4.92,22.9-9.76,45.81-14.56,68.74c-0.54,2.6-1.49,4.03-4.51,3.67C763.12,125.99,760.4,126.24,757.7,126.24L757.7,126.24z"/>
	<path class="st12" d="M705.93,197.55c2.18-1.98,4.16-3.94,6.31-5.69c4.75-3.85,10.29-5.04,16.3-4.64c1.92,0.13,2.62,0.78,2.15,2.77
		c-1.02,4.33-2.04,8.66-2.77,13.04c-0.37,2.19-1.39,2.48-3.28,2.29c-2.13-0.21-4.24-0.52-6.43-0.28
		c-9.52,1.03-15.36,5.93-17.49,15.22c-1.92,8.4-3.71,16.83-5.32,25.29c-0.53,2.77-1.56,3.93-4.49,3.75
		c-4.03-0.24-8.09-0.15-12.13-0.03c-2.44,0.07-3.37-0.49-2.77-3.23c3.95-18.15,7.78-36.34,11.58-54.53
		c0.43-2.07,1.27-3.01,3.48-2.94c4.31,0.13,8.63,0.15,12.94,0c2.94-0.1,3.5,1,2.67,3.65C706.18,193.83,705.47,195.51,705.93,197.55
		L705.93,197.55z"/>
	<path class="st12" d="M799.75,249.24c-9.66,0-9.63,0.01-7.65-9.42c3.34-15.91,6.72-31.82,9.89-47.77c0.54-2.71,1.67-3.58,4.29-3.48
		c4.17,0.16,8.34,0.12,12.51,0.01c2.33-0.06,3.13,0.66,2.61,3.08c-3.92,18.26-7.79,36.54-11.59,54.82c-0.45,2.16-1.51,2.9-3.61,2.78
		C804.06,249.14,801.9,249.24,799.75,249.24L799.75,249.24z"/>
	<path class="st12" d="M520.49,249.24c-9.19,0-9.3-0.02-7.43-9.18c3.27-16.09,6.74-32.15,10-48.24c0.5-2.49,1.62-3.35,4.09-3.25
		c4.04,0.16,8.09,0.15,12.13,0.01c2.75-0.1,3.79,0.35,3.07,3.6c-3.9,17.47-7.67,34.97-11.14,52.53c-0.75,3.82-2.31,5-5.87,4.56
		C523.74,249.07,522.11,249.24,520.49,249.24L520.49,249.24z"/>
	<path class="st15" d="M373.34,106.59c2.88,2.01-0.84,2.57-0.86,3.94c-3.57,1.33-4.72,4.63-6.01,7.67
		c-3.54,8.35-4.97,17.31-7.12,26.06c-1.51,6.15-3.15,12.25-5.52,18.14c-5.41,13.46-15.01,20.56-29.87,20.11
		c-8.34-0.25-16.7-0.05-25.31-0.05c0.41-2.44,2.44-3.01,4.16-3.68c4.84-1.88,9.98-2.28,15.08-2.38c5.64-0.12,11.3-0.38,16.95,0.3
		c4.01,0.48,7.02-1.37,9.15-4.73c3.84-6.04,5.32-12.87,6.7-19.75c2.28-11.34,4.16-22.82,10.4-32.92c1.99-3.22,4.24-6.23,7.17-8.68
		c0.58-0.58,0.32-1.1-0.13-1.6c-0.45-0.66-1.54-1.33,0.01-1.97C369.87,106.96,371.65,107.27,373.34,106.59L373.34,106.59z"/>
	<path class="st16" d="M786.11,126.1c2.61-0.04,3.08-2.03,3.8-3.97c2.43-6.56,5.07-13.02,10.17-18.08c0.55-0.55,1.27-0.92,1.91-1.38
		c0.89,0.3,1.26,0.95,1.28,1.85c-2.13,5.16-5.34,9.88-6.43,15.48c-0.28,1.42-1.01,2.8-0.39,4.29c2.1,1.34,4.41,0.4,6.62,0.63
		c1.51,0.12,3.12-0.17,4.27,1.21c-3.3,0.89-6.67,0.27-10,0.35c-2.03,0.05-3.1,0.52-3.59,2.76c-3.25,14.85-6.77,29.64-13.25,43.52
		c-0.85,1.82-0.27,2.29,1.57,2.49c8.72,0.93,14.21,0.01,20.96-3.7c-0.39,2.63-3.24,5.86-6.98,7.7c-6.63,3.26-13.65,2.33-20.61,1.68
		c-2.3-0.22-1.35-1.81-0.91-3.02c5.81-15.83,8.84-32.41,13.17-48.64C788.22,127.32,787.69,126.63,786.11,126.1L786.11,126.1z"/>
	<path class="st15" d="M606.22,128.51c0.64-0.81,1.26-1.64,1.93-2.43c0.77-0.9,1.68-2,2.92-1.37c1.56,0.79,0.17,2.03,0.07,3.07
		c-1.71,5.38-3.12,10.84-4.43,16.33c-0.9,3.74,0.35,4.58,3.69,4.28c1.74-0.16,3.5-0.04,5.25-0.01c1.1,0.02,2.3,0.06,2.33,1.57
		c0.03,1.49-0.54,2.7-2.26,2.75c-2.69,0.07-5.38,0.08-8.08,0.04c-1.51-0.02-2.68,0.35-2.94,2.04c-1.06,6.97-3.67,13.39-7.51,20
		c6.82-0.14,13.22,1.54,18.64-3.17c0.61-0.53,1.4-1.1,2.08-0.23c0.62,0.79-0.04,1.57-0.53,2.15c-3.56,4.18-8.08,6.69-13.56,7.13
		c-3.08,0.25-6.19-0.02-9.28,0.11c-2.35,0.1-2.69-0.78-2.11-2.9c1.98-7.26,3.79-14.56,5.7-21.84c0.49-1.86,0.94-3.52-2-3.31
		c-1.27,0.09-1.98-0.59-1.95-1.97c0.03-1.45,0.64-2.51,2.12-2.31c3.16,0.42,3.66-1.67,4.4-3.97
		C602.41,139.11,604.36,133.82,606.22,128.51L606.22,128.51z"/>
	<path class="st15" d="M424.04,174.01c-0.53,1.9-1.07,3.81-1.6,5.71c-4.71,1.58-9.58,0.86-14.38,1.03
		c-2.45,0.09-2.45-1.04-1.92-3.04c1.91-7.25,3.57-14.57,5.45-21.84c0.47-1.82,0.84-3.19-1.78-3.15c-1.31,0.02-1.95-0.75-1.89-2.05
		c0.06-1.4,0.71-2.44,2.21-2.24c2.99,0.4,3.55-1.62,4.19-3.77c0.84-2.82,1.69-5.65,2.73-8.41c1.85-4.91,3.52-9.97,8.14-13.19
		c0.42,0.93,0.85,1.86,1.27,2.78c-3.69,5.05-4.16,11.2-5.57,16.99c-1.33,5.49-1.12,5.54,4.64,5.55c1.07,0,2.15-0.03,3.23,0.01
		c1.31,0.05,2.87-0.2,2.83,1.88c-0.04,1.93-1.27,2.48-2.96,2.48c-2.42,0-4.84,0.07-7.26-0.01c-1.78-0.06-2.73,0.65-3.08,2.41
		c-1.25,6.21-3.04,12.24-6.44,17.68c-0.59,0.94-0.77,2,0.69,1.95C416.38,174.64,420.32,175.76,424.04,174.01L424.04,174.01z"/>
	<path class="st17" d="M775.63,42.03c-2.95,0-5.91-0.1-8.86,0.03c-2.29,0.11-3.25-0.59-2.72-3c0.93-4.19,1.82-8.39,2.59-12.61
		c0.35-1.93,1.25-2.74,3.24-2.71c6.04,0.07,12.09,0.11,18.13-0.01c2.55-0.05,2.89,0.94,2.36,3.17c-0.96,4.04-1.78,8.12-2.47,12.22
		c-0.39,2.33-1.51,3.11-3.81,2.96C781.28,41.89,778.45,42.03,775.63,42.03L775.63,42.03z"/>
	<path class="st18" d="M706.51,151.96c2.18-2.13,4.78-3.43,7.8-3.9c6.38-0.97,10.15,3.16,8.58,9.45c-1.12,4.47-3.91,7.94-6.99,11.17
		c-1.66,1.74-3.6,3.22-5.14,5.3c6.49,1.32,12.56,1.55,18.01-3.3c0.79,2.77-0.79,3.82-1.96,4.94c-4.97,4.81-11.18,5.53-17.67,5.1
		c-1.67-0.11-4.02,0.95-4.85-0.75c-0.67-1.36,1.41-2.69,2.29-3.99c3.1-4.58,6.23-9.13,8.42-14.23c1.11-2.6,2.55-5.52,0.43-8
		c-2.28-2.66-5.2-0.83-7.84-0.08c-0.63,0.24-1.36,0.44-1.76-0.19C705.38,152.81,705.9,152.31,706.51,151.96L706.51,151.96z"/>
	<path class="st19" d="M326.47,126.01c6.32-4.95,12.59-9.95,20.16-13.01c3.36-1.36,6.74-2.54,10.3-3.2c0.64-0.87,1.78-0.2,2.5-0.83
		l-0.03,0.01c1.22-0.21,2.66-1.29,3.28,0.85c-2.73,0.83-5.46,1.66-8.18,2.49c-1.05,0.68-2.03,1.49-3.1,2.15
		c-3.26,1.52-6.27,3.47-9.23,5.51c-1.16,1.12-3.01,1.33-3.79,2.95c-2.18,0.88-3.84,2.41-5.29,4.2
		c-8.68,10.69-14.06,22.56-13.19,36.68c0.03,0.54,0.05,1.08,0.02,1.61c-0.01,0.26-0.15,0.51-0.27,0.9
		c-2.22-0.24-2.14-2.19-2.38-3.56c-2.14-11.92-0.17-23.01,6.96-33.01C325.07,128.57,326.38,127.64,326.47,126.01L326.47,126.01z"/>
	<path class="st15" d="M566.54,149.6c3.44-1.68,7.12-1.5,10.7-1.01c4.34,0.6,6.55,4.71,5.32,9.65c-1.2,4.84-2.92,9.52-5.21,13.96
		c-1.21,2.35-0.57,2.94,1.93,3.08c4.06,0.23,7.04-2.1,10.37-3.99c-0.19,3.85-5.42,9.09-9.81,9.9c-3.62,0.67-6.37-0.47-7.6-4.22
		c-1.2-0.86,0.94-4.12-2.45-3.41c-0.19,0.17-0.42,0.26-0.67,0.27c-1.26,0.31-1.35-0.61-1.53-1.44c0.1-1.76,1.39-2.85,2.37-4.1
		c2.62-3.34,4.29-7.13,5.04-11.27c0.84-4.62-0.47-5.91-5.1-5.26c-0.8,0.11-1.58,0.28-2.4,0.2
		C566.13,151.58,564.81,151.2,566.54,149.6L566.54,149.6z"/>
	<path class="st15" d="M750.17,149.59c3.43-1.72,7.12-1.48,10.7-0.98c4.03,0.56,6.31,4.52,5.37,8.91c-1.04,4.89-2.76,9.6-5.03,14.03
		c-1.76,3.43-0.34,3.82,2.65,3.69c3.54-0.15,6.3-2.06,9.19-4.07c0.02,3.67-5.92,9.49-10.01,10.18c-3.55,0.6-6.36-1.29-7.86-5.88
		c-0.79-2.41-1.57-2.38-3.06-0.77c-2.47-0.92-0.71-2.08-0.04-2.91c1.58-1.97,3.35-3.79,3.78-6.42c0.65-2.62,2.05-4.99,2.64-7.64
		c1.11-4.94-0.31-6.54-5.25-5.93c-0.94,0.12-1.87,0.26-2.81-0.01C749.22,151.19,748.72,150.5,750.17,149.59L750.17,149.59z"/>
	<path class="st20" d="M527.75,169.1c0.1-0.72,0.23-1.43,0.95-1.83c1.74-1.27,3.7-1.26,5.7-0.99c3.4,1.18,6.92,0.52,10.38,0.57
		c2.29,0.03,3.22,0.73,2.79,3.09c-0.69,3.78-2.05,7.37-2.88,11.1c-6.47,0.95-12.93,1.2-19.38-0.16
		C524.04,176.52,526.22,172.88,527.75,169.1L527.75,169.1z"/>
	<path class="st20" d="M814,181.66c-9.8,0-9.59,0.04-7.84-9.81c0.69-3.89,2.26-5.09,6.03-4.71c3.47,0.34,7.01,0.19,10.51,0.04
		c2.68-0.12,4.3,0.31,2.99,3.48c-0.2,0.48-0.16,1.06-0.27,1.59C823.6,181.66,823.6,181.66,814,181.66L814,181.66z"/>
	<path class="st21" d="M642.23,171.36c-1.2,6.04-9.89,11.51-15.1,10.15c-3.14-0.82-4.78-3.07-4.85-6.2
		c-0.19-8.63,2.52-16.7,5.12-24.76c0.96-2.99,3.88-2.38,5.89-1.81c2.51,0.71,0.67,2.7,0.22,3.94c-2.45,6.7-3.55,13.83-6.65,20.31
		c-0.98,2.04-0.05,2.5,1.89,2.66C633.82,176.08,638.32,174.88,642.23,171.36L642.23,171.36z"/>
	<path class="st15" d="M672.57,177.1c-5.8,6.36-19.05,6.8-24.94,0.82c-3.31-3.36-3.68-7.45-2.36-11.65
		c1.64-5.24,4.45-9.78,9.24-12.82c1.32-0.65,2.08-0.15,2.44,1.17c0.17,1.9-1.02,3.29-1.87,4.79c-1.42,2.49-2.48,5.08-2.48,8.01
		c-0.01,3.55,1.88,5.76,4.98,7.14c3.11,1.02,6.3,0.29,9.44,0.5c1.82,0.13,3.72-0.29,5.4,0.79
		C672.82,176.22,672.87,176.64,672.57,177.1L672.57,177.1z"/>
	<path class="st21" d="M750.17,149.59c-0.23,0.62-0.73,1.3,0.32,1.67c-0.1,1.73-1.58,2.4-2.67,3.31c-4.23,3.52-7.3,7.82-8.92,13.09
		c-1.32,4.31,0.64,6.81,5.15,6.67c4.01-0.12,6.55-2.64,8.96-5.45c1.05-1.22,1.44-3.28,3.66-3.18c0.01,2.79-2.08,4.38-3.51,6.38
		c-0.51,0.71-2.67,1-1.05,2.61c-3.8,4.56-8.28,7.6-14.58,6.44c-4-0.73-5.93-3.26-6.17-7.28
		C730.77,163.83,739.22,152.87,750.17,149.59L750.17,149.59z"/>
	<path class="st18" d="M566.54,149.6c-0.58,1.06-0.26,1.57,0.94,1.55c0.02,1.71-1.54,2.04-2.53,2.85
		c-4.69,3.86-8.34,8.43-9.73,14.47c-0.89,3.87,0.94,5.86,4.89,5.85c2.94,0,5.22-2.02,8.03-2.29c0.05,0.74,0.22,1.43,0.97,1.79
		c-6.47,7.94-12.22,9.57-19.3,5.48c-4.61-5.79-2.8-11.35,0.59-16.86C554.57,156.64,559.41,151.68,566.54,149.6L566.54,149.6z"/>
	<path class="st15" d="M374.79,157.44c1.41-2.17,3.3-3.76,5.65-4.83c0.6,0.12,0.98,0.47,1.12,1.07c-7.74,5.3-9.31,14.3-13.19,21.92
		c-1.08,2.12-1.07,5.2-4.68,5.19c-2.35-0.01-3.13-0.43-2.15-3.01c3.73-9.8,6.89-19.76,6.89-30.42c0-0.63-0.16-1.55,0.7-1.62
		c0.55-0.04,1.24,0.42,1.69,0.85c1.28,1.21,2.34,2.59,2.41,4.48c1.11,2.1-0.52,4.59,0.95,6.63c0.03,0.05,0.21,0.02,0.29-0.02
		C374.6,157.62,374.69,157.52,374.79,157.44L374.79,157.44z"/>
	<path class="st18" d="M442.1,168.07c-1.73-0.01-3.46-0.02-5.19-0.03c1.32-1.99,3.82-2.44,5.64-4.32c-3.46-2.51-3.91-5.88-2.21-9.48
		c1.83-3.87,5.09-5.83,9.39-5.85c4.18-0.02,8.36,0.08,12.53,0.15c0.78,0.01,1.69-0.07,2.12,0.81c0.52,1.05-0.17,1.8-0.82,2.49
		c-2.6,2.76-5.65,3.51-9.17,1.93c-1.72-0.77-3.35-1.85-5.15-2.3c-2.53-0.64-4.6,0.43-5.4,3c-0.81,2.57,1.37,3.24,3.07,3.92
		c2.51,1.01,5.16,1.49,7.88,1.6c0.97,0.04,1.96,0.23,2.2,1.36c0.23,1.07-0.53,1.75-1.27,2.36c-1.58,1.31-3.54,1.53-5.37,1.23
		C446.91,164.37,444.37,165.75,442.1,168.07L442.1,168.07z"/>
	<path class="st21" d="M516.46,160.92c-2.54,5.76-5.14,11.49-7.59,17.29c-0.81,1.9-2.03,2.59-4.02,2.57
		c-2.04-0.02-2.69-0.7-1.91-2.67c3.93-9.89,6.79-20.04,7.18-30.76c0.07-1.85,0.82-2.17,2.17-0.9c1.51,1.42,2.57,3.08,2.62,5.23
		c0.86,2.32-0.97,5.45,2.22,7.15C517.58,159.06,516.74,160.21,516.46,160.92L516.46,160.92z"/>
	<path class="st15" d="M700.05,160.85c-2.35,5.29-4.7,10.58-7.07,15.87c-0.38,0.86-0.72,1.75-1.2,2.56
		c-1.23,2.1-3.43,1.86-5.04,1.23c-1.96-0.77-0.21-2.35,0.18-3.37c3.47-9.1,6.23-18.35,6.66-28.18c0.05-1.08-0.54-2.81,0.99-3.12
		c1.23-0.25,2.02,1.18,2.67,2.17c0.73,1.12,1.43,2.31,1.24,3.75c1.13,2.2-1.23,5.56,2.37,7.02
		C701.13,158.89,700.47,160.18,700.05,160.85L700.05,160.85z"/>
	<path class="st18" d="M656.43,155.39c-0.08-1.21-0.73-1.85-1.93-1.94c6.06-5.48,13.31-6.01,20.77-4.46
		c4.89,1.02,7.6,5.07,7.59,10.09c-0.01,7.94-3.9,13.71-10.3,18.02c-0.01-0.28-0.02-0.56-0.03-0.84c-0.27-0.26-0.42-0.58-0.45-0.95
		c0.08-0.56,0.37-1.02,0.74-1.43c1.05-0.88,1.16-2.14,1.33-3.38c0.83-2.97,1.66-5.93,1.3-9.08c-0.89-7.91-8.13-11.63-15.04-7.71
		C659.16,154.43,658.06,155.56,656.43,155.39L656.43,155.39z"/>
	<path class="st22" d="M488.97,157.79c-0.07,0.47-0.15,0.94-0.22,1.41c-1.73,2.78-2.63,5.82-3.01,9.05
		c0.14,7.53,3.24,9.23,10.21,5.74c1.29-0.65,3-2.83,4.04-1.18c1,1.58-1.39,2.91-2.68,3.96c-3.02,2.46-6.05,4.95-10.3,4.93
		c-4.11-0.02-6.25-1.71-6.91-5.77c-0.84-5.21,0.64-9.91,3.66-14.06c1.54-2.12,2.68-4.64,5.07-6.08
		C489.46,156.41,489.35,157.09,488.97,157.79L488.97,157.79z"/>
	<path class="st15" d="M488.97,157.79c-0.05-0.67-0.09-1.34-0.14-2.01c0.37-0.99,0.09-1.44-1.03-1.41c-1.86,0.05-3.74,0.14-5.6-0.02
		c-2.46-0.23-3.83,0.57-4.78,3.03c-0.83,2.15-2.53,3.95-3.85,5.91c-1.4,0.01-1.43-0.68-0.87-1.68c0.06-0.62-0.02-1.31,0.69-1.67
		c0.99-1.75,2.05-3.49,0.89-5.58c-2.51-0.38-2.82-2.25-2.65-4.22c0.17-1.98,1.11-3.63,3.08-4.38c1.93-0.74,3.37-0.06,4.38,1.74
		c0.85,1.5,2.37,0.99,3.65,1.01c4.82,0.05,9.63,0.02,14.45,0.02c0.24,0.33,0.48,0.66,0.71,0.98
		C494.92,152.27,491.95,155.03,488.97,157.79L488.97,157.79z"/>
	<path class="st18" d="M381.57,153.67c-0.38-0.36-0.75-0.71-1.12-1.07c2.56-3.12,6.1-4.31,9.89-4.61c5.56-0.44,8.73,3.52,7.63,9.03
		c-0.88,4.43-4.19,7.41-6.3,11.11c-1.63-0.03-3.26-0.06-4.89-0.08c1.21-2.53,2.53-5.02,3.6-7.6c0.92-2.24,1.77-4.82-0.06-6.84
		c-1.75-1.93-4.21-1.11-6.42-0.46C383.13,153.37,382.34,153.5,381.57,153.67L381.57,153.67z"/>
	<path class="st18" d="M534.23,167.18c-1.84,0.03-3.68,0.05-5.52,0.08c1.04-2.16,2.16-4.29,3.09-6.5c2.61-6.24,0.94-8.57-5.66-8.03
		c-0.79,0.5-1.73,0.8-2.57,0.93c-2.42,0.38-1.83-0.7-0.74-1.86c2.23-2.06,4.87-3.24,7.84-3.71c6.4-1.02,9.96,2.83,8.73,9.2
		c-0.56,2.87-2.39,5.03-3.6,7.54C535.19,165.56,535.06,166.6,534.23,167.18L534.23,167.18z"/>
	<path class="st23" d="M802.78,104.22c-0.26-0.52-0.53-1.04-0.8-1.55c3.65-1.98,7.34-3.42,11.34-0.89
		c3.68,5.16,2.46,10.04-0.85,14.79c-1.06,1.52-2.12,3.03-3.18,4.54c-1.36,1.5-2.73,3-5.02,2.9c-0.62-0.19-0.99-0.61-1.1-1.25
		c0.06-1.62,1.29-2.57,2.16-3.72c1.36-1.83,2.53-3.73,3.09-5.99C809.76,107.6,808.12,104.98,802.78,104.22L802.78,104.22z"/>
	<path class="st24" d="M443.57,180.81c0.44-2.51,0.88-5.02,1.33-7.53c0.14,1.86,1.4,1.99,2.86,1.93c6.24-0.24,12.8,1.09,18.1-3.73
		c0.42-0.38,1.01-0.48,1.45-0.03c0.65,0.65,0.14,1.25-0.26,1.75c-3.46,4.28-7.1,8.12-13.39,7.62
		C450.33,180.55,446.94,180.79,443.57,180.81L443.57,180.81z"/>
	<path class="st25" d="M632.01,139.57c0.17-2.38,0.15-4.58,1.2-6.5c1.41-2.59,3.79-3.75,6.39-2.36c2.97,1.59,1.23,3.93-0.01,5.77
		c-1.11,1.65-2.52,3.12-3.88,4.59c-0.77,0.83-1.43,2.36-2.81,1.82C631.27,142.26,632.17,140.57,632.01,139.57L632.01,139.57z"/>
	<path class="st26" d="M393.64,180.31c0.4-2.11,0.79-4.21,1.19-6.32c3.63,1.55,5.68-2.26,9.47-2.83
		C402.49,176.85,397.88,178.38,393.64,180.31L393.64,180.31z"/>
	<path class="st27" d="M527.75,169.1c-0.81,3.93-1.62,7.85-2.43,11.78c-1.54-0.32-3.76,0.68-4.51-0.66
		c-0.97-1.72,1.29-2.9,2.15-4.29C524.42,173.58,526.14,171.37,527.75,169.1L527.75,169.1z"/>
	<path class="st28" d="M522.82,151.81c-0.09,0.77-0.86,2.04,1.04,1.28c0.69-0.28,1.51-0.24,2.27-0.34c-3.92,1.9-7.05,4.74-9.68,8.18
		c-0.29-3.12-2.84-5.86-1.53-9.24c1.2,1.55,0.47,3.5,0.91,5.36C518.76,155.81,519.93,152.64,522.82,151.81L522.82,151.81z"/>
	<path class="st29" d="M700.05,160.85c-0.98-2.95-2.53-5.8-1.56-9.08c1.09,1.52,0.25,3.37,0.85,5.27c3-0.95,4.1-4.49,7.17-5.07
		c-0.67,1.21-0.05,1.62,1.07,1.71C704.58,155.55,702.4,158.29,700.05,160.85L700.05,160.85z"/>
	<path class="st30" d="M341.6,119.51c2.88-2.58,6.14-4.5,9.82-5.71c0.5,0.92-0.5,1.27-0.73,1.92c-2.11,1.98-4.33,3.79-7.11,4.77
		C342.63,120.75,341.64,121.1,341.6,119.51L341.6,119.51z"/>
	<path class="st31" d="M804.43,123.66c1.71-0.68,2.92-2.32,4.86-2.54c-0.44,1.75,0.13,3.89-1.95,5.01c-1.5-0.1-3-0.19-4.49-0.29
		C802.58,124.53,803.45,124.06,804.43,123.66L804.43,123.66z"/>
	<path class="st32" d="M438.69,126.72c1.84-1.05,3.95-0.85,5.8-0.64c4.38,0.51,6.38-1.16,6.25-5.51c1.64,4.2,0.65,6.13-3.33,6.23
		C444.51,126.88,441.6,126.75,438.69,126.72L438.69,126.72z"/>
	<path class="st33" d="M362.69,109.83c-0.86-1.16-2.19-0.53-3.28-0.85c1.86-1.66,4.53-0.08,6.42-1.61c0.68-0.41,1.32-0.5,1.87,0.22
		c0.51,0.47,1.02,0.94,1.52,1.41c-1.22,1.03-2.8-0.05-4.07,0.69C364.33,109.74,363.51,109.79,362.69,109.83L362.69,109.83z"/>
	<path class="st34" d="M485.74,168.25c-0.31-3.45,0.4-6.57,3.01-9.05C487.75,162.21,486.74,165.23,485.74,168.25L485.74,168.25z"/>
	<path class="st35" d="M341.6,119.51c0.44,0.76,1.21,0.86,1.98,0.98c-1.54,1.22-3.25,2.06-5.19,2.44
		C337.92,120.34,340.5,120.62,341.6,119.51L341.6,119.51z"/>
	<path class="st36" d="M374.79,157.44c-0.77,1.11-1.42,0.66-1.5-0.33c-0.15-2.01-0.05-4.03-0.05-6.05
		C375.05,152.87,372.96,155.63,374.79,157.44L374.79,157.44z"/>
	<path class="st37" d="M367.7,107.59c-0.62-0.07-1.25-0.14-1.87-0.22c2.25-1.33,5.03-0.16,7.27-1.55c0.16,0.23,0.24,0.48,0.24,0.76
		C371.66,108.07,369.55,107.11,367.7,107.59L367.7,107.59z"/>
	<path class="st38" d="M350.7,115.72c0.24-0.64,0.48-1.28,0.73-1.92c0.82-0.94,1.87-1.38,3.08-1.48
		C353.49,113.74,352.36,115.02,350.7,115.72L350.7,115.72z"/>
	<path class="st39" d="M569.78,173.55c1.01-1.48,1.89-1.29,2.32,0.34c0.25,0.97,0.1,2.05,0.13,3.07
		C571.03,176.1,571.82,173.81,569.78,173.55L569.78,173.55z"/>
	<path class="st37" d="M474.28,154.36c1.87,2.2,0.88,3.95-0.89,5.58C473.59,158.07,474.84,156.36,474.28,154.36L474.28,154.36z"/>
	<path class="st40" d="M706.6,119.68c0.34-1.03,0.94-2.25,2.06-1.68c0.75,0.38,0.4,1.7-0.45,2.4
		C707.87,119.73,707.24,119.69,706.6,119.68L706.6,119.68z"/>
	<path class="st37" d="M365.16,109.69c1.21-1.12,2.71-0.5,4.07-0.69c0.76,1.19-0.23,1.32-0.97,1.6
		C367.57,109.13,366.17,110.07,365.16,109.69L365.16,109.69z"/>
	<path class="st37" d="M472.71,161.61c0.12,0.65,0.15,1.34,0.87,1.68c-0.16,0.92-0.97,1.75-1.58,1.22
		C470.71,163.41,472.02,162.49,472.71,161.61L472.71,161.61z"/>
	<path class="st33" d="M359.44,108.97c-0.57,1.08-1.56,0.86-2.5,0.83c0.27-0.94,0.5-1.9,1.58-2.26
		C358.83,108.02,359.13,108.5,359.44,108.97L359.44,108.97z"/>
	<path class="st41" d="M562.34,40.15c0.83-1.23,2.01-1.61,3.43-1.37C564.82,39.71,563.7,40.23,562.34,40.15L562.34,40.15z"/>
	<path class="st42" d="M802.78,104.22c4.69-1.68,7.92,1.64,7.12,7.23c-0.66,4.61-3.35,8.03-6.46,11.22
		c-1.93,4.26-5.44,2.99-8.73,2.5C795.74,117.56,798.63,110.65,802.78,104.22L802.78,104.22z"/>
	<path class="st43" d="M794.71,125.18c3.35,0.71,6.21-0.31,8.73-2.5c0.33,0.33,0.66,0.65,0.98,0.98c-0.53,0.73-1.06,1.45-1.58,2.18
		C800.12,125.78,797.3,126.89,794.71,125.18L794.71,125.18z"/>
	<path class="st44" d="M656.4,175.23c5.36,0.27,10.73,0.48,16.09,0.08c0.02,0.32,0.03,0.64,0.05,0.96
		c-4.16-0.01-8.32,0.02-12.48-0.05C658.79,176.18,657.31,176.68,656.4,175.23L656.4,175.23z"/>
	<path class="st44" d="M673.15,174.48c0.59-1.08,1.18-2.16,1.77-3.23C675.04,172.72,674.9,174.04,673.15,174.48L673.15,174.48z"/>
	<path class="st14" d="M342.79,84.31c-0.75,2.7-1.88,5.33-3.09,7.87c-4.99,10.5-13.2,15.99-24.98,15.82c-1.75-0.03-3.5,0-5.25,0
		c-2.56,0-5.12-0.12-7.67,0.03c-2.59,0.15-3.15-0.61-2.57-3.25c3.73-17.08,7.22-34.21,10.88-51.3c2.12-9.89,2.19-9.87,12.23-9.87
		c4.04,0,8.06-0.02,12.08,0.61c7.23,1.12,11.15,4.73,12.18,11.93C347.99,65.86,345.35,75.1,342.79,84.31L342.79,84.31z
		 M373.73,51.74c-0.36-8.88-4.06-16.41-11.95-21.33c-5.18-3.22-10.96-4.62-16.93-4.7c-17.37-0.22-34.75-0.12-52.12-0.26
		c-2.48-0.02-3.2,1.02-3.6,3.21c-0.9,5.03-2.04,10.01-3.1,15.01c-5.54,26.33-11.05,52.67-16.68,78.98
		c-0.54,2.54-0.51,3.65,2.57,3.62c18.18-0.18,36.36-0.2,54.55-0.28c1.88,0.52,3.05-0.72,4.2-1.8c1.76-1.66,3.65-3.15,5.67-4.49
		c6.32-4.18,13.25-7,20.42-9.29c1.17-0.61,1.13-1.95,1.75-2.88C370.37,90.79,374.56,71.88,373.73,51.74L373.73,51.74z"/>
	<path class="st14" d="M710.15,101.69c-3.92,6.26-9.64,9.16-17.03,8.77c-6.6-0.35-10.68-3.91-11.05-10.52
		c-0.49-8.92,1.39-17.42,6.31-25.02c3.48-5.37,8.48-8.11,16.19-7.99c7.28-0.03,11.73,4,11.67,12.45
		C716.19,87.28,714.41,94.88,710.15,101.69L710.15,101.69z M748.8,24.2c-5.65,0.21-11.33,0.22-16.98-0.01
		c-2.86-0.12-3.71,1.15-4.15,3.62c-0.85,4.77-1.88,9.51-2.9,14.25c-1.19,5.53-2.45,11.05-3.86,17.37
		c-2.76-4.85-5.92-8.02-10.44-9.12c-14.5-3.52-27.84-1.28-38.22,10.05c-12.49,13.62-16.81,30.15-14.51,48.29
		c1.16,9.15,6.34,15.91,15.41,18.43c12.3,3.42,23.76,1.61,33.47-7.41c1.05-0.89,1.79-1.12,1.61,0.72c-1,5.84-1,5.84,5.14,5.84
		c4.72,0,9.44-0.09,14.15,0.04c2.43,0.07,3.6-0.63,4.05-3.23c1.1-6.23,2.57-12.39,3.88-18.58c5.39-25.56,10.77-51.12,16.19-76.68
		C752.17,25.28,751.79,24.09,748.8,24.2L748.8,24.2z"/>
	<path class="st14" d="M429.84,91.97c-1.49,13.31-9.38,20.65-22.3,20.63c-5.28-0.01-8.34-1.65-9.17-4.92
		c-1.06-4.16,1.41-9.69,5.38-12.16c2.71-1.69,5.81-1.99,8.83-2.56c5.01-0.94,10.07-1.68,15.06-2.73
		C429.43,89.87,430.07,89.88,429.84,91.97L429.84,91.97z M449.1,109.52c2.76-13.57,5.99-27.07,8.13-40.74
		c1.65-10.59-3.24-16.54-13.77-18.69c-11.76-2.4-23.59-2.14-35.27,0.26c-11.52,2.37-19.59,9.11-23.47,20.45
		c-0.59,1.73-1.39,3.47,1.74,3.43c5.92-0.08,11.85-0.05,17.77-0.01c1.38,0.01,2.1-0.55,2.82-1.75c4.75-7.97,13.75-11.18,22.49-8.15
		c3.68,1.28,5.06,3.64,4.38,7.5c-0.77,4.37-3.29,6.71-8.8,7.47c-8.26,1.13-16.58,1.92-24.85,2.99
		c-15.09,1.96-24.15,9.86-27.18,23.54c-0.2,0.3-0.26,0.63-0.18,0.98c0.66,1.33-0.6,2.44-0.44,3.72c0.13,9.5,4.18,14.92,12.97,16.93
		c7.6,1.74,15.22,1.49,22.81-0.31c6.09-1.44,11.26-4.7,16.44-8.51c0.2,1.81,0.35,3.11,0.49,4.41c0.44,0.92-0.27,2.36,1.27,2.78
		c3.9,2.81,8.17,0.46,12.24,0.89c2.37-0.64,4.79-0.24,7.19-0.28c4.99-0.08,5.23-0.32,4.86-5.87c-2.9-0.84-3-3.17-2.75-5.51
		C448.19,113.2,448.73,111.37,449.1,109.52L449.1,109.52z"/>
	<path class="st14" d="M618.48,105.68c-4.51,5.62-10.72,6.98-17.5,5.64c-5.96-1.18-8.7-5.92-8.62-15.55
		c0.54-6.69,2.03-14.58,6.48-21.61c4.12-6.51,10.11-9.51,17.79-8.81c5.86,0.53,9.72,3.78,10.26,9.6
		C627.92,86.15,625.68,96.7,618.48,105.68L618.48,105.68z M652.25,72.68c-0.41-11.84-7.57-19.62-19.13-22.53
		c-5.93-1.49-11.98-1.79-18.05-1.53c-14.42,0.61-27.33,4.7-36.56,16.64c-7.8,10.09-10.91,21.9-11.23,34.34
		c-0.44,16.85,7.45,25.65,24.05,28.21c4.96,0.77,9.92,0.77,14.9,0.69c1.3,0.29,1.8-0.81,2.46-1.51c1.46-1.55,1.84-0.07,2.47,0.78
		c9.09-0.92,17.4-3.94,24.16-10.13C648.49,105.58,652.84,89.87,652.25,72.68L652.25,72.68z"/>
	<path class="st12" d="M656.44,210.61c-0.53,1.44-1.58,1.23-2.6,1.24c-3.36,0.04-6.73,0.01-10.09,0.01c-3.5,0-7-0.06-10.5,0.02
		c-1.99,0.05-2.18-0.82-1.74-2.48c2.19-8.22,12.79-13.19,20.5-9.57C655.41,201.43,657.7,207.19,656.44,210.61L656.44,210.61z
		 M674.36,205.56c-0.99-9.07-6.16-15.09-14.98-17.39c-8.3-2.17-16.57-1.75-24.7,0.67c-19.45,5.77-27.08,24.94-25.86,42.31
		c0.76,10.71,6.32,16.46,16.91,18.69c7.65,1.61,15.32,1.47,22.82-0.43c9.55-2.42,17.12-7.66,21.45-16.9
		c1.07-2.28,0.68-3.2-1.94-3.12c-3.36,0.1-6.75,0.23-10.1-0.03c-3.77-0.3-6.35,0.47-8.51,4.15c-3.05,5.16-10.8,6.74-16.65,4.26
		c-4.1-1.74-5.65-5.62-4.96-11.63c0.25-2.21,1.1-2.99,3.31-2.95c6.46,0.11,12.93,0.04,19.4,0.04c6.6,0,13.2-0.08,19.8,0.04
		c2.15,0.04,3.02-0.58,3.36-2.82C674.44,215.48,674.9,210.56,674.36,205.56L674.36,205.56z"/>
</g>
<g>
</g>
<g>
</g>
<g>
</g>
<g>
</g>
<g>
</g>
<g>
</g>
</svg>
