<?xml version="1.0" encoding="utf-8"?>
<!-- Generator: Adobe Illustrator 27.1.1, SVG Export Plug-In . SVG Version: 6.00 Build 0)  -->
<svg version="1.1" id="Layer_1" xmlns="http://www.w3.org/2000/svg" xmlns:xlink="http://www.w3.org/1999/xlink" x="0px" y="0px"
	 viewBox="0 0 50 50" style="enable-background:new 0 0 50 50;" xml:space="preserve">
<style type="text/css">
	.st0{display:none;fill:#4AB863;}
	.st1{clip-path:url(#SVGID_00000011021134627537322660000010008943950143162262_);fill:#808184;}
	.st2{fill:#51B748;}
	.st3{fill:#0A57A4;}
	.st4{fill:#FFFFFF;}
	.st5{fill:#231F20;}
	.st6{fill:#8DD6F7;}
	.st7{fill:#2293D1;}
	.st8{fill:#E6E7E7;}
	.st9{fill:#D0D2D3;}
	.st10{fill:#E9262A;}
	
		.st11{clip-path:url(#SVGID_00000019639519910477362840000006092136335133319330_);fill-rule:evenodd;clip-rule:evenodd;fill:#39B04A;}
	
		.st12{clip-path:url(#SVGID_00000119090299104658584620000002453105866444087441_);fill-rule:evenodd;clip-rule:evenodd;fill:#0B539D;}
	
		.st13{clip-path:url(#SVGID_00000117637066276971476580000011690998420877203354_);fill-rule:evenodd;clip-rule:evenodd;fill:#0B539D;}
	.st14{fill-rule:evenodd;clip-rule:evenodd;fill:#39B04A;}
	
		.st15{clip-path:url(#SVGID_00000088116181134349747960000014555710219906689198_);fill-rule:evenodd;clip-rule:evenodd;fill:#39B04A;}
	
		.st16{clip-path:url(#SVGID_00000084505574658877520430000016094832713203616642_);fill-rule:evenodd;clip-rule:evenodd;fill:#39B04A;}
	.st17{fill-rule:evenodd;clip-rule:evenodd;fill:#0B539D;}
	.st18{fill-rule:evenodd;clip-rule:evenodd;fill:#6F7173;}
	.st19{fill-rule:evenodd;clip-rule:evenodd;fill:#6E7072;}
	.st20{fill-rule:evenodd;clip-rule:evenodd;fill:#0A539E;}
	.st21{fill-rule:evenodd;clip-rule:evenodd;fill:#707374;}
	.st22{fill-rule:evenodd;clip-rule:evenodd;fill:#6F7072;}
	.st23{fill-rule:evenodd;clip-rule:evenodd;fill:#3BB14A;}
	.st24{fill-rule:evenodd;clip-rule:evenodd;fill:#707373;}
	.st25{fill-rule:evenodd;clip-rule:evenodd;fill:#717374;}
	.st26{fill-rule:evenodd;clip-rule:evenodd;fill:#6C7074;}
	.st27{fill-rule:evenodd;clip-rule:evenodd;fill:#737576;}
	.st28{fill-rule:evenodd;clip-rule:evenodd;fill:#757678;}
	.st29{fill-rule:evenodd;clip-rule:evenodd;fill:#757A7A;}
	.st30{fill-rule:evenodd;clip-rule:evenodd;fill:#747B78;}
	.st31{fill-rule:evenodd;clip-rule:evenodd;fill:#898C8D;}
	.st32{fill-rule:evenodd;clip-rule:evenodd;fill:#848587;}
	.st33{fill-rule:evenodd;clip-rule:evenodd;fill:#1F5FA1;}
	.st34{fill-rule:evenodd;clip-rule:evenodd;fill:#18599F;}
	.st35{fill-rule:evenodd;clip-rule:evenodd;fill:#6A92C2;}
	.st36{fill-rule:evenodd;clip-rule:evenodd;fill:#898E92;}
	.st37{fill-rule:evenodd;clip-rule:evenodd;fill:#858788;}
	.st38{fill-rule:evenodd;clip-rule:evenodd;fill:#33649C;}
	.st39{fill-rule:evenodd;clip-rule:evenodd;fill:#88888A;}
	.st40{fill-rule:evenodd;clip-rule:evenodd;fill:#969899;}
	.st41{fill-rule:evenodd;clip-rule:evenodd;fill:#5378A2;}
	.st42{fill-rule:evenodd;clip-rule:evenodd;fill:#898A8C;}
	.st43{fill-rule:evenodd;clip-rule:evenodd;fill:#7199C4;}
	.st44{fill-rule:evenodd;clip-rule:evenodd;fill:#BBCCE1;}
	.st45{fill-rule:evenodd;clip-rule:evenodd;fill:#496381;}
	.st46{fill-rule:evenodd;clip-rule:evenodd;fill:#868889;}
	.st47{fill:#4AB863;}
	.st48{fill:#1A70B8;}
</style>
<g>
	<path d="M7.08,49.5c-3.63,0-6.59-2.96-6.59-6.59V7.09c0-3.63,2.96-6.59,6.59-6.59H42.9c3.63,0,6.59,2.96,6.59,6.59v35.82
		c0,3.63-2.96,6.59-6.59,6.59H7.08z"/>
	<path d="M42.9,1c3.36,0,6.09,2.73,6.09,6.09v35.82c0,3.36-2.73,6.09-6.09,6.09H7.08c-3.36,0-6.09-2.73-6.09-6.09V7.09
		C0.99,3.73,3.73,1,7.08,1H42.9 M42.9,0H7.08C3.17,0-0.01,3.17-0.01,7.09v35.82c0,3.92,3.17,7.09,7.09,7.09H42.9
		c3.92,0,7.09-3.17,7.09-7.09V7.09C49.99,3.17,46.82,0,42.9,0L42.9,0z"/>
</g>
<g>
	<g id="Layer_2_00000070831766601173287950000012549470600186317990_">
		<rect x="1.53" y="15.59" class="st0" width="46.95" height="21.5"/>
		<g>
			<g>
				<g>
					<defs>
						<rect id="SVGID_1_" x="27.67" y="28.52" width="17.8" height="5.27"/>
					</defs>
					<clipPath id="SVGID_00000070099317804067597780000016009427003403974075_">
						<use xlink:href="#SVGID_1_"  style="overflow:visible;"/>
					</clipPath>
					<path style="clip-path:url(#SVGID_00000070099317804067597780000016009427003403974075_);fill:#808184;" d="M31.77,31.17
						c-0.21-0.83-0.08-1.41,0.2-1.86l-0.51-0.55h-2.73l-0.48,0.54c0.43,0.95,0.12,1.56,0.11,1.84l0,0c-0.3-0.31-0.48-0.13-0.51,0
						l0,0c-0.11,0.38-0.2,0.52-0.2,0.52c0.06,0.16,0.13,0.18,0.16,0.18l0,0c0.01,0.74,0.63,1.13,1.3,1.38
						c0.69,0.26,0.91,0.57,0.91,0.57s0.41-0.44,1.12-0.63c0.72-0.28,1.15-0.8,1.1-1.31l0,0c0.14,0,0.16-0.04,0.2-0.2
						c0,0-0.1-0.08-0.19-0.44l0,0c0-0.05-0.02-0.12-0.06-0.2C32.02,30.81,31.78,31.16,31.77,31.17L31.77,31.17L31.77,31.17z"/>
				</g>
			</g>
			<path class="st2" d="M28.03,31.34c0.01-0.01,0.1-0.17,0.11-0.03c0.01,0.13-0.21,0.03-0.23-0.14c-0.01-0.09,0.36-0.3,0.41,0.29
				l0,0c0.03,0.81,0.87,1.05,1.24,1.21c0.43,0.26,0.48,0.35,0.48,0.35s0.19-0.21,0.48-0.34c0.73-0.28,1.28-0.55,1.27-1.26
				c0.03-0.49,0.55-0.52,0.33-0.12c-0.06,0.12-0.32,0.15-0.12-0.08l0.07,0.14c0.01,0,0.03-0.01,0.04-0.03c0,0-0.08-0.2-0.09-0.2
				c-0.07,0.02-0.13,0.12-0.12,0.21c0.01,0.2,0.32,0.48,0.3,0.64c-0.13,0.8-1.24,1.16-1.24,1.16c-0.51,0.15-0.9,0.55-0.9,0.55
				c-0.23-0.34-1.06-0.6-1.06-0.6c-1.03-0.45-1.1-1.04-1.09-1.23c0.01-0.14,0.25-0.37,0.25-0.37c0.06-0.08,0.08-0.31-0.05-0.37
				c-0.01,0-0.1,0.16-0.1,0.16C28.02,31.31,28.03,31.34,28.03,31.34L28.03,31.34z"/>
			<path class="st3" d="M28.44,31.5c0.03,0.61,0.57,0.81,1.1,1.01c0.33,0.13,0.51,0.34,0.51,0.34c0.23-0.2,0.34-0.26,0.54-0.32
				c0.58-0.21,1.22-0.44,1.09-1.32c-0.3-1.32,0.19-1.84,0.19-1.84l-0.45-0.48h-2.63l-0.39,0.46c0.36,0.81,0.16,1.48,0.11,1.81
				c-0.06,0.29-0.04,0.15-0.05,0.38L28.44,31.5L28.44,31.5z"/>
			<polygon class="st4" points="30.06,29.14 30.08,29.07 30.02,29.04 30.09,29.04 30.11,28.98 30.13,29.04 30.2,29.04 30.14,29.07 
				30.17,29.14 30.11,29.1 			"/>
			<path class="st4" d="M30.07,29.87c0.42,0,0.76,0.37,0.76,0.8c0,0.44-0.34,0.8-0.76,0.8s-0.76-0.35-0.76-0.8
				C29.31,30.22,29.65,29.87,30.07,29.87L30.07,29.87z"/>
			<path class="st5" d="M29.32,30.67c0-0.44,0.34-0.8,0.75-0.8c0.42,0,0.76,0.37,0.76,0.8c0,0.44-0.34,0.8-0.76,0.8
				S29.32,31.1,29.32,30.67L29.32,30.67z M29.31,30.67c0,0.44,0.34,0.8,0.76,0.8c0.42,0,0.76-0.35,0.76-0.8
				c0-0.44-0.34-0.8-0.76-0.8C29.65,29.87,29.31,30.22,29.31,30.67L29.31,30.67z"/>
			<path class="st6" d="M30.06,29.91c0.4,0,0.72,0.34,0.72,0.75c0,0.42-0.32,0.75-0.72,0.75c-0.39,0-0.72-0.34-0.72-0.75
				C29.35,30.24,29.67,29.91,30.06,29.91L30.06,29.91z"/>
			<path class="st7" d="M29.37,30.67c0-0.41,0.31-0.73,0.69-0.73c0.39,0,0.69,0.32,0.69,0.73s-0.3,0.73-0.69,0.73
				C29.68,31.4,29.37,31.07,29.37,30.67L29.37,30.67z M29.33,30.67c0,0.43,0.33,0.77,0.73,0.77c0.41,0,0.73-0.34,0.73-0.77
				c0-0.43-0.32-0.77-0.73-0.77C29.66,29.89,29.33,30.24,29.33,30.67L29.33,30.67z"/>
			<path class="st7" d="M29.86,31.37c-0.01,0-0.01,0.01-0.01,0.02c0.01,0.01,0.02,0.01,0.03,0.01c0.18-0.11,0.21-0.09,0.39,0
				c0.01,0.01,0.02,0,0.03-0.01c0-0.01,0-0.02-0.01-0.03C30.1,31.26,30.05,31.24,29.86,31.37L29.86,31.37z"/>
			<path class="st7" d="M29.35,30.65c-0.01,0-0.02,0.01-0.02,0.02s0.01,0.02,0.02,0.02h1.43c0.01,0,0.02-0.01,0.02-0.02
				s-0.01-0.02-0.02-0.02H29.35L29.35,30.65z"/>
			<path class="st7" d="M30.29,29.95c-0.16,0.12-0.25,0.13-0.42,0c-0.01-0.01-0.02,0-0.03,0c-0.01,0.01,0,0.02,0,0.03
				c0.19,0.15,0.3,0.12,0.46,0c0.01-0.01,0.01-0.02,0.01-0.03C30.32,29.93,30.29,29.93,30.29,29.95L30.29,29.95z"/>
			<path class="st7" d="M29.64,30.04c-0.01,0.01,0,0.02,0.01,0.03c0.3,0.2,0.54,0.27,0.85,0.01c0.01-0.01,0.01-0.02,0-0.03
				c-0.01-0.01-0.02-0.01-0.03,0c-0.31,0.25-0.52,0.2-0.81-0.01C29.66,30.03,29.65,30.03,29.64,30.04L29.64,30.04z"/>
			<path class="st7" d="M29.5,30.16c-0.01,0.01,0,0.02,0,0.03c0.51,0.38,0.81,0.2,1.04,0.06l0.07-0.04
				c0.01-0.01,0.01-0.02,0.01-0.03c-0.01-0.01-0.02-0.01-0.03-0.01l-0.07,0.04c-0.24,0.15-0.51,0.31-1-0.05
				C29.52,30.15,29.51,30.16,29.5,30.16L29.5,30.16z"/>
			<path class="st7" d="M29.42,30.94c-0.01,0.01-0.01,0.02-0.01,0.03c0.01,0.01,0.02,0.01,0.03,0.01c0.11-0.06,0.67-0.37,1.28,0
				c0.01,0.01,0.02,0,0.03-0.01c0.01-0.01,0-0.02-0.01-0.03C30.11,30.56,29.53,30.88,29.42,30.94L29.42,30.94z"/>
			<path class="st7" d="M29.51,31.14c-0.01,0-0.01,0.02-0.01,0.03c0,0.01,0.02,0.01,0.03,0.01c0.54-0.27,0.58-0.25,1.04-0.03
				l0.03,0.01c0.01,0,0.02,0,0.03-0.01c0-0.01,0-0.02-0.01-0.03l-0.03-0.01C30.12,30.88,30.07,30.87,29.51,31.14L29.51,31.14z"/>
			<path class="st7" d="M30.27,29.99c0.19,0.12,0.39,0.4,0.39,0.71c0,0.26-0.14,0.48-0.42,0.66l0.02,0.03
				c0.36-0.23,0.44-0.49,0.44-0.69c0-0.32-0.21-0.63-0.41-0.75L30.27,29.99L30.27,29.99z"/>
			<path class="st7" d="M30.2,30.03c0.17,0.17,0.27,0.4,0.27,0.63c0,0.25-0.1,0.48-0.27,0.66l0.03,0.03c0.18-0.2,0.29-0.44,0.28-0.7
				c0-0.25-0.1-0.48-0.28-0.66L30.2,30.03L30.2,30.03z"/>
			<path class="st7" d="M30.15,30.04c0.24,0.38,0.19,1.01-0.01,1.27l0.03,0.03c0.22-0.27,0.27-0.9,0.02-1.32L30.15,30.04
				L30.15,30.04z"/>
			<path class="st7" d="M29.99,31.33l0.03-0.02c-0.11-0.18-0.35-0.67-0.03-1.27l-0.03-0.02C29.63,30.64,29.87,31.14,29.99,31.33
				L29.99,31.33z"/>
			<path class="st7" d="M29.93,31.36l0.03-0.03c-0.37-0.42-0.37-0.89-0.01-1.3L29.92,30C29.54,30.42,29.55,30.92,29.93,31.36
				L29.93,31.36z"/>
			<path class="st7" d="M29.46,30.67c-0.01,0.2,0.06,0.48,0.42,0.72l0.02-0.03c-0.27-0.17-0.41-0.41-0.4-0.68
				c0.01-0.32,0.24-0.6,0.39-0.69l-0.02-0.04C29.69,30.05,29.47,30.35,29.46,30.67L29.46,30.67z"/>
			<path class="st8" d="M30.07,31.1v0.2V31.1z"/>
			<polygon class="st7" points="30.05,31.1 30.08,31.1 30.08,31.31 30.05,31.31 			"/>
			<path class="st7" d="M30.05,30.59v0.64c0,0.01,0.01,0.02,0.02,0.02c0.02,0,0.02-0.01,0.02-0.02v-0.64c0-0.01-0.01-0.02-0.02-0.02
				C30.06,30.57,30.05,30.59,30.05,30.59L30.05,30.59z"/>
			<path class="st4" d="M30.81,30.93c0.63,0.38,0.51,0.59-0.8-0.26c-0.6-0.38-1.63-1.12-0.49-0.52l0.02-0.03
				c-1.28-0.63-0.13,0.2,0.43,0.58c1.43,0.95,1.55,0.63,0.85,0.2L30.81,30.93L30.81,30.93z"/>
			<path class="st4" d="M30.66,30.15c0.75-0.46,0.78-0.2-0.57,0.59c-0.63,0.35-1.76,0.95-0.72,0.21l-0.02-0.04
				c-1.15,0.86,0.15,0.2,0.73-0.14c1.49-0.84,1.33-1.15,0.54-0.66L30.66,30.15L30.66,30.15z"/>
			<polygon class="st5" points="29.71,30.54 29.66,30.54 29.45,30.99 29.45,30.99 29.8,30.99 30,30.99 30.01,30.99 30,31 30.01,31 
				30.12,31 30.13,31 30.12,30.99 30.47,30.99 30.69,30.99 30.69,30.99 30.69,30.97 30.47,30.54 30.32,30.54 			"/>
			<path class="st5" d="M29.71,30.56c0,0,0.75,0,0.76,0c0,0.01,0.21,0.43,0.21,0.43l0,0l0,0h-0.21h-0.35v0.01V31l0,0h-0.11v-0.01
				l-0.01-0.01h-0.2c0,0-0.34,0-0.35,0l0,0c0,0,0.21-0.42,0.21-0.43C29.67,30.56,29.71,30.56,29.71,30.56L29.71,30.56z M30.32,30.53
				h-0.66h-0.01l-0.21,0.44v0.01l0.01,0.01h0.57v0.01L30.02,31h0.12l0.01-0.01v-0.01l0,0c0.02,0,0.55,0,0.55,0l0.01-0.01v-0.01
				l-0.01-0.01l-0.2-0.43h-0.01H30.32L30.32,30.53L30.32,30.53z"/>
			<polygon class="st5" points="29.45,30.99 29.45,30.99 29.45,30.99 29.45,31 30,31 30.01,31 30,31 29.99,31 29.99,31 29.99,31.02 
				30,31.02 30.01,31.02 30.12,31.02 30.12,31.02 30.13,31.02 30.14,31.02 30.14,31.02 30.14,31 30.13,31 30.13,31 30.13,31 
				30.69,31 30.69,30.99 30.69,30.99 30.69,30.99 30.69,30.99 30.69,30.99 30.69,30.99 30.12,30.99 30.12,30.99 30.12,30.99 
				30.12,30.99 30.12,31 30.12,31 30.12,31 30.02,31 30.02,31 30.01,31 30.02,30.99 30.02,30.99 30.02,30.99 30.01,30.99 
				30.01,30.99 29.46,30.99 29.45,30.99 29.45,30.99 			"/>
			<path class="st5" d="M29.45,30.99C29.46,30.99,29.46,30.99,29.45,30.99c0.01,0,0.57,0,0.57,0l0,0h-0.01V31h0.1l0.01-0.01l0,0
				c0,0,0.55,0,0.57,0l0,0l0,0c-0.01,0-0.55,0-0.55,0L30.12,31v0.01l0,0l-0.01,0.01H30l0,0l0.01-0.01V31L29.45,30.99L29.45,30.99
				L29.45,30.99z M30.69,30.99h-0.57l-0.01,0.01V31c-0.01,0-0.08,0-0.09,0v-0.01l-0.01-0.01h-0.55l0,0l0,0h-0.01v0.01L29.46,31
				c0,0,0.52,0,0.54,0l0,0v0.01l0.01,0.01h0.01l0.01,0.01h0.12l0.01-0.01h0.01v-0.01l0,0c0.02,0,0.54,0,0.54,0L30.71,31l0,0l0,0
				l0.01-0.01v-0.01H30.69L30.69,30.99L30.69,30.99z"/>
			<polygon class="st4" points="29.72,30.52 29.68,30.54 29.49,30.96 29.58,30.96 29.66,30.95 29.76,30.94 29.86,30.92 29.91,30.91 
				29.95,30.92 29.99,30.93 30.01,30.95 30.02,30.99 30.03,30.99 30.11,30.99 30.11,30.99 30.12,30.96 30.13,30.93 30.17,30.91 
				30.2,30.9 30.23,30.9 30.29,30.91 30.35,30.93 30.47,30.95 30.56,30.96 30.65,30.96 30.45,30.56 30.41,30.52 30.08,30.74 			"/>
			<path class="st5" d="M29.68,30.54c0,0,0.03-0.01,0.04-0.02c0.01,0,0.35,0.21,0.35,0.21h0.01l0.33-0.21
				c0.01,0,0.04,0.02,0.04,0.02s0.17,0.38,0.18,0.4c-0.02,0-0.07,0-0.07,0l-0.1-0.01l-0.11-0.01l-0.06-0.02l-0.06-0.01H30.2
				l-0.04,0.01l-0.03,0.02l-0.02,0.03c0,0,0,0.02-0.01,0.03c-0.01,0-0.07,0-0.07,0l-0.02-0.04l-0.02-0.02l-0.03-0.01l-0.03-0.01
				l-0.06,0.01l-0.1,0.02l-0.1,0.01l-0.08,0.01c0,0-0.06,0-0.08,0C29.51,30.93,29.68,30.54,29.68,30.54L29.68,30.54z M29.68,30.54
				l-0.19,0.42l0.01,0.01h0.09l0.08-0.01l0.1-0.01l0.1-0.02l0.05-0.01l0.03,0.01l0.04,0.01l0.02,0.02l0.01,0.03L30.03,31h0.01h0.08
				h0.01l0.01-0.03l0.01-0.03l0.03-0.02l0.03-0.01h0.04l0.05,0.01l0.06,0.02l0.11,0.02l0.1,0.01h0.08l0.01-0.01l-0.19-0.41
				l-0.04-0.03h-0.01l-0.33,0.21c-0.01,0-0.35-0.21-0.35-0.21h-0.01L29.68,30.54L29.68,30.54z"/>
			<polygon class="st5" points="30.06,30.52 30.07,30.52 30.07,30.94 30.06,30.94 			"/>
			<polygon class="st5" points="29.49,30.95 29.56,30.91 29.57,30.91 29.5,30.96 			"/>
			<polygon class="st5" points="30.57,30.93 30.65,30.96 30.65,30.95 30.59,30.92 			"/>
			<polygon class="st5" points="29.71,30.52 29.55,30.92 29.61,30.92 29.69,30.9 29.77,30.88 29.85,30.87 29.9,30.85 29.93,30.85 
				29.97,30.87 30,30.88 30.03,30.88 30.04,30.91 30.06,30.93 30.07,30.95 30.08,30.93 30.1,30.9 30.12,30.88 30.15,30.87 
				30.2,30.85 30.23,30.85 30.26,30.85 30.32,30.87 30.44,30.9 30.53,30.92 30.57,30.92 30.59,30.93 30.42,30.53 30.38,30.52 
				30.32,30.52 30.29,30.51 30.26,30.5 30.21,30.49 30.2,30.48 30.17,30.48 30.13,30.48 30.11,30.48 30.1,30.49 30.09,30.5 
				30.08,30.51 30.07,30.52 30.07,30.52 30.06,30.51 30.06,30.5 30.04,30.49 30.04,30.49 30.01,30.48 29.99,30.47 29.95,30.47 
				29.92,30.49 29.88,30.49 29.86,30.5 29.83,30.51 29.8,30.51 29.75,30.52 29.73,30.52 			"/>
			<path class="st5" d="M29.73,30.53h0.02l0.04-0.01l0.03-0.01l0.03-0.01l0.03-0.01l0.03-0.01l0.04-0.01h0.04l0.02,0.01l0.02,0.01
				v0.01l0.02,0.01v0.01l0.01,0.01h0.01l0.01-0.01h0.01l0.01-0.02h0.01h0.02h0.05l0.03,0.01l0.03,0.01l0.04,0.02l0.05,0.01h0.05
				l0.04,0.01c0,0.01,0.14,0.35,0.16,0.38l-0.06-0.01l-0.09-0.01l-0.1-0.03l-0.07-0.01h-0.07l-0.03-0.01l-0.04,0.01l-0.02,0.02
				l-0.02,0.03v0.01c0-0.01-0.01-0.01-0.01-0.01l-0.01-0.01l-0.02-0.02l-0.03-0.01l-0.03-0.01l-0.04-0.01H29.9h-0.04l-0.08,0.02
				L29.7,30.9l-0.08,0.01c0,0-0.03,0-0.04,0.01C29.57,30.9,29.71,30.53,29.73,30.53C29.72,30.53,29.73,30.53,29.73,30.53
				L29.73,30.53z M29.92,30.48l-0.03,0.01l-0.03,0.01l-0.03,0.01l-0.03,0.01l-0.05-0.01h-0.04h-0.01l-0.15,0.41l0.01,0.01l0.05-0.01
				l0.08-0.01l0.08-0.01l0.08-0.02l0.05-0.01h0.03l0.03,0.01l0.03,0.01l0.03,0.01l0.01,0.01l0.01,0.02l0.01,0.02h0.01l0.01-0.02
				l0.02-0.03l0.02-0.02l0.03-0.01l0.03-0.01h0.07l0.07,0.01l0.1,0.03l0.09,0.01l0.06,0.01l0.01,0.01l0.01-0.01l-0.16-0.4l0,0
				l-0.05-0.01h-0.05l-0.05-0.01l-0.02-0.01l-0.03-0.01l-0.03-0.01h-0.02h-0.05l-0.02,0.01l-0.01,0.02h-0.01c0,0,0,0-0.01,0.01l0,0
				l-0.01-0.01v-0.01l-0.01-0.01l-0.02-0.01l-0.02-0.01h-0.04L29.92,30.48L29.92,30.48z"/>
			<polygon class="st9" points="29.72,30.52 29.55,30.92 29.62,30.91 29.7,30.88 29.77,30.88 29.85,30.85 29.91,30.84 29.93,30.84 
				29.97,30.85 30,30.87 30.03,30.88 30.04,30.9 30.06,30.92 30.07,30.94 30.08,30.92 30.1,30.88 30.12,30.87 30.15,30.85 
				30.2,30.84 30.23,30.84 30.26,30.84 30.32,30.87 30.44,30.88 30.51,30.91 30.56,30.92 30.59,30.92 30.42,30.52 30.36,30.52 
				30.32,30.51 30.29,30.5 30.26,30.49 30.21,30.48 30.2,30.48 30.17,30.47 30.13,30.47 30.11,30.48 30.1,30.49 30.09,30.49 
				30.08,30.51 30.07,30.51 30.07,30.52 30.06,30.51 30.06,30.49 30.05,30.49 30.04,30.48 30.01,30.47 30,30.47 29.95,30.47 
				29.92,30.48 29.88,30.49 29.86,30.5 29.84,30.51 29.8,30.51 29.75,30.51 29.73,30.52 			"/>
			<path class="st5" d="M30.08,30.52L30.08,30.52L30.08,30.52l0.03-0.03l0.01-0.01l0.02-0.01h0.03l0.03,0.01h0.03l0.03,0.01
				l0.03,0.01l0.04,0.01l0.05,0.01c0,0,0.04,0,0.05,0c0,0.01,0.14,0.35,0.15,0.38l-0.06-0.01h-0.09l-0.11-0.03l-0.07-0.01H30.2
				l-0.04,0.01l-0.03,0.01l-0.03,0.02l-0.02,0.03c0,0,0,0,0,0.01c0-0.01-0.01-0.01-0.01-0.01l-0.01-0.02l-0.01-0.01l-0.03-0.01
				l-0.03-0.01l-0.04-0.01h-0.03l-0.06-0.01l-0.08,0.02l-0.07,0.02l-0.08,0.01c0,0-0.04,0-0.05,0.01c0.01-0.02,0.16-0.37,0.16-0.38
				l0,0l0.03-0.01l0.05-0.01h0.03l0.02-0.01l0.03-0.01l0.04-0.01l0.03-0.01h0.06l0.02,0.01l0.01,0.01l0.01,0.01L30.08,30.52
				L30.08,30.52L30.08,30.52L30.08,30.52z M30.11,30.47L30.11,30.47l-0.02,0.02c0,0-0.02,0.01-0.02,0.02l-0.01-0.01l-0.01-0.02
				l-0.02-0.01l-0.02-0.02h-0.02h-0.04l-0.04,0.01l-0.04,0.01l-0.03,0.01l-0.02,0.01h-0.04l-0.04,0.01l-0.03,0.01h-0.01l-0.16,0.38
				l0.01,0.01l0.06-0.01l0.08-0.01l0.08-0.01l0.08-0.02l0.05-0.01h0.03l0.04,0.01l0.03,0.01l0.03,0.01l0.03,0.03l0.01,0.03h0.01
				l0.01-0.02l0.02-0.03l0.02-0.02l0.03-0.01l0.04-0.01h0.04l0.07,0.01l0.11,0.03l0.08,0.01l0.06,0.01l0.01,0.01l0.01-0.01
				l-0.16-0.4h-0.01h-0.06l-0.05-0.01l-0.04-0.01l-0.02-0.01l-0.03-0.01H30.2l-0.03-0.01h-0.03h-0.02V30.47z"/>
			<polygon class="st5" points="30.06,30.52 30.07,30.52 30.07,30.94 30.06,30.94 			"/>
			<path class="st4" d="M28.54,29.44h-0.07v-0.15h0.07v0.02l0,0h-0.03v0.09h0.03l0,0V29.44L28.54,29.44z M28.69,29.36v0.02
				c-0.01,0-0.01,0-0.01,0c-0.01,0-0.01,0.01-0.01,0.01c0,0.01,0,0.01,0.01,0.01c0,0,0,0,0.01,0v0.02c-0.01,0-0.01,0-0.02,0
				c-0.03,0-0.04-0.01-0.04-0.03c0-0.02,0.01-0.03,0.04-0.03C28.68,29.36,28.68,29.36,28.69,29.36L28.69,29.36z M28.69,29.31v0.02
				c-0.01,0.01-0.02,0.01-0.02,0.02h-0.03c0-0.01,0.01-0.02,0.01-0.03C28.66,29.32,28.66,29.31,28.69,29.31L28.69,29.31L28.69,29.31
				z M28.62,29.35c0,0.02-0.01,0.04-0.01,0.05c-0.01,0.01-0.03,0.02-0.05,0.02h-0.01v-0.02c0.01,0,0.01-0.01,0.02-0.01
				c0.01-0.01,0.01-0.02,0.01-0.03c0-0.01,0-0.03-0.01-0.03c-0.01-0.01-0.01-0.01-0.02-0.01V29.3h0.01c0.02,0,0.03,0,0.05,0.01
				C28.6,29.31,28.62,29.33,28.62,29.35L28.62,29.35L28.62,29.35z M28.91,29.3C28.9,29.3,28.9,29.3,28.91,29.3
				C28.9,29.3,28.9,29.3,28.91,29.3c-0.02,0-0.02,0-0.02,0.01c-0.01,0-0.01,0-0.01,0.01v0.01h0.02v0.02h-0.02v0.09h-0.03v-0.11
				h-0.01v-0.02h0.01V29.3c0-0.02,0.01-0.03,0.03-0.03c0.01,0,0.01,0,0.03,0L28.91,29.3L28.91,29.3z M28.83,29.3L28.83,29.3
				C28.82,29.3,28.82,29.3,28.83,29.3C28.82,29.3,28.82,29.3,28.83,29.3c-0.02,0.01-0.02,0.01-0.02,0.02v0.01h0.02v0.02h-0.03v0.09
				h-0.03v-0.11h-0.01v-0.02h0.01V29.3c0-0.02,0.01-0.03,0.03-0.03c0.01,0,0.01,0,0.02,0V29.3L28.83,29.3L28.83,29.3z M28.69,29.44
				v-0.02c0,0,0.01,0,0.01-0.01l0.01-0.01v-0.02h-0.01l-0.01,0.01v-0.02h0.01c0.01,0,0.01,0,0.01-0.01c0.01,0,0.01,0,0.01-0.01
				c0-0.01-0.01-0.01-0.02-0.01l0,0v-0.02l0,0c0.02,0,0.03,0.01,0.04,0.01s0.01,0.01,0.01,0.03v0.05c0,0.01,0,0.01,0,0.01
				s0.01,0.01,0.01,0c0,0.01,0,0.01,0,0.01h-0.01c-0.01,0-0.02,0-0.02,0c-0.01,0-0.01-0.01-0.01-0.01l0,0l0,0
				C28.69,29.43,28.69,29.44,28.69,29.44L28.69,29.44L28.69,29.44z M28.97,29.31v0.03c-0.01,0-0.02,0.01-0.02,0.03
				c0,0.02,0.01,0.03,0.02,0.03v0.02c-0.04,0-0.06-0.02-0.06-0.05C28.91,29.33,28.93,29.31,28.97,29.31L28.97,29.31L28.97,29.31z
				 M28.97,29.44v-0.02l0,0c0.01,0,0.03-0.01,0.03-0.03c0-0.03-0.01-0.03-0.03-0.03l0,0v-0.04l0,0c0.04,0,0.06,0.02,0.06,0.06
				C29.03,29.41,29.01,29.44,28.97,29.44L28.97,29.44L28.97,29.44z M29.1,29.32v0.02l0,0c-0.01,0-0.02,0.01-0.02,0.03
				c0,0.02,0.01,0.03,0.02,0.03l0,0v0.03h-0.01c-0.02,0-0.03-0.01-0.04-0.01c0-0.02,0-0.03,0-0.05s0-0.03,0.01-0.04
				C29.07,29.32,29.07,29.31,29.1,29.32C29.09,29.31,29.1,29.31,29.1,29.32L29.1,29.32L29.1,29.32z M29.61,29.44
				c-0.01,0-0.02,0-0.03,0c-0.01,0-0.01,0-0.02-0.01c-0.01,0-0.01-0.01-0.01-0.02v-0.06h-0.02v-0.02h0.02v-0.03h0.03v0.03h0.02v0.02
				h-0.02v0.05c0,0.01,0,0.01,0,0.01h0.01c0.01,0,0.01,0,0.01,0v0.03H29.61L29.61,29.44z M29.52,29.44h-0.03v-0.08
				c0-0.01,0-0.02-0.01-0.02c-0.01,0-0.01,0-0.01,0.01c-0.02,0-0.02,0-0.02,0.01v0.08h-0.03v-0.12h0.03v0.01l0,0
				c0.01-0.01,0.01-0.02,0.03-0.02c0.01,0,0.02,0.01,0.03,0.01c0.01,0,0.01,0.01,0.01,0.02L29.52,29.44L29.52,29.44L29.52,29.44z
				 M29.39,29.44h-0.03v-0.15h0.03V29.44L29.39,29.44L29.39,29.44z M29.27,29.44h-0.03v-0.16h0.03V29.44L29.27,29.44L29.27,29.44z
				 M29.22,29.44h-0.03v-0.12h0.03V29.44L29.22,29.44L29.22,29.44z M29.22,29.31h-0.03v-0.03h0.03V29.31L29.22,29.31L29.22,29.31z
				 M29.1,29.44v-0.03c0.02,0,0.03-0.01,0.03-0.03c0-0.02-0.01-0.03-0.03-0.03v-0.02c0.01,0,0.02,0.01,0.03,0.01l0,0v-0.05h0.03
				v0.16h-0.03v-0.01l0,0C29.12,29.43,29.12,29.44,29.1,29.44L29.1,29.44L29.1,29.44z M29.68,29.31v0.02
				c-0.01,0-0.02,0.01-0.03,0.03h0.03v0.02h-0.03c0,0.02,0.01,0.03,0.03,0.03v0.02c-0.04,0-0.06-0.02-0.06-0.05
				c0-0.02,0.01-0.03,0.01-0.04C29.64,29.32,29.66,29.31,29.68,29.31L29.68,29.31L29.68,29.31L29.68,29.31z M29.95,29.44h-0.03
				v-0.08c0-0.01-0.01-0.02-0.01-0.02c-0.01,0-0.01,0-0.01,0.01c-0.01,0.01-0.01,0.01-0.01,0.01v0.08h-0.04v-0.12h0.03v0.01l0,0
				c0-0.01,0.01-0.02,0.03-0.02c0.01,0,0.02,0.01,0.03,0.01c0,0.01,0,0.02,0,0.03L29.95,29.44L29.95,29.44z M29.83,29.35
				C29.83,29.35,29.83,29.35,29.83,29.35c-0.02,0-0.03,0-0.03,0.01c-0.01,0.01-0.01,0.01-0.01,0.02v0.05h-0.04v-0.12h0.04v0.02l0,0
				c0.01-0.01,0.01-0.03,0.03-0.03c0.01,0,0.01,0,0.01,0.01L29.83,29.35L29.83,29.35L29.83,29.35z M29.68,29.38v-0.02h0.02
				c0-0.01,0-0.01,0-0.01c-0.01-0.01-0.01-0.01-0.02-0.01l0,0v-0.03c0.02,0,0.03,0.01,0.04,0.02c0.01,0.01,0.01,0.03,0.01,0.05
				L29.68,29.38L29.68,29.38L29.68,29.38z M29.68,29.44v-0.02l0,0c0.01,0,0.01,0,0.01-0.01c0.01,0,0.01-0.01,0.01-0.01h0.03
				c0,0.01-0.01,0.01-0.01,0.02C29.71,29.44,29.7,29.44,29.68,29.44L29.68,29.44L29.68,29.44L29.68,29.44z M30.02,29.36v0.02
				c-0.01,0-0.01,0-0.01,0c-0.01,0-0.01,0.01-0.01,0.01c0,0.01,0,0.01,0.01,0.01h0.01v0.02c-0.01,0-0.01,0-0.02,0
				c-0.03,0-0.04-0.01-0.04-0.03c0-0.02,0.01-0.03,0.04-0.03C30.01,29.36,30.01,29.36,30.02,29.36L30.02,29.36L30.02,29.36z
				 M30.02,29.31v0.02C30.01,29.34,30,29.34,30,29.36h-0.03c0-0.01,0.01-0.02,0.01-0.03C29.99,29.32,30,29.31,30.02,29.31
				L30.02,29.31L30.02,29.31z M30.21,29.44h-0.03v-0.12h0.03V29.44L30.21,29.44z M30.21,29.31h-0.03v-0.03h0.03V29.31L30.21,29.31
				L30.21,29.31z M30.17,29.44c-0.01,0-0.01,0-0.02,0c-0.01,0-0.02,0-0.03-0.01c0,0-0.01-0.01-0.01-0.02v-0.06h-0.02v-0.02h0.01
				v-0.03h0.03v0.03h0.02v0.02h-0.02v0.05c0,0.01,0,0.01,0.01,0.01c0,0,0,0,0.01,0h0.01v0.03H30.17L30.17,29.44z M30.02,29.44v-0.02
				c0.01,0,0.01,0,0.01-0.01c0.01,0,0.01-0.01,0.01-0.01v-0.02h-0.01l-0.01,0.01v-0.02c0.01,0,0.01,0,0.01,0
				c0.01,0,0.01,0,0.01-0.01c0,0,0,0,0-0.01c0-0.01-0.01-0.01-0.02-0.01l0,0v-0.02l0,0c0.02,0,0.03,0.01,0.04,0.01
				c0.01,0,0.01,0.01,0.01,0.03v0.05c0,0.01,0,0.01,0,0.01c0.01,0,0.01,0.01,0.01,0c0,0.01,0,0.01,0,0.01h-0.01
				c-0.01,0-0.02,0-0.02,0c-0.01,0-0.01-0.01-0.01-0.01l0,0l0,0C30.04,29.43,30.03,29.44,30.02,29.44L30.02,29.44L30.02,29.44z
				 M30.29,29.31v0.03c-0.02,0-0.03,0.01-0.03,0.03c0,0.02,0.01,0.03,0.03,0.03v0.02c-0.04,0-0.06-0.02-0.06-0.05
				C30.23,29.33,30.26,29.31,30.29,29.31L30.29,29.31L30.29,29.31z M30.47,29.44h-0.03v-0.08c0-0.01-0.01-0.02-0.02-0.02
				s-0.01,0-0.01,0.01c-0.01,0.01-0.01,0.01-0.01,0.01v0.08h-0.03v-0.12h0.03v0.01l0,0c0.01-0.01,0.02-0.02,0.03-0.02
				c0.01,0,0.02,0.01,0.03,0.01c0.01,0,0.01,0.01,0.01,0.02L30.47,29.44L30.47,29.44L30.47,29.44z M30.29,29.44v-0.02l0,0
				c0.01,0,0.02-0.01,0.02-0.03c0-0.03-0.01-0.03-0.02-0.03l0,0v-0.04l0,0c0.04,0,0.06,0.02,0.06,0.06
				C30.35,29.41,30.33,29.44,30.29,29.44L30.29,29.44L30.29,29.44L30.29,29.44z M30.54,29.36v0.02h-0.01
				c-0.01,0-0.01,0.01-0.01,0.01c0,0.01,0.01,0.01,0.01,0.01c0.01,0,0.01,0,0.01,0v0.02c-0.01,0-0.01,0-0.01,0
				c-0.03,0-0.04-0.01-0.04-0.03c0-0.02,0.01-0.03,0.03-0.03C30.53,29.36,30.54,29.36,30.54,29.36L30.54,29.36L30.54,29.36z
				 M30.54,29.31v0.02c-0.01,0.01-0.02,0.01-0.02,0.02h-0.03c0-0.01,0-0.02,0.01-0.03C30.53,29.32,30.53,29.31,30.54,29.31
				L30.54,29.31L30.54,29.31z M31.18,29.32l-0.04,0.12h-0.04l-0.04-0.12h0.04l0.02,0.08l0,0l0.02-0.08H31.18L31.18,29.32z
				 M31.05,29.44h-0.03v-0.12h0.03V29.44L31.05,29.44L31.05,29.44z M31.05,29.31h-0.03v-0.03h0.03V29.31L31.05,29.31L31.05,29.31z
				 M31.01,29.44h-0.03v-0.08c0-0.01-0.01-0.02-0.02-0.02c-0.01,0-0.01,0-0.01,0.01c-0.01,0.01-0.01,0.01-0.01,0.01v0.08h-0.03
				v-0.12h0.03v0.01l0,0c0.01-0.01,0.02-0.02,0.03-0.02c0.01,0,0.02,0.01,0.03,0.01c0.01,0,0.01,0.01,0.01,0.02L31.01,29.44
				L31.01,29.44L31.01,29.44z M30.87,29.38c0,0.02-0.01,0.03-0.01,0.04c-0.01,0.01-0.03,0.01-0.05,0.01s-0.03,0-0.05-0.01
				c-0.01-0.01-0.01-0.02-0.01-0.04v-0.09h0.03v0.09c0,0.01,0.01,0.02,0.03,0.02c0.02,0,0.03-0.01,0.03-0.02v-0.09h0.04L30.87,29.38
				L30.87,29.38L30.87,29.38z M30.66,29.44h-0.04v-0.16h0.04V29.44L30.66,29.44L30.66,29.44z M30.54,29.44v-0.02
				c0.01,0,0.01,0,0.01-0.01c0.01,0,0.01-0.01,0.01-0.01v-0.02h-0.01c0,0,0,0.01-0.01,0.01v-0.02c0.01,0,0.01,0,0.01,0
				c0.01,0,0.01,0,0.01-0.01c0,0,0,0,0-0.01c0-0.01-0.01-0.01-0.01-0.01c-0.01,0-0.01,0-0.01,0v-0.02h0.01
				c0.01,0,0.03,0.01,0.04,0.01s0.01,0.01,0.01,0.03v0.05c0,0.01,0,0.01,0.01,0.01c0,0,0,0.01,0,0c0,0.01,0,0.01,0,0.01h-0.01
				c-0.01,0-0.01,0-0.02,0l-0.01-0.01l0,0l0,0C30.56,29.43,30.56,29.44,30.54,29.44L30.54,29.44L30.54,29.44z M31.24,29.31v0.02
				c-0.01,0-0.02,0.01-0.02,0.03h0.02v0.02h-0.02c0,0.02,0.01,0.03,0.02,0.03v0.02c-0.04,0-0.06-0.02-0.06-0.05
				c0-0.02,0.01-0.03,0.01-0.04C31.21,29.32,31.23,29.31,31.24,29.31L31.24,29.31L31.24,29.31L31.24,29.31z M31.78,29.32l-0.04,0.12
				c-0.01,0.01-0.01,0.02-0.01,0.02c-0.01,0.01-0.01,0.01-0.03,0.01c-0.01,0-0.01,0-0.02,0v-0.02h0.01c0.01,0,0.01-0.01,0.01-0.02
				l-0.04-0.11h0.04l0.02,0.08l0,0l0.02-0.08L31.78,29.32L31.78,29.32z M31.66,29.44c-0.01,0-0.02,0-0.03,0
				c-0.01,0-0.02,0-0.02-0.01c-0.01,0-0.01-0.01-0.01-0.02v-0.06h-0.02v-0.02h0.02v-0.03h0.03v0.03h0.03v0.02h-0.02v0.05
				c0,0.01,0,0.01,0,0.01h0.01c0.01,0,0.01,0,0.01,0L31.66,29.44L31.66,29.44L31.66,29.44z M31.57,29.44h-0.03v-0.12h0.03V29.44
				L31.57,29.44L31.57,29.44z M31.57,29.31h-0.03v-0.03h0.03V29.31L31.57,29.31L31.57,29.31z M31.51,29.41
				c0,0.02-0.02,0.03-0.05,0.03c-0.03,0-0.06-0.01-0.06-0.03h0.03c0,0.01,0.01,0.01,0.02,0.01c0.01,0,0.02-0.01,0.02-0.01
				l-0.01-0.01c-0.01,0-0.01,0-0.02-0.01c-0.02,0-0.03-0.01-0.03-0.01c-0.01-0.01-0.01-0.01-0.01-0.03c0-0.01,0.01-0.01,0.01-0.02
				c0.01-0.01,0.02-0.01,0.04-0.01c0.01,0,0.03,0.01,0.04,0.01c0.01,0.01,0.01,0.01,0.01,0.02h-0.03c0-0.01-0.01-0.01-0.01-0.01
				c-0.01,0-0.02,0-0.02,0.01c0,0.01,0.01,0.01,0.03,0.01c0.01,0,0.02,0.01,0.03,0.01C31.51,29.38,31.51,29.38,31.51,29.41
				L31.51,29.41L31.51,29.41z M31.39,29.35C31.39,29.35,31.39,29.35,31.39,29.35c-0.02,0-0.02,0-0.03,0.01
				c-0.01,0-0.01,0.01-0.01,0.01v0.05h-0.03v-0.11h0.03v0.02l0,0c0.01-0.01,0.02-0.03,0.03-0.03c0,0,0.01,0,0.01,0.01L31.39,29.35
				L31.39,29.35L31.39,29.35z M31.24,29.38v-0.02h0.02c0-0.01,0-0.01,0-0.01c-0.01-0.01-0.01-0.01-0.02-0.01l0,0v-0.03
				c0.02,0,0.03,0.01,0.05,0.02c0.01,0.01,0.01,0.03,0.01,0.05L31.24,29.38L31.24,29.38L31.24,29.38z M31.24,29.44v-0.02l0,0
				c0.01,0,0.01,0,0.01-0.01c0.01,0,0.01-0.01,0.01-0.01h0.03c0,0.01,0,0.01-0.01,0.02C31.29,29.44,31.27,29.44,31.24,29.44
				L31.24,29.44L31.24,29.44L31.24,29.44z"/>
			<path class="st8" d="M29.13,31.39l0.12,0.05v0.2l-0.15,0.34l0.05,0.02c0.04,0.02,0.07,0.03,0.1,0.03c0,0,0,0,0.01,0v0.18
				c-0.05-0.01-0.09-0.02-0.12-0.03l-0.29-0.14L29.13,31.39L29.13,31.39z M29.25,31.45l0.16,0.08c0.05,0.03,0.1,0.05,0.12,0.09
				c0.03,0.03,0.05,0.08,0.06,0.12c0.01,0.03,0.01,0.08,0.01,0.12c-0.01,0.05-0.02,0.09-0.04,0.14c-0.03,0.08-0.06,0.12-0.09,0.15
				c-0.03,0.03-0.07,0.05-0.11,0.08c-0.03,0.01-0.07,0.01-0.11,0.01l0,0v-0.18c0.02-0.01,0.03-0.01,0.06-0.03
				c0.01-0.02,0.03-0.05,0.06-0.11c0.03-0.08,0.03-0.12,0.03-0.16c-0.01-0.03-0.04-0.06-0.09-0.09l-0.05-0.03l-0.01,0.03
				L29.25,31.45L29.25,31.45z"/>
			<polygon class="st8" points="29.97,31.83 30.18,31.83 30.18,32.55 29.97,32.55 			"/>
			<path class="st8" d="M30.87,31.47l0.19-0.09l0.17,0.38c0.02,0.04,0.03,0.08,0.03,0.12c0,0.03,0,0.08-0.01,0.12
				c-0.01,0.03-0.03,0.06-0.05,0.09c-0.03,0.03-0.08,0.05-0.12,0.09c-0.03,0.01-0.07,0.03-0.1,0.03c-0.04,0.01-0.08,0.02-0.1,0.02
				c-0.03,0-0.06-0.01-0.09-0.02c-0.03-0.02-0.06-0.03-0.08-0.05c-0.03-0.03-0.05-0.08-0.07-0.09l-0.18-0.38l0.19-0.09l0.18,0.4
				c0.01,0.03,0.03,0.05,0.06,0.08c0.03,0.01,0.06,0.01,0.1-0.01c0.03-0.02,0.05-0.04,0.06-0.08c0.01-0.03,0.01-0.05-0.01-0.09
				L30.87,31.47L30.87,31.47z"/>
			<path class="st10" d="M30.05,33.06c0.12,0,0.23,0.11,0.23,0.25c0,0.14-0.11,0.25-0.23,0.25c-0.13,0-0.23-0.11-0.23-0.25
				C29.82,33.16,29.92,33.06,30.05,33.06L30.05,33.06z"/>
			<g>
				<g>
					<defs>
						<rect id="SVGID_00000085942604713945165640000014069978940091505324_" x="27.67" y="28.52" width="17.8" height="5.27"/>
					</defs>
					<clipPath id="SVGID_00000005238318110042744530000001082993884630619273_">
						<use xlink:href="#SVGID_00000085942604713945165640000014069978940091505324_"  style="overflow:visible;"/>
					</clipPath>
					
						<path style="clip-path:url(#SVGID_00000005238318110042744530000001082993884630619273_);fill-rule:evenodd;clip-rule:evenodd;fill:#39B04A;" d="
						M36.01,31.8c-0.06,0.29-0.11,0.58-0.17,0.87c-0.08,0.35-0.29,0.55-0.62,0.59c-0.17,0.02-0.32,0.02-0.49-0.03
						c-0.2-0.05-0.29-0.21-0.27-0.42c0.02-0.27,0.1-0.53,0.14-0.8c0.02-0.13,0.05-0.26,0.08-0.39c0.01-0.05,0.03-0.06,0.08-0.06
						c0.05,0,0.11,0,0.17-0.01c0.03-0.02,0.06-0.03,0.1,0c0.09,0.01,0.09,0.01,0.06,0.13c0.02,0.05,0,0.09-0.02,0.13
						c-0.05,0.27-0.11,0.55-0.17,0.83c-0.04,0.19-0.01,0.27,0.1,0.31c0.14,0.06,0.32,0.01,0.39-0.12c0.05-0.07,0.06-0.16,0.08-0.24
						c0.05-0.25,0.1-0.51,0.15-0.76c0-0.02,0-0.03,0-0.04c-0.02-0.05,0.01-0.09,0.03-0.12c0.02-0.12,0.02-0.12,0.13-0.12
						c0.04,0,0.08,0,0.12-0.01c0.03-0.02,0.07-0.03,0.1,0c0.09-0.01,0.08,0.05,0.05,0.11C36.03,31.7,36.06,31.75,36.01,31.8
						L36.01,31.8z"/>
				</g>
				<g>
					<defs>
						<rect id="SVGID_00000109017261929297244320000002933395773507390891_" x="27.67" y="28.52" width="17.8" height="5.27"/>
					</defs>
					<clipPath id="SVGID_00000096020052310895566050000006628742379529396615_">
						<use xlink:href="#SVGID_00000109017261929297244320000002933395773507390891_"  style="overflow:visible;"/>
					</clipPath>
					
						<path style="clip-path:url(#SVGID_00000096020052310895566050000006628742379529396615_);fill-rule:evenodd;clip-rule:evenodd;fill:#0B539D;" d="
						M37.43,29.43c-0.06,0.05-0.13,0.02-0.2,0.02c-0.07,0-0.09,0.03-0.1,0.09c-0.07,0.35-0.14,0.7-0.2,1.05
						c-0.01,0.06-0.03,0.09-0.09,0.08c-0.1-0.01-0.2-0.01-0.3,0c-0.06,0-0.08-0.02-0.07-0.09c0.06-0.29,0.11-0.59,0.17-0.88
						c0.02-0.06,0.02-0.13,0.04-0.2c0.02-0.05-0.01-0.07-0.05-0.07h-0.01c-0.17,0-0.17,0-0.13-0.18c0.03-0.16,0.03-0.16,0.19-0.16
						c0.07,0,0.1-0.02,0.1-0.09c0-0.02,0.01-0.04,0.02-0.05c0.03-0.29,0.18-0.41,0.45-0.43c0.11-0.01,0.21,0,0.32,0.01
						c0.04,0,0.05,0.02,0.05,0.05c-0.01,0.02-0.01,0.05-0.02,0.06c-0.02,0.06-0.02,0.13-0.05,0.17c-0.04,0.05-0.11,0.02-0.17,0.02
						c-0.09,0.02-0.17,0.12-0.16,0.23c0.01,0.03,0.03,0.03,0.05,0.03c0.05,0,0.11,0,0.17,0c0.05,0,0.05,0.02,0.05,0.06
						c-0.01,0.04-0.02,0.08-0.02,0.13C37.45,29.34,37.47,29.39,37.43,29.43L37.43,29.43z"/>
				</g>
				<g>
					<defs>
						<rect id="SVGID_00000088840483839656264470000010875891264385399681_" x="27.67" y="28.52" width="17.8" height="5.27"/>
					</defs>
					<clipPath id="SVGID_00000021106383721304956610000009710122925399876543_">
						<use xlink:href="#SVGID_00000088840483839656264470000010875891264385399681_"  style="overflow:visible;"/>
					</clipPath>
					
						<path style="clip-path:url(#SVGID_00000021106383721304956610000009710122925399876543_);fill-rule:evenodd;clip-rule:evenodd;fill:#0B539D;" d="
						M37.48,29.33c0.02-0.06,0.03-0.12,0.04-0.18c0.01-0.04,0.04-0.04,0.07-0.04c0.06,0,0.13,0.02,0.17-0.02s0.03-0.12,0.05-0.18
						c0.05-0.22,0.15-0.33,0.36-0.38c0.14-0.03,0.28-0.01,0.42,0c0.02,0,0.04,0.02,0.03,0.04c-0.01,0.02-0.01,0.04-0.02,0.05
						c-0.02,0.07-0.02,0.15-0.05,0.2c-0.04,0.05-0.12,0.01-0.18,0.02c-0.02,0.01-0.05,0.02-0.07,0.03
						c-0.06,0.05-0.06,0.12-0.07,0.18c-0.01,0.04,0.02,0.04,0.04,0.04c0.05,0,0.11,0,0.17,0c0.04,0,0.06,0.01,0.05,0.05
						c-0.01,0.02-0.01,0.02-0.01,0.04c-0.02,0.08-0.02,0.18-0.06,0.23c-0.05,0.05-0.14,0.02-0.21,0.02c-0.05,0-0.06,0.03-0.07,0.07
						c-0.07,0.36-0.14,0.72-0.21,1.08c-0.01,0.05-0.03,0.07-0.08,0.07c-0.11,0-0.21,0-0.32,0c-0.05,0-0.08-0.01-0.06-0.08
						c0.06-0.31,0.12-0.63,0.18-0.95c0.01-0.04,0.02-0.08,0.02-0.12c0.01-0.05,0-0.09-0.06-0.08c-0.03,0-0.05,0-0.08,0
						c-0.08,0-0.09-0.02-0.07-0.09C37.46,29.34,37.47,29.34,37.48,29.33L37.48,29.33z"/>
				</g>
			</g>
			<path class="st14" d="M41.96,33.24c-0.11,0-0.22-0.01-0.32-0.05c-0.14-0.05-0.21-0.18-0.19-0.33c0.01-0.04,0.02-0.05,0.06-0.05
				c0.09,0,0.18,0,0.27,0c0.04,0,0.05,0.01,0.06,0.05c0.02,0.09,0.06,0.13,0.16,0.13c0.11,0.01,0.19-0.04,0.22-0.11
				c0.02-0.06,0-0.1-0.08-0.13c-0.11-0.03-0.23-0.05-0.33-0.09c-0.11-0.03-0.22-0.07-0.24-0.2c-0.02-0.15,0.02-0.29,0.13-0.39
				c0.08-0.08,0.17-0.11,0.28-0.13c0.18-0.03,0.36-0.04,0.53,0.04c0.13,0.05,0.2,0.16,0.19,0.29c0,0.04-0.02,0.06-0.05,0.06
				c-0.09,0-0.18,0-0.27,0c-0.03,0-0.05-0.01-0.05-0.05c-0.01-0.06-0.05-0.09-0.1-0.09c-0.07-0.01-0.14-0.01-0.2,0.02
				c-0.04,0.02-0.06,0.05-0.06,0.09c0,0.05,0.03,0.06,0.06,0.08c0.1,0.05,0.2,0.06,0.31,0.08c0.06,0.02,0.12,0.03,0.17,0.05
				c0.11,0.05,0.17,0.16,0.14,0.29c-0.05,0.23-0.18,0.38-0.41,0.42C42.13,33.24,42.05,33.24,41.96,33.24L41.96,33.24z"/>
			<g>
				<g>
					<defs>
						<rect id="SVGID_00000096020110943938777070000009947464055021551532_" x="27.67" y="28.52" width="17.8" height="5.27"/>
					</defs>
					<clipPath id="SVGID_00000031897742839628658840000015918224319166721458_">
						<use xlink:href="#SVGID_00000096020110943938777070000009947464055021551532_"  style="overflow:visible;"/>
					</clipPath>
					
						<path style="clip-path:url(#SVGID_00000031897742839628658840000015918224319166721458_);fill-rule:evenodd;clip-rule:evenodd;fill:#39B04A;" d="
						M36.54,32.11c0.14-0.16,0.31-0.19,0.48-0.17c0.18,0.02,0.29,0.16,0.26,0.34c-0.05,0.3-0.11,0.59-0.17,0.88
						c-0.01,0.04-0.03,0.05-0.07,0.05c-0.08,0-0.17,0-0.25,0c-0.05,0-0.07-0.02-0.05-0.07c0.05-0.23,0.09-0.47,0.14-0.7
						c0.03-0.16-0.03-0.22-0.18-0.2c-0.11,0.02-0.2,0.1-0.23,0.23c-0.05,0.22-0.09,0.44-0.13,0.66c-0.01,0.05-0.03,0.09-0.09,0.08
						c-0.07-0.01-0.14-0.01-0.21,0c-0.08,0.01-0.08-0.03-0.07-0.09c0.06-0.27,0.11-0.55,0.17-0.83c0.02-0.09,0.04-0.17,0.05-0.26
						c0.01-0.05,0.03-0.07,0.08-0.07c0.08,0.01,0.14,0.01,0.22,0c0.07-0.01,0.09,0.02,0.07,0.09
						C36.54,32.06,36.54,32.07,36.54,32.11L36.54,32.11z"/>
				</g>
				<g>
					<defs>
						<rect id="SVGID_00000070815825492619657260000018196556016973230212_" x="27.67" y="28.52" width="17.8" height="5.27"/>
					</defs>
					<clipPath id="SVGID_00000035494508194459023860000011994416625534968206_">
						<use xlink:href="#SVGID_00000070815825492619657260000018196556016973230212_"  style="overflow:visible;"/>
					</clipPath>
					
						<path style="clip-path:url(#SVGID_00000035494508194459023860000011994416625534968206_);fill-rule:evenodd;clip-rule:evenodd;fill:#39B04A;" d="
						M44.73,32.74c0.06-0.12,0.11-0.24,0.17-0.36c0.05-0.11,0.11-0.22,0.16-0.34c0.02-0.06,0.06-0.09,0.13-0.09
						c0.08,0.01,0.14,0.01,0.22,0c0.08-0.01,0.07,0.02,0.04,0.08c-0.17,0.31-0.35,0.63-0.52,0.95c-0.08,0.14-0.15,0.27-0.23,0.41
						c-0.11,0.2-0.26,0.29-0.47,0.27c-0.03-0.01-0.07-0.01-0.1-0.01c-0.06,0-0.09-0.02-0.07-0.09c0.01-0.02,0.02-0.05,0.02-0.08
						c0.01-0.09,0.02-0.13,0.13-0.11c0.12,0.02,0.25-0.14,0.23-0.27c-0.06-0.35-0.11-0.71-0.17-1.06c-0.02-0.07,0-0.09,0.07-0.09
						c0.08,0.01,0.16,0.01,0.23,0c0.05,0,0.08,0.02,0.08,0.08c0.02,0.21,0.04,0.42,0.06,0.63c0,0.02,0.01,0.05,0.01,0.06
						C44.72,32.74,44.73,32.74,44.73,32.74L44.73,32.74z"/>
				</g>
			</g>
			<path class="st14" d="M38.5,32.82c0.05-0.09,0.08-0.18,0.13-0.27c0.08-0.17,0.16-0.35,0.23-0.53c0.02-0.05,0.05-0.06,0.1-0.06
				c0.09,0,0.18,0,0.27,0c0.05,0,0.05,0.02,0.03,0.05c-0.2,0.38-0.41,0.77-0.6,1.15c-0.02,0.03-0.04,0.05-0.08,0.05
				c-0.11,0-0.21,0-0.32,0c-0.04,0-0.06-0.02-0.07-0.06c-0.05-0.38-0.1-0.76-0.15-1.13c-0.01-0.05,0.01-0.06,0.05-0.06
				c0.08,0,0.17,0.01,0.26,0c0.08-0.01,0.09,0.02,0.1,0.09c0.01,0.24,0.02,0.48,0.03,0.72c0,0.02,0,0.03,0.01,0.05
				C38.49,32.82,38.5,32.82,38.5,32.82L38.5,32.82z"/>
			<path class="st17" d="M42.63,30.66c-0.05-0.02-0.02-0.05-0.01-0.09c0.09-0.48,0.18-0.95,0.28-1.42c0.04-0.17,0.07-0.35,0.11-0.52
				c0.01-0.05,0.02-0.08,0.08-0.08c0.11,0.01,0.21,0.01,0.32,0c0.06,0,0.07,0.02,0.06,0.08c-0.1,0.5-0.2,1-0.3,1.5
				c0,0.01,0,0.02,0,0.02c-0.08-0.01-0.14-0.01-0.21,0.04c-0.12,0.09-0.17,0.24-0.23,0.38C42.7,30.63,42.7,30.69,42.63,30.66
				L42.63,30.66z"/>
			<path class="st14" d="M43.9,31.58c0.19,0,0.19,0,0.14,0.2c-0.03,0.16-0.03,0.17,0.13,0.18c0.05,0,0.05,0.02,0.05,0.06
				c0,0.01,0,0.02-0.01,0.02c-0.04,0.18-0.04,0.18-0.21,0.19c-0.04,0-0.05,0.02-0.06,0.05c-0.03,0.18-0.07,0.37-0.11,0.55
				c-0.02,0.08,0,0.1,0.08,0.11c0.02,0,0.05,0,0.07,0c0.04-0.01,0.05,0.01,0.04,0.05c-0.02,0.05-0.02,0.12-0.03,0.17
				c-0.01,0.03-0.02,0.05-0.05,0.05c-0.13,0.02-0.26,0.02-0.38,0c-0.09-0.02-0.13-0.06-0.13-0.16c0-0.14,0.05-0.28,0.07-0.41
				c0.02-0.11,0.04-0.21,0.06-0.32c0.02-0.05,0-0.07-0.06-0.07c-0.13,0-0.13,0-0.1-0.14c0.01-0.02,0.01-0.04,0.01-0.05
				c0.01-0.06,0.03-0.09,0.09-0.08c0.12,0.01,0.12,0,0.14-0.12c0.02-0.05,0.03-0.12,0.04-0.17c0.01-0.08,0.04-0.09,0.11-0.09
				C43.84,31.59,43.87,31.58,43.9,31.58L43.9,31.58z"/>
			<path class="st17" d="M42.08,30.67c-0.05,0-0.11,0-0.16,0c-0.05,0-0.08-0.02-0.06-0.08c0.07-0.34,0.14-0.69,0.2-1.03
				c0.02-0.13,0.05-0.26,0.08-0.39c0.01-0.05,0.02-0.06,0.07-0.06c0.11,0,0.23,0,0.35,0c0.05,0,0.05,0.02,0.05,0.06
				c-0.1,0.48-0.19,0.95-0.28,1.42c-0.01,0.05-0.03,0.09-0.09,0.08C42.18,30.66,42.13,30.67,42.08,30.67L42.08,30.67z"/>
			<path class="st14" d="M41.08,32.14c0.05-0.04,0.08-0.08,0.12-0.12c0.09-0.08,0.2-0.1,0.32-0.09c0.04,0,0.05,0.02,0.05,0.05
				c-0.02,0.09-0.04,0.18-0.05,0.27c-0.01,0.05-0.03,0.05-0.06,0.05c-0.04-0.01-0.08-0.01-0.12-0.01c-0.18,0.02-0.29,0.13-0.34,0.31
				c-0.04,0.17-0.08,0.35-0.11,0.52c-0.01,0.05-0.03,0.08-0.09,0.08c-0.08-0.01-0.16,0-0.23,0c-0.05,0-0.07-0.01-0.05-0.07
				c0.08-0.38,0.15-0.75,0.23-1.13c0.01-0.04,0.02-0.06,0.07-0.06c0.08,0,0.17,0,0.25,0c0.06,0,0.07,0.02,0.05,0.08
				C41.08,32.06,41.08,32.1,41.08,32.14L41.08,32.14z"/>
			<path class="st14" d="M42.89,33.21c-0.19,0-0.19,0-0.15-0.2c0.07-0.33,0.13-0.66,0.19-0.98c0.01-0.05,0.03-0.07,0.08-0.07
				c0.08,0,0.16,0,0.24,0c0.05,0,0.06,0.02,0.05,0.06c-0.08,0.38-0.15,0.76-0.23,1.13c-0.01,0.05-0.03,0.06-0.07,0.05
				C42.98,33.21,42.94,33.21,42.89,33.21L42.89,33.21z"/>
			<path class="st14" d="M37.49,33.21c-0.18,0-0.18,0-0.14-0.19c0.06-0.34,0.13-0.66,0.2-1c0.01-0.05,0.03-0.07,0.08-0.07
				c0.08,0,0.16,0,0.23,0c0.05,0,0.08,0.01,0.06,0.08c-0.08,0.36-0.15,0.73-0.22,1.09c-0.02,0.08-0.05,0.1-0.11,0.09
				C37.55,33.2,37.52,33.21,37.49,33.21L37.49,33.21z"/>
			<path class="st18" d="M34.65,30.27c0.05,0.04-0.02,0.05-0.02,0.08c-0.07,0.03-0.09,0.09-0.11,0.16c-0.07,0.17-0.1,0.36-0.14,0.54
				c-0.03,0.13-0.06,0.25-0.11,0.38c-0.11,0.28-0.29,0.42-0.58,0.41c-0.16-0.01-0.32,0-0.49,0c0.01-0.05,0.05-0.06,0.08-0.08
				c0.09-0.04,0.2-0.05,0.29-0.05c0.11,0,0.22-0.01,0.32,0.01c0.08,0.01,0.14-0.03,0.17-0.1c0.08-0.13,0.11-0.27,0.13-0.41
				c0.05-0.23,0.08-0.47,0.2-0.68c0.04-0.07,0.08-0.13,0.14-0.18c0.01-0.02,0.01-0.02,0-0.03c-0.01-0.02-0.03-0.03,0-0.04
				C34.58,30.27,34.61,30.27,34.65,30.27L34.65,30.27z"/>
			<path class="st19" d="M42.63,30.66c0.05,0,0.06-0.04,0.08-0.08c0.05-0.13,0.1-0.27,0.2-0.38c0.01-0.01,0.02-0.02,0.04-0.03
				c0.02,0.01,0.02,0.02,0.02,0.04c-0.04,0.11-0.11,0.2-0.12,0.32c-0.01,0.03-0.02,0.05-0.01,0.09c0.04,0.03,0.08,0.01,0.13,0.02
				c0.03,0,0.06,0,0.08,0.02c-0.06,0.02-0.13,0.01-0.2,0.01c-0.04,0-0.06,0.01-0.07,0.05c-0.06,0.3-0.13,0.61-0.26,0.9
				c-0.02,0.04-0.01,0.05,0.03,0.05c0.17,0.02,0.27,0,0.41-0.08c-0.01,0.05-0.06,0.12-0.14,0.16c-0.13,0.07-0.26,0.05-0.4,0.03
				c-0.05-0.01-0.02-0.04-0.02-0.06c0.11-0.33,0.17-0.67,0.26-1.01C42.67,30.69,42.66,30.68,42.63,30.66L42.63,30.66z"/>
			<path class="st18" d="M39.15,30.72c0.02-0.02,0.02-0.03,0.04-0.05c0.02-0.02,0.03-0.04,0.05-0.03c0.03,0.02,0,0.04,0,0.06
				c-0.03,0.11-0.06,0.23-0.08,0.34c-0.02,0.08,0.01,0.09,0.07,0.09c0.03,0,0.07,0,0.1,0c0.02,0,0.05,0,0.05,0.03
				s-0.01,0.05-0.05,0.05c-0.05,0-0.11,0-0.16,0c-0.03,0-0.05,0.01-0.06,0.04c-0.02,0.14-0.07,0.27-0.14,0.41
				c0.13,0,0.26,0.03,0.36-0.06c0.02-0.01,0.03-0.02,0.04-0.01c0.02,0.02,0,0.03-0.01,0.05c-0.07,0.09-0.16,0.14-0.26,0.15
				c-0.06,0.01-0.12,0-0.18,0c-0.05,0-0.05-0.02-0.04-0.06c0.04-0.15,0.08-0.3,0.11-0.45c0.01-0.04,0.02-0.07-0.04-0.07
				c-0.02,0-0.04-0.02-0.04-0.04c0-0.03,0.02-0.05,0.04-0.05c0.06,0.01,0.07-0.03,0.08-0.08C39.08,30.94,39.12,30.83,39.15,30.72
				L39.15,30.72z"/>
			<path class="st18" d="M35.63,31.66c-0.01,0.04-0.02,0.08-0.03,0.12c-0.09,0.03-0.19,0.02-0.28,0.02c-0.05,0-0.05-0.02-0.04-0.06
				c0.04-0.15,0.07-0.3,0.11-0.45c0.01-0.04,0.02-0.06-0.04-0.06c-0.02,0-0.04-0.02-0.04-0.04c0-0.03,0.02-0.05,0.05-0.05
				c0.06,0.01,0.07-0.03,0.08-0.08c0.02-0.05,0.03-0.12,0.05-0.17c0.04-0.1,0.07-0.2,0.16-0.27c0.01,0.02,0.02,0.04,0.02,0.05
				c-0.07,0.1-0.08,0.23-0.11,0.35c-0.02,0.12-0.02,0.12,0.09,0.12c0.02,0,0.05,0,0.06,0c0.02,0,0.05-0.01,0.05,0.04
				c0,0.04-0.02,0.05-0.06,0.05c-0.05,0-0.09,0-0.14,0c-0.04,0-0.05,0.02-0.06,0.05c-0.02,0.13-0.06,0.25-0.13,0.37
				c-0.02,0.02-0.02,0.04,0.02,0.04C35.48,31.67,35.56,31.7,35.63,31.66L35.63,31.66z"/>
			<path class="st20" d="M42.43,28.93c-0.06,0-0.11,0-0.17,0c-0.05,0-0.06-0.02-0.05-0.06c0.02-0.09,0.04-0.17,0.05-0.26
				c0.01-0.04,0.02-0.05,0.06-0.05c0.11,0,0.23,0,0.35,0c0.05,0,0.05,0.02,0.05,0.06c-0.02,0.09-0.04,0.16-0.05,0.25
				c-0.01,0.05-0.03,0.06-0.08,0.06C42.54,28.92,42.49,28.93,42.43,28.93L42.43,28.93z"/>
			<path class="st21" d="M41.09,31.2c0.05-0.05,0.09-0.07,0.15-0.08c0.12-0.02,0.2,0.06,0.17,0.2c-0.02,0.09-0.08,0.16-0.14,0.23
				c-0.03,0.04-0.07,0.07-0.1,0.11c0.13,0.02,0.24,0.03,0.35-0.07c0.02,0.05-0.02,0.08-0.04,0.1c-0.1,0.1-0.22,0.12-0.34,0.1
				c-0.03,0-0.08,0.02-0.09-0.02c-0.02-0.03,0.03-0.05,0.05-0.09c0.06-0.09,0.12-0.19,0.17-0.3c0.02-0.05,0.05-0.12,0.01-0.16
				c-0.05-0.05-0.1-0.02-0.15,0c-0.02,0.01-0.02,0.01-0.04,0C41.07,31.22,41.08,31.2,41.09,31.2L41.09,31.2z"/>
			<path class="st22" d="M33.74,30.66c0.12-0.1,0.24-0.2,0.39-0.27c0.07-0.03,0.13-0.05,0.2-0.06c0.02-0.02,0.04-0.01,0.05-0.02l0,0
				c0.02-0.01,0.05-0.02,0.06,0.02c-0.05,0.02-0.11,0.03-0.16,0.05c-0.02,0.02-0.04,0.03-0.06,0.05c-0.06,0.03-0.12,0.07-0.18,0.12
				c-0.02,0.02-0.06,0.03-0.08,0.06c-0.05,0.02-0.08,0.05-0.11,0.09c-0.17,0.22-0.27,0.47-0.26,0.76c0,0.01,0,0.02,0,0.03
				c0,0.01,0,0.01-0.01,0.02c-0.05-0.01-0.04-0.05-0.05-0.07c-0.04-0.25,0-0.48,0.14-0.68C33.72,30.72,33.74,30.7,33.74,30.66
				L33.74,30.66z"/>
			<path class="st18" d="M38.38,31.15c0.07-0.03,0.14-0.03,0.2-0.02c0.08,0.02,0.13,0.09,0.11,0.2c-0.02,0.1-0.05,0.2-0.1,0.29
				c-0.02,0.05-0.01,0.06,0.04,0.06c0.08,0.01,0.14-0.05,0.2-0.09c0,0.08-0.11,0.19-0.19,0.2c-0.07,0.02-0.12-0.01-0.15-0.09
				c-0.02-0.02,0.02-0.09-0.05-0.07c0,0-0.01,0.01-0.02,0.01c-0.02,0.01-0.02-0.02-0.03-0.03c0-0.04,0.03-0.06,0.05-0.09
				c0.05-0.07,0.08-0.15,0.1-0.23c0.02-0.09-0.01-0.13-0.1-0.11c-0.02,0-0.03,0.01-0.05,0.01C38.38,31.2,38.35,31.19,38.38,31.15
				L38.38,31.15z"/>
			<path class="st18" d="M41.94,31.15c0.07-0.04,0.14-0.03,0.2-0.02c0.08,0.01,0.12,0.09,0.11,0.19c-0.02,0.1-0.05,0.2-0.1,0.29
				c-0.04,0.07-0.01,0.08,0.05,0.08c0.07,0,0.12-0.04,0.18-0.09c0,0.08-0.11,0.2-0.2,0.21c-0.07,0.02-0.12-0.02-0.15-0.13
				c-0.02-0.05-0.03-0.05-0.06-0.02c-0.05-0.02-0.02-0.05,0-0.06c0.03-0.04,0.07-0.08,0.08-0.13c0.02-0.05,0.04-0.1,0.05-0.16
				c0.02-0.1-0.01-0.13-0.1-0.13c-0.02,0-0.04,0.01-0.05,0C41.92,31.19,41.91,31.17,41.94,31.15L41.94,31.15z"/>
			<path class="st23" d="M37.64,31.56c0-0.02,0.01-0.03,0.02-0.04c0.03-0.02,0.07-0.02,0.11-0.02c0.07,0.02,0.14,0.01,0.2,0.02
				c0.05,0,0.06,0.02,0.05,0.06c-0.02,0.08-0.04,0.15-0.05,0.23c-0.13,0.02-0.25,0.02-0.38,0C37.56,31.71,37.61,31.63,37.64,31.56
				L37.64,31.56z"/>
			<path class="st23" d="M43.17,31.81c-0.19,0-0.19,0-0.15-0.2c0.02-0.08,0.05-0.1,0.11-0.09c0.07,0.01,0.14,0,0.2,0
				c0.05,0,0.08,0.01,0.06,0.07c-0.01,0.01,0,0.02-0.01,0.03C43.36,31.81,43.36,31.81,43.17,31.81L43.17,31.81z"/>
			<path class="st24" d="M39.85,31.6c-0.02,0.13-0.19,0.23-0.29,0.21c-0.06-0.02-0.09-0.06-0.09-0.13c0-0.18,0.05-0.34,0.1-0.51
				c0.02-0.06,0.08-0.05,0.11-0.04c0.05,0.02,0.02,0.05,0.01,0.08c-0.05,0.14-0.07,0.29-0.13,0.42c-0.02,0.04,0,0.05,0.04,0.05
				C39.69,31.7,39.77,31.67,39.85,31.6L39.85,31.6z"/>
			<path class="st18" d="M40.43,31.72c-0.11,0.13-0.37,0.14-0.48,0.02c-0.06-0.07-0.07-0.16-0.05-0.24c0.03-0.11,0.08-0.2,0.18-0.27
				c0.02-0.02,0.04,0,0.05,0.02c0,0.04-0.02,0.07-0.04,0.1c-0.03,0.05-0.05,0.1-0.05,0.16c0,0.07,0.04,0.12,0.1,0.15
				c0.06,0.02,0.12,0.01,0.18,0.01c0.04,0,0.08-0.01,0.11,0.02C40.44,31.7,40.44,31.71,40.43,31.72L40.43,31.72z"/>
			<path class="st24" d="M41.94,31.15c-0.01,0.02-0.02,0.02,0.01,0.03c0,0.04-0.03,0.05-0.05,0.07c-0.08,0.07-0.14,0.16-0.17,0.27
				c-0.02,0.09,0.02,0.14,0.1,0.14c0.08,0,0.13-0.05,0.17-0.11c0.02-0.02,0.03-0.07,0.07-0.06c0,0.05-0.04,0.09-0.07,0.13
				c-0.01,0.02-0.05,0.02-0.02,0.05c-0.08,0.09-0.16,0.16-0.28,0.13c-0.08-0.02-0.11-0.07-0.12-0.15
				C41.56,31.45,41.72,31.22,41.94,31.15L41.94,31.15z"/>
			<path class="st21" d="M38.38,31.15c-0.01,0.02-0.01,0.03,0.02,0.03c0,0.04-0.03,0.04-0.05,0.06c-0.09,0.08-0.16,0.17-0.19,0.3
				c-0.02,0.08,0.02,0.12,0.1,0.12c0.06,0,0.1-0.04,0.16-0.05c0,0.02,0.01,0.03,0.02,0.04c-0.13,0.16-0.23,0.2-0.37,0.12
				c-0.09-0.12-0.05-0.23,0.02-0.35C38.16,31.3,38.25,31.2,38.38,31.15L38.38,31.15z"/>
			<path class="st18" d="M34.67,31.31c0.03-0.05,0.06-0.08,0.11-0.1c0.02,0,0.02,0.01,0.02,0.02c-0.15,0.11-0.18,0.3-0.26,0.45
				c-0.02,0.05-0.02,0.11-0.09,0.11c-0.05,0-0.06-0.01-0.05-0.06c0.08-0.2,0.14-0.41,0.14-0.63c0-0.02,0-0.03,0.02-0.03
				c0.01,0,0.02,0.01,0.03,0.02c0.02,0.02,0.05,0.05,0.05,0.09c0.02,0.05-0.01,0.09,0.02,0.14C34.67,31.32,34.67,31.32,34.67,31.31
				C34.67,31.32,34.67,31.31,34.67,31.31L34.67,31.31z"/>
			<path class="st21" d="M35.98,31.53c-0.03,0-0.07,0-0.1,0c0.02-0.04,0.08-0.05,0.11-0.09c-0.07-0.05-0.08-0.13-0.05-0.2
				c0.04-0.08,0.1-0.12,0.18-0.12s0.16,0,0.24,0c0.02,0,0.03,0,0.04,0.02c0.01,0.02,0,0.04-0.02,0.05
				c-0.05,0.05-0.11,0.07-0.18,0.04c-0.03-0.02-0.07-0.04-0.1-0.05c-0.05-0.02-0.09,0.01-0.11,0.06c-0.02,0.05,0.03,0.07,0.06,0.08
				c0.05,0.02,0.1,0.03,0.15,0.03c0.02,0,0.04,0.01,0.05,0.03c0.01,0.02-0.01,0.04-0.02,0.05c-0.03,0.02-0.07,0.03-0.11,0.02
				C36.07,31.45,36.02,31.49,35.98,31.53L35.98,31.53z"/>
			<path class="st24" d="M37.42,31.38c-0.05,0.12-0.1,0.23-0.14,0.36c-0.02,0.04-0.04,0.05-0.08,0.05c-0.04,0-0.05-0.02-0.04-0.05
				c0.08-0.2,0.13-0.41,0.14-0.63c0-0.04,0.02-0.05,0.05-0.02c0.03,0.03,0.05,0.06,0.05,0.11c0.02,0.05-0.02,0.11,0.05,0.15
				C37.44,31.34,37.42,31.37,37.42,31.38L37.42,31.38z"/>
			<path class="st18" d="M40.97,31.38c-0.05,0.11-0.09,0.22-0.14,0.33c-0.01,0.02-0.02,0.04-0.02,0.05
				c-0.02,0.05-0.07,0.04-0.1,0.02c-0.04-0.02-0.01-0.05,0-0.07c0.07-0.19,0.12-0.38,0.13-0.59c0-0.02-0.01-0.05,0.02-0.06
				c0.02-0.01,0.04,0.02,0.05,0.05c0.02,0.02,0.03,0.05,0.02,0.08c0.02,0.05-0.02,0.12,0.05,0.15
				C40.99,31.34,40.98,31.37,40.97,31.38L40.97,31.38z"/>
			<path class="st21" d="M40.13,31.27c0-0.02-0.02-0.04-0.04-0.04c0.12-0.12,0.26-0.13,0.4-0.09c0.1,0.02,0.14,0.1,0.14,0.21
				c0,0.16-0.08,0.28-0.2,0.38c0-0.01,0-0.01,0-0.02c-0.01-0.01-0.01-0.02-0.01-0.02c0-0.01,0.01-0.02,0.02-0.03
				c0.02-0.02,0.02-0.05,0.02-0.07c0.02-0.06,0.03-0.13,0.02-0.19c-0.02-0.16-0.16-0.24-0.29-0.16
				C40.18,31.25,40.16,31.27,40.13,31.27L40.13,31.27z"/>
			<path class="st25" d="M36.88,31.32c0,0.01,0,0.02-0.01,0.03c-0.03,0.05-0.05,0.12-0.06,0.19c0,0.16,0.06,0.19,0.2,0.12
				c0.02-0.02,0.06-0.05,0.08-0.02c0.02,0.03-0.03,0.06-0.05,0.08c-0.06,0.05-0.12,0.1-0.2,0.1c-0.08,0-0.12-0.04-0.14-0.12
				c-0.02-0.11,0.02-0.2,0.07-0.29c0.03-0.05,0.05-0.09,0.1-0.13C36.9,31.29,36.89,31.31,36.88,31.32L36.88,31.32z"/>
			<path class="st18" d="M36.88,31.32c0-0.02,0-0.03,0-0.04c0.01-0.02,0-0.03-0.02-0.03c-0.04,0-0.08,0-0.11,0
				c-0.05-0.01-0.08,0.02-0.09,0.06s-0.05,0.08-0.08,0.13c-0.03,0-0.03-0.02-0.02-0.03c0-0.02,0-0.02,0.02-0.03
				c0.02-0.04,0.04-0.07,0.02-0.12c-0.05-0.01-0.05-0.05-0.05-0.09c0-0.04,0.02-0.08,0.06-0.09c0.04-0.02,0.07,0,0.08,0.04
				c0.02,0.03,0.05,0.02,0.07,0.02c0.09,0,0.19,0,0.28,0c0.01,0.01,0.01,0.02,0.02,0.02C37,31.2,36.94,31.27,36.88,31.32
				L36.88,31.32z"/>
			<path class="st21" d="M34.81,31.24c-0.01-0.01-0.02-0.02-0.02-0.02c0.05-0.06,0.12-0.09,0.19-0.09c0.11-0.01,0.17,0.07,0.15,0.19
				c-0.02,0.09-0.08,0.16-0.12,0.23c-0.03,0-0.06,0-0.1,0c0.02-0.05,0.05-0.1,0.07-0.16c0.02-0.05,0.04-0.1,0-0.14
				c-0.03-0.04-0.08-0.02-0.12-0.01C34.84,31.23,34.82,31.24,34.81,31.24L34.81,31.24z"/>
			<path class="st21" d="M37.76,31.52c-0.04,0-0.07,0-0.11,0c0.02-0.05,0.05-0.09,0.06-0.13c0.05-0.13,0.02-0.18-0.11-0.16
				c-0.02,0.01-0.03,0.02-0.05,0.02c-0.05,0.01-0.04-0.02-0.02-0.04c0.05-0.04,0.09-0.07,0.15-0.08c0.12-0.02,0.2,0.05,0.17,0.19
				c-0.01,0.06-0.05,0.1-0.07,0.16C37.78,31.49,37.77,31.5,37.76,31.52L37.76,31.52z"/>
			<path class="st26" d="M42.95,30.21c-0.01-0.01-0.01-0.02-0.02-0.03c0.07-0.04,0.14-0.07,0.22-0.02c0.07,0.11,0.05,0.21-0.02,0.3
				c-0.02,0.03-0.04,0.06-0.06,0.09c-0.03,0.03-0.05,0.06-0.1,0.06c-0.02-0.01-0.02-0.02-0.02-0.02c0-0.03,0.02-0.05,0.05-0.08
				c0.03-0.04,0.05-0.08,0.06-0.13C43.09,30.28,43.06,30.23,42.95,30.21L42.95,30.21z"/>
			<path class="st27" d="M36.01,31.8c0.01-0.05,0.02-0.1,0.02-0.16c0,0.04,0.03,0.04,0.05,0.04c0.12-0.01,0.25,0.02,0.35-0.08
				c0.01-0.01,0.02-0.01,0.03,0c0.02,0.02,0,0.02-0.01,0.04c-0.07,0.09-0.14,0.16-0.26,0.16C36.14,31.79,36.07,31.8,36.01,31.8
				L36.01,31.8z"/>
			<path class="st28" d="M39.65,30.95c0-0.05,0-0.09,0.02-0.13c0.03-0.05,0.08-0.08,0.12-0.05c0.06,0.03,0.02,0.08,0,0.12
				c-0.02,0.03-0.05,0.06-0.08,0.09c-0.02,0.02-0.03,0.05-0.05,0.04C39.64,31,39.66,30.96,39.65,30.95L39.65,30.95z"/>
			<path class="st29" d="M35.04,31.79c0.01-0.05,0.02-0.09,0.02-0.13c0.07,0.03,0.11-0.05,0.18-0.05
				C35.21,31.71,35.13,31.74,35.04,31.79L35.04,31.79z"/>
			<path class="st30" d="M37.64,31.56c-0.02,0.08-0.03,0.16-0.05,0.24c-0.03-0.01-0.08,0.02-0.09-0.02
				c-0.02-0.04,0.02-0.06,0.05-0.09C37.57,31.65,37.61,31.6,37.64,31.56L37.64,31.56z"/>
			<path class="st31" d="M37.54,31.2c0,0.02-0.02,0.04,0.02,0.02c0.02-0.01,0.03-0.01,0.05-0.01c-0.08,0.04-0.14,0.1-0.19,0.17
				c-0.01-0.06-0.05-0.12-0.03-0.19c0.02,0.03,0.01,0.07,0.02,0.11C37.46,31.28,37.49,31.21,37.54,31.2L37.54,31.2z"/>
			<path class="st32" d="M40.97,31.38c-0.02-0.06-0.05-0.12-0.03-0.19c0.02,0.03,0.01,0.07,0.02,0.11c0.06-0.02,0.08-0.09,0.14-0.1
				c-0.02,0.02,0,0.03,0.02,0.04C41.05,31.27,41.02,31.33,40.97,31.38L40.97,31.38z"/>
			<path class="st33" d="M34.03,30.53c0.05-0.05,0.12-0.09,0.19-0.12c0.01,0.02-0.01,0.02-0.02,0.04c-0.04,0.04-0.08,0.08-0.14,0.1
				C34.06,30.56,34.03,30.56,34.03,30.53L34.03,30.53z"/>
			<path class="st34" d="M42.98,30.62c0.03-0.02,0.05-0.05,0.09-0.05c-0.01,0.04,0,0.08-0.04,0.1c-0.03,0-0.06-0.01-0.09-0.01
				C42.95,30.63,42.97,30.63,42.98,30.62L42.98,30.62z"/>
			<path class="st35" d="M35.91,30.68c0.04-0.02,0.08-0.02,0.11-0.02c0.08,0.01,0.12-0.02,0.12-0.12c0.03,0.09,0.02,0.13-0.07,0.13
				C36.02,30.68,35.97,30.68,35.91,30.68L35.91,30.68z"/>
			<path class="st36" d="M34.44,30.33c-0.02-0.02-0.05-0.01-0.06-0.02c0.04-0.03,0.09,0,0.12-0.03c0.02-0.01,0.02-0.01,0.04,0.01
				c0.01,0.01,0.02,0.02,0.03,0.03c-0.02,0.02-0.05,0-0.08,0.02C34.48,30.33,34.46,30.33,34.44,30.33L34.44,30.33z"/>
			<path class="st37" d="M36.82,31.54c-0.01-0.07,0.01-0.13,0.06-0.19C36.86,31.41,36.85,31.48,36.82,31.54L36.82,31.54z"/>
			<path class="st38" d="M34.03,30.53c0.01,0.02,0.02,0.02,0.04,0.02c-0.03,0.02-0.06,0.04-0.1,0.05
				C33.97,30.55,34.01,30.56,34.03,30.53L34.03,30.53z"/>
			<path class="st39" d="M34.67,31.31c-0.02,0.02-0.03,0.02-0.03-0.01c0-0.04,0-0.09,0-0.13C34.68,31.22,34.64,31.27,34.67,31.31
				L34.67,31.31z"/>
			<path class="st40" d="M34.54,30.28c-0.02,0-0.02,0-0.04-0.01c0.05-0.03,0.1,0,0.14-0.03c0,0.01,0.01,0.01,0.01,0.02
				C34.61,30.29,34.58,30.27,34.54,30.28L34.54,30.28z"/>
			<path class="st41" d="M34.21,30.45c0.01-0.02,0.01-0.02,0.02-0.04c0.02-0.02,0.04-0.03,0.06-0.03
				C34.27,30.41,34.24,30.44,34.21,30.45L34.21,30.45z"/>
			<path class="st42" d="M38.45,31.65c0.02-0.03,0.04-0.02,0.05,0.01c0.01,0.02,0,0.04,0,0.06C38.47,31.7,38.49,31.65,38.45,31.65
				L38.45,31.65z"/>
			<path class="st40" d="M36.6,31.25c0.04,0.05,0.02,0.08-0.02,0.12C36.59,31.33,36.61,31.29,36.6,31.25L36.6,31.25z"/>
			<path class="st43" d="M41.09,30.53c0.01-0.02,0.02-0.05,0.04-0.03c0.02,0.01,0.01,0.04-0.01,0.05
				C41.12,30.53,41.11,30.53,41.09,30.53L41.09,30.53z"/>
			<path class="st40" d="M34.49,30.33c0.02-0.02,0.05-0.01,0.08-0.02c0.02,0.02-0.01,0.03-0.02,0.03
				C34.54,30.31,34.51,30.34,34.49,30.33L34.49,30.33z"/>
			<path class="st40" d="M36.57,31.4c0,0.02,0,0.03,0.02,0.03c0,0.02-0.02,0.04-0.03,0.02C36.53,31.44,36.56,31.41,36.57,31.4
				L36.57,31.4z"/>
			<path class="st36" d="M34.38,30.31c-0.01,0.02-0.03,0.02-0.05,0.02c0.01-0.02,0.01-0.04,0.03-0.05
				C34.36,30.29,34.37,30.31,34.38,30.31L34.38,30.31z"/>
			<path class="st44" d="M38.3,28.89c0.02-0.02,0.04-0.03,0.07-0.03C38.35,28.88,38.33,28.89,38.3,28.89L38.3,28.89z"/>
			<path class="st17" d="M42.95,30.21c0.09-0.03,0.15,0.03,0.14,0.15c-0.02,0.09-0.07,0.16-0.13,0.23
				c-0.04,0.09-0.11,0.06-0.17,0.05C42.82,30.49,42.87,30.34,42.95,30.21L42.95,30.21z"/>
			<path class="st45" d="M42.79,30.65c0.07,0.02,0.12-0.01,0.17-0.05c0.01,0.01,0.02,0.02,0.02,0.02c-0.01,0.02-0.02,0.03-0.03,0.05
				C42.9,30.66,42.85,30.68,42.79,30.65L42.79,30.65z"/>
			<path class="st46" d="M40.13,31.68c0.11,0.01,0.21,0.01,0.31,0c0,0.01,0,0.02,0,0.02c-0.08,0-0.16,0-0.24,0
				C40.17,31.7,40.14,31.71,40.13,31.68L40.13,31.68z"/>
			<path class="st46" d="M40.45,31.66c0.02-0.02,0.02-0.05,0.04-0.07C40.48,31.63,40.48,31.66,40.45,31.66L40.45,31.66z"/>
			<path class="st17" d="M34.06,29.81c-0.02,0.05-0.04,0.11-0.06,0.16c-0.1,0.22-0.26,0.33-0.48,0.33c-0.03,0-0.07,0-0.1,0
				c-0.05,0-0.1,0-0.15,0s-0.06-0.02-0.05-0.07c0.08-0.35,0.14-0.7,0.21-1.06c0.04-0.2,0.05-0.2,0.23-0.2c0.08,0,0.16,0,0.23,0.02
				c0.14,0.02,0.22,0.1,0.23,0.25C34.16,29.42,34.11,29.61,34.06,29.81L34.06,29.81z M34.66,29.13c-0.01-0.18-0.08-0.34-0.23-0.44
				c-0.1-0.07-0.21-0.09-0.32-0.09c-0.34-0.01-0.67,0-1.01-0.01c-0.05,0-0.06,0.02-0.07,0.07c-0.02,0.1-0.04,0.2-0.06,0.31
				c-0.11,0.55-0.21,1.09-0.32,1.63c-0.01,0.05-0.01,0.08,0.05,0.08c0.35,0,0.7-0.01,1.06-0.01c0.04,0.01,0.06-0.02,0.08-0.04
				c0.04-0.03,0.07-0.06,0.11-0.09c0.12-0.09,0.26-0.15,0.39-0.2c0.02-0.02,0.02-0.04,0.03-0.06
				C34.59,29.94,34.67,29.55,34.66,29.13L34.66,29.13z"/>
			<path class="st17" d="M41.17,30.16c-0.08,0.13-0.19,0.19-0.33,0.18c-0.13-0.01-0.2-0.08-0.21-0.22
				c-0.01-0.19,0.03-0.36,0.12-0.52c0.07-0.11,0.17-0.16,0.32-0.16c0.14,0,0.23,0.09,0.23,0.26C41.28,29.86,41.24,30.02,41.17,30.16
				L41.17,30.16z M41.91,28.56c-0.11,0.01-0.22,0.01-0.33,0c-0.05,0-0.08,0.02-0.08,0.08c-0.02,0.1-0.04,0.2-0.05,0.3
				c-0.02,0.12-0.05,0.23-0.08,0.36c-0.05-0.1-0.11-0.16-0.2-0.19c-0.28-0.07-0.54-0.02-0.74,0.21c-0.24,0.28-0.32,0.63-0.28,1
				c0.02,0.19,0.12,0.33,0.3,0.38c0.24,0.07,0.46,0.03,0.65-0.16c0.02-0.02,0.04-0.02,0.03,0.02c-0.02,0.12-0.02,0.12,0.1,0.12
				c0.09,0,0.18,0,0.27,0c0.05,0,0.07-0.02,0.08-0.07c0.02-0.13,0.05-0.26,0.08-0.38c0.11-0.53,0.21-1.05,0.32-1.59
				C41.97,28.58,41.97,28.56,41.91,28.56L41.91,28.56z"/>
			<path class="st17" d="M35.74,29.96c-0.03,0.27-0.18,0.43-0.43,0.43c-0.11,0-0.16-0.03-0.18-0.1c-0.02-0.09,0.03-0.2,0.11-0.25
				c0.05-0.03,0.11-0.04,0.17-0.05c0.1-0.02,0.2-0.03,0.29-0.05C35.74,29.91,35.74,29.91,35.74,29.96L35.74,29.96z M36.11,30.32
				c0.05-0.28,0.11-0.56,0.16-0.84c0.03-0.22-0.06-0.34-0.26-0.38c-0.23-0.05-0.45-0.05-0.68,0.01c-0.23,0.05-0.38,0.19-0.45,0.42
				c-0.02,0.04-0.03,0.07,0.03,0.07c0.11,0,0.23,0,0.35,0c0.03,0,0.04-0.01,0.05-0.04c0.09-0.16,0.26-0.23,0.44-0.17
				c0.07,0.02,0.1,0.08,0.08,0.16c-0.02,0.09-0.06,0.14-0.17,0.16c-0.16,0.02-0.32,0.04-0.48,0.06c-0.29,0.04-0.47,0.2-0.53,0.48
				c-0.01,0.01-0.01,0.02,0,0.02c0.02,0.03-0.02,0.05-0.01,0.08c0,0.2,0.08,0.3,0.25,0.35c0.14,0.04,0.29,0.03,0.44-0.01
				c0.12-0.03,0.22-0.09,0.32-0.18c0.01,0.04,0.01,0.06,0.01,0.09c0.01,0.02-0.01,0.05,0.02,0.05c0.08,0.05,0.16,0.01,0.23,0.02
				c0.05-0.02,0.09-0.01,0.14-0.01c0.1,0,0.1-0.01,0.09-0.13c-0.05-0.02-0.06-0.06-0.05-0.12C36.1,30.4,36.11,30.36,36.11,30.32
				L36.11,30.32z"/>
			<path class="st17" d="M39.39,30.24c-0.09,0.12-0.2,0.14-0.34,0.12c-0.11-0.02-0.17-0.13-0.17-0.32c0.01-0.14,0.04-0.3,0.13-0.45
				c0.08-0.13,0.2-0.2,0.35-0.18c0.11,0.01,0.19,0.08,0.2,0.2C39.58,29.84,39.53,30.06,39.39,30.24L39.39,30.24z M40.04,29.56
				c-0.01-0.24-0.14-0.41-0.37-0.47c-0.11-0.03-0.23-0.04-0.35-0.03c-0.28,0.02-0.53,0.09-0.71,0.34c-0.15,0.21-0.21,0.45-0.22,0.71
				c-0.01,0.35,0.14,0.53,0.47,0.59c0.1,0.02,0.19,0.02,0.29,0.02c0.02,0.01,0.04-0.02,0.05-0.03c0.03-0.03,0.04,0,0.05,0.02
				c0.17-0.02,0.34-0.08,0.47-0.21C39.97,30.24,40.06,29.91,40.04,29.56L40.04,29.56z"/>
			<path class="st14" d="M40.13,32.41c-0.01,0.03-0.03,0.02-0.05,0.02c-0.07,0-0.13,0-0.2,0c-0.07,0-0.14,0-0.2,0
				c-0.04,0-0.05-0.02-0.03-0.05c0.05-0.17,0.25-0.27,0.4-0.2C40.1,32.22,40.15,32.34,40.13,32.41L40.13,32.41z M40.47,32.31
				c-0.02-0.19-0.12-0.31-0.29-0.36c-0.16-0.05-0.32-0.04-0.48,0.02c-0.38,0.12-0.52,0.52-0.5,0.88c0.02,0.22,0.12,0.34,0.32,0.38
				c0.15,0.03,0.29,0.03,0.44-0.01c0.18-0.05,0.33-0.16,0.41-0.35c0.02-0.05,0.02-0.06-0.04-0.06c-0.07,0-0.13,0.01-0.2,0
				c-0.08-0.01-0.12,0.01-0.17,0.09c-0.06,0.11-0.21,0.14-0.32,0.09c-0.08-0.04-0.11-0.12-0.1-0.24c0.01-0.05,0.02-0.06,0.06-0.06
				c0.13,0,0.25,0,0.38,0s0.26,0,0.38,0c0.05,0,0.06-0.02,0.07-0.05C40.47,32.52,40.48,32.41,40.47,32.31L40.47,32.31z"/>
		</g>
		<g>
			<g>
				<path class="st47" d="M7.79,30.53l1.81,0.05c-0.08,0.7-0.26,1.27-0.52,1.71c-0.26,0.45-0.63,0.8-1.09,1.05
					c-0.46,0.26-0.93,0.38-1.44,0.38c-0.55,0-1.06-0.15-1.53-0.45s-0.83-0.7-1.1-1.2c-0.27-0.51-0.41-1.05-0.41-1.65
					c0-0.57,0.14-1.1,0.42-1.6c0.28-0.5,0.66-0.9,1.12-1.2c0.47-0.3,0.97-0.45,1.49-0.45c0.51,0,0.97,0.12,1.39,0.34
					c0.42,0.23,0.77,0.55,1.05,0.97c0.28,0.41,0.48,0.88,0.59,1.41l-1.84,0.13c-0.26-0.61-0.66-0.91-1.19-0.91
					c-0.22,0-0.42,0.06-0.61,0.19c-0.19,0.13-0.34,0.29-0.44,0.49c-0.11,0.2-0.17,0.42-0.17,0.66s0.05,0.45,0.17,0.65
					c0.11,0.2,0.26,0.36,0.45,0.48c0.19,0.12,0.39,0.17,0.6,0.17c0.34,0,0.62-0.12,0.84-0.34C7.61,31.2,7.74,30.91,7.79,30.53z"/>
				<path class="st47" d="M13.31,27.32v1.77c-0.13-0.05-0.23-0.08-0.29-0.08c-0.13,0-0.24,0.05-0.34,0.16
					c-0.1,0.11-0.14,0.23-0.14,0.37c0,0.09,0.04,0.22,0.11,0.38c0.08,0.16,0.15,0.33,0.23,0.51c0.08,0.18,0.15,0.36,0.21,0.55
					c0.06,0.19,0.09,0.38,0.09,0.58c0,0.41-0.1,0.77-0.29,1.11c-0.19,0.34-0.45,0.59-0.78,0.78c-0.32,0.19-0.68,0.28-1.06,0.28
					c-0.24,0-0.5-0.07-0.78-0.2v-1.8c0.17,0.1,0.31,0.15,0.44,0.15s0.26-0.05,0.36-0.14c0.11-0.09,0.17-0.21,0.17-0.34
					c0-0.09-0.07-0.29-0.2-0.57c-0.14-0.28-0.24-0.52-0.32-0.74c-0.08-0.21-0.11-0.46-0.11-0.74c0-0.38,0.09-0.73,0.26-1.06
					c0.18-0.33,0.41-0.59,0.72-0.79c0.3-0.2,0.63-0.3,0.99-0.3C12.83,27.19,13.07,27.23,13.31,27.32z"/>
				<path class="st47" d="M17.51,29.76v1.4h-1.13c-0.14,0-0.24,0.02-0.32,0.05c-0.08,0.04-0.11,0.13-0.11,0.25
					c0,0.14,0.05,0.23,0.14,0.27c0.09,0.04,0.21,0.05,0.37,0.05h1.16v1.78H16.2c-0.58,0-1.03-0.16-1.36-0.47
					c-0.36-0.35-0.55-0.79-0.55-1.31v-2.75c0-0.3,0.08-0.59,0.23-0.84c0.16-0.26,0.36-0.47,0.62-0.63c0.26-0.16,0.52-0.23,0.8-0.23
					h1.67v1.79h-1.16c-0.26,0-0.39,0.1-0.39,0.31c0,0.21,0.14,0.32,0.43,0.32C16.49,29.76,17.51,29.76,17.51,29.76z"/>
			</g>
		</g>
		<g>
			<g>
				<path class="st47" d="M33.92,19.96v4.48h-1.81v-6.38h2.7c0.42,0,0.77,0.05,1.04,0.16c0.38,0.14,0.73,0.37,1.04,0.66
					s0.56,0.64,0.74,1.04c0.18,0.4,0.27,0.81,0.27,1.23c0,0.48-0.08,0.91-0.23,1.32c-0.16,0.41-0.38,0.76-0.66,1.05
					c-0.29,0.3-0.62,0.53-1,0.7c-0.38,0.16-0.8,0.25-1.24,0.25c-0.12,0-0.31-0.01-0.56-0.02v-1.88h0.46c0.39,0,0.73-0.12,1-0.35
					c0.27-0.23,0.41-0.55,0.41-0.97c0-0.24-0.06-0.46-0.17-0.66c-0.11-0.2-0.27-0.36-0.46-0.47c-0.19-0.11-0.4-0.17-0.63-0.17h-0.91
					V19.96z"/>
				<path class="st47" d="M40.62,18.06v6.38H38.8v-6.38H40.62z"/>
				<path class="st47" d="M46.12,18.06v4.21c0,0.31-0.05,0.62-0.16,0.9c-0.11,0.29-0.26,0.54-0.44,0.75
					c-0.19,0.21-0.41,0.38-0.68,0.51c-0.26,0.13-0.54,0.18-0.84,0.18c-0.41,0-0.79-0.1-1.13-0.3s-0.61-0.48-0.81-0.84
					c-0.2-0.36-0.29-0.76-0.29-1.19v-4.21h1.8v4.15c0,0.13,0.04,0.23,0.11,0.32c0.08,0.09,0.17,0.13,0.29,0.13
					c0.11,0,0.2-0.05,0.28-0.13c0.08-0.09,0.1-0.2,0.1-0.32v-4.14H46.12z"/>
			</g>
		</g>
		<g>
			<path class="st48" d="M24.18,29.06v-4.81c0.44,0,0.81-0.1,1.1-0.3c0.29-0.2,0.44-0.52,0.44-0.93c0-0.36-0.11-0.66-0.35-0.93
				c-0.23-0.26-0.52-0.39-0.86-0.39c-0.36,0-0.65,0.16-0.86,0.46c-0.21,0.3-0.32,0.66-0.32,1.08v12.12h-5.2V23.62
				c0-1.07,0.11-1.9,0.34-2.47c0.31-0.87,0.78-1.65,1.4-2.34c0.63-0.69,1.35-1.23,2.18-1.61c0.83-0.38,1.68-0.58,2.56-0.58
				c0.84,0,1.65,0.16,2.44,0.49c0.79,0.33,1.51,0.79,2.14,1.39s1.13,1.3,1.49,2.09c0.36,0.8,0.54,1.65,0.54,2.55
				c0,0.92-0.18,1.8-0.54,2.63c-0.35,0.83-0.87,1.52-1.55,2.09c-0.58,0.46-1.17,0.77-1.78,0.94c-0.61,0.16-1.33,0.24-2.16,0.24
				L24.18,29.06L24.18,29.06z"/>
		</g>
		<rect x="23.24" y="24.25" class="st48" width="0.98" height="4.81"/>
		<g>
			<g>
				<path class="st48" d="M17.55,25.19c-0.62-0.3-0.98-0.54-1.63-0.77c-0.05-0.02-0.11-0.05-0.13-0.09
					c-0.05-0.11-0.09-0.22-0.13-0.34c-0.02-0.07-0.05-0.14-0.13-0.17c-0.02-0.01-0.05-0.05-0.05-0.08c0.01-0.27-0.08-0.45,0.02-0.55
					c0.2-0.19,0.15-0.42,0.25-0.54s0.34-0.93,0.29-1.03c-0.05-0.1-0.21-0.05-0.17-0.11c0.15-0.2,0.2-0.6,0.19-0.93
					c0.03,0.06,0.05,0.13,0.05,0.2v0.07l0.97-0.67l-2.63-1.84l-2.63,1.83l0.24,0.16v0.37c-0.05,0.02-0.08,0.05-0.08,0.11
					c0,0.04,0.02,0.08,0.05,0.09l-0.21,1.28h0.53l-0.21-1.28c0.03-0.02,0.05-0.05,0.05-0.09c0-0.05-0.04-0.09-0.08-0.11v-0.33
					l0.67,0.47V20.8c0.01,0.07,0.02,0.13,0.03,0.21c0.05,0.24,0.15,0.23,0.23,0.51c0,0.01,0,0.01,0,0.02v0.02
					c-0.01,0.03-0.03,0.07-0.05,0.07c-0.1,0.03-0.1,0.09-0.08,0.16c0.01,0.05,0.08,0.43,0.13,0.56c0.03,0.1,0.1,0.2,0.11,0.3
					c0.04,0.2,0.11,0.38,0.26,0.54c0.02,0.02,0.05,0.07,0.04,0.1c-0.02,0.16-0.03,0.31-0.05,0.47c-0.01,0.03-0.04,0.08-0.07,0.08
					c-0.11,0.02-0.13,0.1-0.16,0.19c-0.04,0.11-0.08,0.21-0.12,0.32c-0.02,0.03-0.05,0.06-0.08,0.08c-0.2,0.08-0.41,0.16-0.61,0.23
					c-0.22,0.09-0.79,0.46-1,0.56c-0.13,0.06-0.05,0.56-0.05,0.56c2.48,0,3.81,0,6.29,0C17.59,25.77,17.68,25.24,17.55,25.19z"/>
			</g>
		</g>
		<rect x="3.52" y="25.52" class="st48" width="42.6" height="1.13"/>
		<g>
			<g>
				<g>
					<path class="st48" d="M10.03,23.12c-0.05-0.14-0.2-0.23-0.32-0.28l-0.44-0.2c0-0.33,0-1.95,0-2.12c0-0.27-0.03-0.5-0.1-0.71
						l0.54-0.2v0.51H9.68c-0.02,0-0.05,0.02-0.05,0.04l-0.05,0.44c0,0.02,0,0.02,0.01,0.04c0.01,0.01,0.02,0.02,0.03,0.02H10
						c0.02,0,0.02-0.01,0.03-0.02c0.01-0.01,0.02-0.02,0.01-0.04c-0.01-0.09-0.02-0.16-0.03-0.25L10,20.17
						c0-0.02-0.02-0.05-0.05-0.04H9.9v-0.58l0.02-0.01L10,19.52c0.05-0.02,0.09-0.07,0.09-0.13c0-0.06-0.04-0.11-0.09-0.13
						l-2.28-0.84c-0.03-0.01-0.06-0.01-0.09,0l-2.28,0.84c-0.05,0.02-0.09,0.07-0.09,0.13c0,0.06,0.04,0.11,0.09,0.13l0.82,0.3
						c-0.08,0.21-0.11,0.45-0.11,0.73v2.1l-0.43,0.2c-0.13,0.05-0.26,0.14-0.32,0.28c0,0-0.97,2.5-0.44,2.5h5.6
						C11,25.63,10.03,23.12,10.03,23.12z M8.55,22.91c0,0-0.73,0.25-0.87,1.11l0,0c-0.14-0.87-0.87-1.11-0.87-1.11l0.48-0.48
						c-0.68-0.3-0.86-1.36-0.86-1.36c-0.04-0.15-0.05-0.26-0.05-0.26c0.34-0.02,1.52-0.13,1.61-0.52c0.11,0.21,0.7,0.73,0.94,0.77
						c0,0-0.23,1.04-0.87,1.35L8.55,22.91z"/>
				</g>
			</g>
		</g>
		<g>
		</g>
		<g>
		</g>
		<g>
		</g>
		<g>
		</g>
		<g>
		</g>
		<g>
		</g>
	</g>
</g>
<g>
</g>
<g>
</g>
<g>
</g>
<g>
</g>
<g>
</g>
<g>
</g>
</svg>
